<svg xmlns="http://www.w3.org/2000/svg" viewBox="0 0 1024 1536">
  <path fill="#F4F4F4" d="M411.668 266.379c3.156 2.194 6.508 3.798 9.973 5.445 2.54 1.267 4.926 2.714 7.359 4.176 10.248 5.5 20.74 8.383 32 11l3.777.906c10.198 2.254 20.475 3.072 30.874 3.844 2.349.25 2.349.25 4.603.766 3.824.674 7.574.647 11.45.652l2.536.01c1.769.005 3.537.007 5.305.007 2.682.002 5.363.02 8.045.04 1.725.003 3.45.005 5.176.005l2.396.022c4.833-.02 9.178-.642 13.87-1.788 2.197-.518 4.313-.772 6.566-.878l2.236-.117 2.229-.094 2.333-.117c1.868-.093 3.736-.177 5.604-.258v-2l2.64-.48c8.312-1.628 15.702-3.921 23.36-7.52l2.957-1.375c6.592-3.18 12.787-6.841 18.938-10.793 5.784-3.412 10.277-5.229 17.043-5.02l3.464.083L639 263v2l2.75.125c4.932.674 9.032 3.103 13.383 5.402 2.745 1.471 2.745 1.471 5.242 2.403 3.647 1.487 7.04 3.382 10.5 5.257 7.327 3.925 14.747 7.535 22.309 10.979 2.993 1.375 5.964 2.798 8.941 4.209 7.04 3.317 14.193 6.358 21.38 9.341 5.032 2.117 9.773 4.484 14.513 7.19 2.361 1.303 4.762 2.299 7.294 3.219 2.472.9 4.441 1.69 6.547 3.273 2.828 2.116 5.913 3.57 9.078 5.102 6.91 3.396 13.748 6.918 20.563 10.5l2.844 1.494c2.219 1.168 4.438 2.336 6.656 3.506v2l2.688.75c3.464 1.307 5.506 2.875 8.312 5.25l2.238 1.324c12.674 7.69 23.17 17.943 30.762 30.676a321.623 321.623 0 0 0 4.438 5.75c5.627 7.213 10.864 14.682 16.107 22.176 2.218 3.162 4.46 6.307 6.705 9.449l1.238 1.734a1041.67 1041.67 0 0 0 7.637 10.516 245.009 245.009 0 0 1 7.563 11c3.344 5.08 6.958 9.885 10.687 14.688 5.505 7.1 10.556 14.402 15.466 21.921 5.285 8.054 10.86 15.753 17.038 23.153 3.28 4.04 6.176 8.326 9.121 12.613 4.687 6.715 9.659 13.064 14.979 19.28C957 542.16 957 542.16 957 545h2a104.413 104.413 0 0 1 4.375 5.938l2.707 3.87 1.44 2.074a669.65 669.65 0 0 0 4.49 6.34C979.845 574.19 987.339 585.276 994 597l1.266 2.04c1.545 2.488 2.681 4.715 3.297 7.585-.836 3.527-2.834 5.101-5.563 7.375h-2l-1 3c-1.574 1.254-1.574 1.254-3.688 2.563-4.932 3.143-9.65 6.532-14.35 10.01-3.205 2.329-6.202 4.155-9.962 5.427v2c-1.766 1.41-1.766 1.41-4.25 3.063-5.25 3.554-10.265 7.342-15.281 11.214C940 653 940 653 938 653v2l-4 1v2l-5 2v2c-1.688 1.297-1.688 1.297-4 2.75-3.954 2.536-7.682 5.242-11.371 8.148C912 674 912 674 910 674v2c-1.46 1.29-1.46 1.29-3.375 2.625l-1.898 1.352C903 681 903 681 901 681v2l-1.688.688c-2.46 1.258-2.46 1.258-4.542 3.562-2.973 2.951-6.089 5.502-9.395 8.063l-1.843 1.434C867.724 709 867.724 709 865 709l-1 3c-1.61 1.29-1.61 1.29-3.75 2.625-2.93 1.869-5.828 3.762-8.668 5.766l-1.765 1.243a840.01 840.01 0 0 0-3.474 2.47C842.22 727 842.22 727 840 727v2a151.994 151.994 0 0 1-7.375 5.063l-2.117 1.392c-5.754 3.768-9.474 5.429-16.508 4.545-2.491-1.066-3.92-2.186-6-4v-2l-1.813-.313c-2.502-.786-3.4-1.822-5.187-3.687l-3-1c.37 11.727.743 23.454 1.122 35.18.175 5.446.35 10.891.52 16.337.166 5.259.335 10.517.507 15.775.064 2.003.128 4.006.19 6.01.087 2.812.179 5.624.272 8.436l.074 2.492c.122 3.541.34 6.958.816 10.475.815 6.058.765 12.172.872 18.274l.084 4.223c.076 3.817.147 7.633.217 11.45.075 4.044.155 8.089.235 12.133.15 7.704.298 15.407.443 23.11.177 9.437.36 18.872.543 28.308l.048 2.523a635481.655 635481.655 0 0 0 .481 24.906c.318 16.57.647 33.14 1.043 49.708.694 29.05 1.156 58.105 1.596 87.16l.033 2.2c.67 44.202 1.12 88.4 1.15 132.608.004 3.81.011 7.62.02 11.429.011 5.933.012 11.867.003 17.8-.002 2.162-.001 4.324.003 6.485.005 2.936-.002 5.871-.013 8.807l.012 2.575-.017 2.386-.002 2.04c-.335 2.884-1.272 5.446-2.252 8.17-91.857.551-183.714.967-402.94 1.123-13.174.001-26.348.004-39.523.009a98813.354 98813.354 0 0 1-63.665.002c-6.298-.001-12.596 0-18.894.002-7.57.003-15.138.002-22.707-.003-3.833-.003-7.667-.004-11.5 0-4.133.003-8.266-.001-12.398-.006l-3.664.007-3.33-.008h-2.877c-2.343-.118-4.294-.337-6.502-1.126-1.695-3.39-1.253-7.252-1.327-10.986l-.066-2.831c-.07-3.127-.13-6.254-.189-9.38l-.065-3.297c-.485-25.226-.33-50.44-.083-75.668.06-6.317.113-12.635.166-18.953.091-10.567.188-21.134.288-31.702.102-10.788.2-21.576.291-32.365.112-13.167.227-26.334.347-39.5.045-4.973.089-9.944.131-14.916.412-47.526.412-47.526 1.405-68.027.17-3.983.245-7.967.313-11.953a475485703.553 475485703.553 0 0 1 .12-7.133c.41-23.853 1.24-47.694 2.067-71.535.102-2.931.202-5.862.301-8.792.16-4.68.323-9.361.489-14.041.061-1.744.122-3.488.181-5.232.083-2.425.17-4.85.258-7.276l.07-2.098c.144-3.87.421-7.703.796-11.557.575-6.095.801-12.18.988-18.298l.118-3.64c.106-3.258.209-6.515.31-9.773.107-3.418.218-6.835.328-10.253.208-6.456.413-12.912.617-19.368.232-7.357.467-14.714.703-22.07.485-15.119.966-30.237 1.443-45.356h-2l-.113 2.492c-.491 8.336-1.16 16.417-5.887 23.508h-2l-.875 1.875C216 734 216 734 214 736c-4.917.492-7.098.483-11.5-1.875L200 732v-2l-4-1v-2l-1.617-.703c-3.104-1.69-5.763-3.841-8.508-6.047a6404.05 6404.05 0 0 0-3.77-2.992c-.665-.53-1.331-1.06-2.018-1.605-9.704-7.686-19.518-15.239-29.337-22.778l-2.093-1.613c-2.987-2.287-5.964-4.488-9.141-6.504L137 683v-2l-2.137-.73c-3.315-1.47-5.817-3.354-8.675-5.582-3.56-2.738-7.08-5.328-10.938-7.625L112 665v-2l-2.188-.75c-3.08-1.37-5.218-3.11-7.812-5.25a435.332 435.332 0 0 0-5-3c-2.767-1.75-5.524-3.515-8.281-5.281a122.36 122.36 0 0 0-5.563-3.313L81 644v-2l-2.125-.813c-3.04-1.255-5.948-2.69-8.875-4.187v-2l-2.055-.715c-3.636-1.587-6.776-3.653-10.07-5.847-4.698-3.173-4.698-3.173-9.875-5.438v-2l-2.688-.813C42.21 619.076 39.69 617.899 37 616v-2l-2.688-.75c-3.569-1.347-5.727-2.437-8.312-5.25-.688-3.313-.688-3.313 0-7 1.316-1.886 2.782-3.474 4.371-5.137 1.69-1.933 2.729-3.762 3.879-6.05 3.55-6.74 8.816-12.956 14.247-18.28 2.502-2.551 4.482-5.515 6.566-8.408 3.656-5.038 7.366-10.023 11.187-14.938 4.093-5.282 7.98-10.67 11.75-16.187 1.811-2.647 3.624-5.292 5.438-7.938l1.431-2.093a389.407 389.407 0 0 1 8.506-11.907c2.213-3.004 4.167-5.934 5.875-9.25 3.62-6.846 8.675-12.82 13.352-18.961 4.808-6.365 9.14-12.992 13.386-19.738 2.872-4.443 5.882-8.787 8.894-13.137 2.755-3.982 5.46-7.99 8.118-12.038 4.343-6.551 9.011-12.85 13.688-19.165a1468.14 1468.14 0 0 0 5.75-7.836l1.91-2.617a135.64 135.64 0 0 0 4.027-6.007L170 399h2l.777-2.21c1.284-2.928 2.752-4.958 4.786-7.415l2.171-2.645L182 384l4.313-5.313c1.56-1.898 3.122-3.793 4.687-5.687l1.406-1.705c1.464-1.77 2.934-3.533 4.406-5.295l1.383-1.673c2.378-2.83 4.655-5.36 7.805-7.327h2l.781-1.793c6.836-12.378 25.884-20.731 38.156-26.582l2.262-1.086C254.633 325 254.633 325 258 325v-2l2.273-.918c5.922-2.424 11.685-5.002 17.387-7.902 6.997-3.528 14.222-6.32 21.58-8.986 3.144-1.152 6.07-2.352 9.06-3.878C311 300 311 300 314 300v-2l1.614-.623c10.004-3.883 19.829-7.858 29.343-12.834 3.3-1.673 6.634-3.107 10.043-4.543 3.408-1.63 6.712-3.394 10-5.25 32.919-18.412 32.919-18.412 46.668-8.371Z"/>
  <path fill="#ECECEC" d="m208 356 2 1v3c1.652 2.052 1.652 2.052 3.867 4.125l2.434 2.39 2.574 2.485c1.666 1.623 3.33 3.248 4.992 4.875l2.254 2.18C228 378 228 378 230 381c1.204-3.754 1.099-7.332 1.063-11.25l-.028-3.828L231 363l3-1v22h-2l1.895 1.662c6.137 6.818 5.768 18.985 6.292 27.713l.242 3.74c.555 9.463.755 18.908.758 28.385l.003 3.865c-.03 5.041-.122 9.7-1.19 14.635a100.047 100.047 0 0 0 0 5c.064 2.548.044 4.785-.469 7.285-.724 3.7-.868 7.394-1.031 11.152l-.12 2.68c-1.165 27.488-2.031 55.072-1.048 82.574.57 16.481 1.077 32.459-1.21 48.837-1.553 11.428-1.35 22.8-1.056 34.308C235 658 235 658 234 659c-.236 1.786-.414 3.58-.563 5.375l-.253 2.96c-.197 2.85-.184 5.658-.149 8.513l.028 3.215.035 3.222C233 685 233 685 232 687c-.701 9.239.437 18.769 1 28h-2l.016 1.972c.02 2.947.034 5.894.047 8.84l.025 3.104.01 2.979.016 2.745C231 737 231 737 230 740c-.217 1.99-.39 3.984-.535 5.98l-.264 3.526-.263 3.682-.276 3.716c-.224 3.032-.445 6.064-.662 9.096h-1c-.133-20.696.155-41.32 1-62h-2l-.113 2.492c-.491 8.336-1.16 16.417-5.887 23.508h-2l-.875 1.875C216 734 216 734 214 736c-4.917.492-7.098.483-11.5-1.875L200 732v-2l-4-1v-2l-1.617-.703c-3.104-1.69-5.763-3.841-8.508-6.047a6404.05 6404.05 0 0 0-3.77-2.992c-.665-.53-1.331-1.06-2.018-1.605-9.704-7.686-19.518-15.239-29.337-22.778l-2.093-1.613c-2.987-2.287-5.964-4.488-9.141-6.504L137 683v-2l-2.137-.73c-3.315-1.47-5.817-3.354-8.675-5.582-3.56-2.738-7.08-5.328-10.938-7.625L112 665v-2l-2.188-.75c-3.08-1.37-5.218-3.11-7.812-5.25a435.332 435.332 0 0 0-5-3c-2.767-1.75-5.524-3.515-8.281-5.281a122.36 122.36 0 0 0-5.563-3.313L81 644v-2l-2.125-.813c-3.04-1.255-5.948-2.69-8.875-4.187v-2l-2.055-.715c-3.636-1.587-6.776-3.653-10.07-5.847-4.698-3.173-4.698-3.173-9.875-5.438v-2l-2.688-.813C42.21 619.076 39.69 617.899 37 616v-2l-2.688-.75c-3.569-1.347-5.727-2.437-8.312-5.25-.688-3.313-.688-3.313 0-7 1.316-1.886 2.782-3.474 4.371-5.137 1.69-1.933 2.729-3.762 3.879-6.05 3.55-6.74 8.816-12.956 14.247-18.28 2.502-2.551 4.482-5.515 6.566-8.408 3.656-5.038 7.366-10.023 11.187-14.938 4.093-5.282 7.98-10.67 11.75-16.187 1.811-2.647 3.624-5.292 5.438-7.938l1.431-2.093a389.407 389.407 0 0 1 8.506-11.907c2.213-3.004 4.167-5.934 5.875-9.25 3.62-6.846 8.675-12.82 13.352-18.961 4.808-6.365 9.14-12.992 13.386-19.738 2.872-4.443 5.882-8.787 8.894-13.137 2.755-3.982 5.46-7.99 8.118-12.038 4.343-6.551 9.011-12.85 13.688-19.165a1468.14 1468.14 0 0 0 5.75-7.836l1.91-2.617a135.64 135.64 0 0 0 4.027-6.007L170 399h2l.777-2.21c1.284-2.928 2.752-4.958 4.786-7.415l2.171-2.645L182 384l4.313-5.313A7873.63 7873.63 0 0 1 191 373l1.374-1.688c1.43-1.757 2.87-3.504 4.314-5.25l1.33-1.647c3.02-3.625 5.998-5.994 9.982-8.415Z"/>
  <path fill="#CCC" d="M218 1016h1c10.257 84.715.557 178.945 0 262l587-1v-69l1-5h1c.046 9.154.082 18.307.104 27.46.01 4.252.024 8.502.047 12.753.022 4.104.034 8.208.039 12.313.003 1.563.01 3.127.021 4.69.015 2.196.017 4.39.016 6.585l.014 3.782c-.245 3.47-1.088 6.154-2.241 9.417-91.857.551-183.714.967-402.94 1.123-13.174.001-26.348.004-39.523.009a98813.354 98813.354 0 0 1-60.934.002h-2.731c-6.298-.001-12.596 0-18.894.002-7.57.003-15.138.002-22.707-.003-3.833-.003-7.667-.004-11.5 0-4.133.003-8.266-.001-12.398-.006l-3.664.007-3.33-.008h-2.877c-2.343-.118-4.294-.337-6.502-1.126-1.668-3.336-1.254-7.09-1.33-10.763l-.066-2.778c-.07-3.086-.131-6.173-.19-9.26l-.065-3.268c-.517-26.676-.3-53.343-.034-80.02.069-6.91.13-13.818.19-20.726.401-45.73.902-91.458 1.495-137.185Z"/>
  <path fill="#D0D0D0" d="M224 828h2c.197 3.937.38 7.875.563 11.813l.17 3.392.146 3.252.143 3C227 852 227 852 226 855a73.19 73.19 0 0 0-.316 4.012l-.127 2.295-.12 2.38-.13 2.417c-.106 1.965-.207 3.93-.307 5.896l2 1-.99 1.586c-1.315 3.143-1.219 5.64-1.17 9.043l.033 3.885c.02 1.35.042 2.699.065 4.048.036 2.648.064 5.295.09 7.942l.054 3.557C225 906 225 906 224 909c-.072 2.26-.084 4.523-.063 6.785l.012 1.99c.012 2.096.03 4.192.051 6.288.027 2.761.047 5.523.063 8.285l.035 3.719C224 939 224 939 223 941a117.979 117.979 0 0 0-.063 5.777l.024 3.494.078 7.32.024 3.499.035 3.214C223 967 223 967 222 970a84.148 84.148 0 0 0-.063 4.816l.024 2.815.039 2.932c.025 1.917.047 3.835.063 5.753l.035 2.577C222 991 222 991 221 993c-.23 2.204-.41 4.414-.563 6.625l-.253 3.602L220 1006h-1c-.256-41.465.975-82.864 2.399-124.3l.3-8.817c.16-4.686.323-9.372.489-14.058.061-1.747.122-3.494.181-5.241.292-8.561.628-17.07 1.631-25.584Z"/>
  <path fill="#DCDDDD" d="M69 544h3c-1.721 3.892-4.22 7.171-6.75 10.563l-2.98 4.027-1.603 2.16c-1.726 2.33-3.442 4.666-5.155 7.004-5.267 7.18-10.544 14.342-16.012 21.371-6.774 8.35-6.774 8.35-11.5 17.875l2.103.746c3.362 1.455 6.206 3.287 9.256 5.317l1.788 1.187c1.238.825 2.475 1.652 3.71 2.481 1.897 1.271 3.799 2.532 5.702 3.792l3.613 2.414 3.315 2.215C60 627 60 627 61 629c-4.827-1.413-8.716-3.43-13-6v-2l-2.688-.813C42.21 619.076 39.69 617.899 37 616v-2l-2.688-.75c-3.569-1.347-5.727-2.437-8.312-5.25-.688-3.313-.688-3.313 0-7 1.316-1.886 2.782-3.474 4.371-5.137 1.69-1.933 2.729-3.762 3.879-6.05 3.549-6.739 8.813-12.954 14.243-18.276 1.472-1.5 2.69-3.026 3.925-4.725l1.352-1.853L55.187 563l1.47-2.008a481.437 481.437 0 0 0 6.738-9.426l2.105-3.004 1.844-2.683L69 544Z"/>
  <path fill="#C7C7C8" d="M807 1203h1c.046 9.154.082 18.307.104 27.46.01 4.252.024 8.502.047 12.753.022 4.104.034 8.208.039 12.313.003 1.563.01 3.127.021 4.69.015 2.196.017 4.39.016 6.585l.014 3.782c-.244 3.458-.996 6.195-2.241 9.417-10.125.03-20.25.051-30.375.063l-2.282.002c-28.125.028-56.226-.333-84.343-1.065v-1l117-1c-.04-22.483-.04-22.483-.09-44.966-.005-4.357-.005-4.357-.005-6.4-.002-1.42-.005-2.84-.01-4.261-.008-2.157-.009-4.314-.009-6.471l-.006-3.681A40.85 40.85 0 0 1 807 1203Z"/>
  <path fill="#B4B4B4" d="M633 294c1 2 1 2 .285 4.73-3.058 8.646-6.884 16.496-11.331 24.503-1.417 2.625-2.676 5.322-3.954 8.017-7.179 14.338-18.932 27.79-33 35.75 1.25-3.75 2.9-4.622 6-7l2.188-2.25C595 356 595 356 597 356l.188-2.313c1.086-3.592 2.603-3.864 5.812-5.687 2.717-2.724 4.769-5.306 6-9h2l.875-2.188L615 329h2c1.755-4.93 1.755-4.93 3-10l-1-2c.707-2.348.707-2.348 1.813-5.063l1.082-2.722C623 307 623 307 625 306a78.037 78.037 0 0 0 2-5h3l.938-2.938C632 295 632 295 633 294Zm-19 27 3 1-2 2-1-3Z"/>
  <path fill="#D1D1D1" d="M230 688h1c.364 3.937.715 7.874 1.063 11.813l.314 3.392.283 3.252.27 3C233 712 233 712 232 715h-1l.016 1.972c.02 2.947.034 5.894.047 8.84l.025 3.104.01 2.979.016 2.745C231 737 231 737 230 740c-.217 1.99-.39 3.984-.535 5.98l-.264 3.526-.263 3.682-.276 3.716c-.224 3.032-.445 6.064-.662 9.096h-1c-.136-21.027.175-41.989 1-63l-4 1v-2l2-1-.625-1.688c-.63-3.884 1.05-6.462 3.188-9.625L230 688Z"/>
  <path fill="#CDCDCE" d="M218 1016h1c1.31 10.345 1.127 20.7 1.098 31.105l-.005 5.805c-.003 5.058-.013 10.117-.024 15.175-.01 5.176-.015 10.351-.02 15.526-.01 10.13-.028 20.26-.049 30.389-3.78-6.048-3.137-13.918-3.022-20.803l.03-2.545c.032-2.749.073-5.497.113-8.246l.072-5.75c.062-5.024.131-10.048.202-15.072.07-5.134.135-10.27.2-15.404.13-10.06.265-20.12.405-30.18Z"/>
  <path fill="#D8D8D8" d="M239 423h1c.97 7.785 1.152 15.473 1.125 23.313l.012 3.494-.004 3.369-.004 3.028c-.125 2.704-.558 5.156-1.129 7.796a100.047 100.047 0 0 0 0 5c.064 2.542.046 4.776-.469 7.27-.737 3.786-.866 7.573-1.031 11.418l-.12 2.655c-.63 14.545-.984 29.103-1.38 43.657h-1c-.023-7.493-.04-14.986-.052-22.48-.005-3.479-.012-6.958-.023-10.438-.013-4.001-.018-8.003-.023-12.004l-.015-3.782v-3.518l-.007-3.095c.108-2.42.51-4.358 1.12-6.683.138-1.648.233-3.3.297-4.952l.121-2.972.117-3.185.13-3.279c.137-3.454.267-6.908.398-10.362.09-2.342.183-4.685.275-7.027.225-5.741.445-11.482.662-17.223ZM807 1203h1c.046 9.154.082 18.307.104 27.46.01 4.252.024 8.502.047 12.753.022 4.104.034 8.208.039 12.313.003 1.563.01 3.127.021 4.69.015 2.196.017 4.39.016 6.585l.014 3.782c-.244 3.458-.996 6.195-2.241 9.417-12.67.185-12.67.185-18-1v-1l18-1-.016-6.255c-.016-6.825-.027-13.65-.036-20.475a8385.04 8385.04 0 0 0-.023-12.413c-.011-3.994-.017-7.988-.02-11.982-.002-1.523-.005-3.045-.01-4.568-.008-2.135-.009-4.27-.009-6.405l-.006-3.681A40.85 40.85 0 0 1 807 1203Z"/>
  <path fill="#DDD" d="M69 544h3c-1.721 3.892-4.22 7.171-6.75 10.563l-2.953 3.988-1.6 2.155c-1.82 2.46-3.626 4.929-5.431 7.4l-1.896 2.59c-1.23 1.68-2.459 3.361-3.685 5.044l-1.716 2.338-1.518 2.075C43.51 583.897 41.823 585.348 37 586c8.797-11.817 8.797-11.817 11.462-14.438 1.486-1.509 2.713-3.038 3.956-4.75l1.352-1.853L55.187 563l1.47-2.008a481.437 481.437 0 0 0 6.738-9.426l2.105-3.004 1.844-2.683L69 544Z"/>
  <path fill="#D1D1D2" d="M220 936h2c.168 4.36.328 8.72.482 13.08.054 1.483.109 2.966.166 4.45.082 2.131.157 4.263.23 6.396l.144 3.888C223 967 223 967 222 970a84.148 84.148 0 0 0-.063 4.816l.024 2.815.039 2.932c.025 1.917.047 3.835.063 5.753l.035 2.577C222 991 222 991 221 993c-.23 2.204-.41 4.414-.563 6.625l-.253 3.602L220 1006h-1c-.134-23.356.16-46.658 1-70Z"/>
  <path fill="#D7D8D8" d="M223 891h1c.195 2.437.381 4.874.563 7.313l.17 2.091c.233 3.221.3 5.5-.733 8.596-.06 2.26-.06 4.524-.027 6.785l.037 4.045c.025 2.122.053 4.244.086 6.367.03 2.05.048 4.1.064 6.15l.051 3.72C224 939 224 939 222 941v-5h-2c.094-5.766.2-11.532.317-17.297.039-1.962.074-3.923.105-5.884.046-2.82.104-5.64.164-8.46l.035-2.655.06-2.486.04-2.18c.32-2.34 1.125-3.993 2.279-6.038Z"/>
  <path fill="#E1E1E1" d="M144 439c0 3.338-.554 4.261-2.313 7l-1.3 2.063C139 450 139 450 137.539 451.43c-1.996 2.036-3.35 4.273-4.851 6.695l-1.848 2.938L129 464a526.266 526.266 0 0 1-3.25 5.125l-1.39 2.195C123 473 123 473 120 474a280.14 280.14 0 0 0-1 4l-3 2c.29-4.65 2.503-7.2 5.27-10.715 1.83-2.416 3.437-4.902 5.043-7.473a451.167 451.167 0 0 1 8.312-12.75l2.164-3.214c2.174-2.8 4.355-4.769 7.211-6.848Z"/>
  <path fill="#D9DAD9" d="m846 721 3 1a466.06 466.06 0 0 1-3.375 2.5l-1.898 1.406C842 727 842 727 840 727v2a151.994 151.994 0 0 1-7.375 5.063l-2.117 1.392c-5.754 3.768-9.474 5.429-16.508 4.545-2.491-1.066-3.92-2.186-6-4v-2l-1.688-.188c-3.257-1.144-4.962-3.338-7.312-5.812l-2-1 1-2c12 9 12 9 14.137 10.754 2.825 1.89 4.98 1.907 8.316 1.781 6.463-1.358 11.684-6.087 16.809-10.039l1.637-1.256a371.467 371.467 0 0 0 4.57-3.615L846 721Z"/>
  <path fill="#EAEAE9" d="M515 362h5v2h-3v2l3-1 1-3h5v9c-3.43 1.715-7.217 1.054-11 1v-10Z"/>
  <path fill="#C6C6C6" d="M633 294c1 2 1 2 .18 5.188a306.838 306.838 0 0 1-1.305 3.812l-.61 1.945c-1.14 3.282-1.718 4.79-4.91 6.336L624 312a106.103 106.103 0 0 0-1 5c-2.063 1.313-2.063 1.313-4 2 2.111-9.05 2.111-9.05 4-12l2-1a78.037 78.037 0 0 0 2-5h3l.938-2.938C632 295 632 295 633 294Zm-19 27 3 1-2 2-1-3Z"/>
  <path fill="#D4D5D4" d="M233 362c1.2 2.4 1.115 3.894 1.098 6.57l-.01 2.715-.025 2.84-.014 2.863c-.012 2.338-.028 4.675-.049 7.012h-2c-1.327-6.968-1.088-13.93-1-21l2-1Zm-4 21c3.399 1.133 4.734 2.265 7 5v4l-5 2-2-11Z"/>
  <path fill="#DADADA" d="M219 1062h1v52c-2.862-5.724-3.24-10.587-2.555-16.828.694-7.11.9-14.222 1.118-21.36l.13-4.04c.105-3.258.208-6.515.307-9.772Z"/>
  <path fill="#D0D0D0" d="M113 664c4.081.593 6.952 2.869 10.188 5.25l1.807 1.313c5.145 3.758 10.239 7.588 15.317 11.437l2.265 1.708 2.099 1.605 1.872 1.425C148 688 148 688 149 690c-4.49-1.497-8.478-3.834-12-7v-2l-2.133-.73c-3.326-1.473-5.864-3.359-8.742-5.582-3.422-2.624-6.836-5.225-10.375-7.688l-2.75-2v-1Z"/>
  <path fill="#C7C9C9" d="M230 688h1c.027 1.73.047 3.458.063 5.188l.035 2.917c-.093 2.75-.477 5.22-1.098 7.895h-6v-2l2-1-.625-1.688c-.63-3.884 1.05-6.462 3.188-9.625L230 688Z"/>
  <path fill="#E0E0E0" d="m208 356 2 1v3c1.652 2.052 1.652 2.052 3.867 4.125l2.434 2.39 2.574 2.485c1.666 1.623 3.33 3.248 4.992 4.875l2.254 2.18C228 378 228 378 230 381h2l-1 3-4-2v-2h-2c-1.34-1.582-1.34-1.582-2.938-3.813-3.845-5.16-8.284-9.36-13-13.707C207 360 207 360 207.188 357.676L208 356Z"/>
  <path fill="#CBCBCB" d="M36 612c5.849 2.776 11.13 5.925 16.438 9.625l2.177 1.484c5.256 3.633 5.256 3.633 6.385 5.891-4.827-1.413-8.716-3.43-13-6v-2l-2.688-.813c-3.14-1.125-5.637-2.2-8.312-4.187-.637-2.102-.637-2.102-1-4Z"/>
  <path fill="#D7D7D8" d="m990 613 2 1c-3.297 3.543-6.933 6.238-10.875 9-.6.425-1.199.85-1.816 1.29A430.77 430.77 0 0 1 968 632l-2-1a5561.49 5561.49 0 0 1 8.625-6.75l2.45-1.922c4.21-3.287 8.426-6.445 12.925-9.328Z"/>
  <path fill="#DDDDDE" d="M224 828h2c.226 3.937.428 7.874.625 11.813l.195 3.392.157 3.252.158 3C227 852 227 852 225 855l-1-5h-1c-.115-7.41.088-14.642 1-22Z"/>
  <path fill="#DFDFDF" d="M170 400h1c.438 3.495.128 4.808-1.863 7.79l-2.45 2.835-2.425 2.852c-1.708 1.905-3.421 3.748-5.262 5.523 0-4.512.667-5.416 3.25-8.938l1.93-2.644c4.024-5.346 4.024-5.346 5.82-7.418Z"/>
  <path fill="#D8D7D7" d="M86 645c4.308 1.566 8.062 3.683 12 6v2l2.2.773c2.955 1.295 5.106 2.832 7.612 4.852l2.395 1.914L112 662l-2 1-1.574-1.207-2.114-1.606-2.074-1.582c-2.345-1.682-4.75-3.144-7.238-4.605a675.921 675.921 0 0 1-5.813-3.563l-2.957-1.816L86 647v-2Z"/>
  <path fill="#DEDFDF" d="M221 919h2c.225 3.29.427 6.582.625 9.875l.195 2.84.157 2.715.158 2.507C224 939 224 939 222 941v-5h-2a962.516 962.516 0 0 1-.063-5.688l-.035-3.199c.09-2.837.449-5.357 1.098-8.113Z"/>
  <path fill="#EAEBEB" d="M607 273c2.063.438 2.063.438 4 1v2c-2.434 1.174-4.872 2.34-7.313 3.5l-2.091 1.012C596.34 283 596.34 283 593 283c1-3 1-3 3.688-4.57l3.312-1.555c3.748-1.56 3.748-1.56 7-3.875Z"/>
  <path fill="#757473" d="m507 362 6 1v8h-6v-9Z"/>
  <path fill="#D2D2D2" d="m601 349 2 1c-3.576 7.911-10.83 12.562-18 17 1.25-3.75 2.9-4.622 6-7l2.188-2.25C595 356 595 356 597 356l.313-2.375C598 351 598 351 601 349Z"/>
  <path fill="#4B4B4B" d="M500 346c2.293 1.104 4.338 2.234 6.438 3.688 2.444 1.51 2.444 1.51 5 1.25 3.23-1.182 5.78-2.933 8.562-4.938l2 1-1.863 1.426-2.45 1.887-2.425 1.863A53.217 53.217 0 0 0 510 357l-2.188-2.813c-2.302-2.795-4.66-4.386-7.812-6.187v-2Z"/>
  <path fill="#E6E6E6" d="M231 697h1l1 18h-3l-1-5h-1v-6h2l1-7Z"/>
  <path fill="#D3D4D4" d="M162 700c4.44 2.096 8.15 4.938 12.063 7.875l2.181 1.605 2.104 1.575 1.906 1.421c1.91 1.667 3.296 3.453 4.746 5.524-4.409-1.44-7.504-3.86-10.938-6.875-3.032-2.637-6.041-5.167-9.44-7.32L162 702v-2Z"/>
  <path fill="#E0E0E2" d="m204 359 2 2-9 11-3-1c1.347-2.934 2.886-5.25 5-7.688l1.563-1.824C202 360 202 360 204 359Z"/>
  <path fill="#EEEDED" d="m511 360 10 1-1 6-3-1v-2h3v-2h-5v8l-2 1v-8l-3 1 1-4Z"/>
  <path fill="#D2D2D1" d="M186 719c4.805 1.515 7.97 4.242 11.688 7.5l1.76 1.512C201.695 729.95 203.9 731.9 206 734l-5-1-1-3c-2.015-.733-2.015-.733-4-1v-2l-1.625-.688c-3.178-1.756-5.656-3.902-8.375-6.312v-1Z"/>
  <path fill="#E3E2E3" d="m192 374 1 3c-1.328 2.043-1.328 2.043-3.25 4.188l-1.89 2.167C186 385 186 385 183 385c.537-3.851 2.116-5.318 5.063-7.75l2.222-1.86L192 374Z"/>
  <path fill="#DADADA" d="M83 527c0 3.96-1.434 5.388-3.75 8.563l-2.11 2.94c-2.006 2.341-3.302 3.417-6.14 4.497 8.22-14.11 8.22-14.11 12-16Z"/>
  <path fill="#D8D8D8" d="m237 368 2 1c.222 2.916.428 5.832.625 8.75l.195 2.5.157 2.422.158 2.222c-.157 2.454-.912 3.995-2.135 6.106-.365-3.27-.715-6.54-1.063-9.813l-.314-2.814-.283-2.705-.27-2.491C236 371 236 371 237 368Z"/>
  <path fill="#CCC" d="M223 713h2c-.568 5.451-1.825 9.953-4 15l-2 1c2.182-14.182 2.182-14.182 4-16Z"/>
  <path fill="#6A6968" d="M521 362h5v9h-5v-9Z"/>
  <path fill="#7A7A7A" d="m528 362 4 1v8h-4v-9Z"/>
  <path fill="#DDD" d="M182 387c-.617 3.384-1.87 5.52-3.938 8.25l-1.59 2.14c-.485.532-.971 1.063-1.472 1.61h-2c.273-4.5 3.855-12 9-12Z"/>
  <path fill="#E4E5E5" d="M228 771c2 2 2 2 2.266 4.102-.035 5.642-.662 10.484-2.266 15.898h-1c-.114-6.766.12-13.288 1-20Z"/>
  <path fill="#CDCDCD" d="M797 725c6.174 3.153 10.948 7.28 16 12l-2 1-3-2v-2l-1.688-.188c-3.257-1.144-4.962-3.338-7.312-5.812l-2-1v-2Z"/>
  <path fill="#DEDEDE" d="M94 509h2l-1 4h-2l-.313 2.313c-.734 2.871-1.359 3.917-3.687 5.687h-2c1.497-4.49 3.834-8.478 7-12Z"/>
  <path fill="#C9C9C9" d="M231 385c2.5 1.25 2.5 1.25 5 3v4l-5 2c-1.125-6.75-1.125-6.75 0-9Z"/>
  <path fill="#BDBDBE" d="m609 339 2 1c-.593 3.392-1.767 5.21-4.063 7.75l-1.66 1.86L604 351l-2-1 1.813-2.688A188.2 188.2 0 0 0 609 339Z"/>
  <path fill="#E1E1E1" d="M69 544h3c-1.558 3.824-3.916 6.292-7 9h-3c1.092-1.509 2.2-3.007 3.313-4.5l1.863-2.531L69 544Z"/>
  <path fill="#6A6A69" d="M515 362h5v2h-3v2l2 1h-2v3l2 1h-4v-9Z"/>
  <path fill="#DCDCDC" d="M862 710v3c-2.082 1.86-2.082 1.86-4.813 3.75l-2.707 1.922L852 720l-3-1 13-9Z"/>
  <path fill="#E3E3E3" d="m990 613 2 1c-5.09 5.273-5.09 5.273-8 7l-4-1 10-7Z"/>
  <path fill="#E6E7E6" d="m637 263-2 1v5l-2-2c-2.584-.167-2.584-.167-5 0v-3c2.957-1.478 5.742-1.06 9-1Z"/>
  <path fill="#CED0CF" d="M113 664c3.447.64 5.846 1.997 8.75 3.938l2.422 1.59L126 671v2c-3.088-1.466-5.905-3.17-8.75-5.063l-2.422-1.597L113 665v-1Z"/>
  <path fill="#E3E2E2" d="m616 312 3 3c-3 2-3 2-7 2l-1-3 5-2Z"/>
  <path fill="#C7C7C7" d="M174 709c4.785 2.485 7.86 4.48 11 9-4.601-1.489-7.502-3.746-11-7v-2Z"/>
  <path fill="#DFDFE0" d="M104 496c0 3.396-.522 4.066-2.5 6.688l-1.406 1.886L99 506c-.648-1.832-.648-1.832-1-4 2.375-2.688 2.375-2.688 5-5l1-1Z"/>
  <path fill="#ACABAB" d="m626 311 1 2c-.996 2.164-.996 2.164-2.438 4.625l-1.433 2.477L622 322c-1-3-1-3 .313-6.625C624 312 624 312 626 311Z"/>
  <path fill="#DCDDDD" d="M230 699h1v10l-3 1v-6h2v-5Z"/>
  <path fill="#CFD0D0" d="M224 509c3 3 3 3 3.188 6.188L227 518l-3 1v-10Z"/>
  <path fill="#DDD" d="M150 430c0 3 0 3-2.5 5.688L145 438l-1-3 6-5Z"/>
  <path fill="#E4E5E5" d="m796 725 1 2 3 1-2 1v5h-2v-9Z"/>
  <path fill="#C7C8C8" d="M102 656c4.435 1.394 6.874 3.606 10 7-4.435-1.394-6.874-3.606-10-7Z"/>
  <path fill="#D5D5D5" d="M29 608c4.75 1.875 4.75 1.875 7 3l-1 3a125.024 125.024 0 0 1-6-4v-2Z"/>
  <path fill="#DBDBDB" d="M110 488v3h-2l-1 4-3-1c2.625-4.875 2.625-4.875 6-6Z"/>
  <path fill="#DCDDDC" d="M126 672c6.429 4.143 6.429 4.143 9 7-4.316 0-5.928-2.133-9-5v-2Z"/>
  <path fill="#CAC9CA" d="m601 349 2 1c-.813 1.938-.813 1.938-2 4l-3 1v-4l3-2Z"/>
</svg>