<svg xmlns="http://www.w3.org/2000/svg" viewBox="0 0 1024 1536">
  <path fill="#F5F5F5" d="M410 269a387.73 387.73 0 0 0 6 3v2l1.646.535a344 344 0 0 1 14.19 5.015c12.322 4.649 24.249 8.478 37.398 10.055C472 290 472 290 474 291c3.32.36 6.664.431 10 .563l3.171.126c19.269.681 38.629.712 57.892-.127l2.756-.118c3.91.155 3.91.155 7.181-1.444 2.581-.498 5.156-.95 7.75-1.375 14.993-2.516 14.993-2.516 29.25-7.625a610.016 610.016 0 0 1 5.063-1.75c8.057-2.892 15.673-6.877 23.144-11.035 6.452-3.503 11.445-5.734 18.793-4.215 15.09 4.587 29.451 11.82 43.668 18.568 3.885 1.822 7.804 3.398 11.832 4.87 6.932 2.585 13.25 6.048 19.717 9.6 3.487 1.882 7.05 3.608 10.611 5.345 3.805 1.94 7.545 3.99 11.29 6.042a938.02 938.02 0 0 0 7.96 4.294c17.557 9.416 35.06 19.17 50.922 31.281l2.563 1.766c17.967 12.43 32.818 29.037 43.957 47.793 1.604 2.646 3.38 5.086 5.23 7.566 3.388 4.614 6.497 9.338 9.535 14.188 2.763 4.33 5.742 8.5 8.715 12.687 1.168 1.666 2.335 3.332 3.5 5 1.792 2.562 3.586 5.122 5.39 7.676l1.86 2.637 1.672 2.363a102.674 102.674 0 0 1 3.16 4.969c1.392 2.438 1.392 2.438 3.356 4.73C886 458 886 458 887.717 461.094c2.592 4.601 5.715 8.785 8.845 13.031 3.332 4.535 6.606 9.003 9.437 13.875a1049.33 1049.33 0 0 0 4 5l4 6c.87 1.15 1.745 2.295 2.625 3.438 5.59 7.383 10.546 15.245 15.621 22.988 3.368 5.113 6.782 9.921 10.754 14.574 1.01 1.66 2.01 3.328 3 5 4.02 6.215 8.119 12.347 12.676 18.184C960 565 960 565 961.402 567.37c1.773 2.916 3.765 5.552 5.848 8.254 3.657 4.826 6.989 9.752 10.18 14.895a113.899 113.899 0 0 0 4.445 6.48c2.125 3 2.125 3 3.125 6l1.875 1.625c3.05 3.408 4.406 6.868 5.125 11.375-1.052 5.546-3.268 7.454-7.813 10.688A435.938 435.938 0 0 1 979 630a722.48 722.48 0 0 0-3.5 2.438C973 634 973 634 971 634v2c-2.09 1.516-2.09 1.516-4.938 3.25l-3.027 1.875L960 643a496.965 496.965 0 0 0-5 3.25l-2.125 1.39c-1.88 1.284-1.88 1.284-3.3 2.817-2.06 2.018-4.335 3.424-6.763 4.98-5.15 3.382-10.091 6.965-15 10.688C912.92 677.395 912.92 677.395 906 680v2c-1.68 1.29-1.68 1.29-3.875 2.625l-2.18 1.352C898 687 898 687 896 687v2c-2.125 1.516-2.125 1.516-5 3.25-4.15 2.513-8.024 5.223-11.88 8.153-3.571 2.69-7.22 5.267-10.87 7.847l-2.246 1.602-2.176 1.539-1.94 1.376c-1.903 1.243-3.857 2.218-5.888 3.233l-1.375 1.375c-2.296 2.296-4.87 3.925-7.625 5.625h-2v2c-1.793 1.438-1.793 1.438-4.188 3l-2.355 1.563C836 731 836 731 833.262 732L831 733l-1 3c-4.749 3.324-8.065 4.954-14 4-4.71-2.466-8.36-6.179-12-10-1.268-1.273-2.54-2.544-3.813-3.813L797 723c-1.266 2.533-.937 3.815-.621 6.621.753 7.469 1.173 14.947 1.558 22.442l.128 2.432c.688 13.444 1.115 26.893 1.474 40.349l.067 2.504c.224 8.425.437 16.851.637 25.277.077 3.208.157 6.415.237 9.623.054 2.233.103 4.466.153 6.699l.102 4.1.082 3.571c.126 3.369.126 3.369.682 6.615.509 3.826.673 7.571.704 11.423l.03 2.26c.03 2.507.055 5.015.079 7.522l.062 5.5c.056 5.085.105 10.17.151 15.256l.093 9.846c.594 62.465.534 124.933.511 187.4a52344.15 52344.15 0 0 0 .001 37.763 78750.782 78750.782 0 0 1 .003 51.769c0 5.412 0 10.824.003 16.236.003 6.562.002 13.124-.003 19.686-.003 3.325-.003 6.65 0 9.975.01 12.362-.056 24.714-.516 37.068l-.092 2.872c-.363 8.343-.363 8.343-2.525 12.191-2.523 1.261-4.249 1.126-7.073 1.127l-3.264.009-3.602-.007-3.788.006c-3.457.003-6.914.002-10.37 0-3.684-.003-7.367 0-11.05 0-6.256.003-12.51 0-18.766-.005-6.277-.004-12.554-.005-18.83 0-35.941.028-71.869-.124-107.804-.78-17.82-.322-35.63-.42-53.453-.35l-2.34.01c-12.767.051-25.533.12-38.3.192-8.568.047-17.136.092-25.705.137l-6.74.036c-17.397.092-34.794.177-52.192.256l-3.513.016a213979.58 213979.58 0 0 1-52.211.233l-3.378.015c-15.899.07-31.797.154-47.696.249-13.462.079-26.924.142-40.386.184-7.678.025-15.355.063-23.033.122-5.718.042-11.436.058-17.154.064-2.288.006-4.575.02-6.863.045-3.06.031-6.12.032-9.18.024l-2.674.05c-4.028-.041-6.166-.347-9.666-2.48-2.906-4.654-2.746-8.796-2.773-14.19l-.073-3.343c-.069-3.54-.1-7.08-.123-10.62l-.077-6.762c-.064-7.22-.062-14.44-.056-21.66l-.003-6.061c-.005-7.922 0-15.843.007-23.764.004-4.547.006-9.094.008-13.64.016-41.865.202-83.724.697-125.586l.143-12.152.036-3.072c.206-17.616.333-35.232.437-52.848a36253.501 36253.501 0 0 1 .138-22.34l.014-2.24c.05-7.992.097-15.983.135-23.974.198-41.698.413-83.47 4.021-125.038.848-10.645 1.177-21.327 1.623-31.995.583-13.912 1.303-27.802 2.268-41.693l.242-3.487.215-2.989A114.7 114.7 0 0 0 228 724l-3 6-2-1-1.242 1.75-1.633 2.25-1.617 2.25L217 737h-2v2c-2.488 1.244-4.227 1.133-7 1.125l-2.688.008C203 740 203 740 201 739v-2l-2.125-.688c-3.499-1.597-5.957-3.82-8.875-6.312a197.417 197.417 0 0 0-5-3 366.235 366.235 0 0 1-4.813-3.063l-2.394-1.535L176 721v-2c-.682-.23-1.364-.461-2.066-.7-3.654-1.62-6.656-3.762-9.871-6.112l-1.803-1.292c-2.916-2.106-5.742-4.269-8.487-6.595-2.536-2.104-5.078-3.68-7.96-5.262-3.132-1.795-5.96-3.826-8.813-6.039v-2l-1.68-.281c-2.94-.91-4.961-2.41-7.445-4.219-3.32-2.445-3.32-2.445-6.875-4.5v-2l-1.96-.625c-4.275-1.934-7.874-4.632-11.665-7.375l-4.54-3.25c-.664-.48-1.328-.96-2.013-1.453A190.61 190.61 0 0 0 96 664v-2l-1.672-.285c-2.952-.907-5.055-2.378-7.578-4.153l-2.703-1.87L82 654v-2l-2.5-.625c-3.847-1.511-6.551-3.487-9.766-6.035-1.702-1.404-1.702-1.404-3.734-2.34v-2l-2.188-.813c-2.81-1.186-5.296-2.462-7.812-4.187v-2l-2.188-.813c-2.81-1.186-5.296-2.462-7.812-4.187v-2l-2.125-.688c-3.646-1.664-6.099-3.407-8.875-6.312-.935-4.59-.396-6.4 2.188-10.313l1.402-1.757c1.548-2.119 2.567-4.234 3.66-6.617C45.344 594.92 49.665 589.588 54 584a635.68 635.68 0 0 0 2.512-3.43l1.231-1.684c1.139-1.56 2.274-3.121 3.41-4.683L63 572h2l.227-1.598c1.085-3.371 3.096-5.998 5.148-8.84 2.212-3.1 4.396-6.16 6.29-9.472L78 550h2l.723-2.621c1.417-3.749 3.243-6.297 5.715-9.442 2.774-3.55 5.3-7.04 7.562-10.937 2.786-4.308 5.652-8.551 8.688-12.688 2.135-2.947 3.78-6.004 5.312-9.312h2l.742-2.117c1.452-3.329 3.29-6.04 5.383-9.008l1.204-1.716c3.224-4.576 6.528-9.092 9.835-13.608 2.2-3.056 4.282-6.177 6.352-9.32 2.13-3.202 4.347-6.342 6.558-9.489 2.19-3.118 4.375-6.24 6.551-9.367l1.164-1.67c2.156-3.115 4.2-6.27 6.149-9.517L156 436h2l.719-2.07c1.55-3.547 3.603-6.625 5.781-9.805.897-1.325 1.795-2.65 2.691-3.977l1.4-2.06c1.41-2.09 2.801-4.192 4.186-6.299l1.352-2.051c.855-1.3 1.708-2.6 2.559-3.902 2.98-4.505 2.98-4.505 4.925-6.441 1.906-1.917 2.907-4.056 4.137-6.457 3.018-5.651 6.461-10.78 10.25-15.938l2.164-3.012C205.798 363.534 214.2 355.178 225 348h2l1-3c1.785-1.176 1.785-1.176 4.063-2.313 3.209-1.688 6.081-3.452 8.937-5.687 3.276-2.528 6.607-4.565 10.25-6.52 3.611-1.944 7.178-3.964 10.75-5.98l4.219-2.371c2.087-1.174 4.17-2.352 6.25-3.54 11.5-6.523 23.497-12.166 35.587-17.495a7388.67 7388.67 0 0 0 7.007-3.094l2.38-1.052a278.266 278.266 0 0 0 14.205-6.803c3.732-1.817 7.584-3.332 11.426-4.899 2.65-1.128 5.184-2.358 7.738-3.683 4.029-2.073 8.151-3.754 12.375-5.375 6.235-2.4 12.065-5.293 17.89-8.56C391.3 261.93 400.324 262.699 410 269Z"/>
  <path fill="#CCCCCD" d="M223 861h1c.15 26.15-.061 52.295-.406 78.443l-.091 7.158c-.059 4.63-.121 9.26-.187 13.891l-.033 2.35c-.116 8.055-.265 16.105-.541 24.156-.722 21.1-.824 42.188-.804 63.299 0 .772 0 1.545.002 2.34.01 12.038.035 24.075.06 36.113.022 10.561.043 21.122.053 31.684.005 3.805.01 7.61.022 11.416.044 14.755-.005 29.428-1.075 44.15-.15 3.397-.242 6.792-.316 10.191l-.063 2.55c-.064 2.608-.124 5.215-.184 7.822l-.13 5.404c-.106 4.344-.207 8.689-.307 13.033l2 1-.007 2.182c-.02 6.783-.035 13.566-.045 20.35a5974.86 5974.86 0 0 1-.023 10.461c-.013 4.01-.018 8.018-.023 12.027l-.015 3.797v3.518l-.007 3.102c.01 2.684.01 2.684 1.12 5.563h326l1 3a121482.02 121482.02 0 0 1-169.68.88l-3.28.015c-15.548.071-31.096.155-46.643.249-13.36.08-26.719.143-40.078.184-7.712.025-15.424.064-23.136.122-5.786.042-11.57.058-17.356.064-2.324.006-4.649.021-6.973.045-3.12.031-6.237.032-9.355.024l-2.731.05c-4.073-.04-6.27-.331-9.811-2.48-2.89-4.656-2.734-8.802-2.761-14.19l-.073-3.343c-.069-3.54-.1-7.08-.123-10.62l-.077-6.762c-.064-7.22-.062-14.44-.056-21.66l-.003-6.061c-.005-7.922 0-15.843.007-23.764.004-4.547.006-9.094.008-13.64.016-41.83.204-83.654.695-125.48a253540.194 253540.194 0 0 0 .177-15.125c.22-18.953.362-37.906.487-56.86l.063-9.295c.093-13.773.186-27.545.266-41.318.034-5.72.071-11.44.111-17.16.023-3.334.044-6.667.062-10 .019-3.643.044-7.285.07-10.928l.013-3.256.026-2.96.015-2.567C220 882 220 882 221 879c.26-3.672.443-7.338.605-11.016.294-5.883.294-5.883 1.395-6.984Z"/>
  <path fill="#E2E2E2" d="M802 1060h1c.023 24.636.041 49.273.052 73.91.005 11.44.012 22.882.023 34.324.01 9.982.017 19.965.02 29.948 0 5.276.003 10.552.01 15.829.051 37.93.051 37.93-.486 51.942l-.092 2.686c-.2 4.134-.529 7.688-2.527 11.361-2.523 1.261-4.249 1.126-7.073 1.127l-3.264.009-3.602-.007-3.788.006c-3.457.003-6.914.002-10.37 0-3.684-.003-7.367 0-11.05 0-6.256.003-12.51 0-18.766-.005-6.277-.004-12.554-.005-18.83 0-33.493.026-66.979-.078-100.468-.603l-2.078-.032c-21.241-.334-42.479-.78-63.711-1.495l-1-2c12-.033 24-.052 36-.063l2.881-.002c44.603-.035 89.204.258 133.807.565l2.634.018c22.56.155 45.119.316 67.678.482 1.102-22.531 1.196-45.048 1.27-67.602.019-5.187.043-10.374.067-15.562.07-15.351.13-30.703.19-46.054.046-12.007.095-24.013.15-36.02.029-6.16.052-12.32.072-18.48.014-3.811.031-7.622.05-11.433.008-1.77.014-3.539.018-5.308.006-2.408.018-4.817.032-7.225v-2.134c.023-3.009.191-5.302 1.151-8.182Z"/>
  <path fill="#CFCFCF" d="M225 675c2 2 2 2 2.23 4.73l-.042 3.457-.047 3.786c-.15 5.296-.568 10.57-1.02 15.847-.104 2.726.02 4.624.879 7.18l1.438-2.875c1.28-2.563 1.28-2.563 2.562-5.125.361-2.33.697-4.663 1-7h1c.194 2.958.38 5.916.563 8.875l.17 2.55.146 2.442.143 2.254C234 713 234 713 233 715c-2.567 18.913-2.97 38.149-3.875 57.195-.205 4.293-.415 8.585-.625 12.877-.291 5.968-.581 11.936-.869 17.904-.572 11.867-1.161 23.733-1.756 35.598l-.135 2.689L225 856h-2c-1.4-4.2-1.191-8.16-1.188-12.563l.003-2.986c.065-8.1.635-16.101 1.333-24.167.924-11.145 1.388-22.3 1.852-33.471.621-14.894 1.358-29.767 2.39-44.638l.243-3.487.215-2.989A114.7 114.7 0 0 0 228 724l-3 6-.375-1.938L224 726l-2-1 1-1.875c1.142-2.035 1.142-2.035 1-4.125l-2 1 .219-3.254.281-4.308.145-2.135c.222-3.442.351-6.815.324-10.268C223 697 223 697 224 696c.265-2.465.469-4.903.625-7.375l.156-2.078c.212-3.197.243-5.476-.781-8.547l1-3Z"/>
  <path fill="#CECECE" d="M556 1277c11.554-.023 23.108-.041 34.662-.052 5.367-.005 10.734-.012 16.1-.023 5.194-.011 10.388-.017 15.582-.02 1.966-.002 3.933-.005 5.9-.01 9.075-.025 18.11-.006 27.168.591 12.806.829 25.644.744 38.472.817 3.707.023 7.415.05 11.122.076 6.99.05 13.981.095 20.972.138 7.97.05 15.942.105 23.913.16 16.37.113 32.74.22 49.109.323l-1 2c-16.983.024-33.967.041-50.95.052-7.895.005-15.79.012-23.684.023-33.532.05-67.056-.015-100.585-.544l-2.077-.032c-21.24-.336-42.474-.785-63.704-1.499l-1-2Z"/>
  <path fill="#DEDFDF" d="M86 539h3c-1.378 3.902-3.19 6.837-5.688 10.125-3.408 4.495-6.422 9.165-9.432 13.936-3.044 4.759-6.244 9.408-9.442 14.064a1579.95 1579.95 0 0 0-15.5 23 184.694 184.694 0 0 1-4.563 6.438c-2.46 3.443-3.937 6.578-4.91 10.71.765 3.897 2.856 4.914 6.022 7.13L47.875 626l4.953 3.441 2.588 1.774c4.116 2.843 8.16 5.784 12.209 8.722l2.183 1.573A786.01 786.01 0 0 1 84 652l-2 1c-2.172-1.074-2.172-1.074-4.75-2.688l-2.695-1.683L72 647l-1.992-1.223c-1.376-.865-2.7-1.813-4.008-2.777v-2l-2.188-.813c-2.81-1.186-5.296-2.462-7.812-4.187v-2l-2.188-.813c-2.81-1.186-5.296-2.462-7.812-4.187v-2l-2.125-.688c-3.646-1.664-6.099-3.407-8.875-6.312-.935-4.59-.396-6.4 2.188-10.313l1.402-1.757c1.548-2.119 2.567-4.234 3.66-6.617C45.344 594.92 49.665 589.588 54 584a635.68 635.68 0 0 0 2.512-3.43l1.231-1.684c1.139-1.56 2.274-3.121 3.41-4.683L63 572h2l.227-1.598c1.085-3.371 3.096-5.998 5.148-8.84 2.212-3.1 4.396-6.16 6.29-9.472.44-.69.88-1.38 1.335-2.09h2l.75-2.688c1.307-3.462 2.68-5.664 5.25-8.312Z"/>
  <path fill="#CCCBCC" d="m549 1277 1 3H356v-2a612541.175 612541.175 0 0 1 92.392-.573 163639.447 163639.447 0 0 1 39.09-.242c20.506-.13 41.011-.221 61.518-.185Z"/>
  <path fill="#E0E1E1" d="M239 338c2.125.375 2.125.375 4 1a631.102 631.102 0 0 1-4.813 3.5l-2.707 1.969C233 346 233 346 230 346l-.758 1.781c-1.406 2.512-2.908 3.885-5.117 5.719-2.281 1.922-4.415 3.798-6.5 5.938C216 361 216 361 214 361l-.875 1.875C212 365 212 365 210 367c-.167 3.083-.167 3.083 0 6l-5-4-.25 1.875L204 373l-1.875.813c-2.77 1.548-3.065 3.362-4.219 6.2-1.576 3.456-3.78 6.46-5.969 9.55l-1.446 2.072A1194.196 1194.196 0 0 1 186 398l-1.49 2.101A2109.35 2109.35 0 0 1 176 412l-1-3c1.04-1.98 1.04-1.98 2.625-4.188l1.688-2.406L181 400a420.764 420.764 0 0 0 3.727-5.98c1.707-2.708 3.495-5.359 5.273-8.02l1.86-2.86c9.193-14.055 19.118-25.756 33.14-35.14h2l1-3c1.996-1.316 1.996-1.316 4.438-2.563 2.622-1.35 4.465-2.34 6.562-4.437Z"/>
  <path fill="#CACACA" d="M556 1277c11.606-.023 23.212-.041 34.818-.052 5.39-.005 10.78-.012 16.171-.023 5.213-.011 10.426-.017 15.64-.02 1.977-.002 3.955-.005 5.932-.01 9.053-.025 18.106-.032 27.15.424l3.564.173L662 1278l2 3c-11.083-.141-22.167-.287-33.25-.438l-2.462-.033c-23.769-.324-47.53-.7-71.288-1.529l-1-2Z"/>
  <path fill="#E0E0E0" d="m148 449 2 1c-9.75 14.625-9.75 14.625-11.805 17.703-1.53 2.3-3.057 4.6-4.578 6.906-4.104 6.208-8.263 12.356-12.617 18.391a444.356 444.356 0 0 0-9.75 14.063l-1.203 1.81c-1.942 2.93-3.875 5.865-5.802 8.805-1.89 2.881-3.786 5.758-5.683 8.635l-1.829 2.806-1.73 2.62-1.536 2.344C92 536 92 536 89 538c.54-4.585 2.345-7.269 5-11 .983-1.477 1.962-2.956 2.938-4.438a213.296 213.296 0 0 1 5.75-8.25c2.135-2.947 3.78-6.004 5.312-9.312h2l.742-2.117c1.452-3.329 3.29-6.04 5.383-9.008l1.204-1.716c3.224-4.576 6.528-9.092 9.835-13.608 2.195-3.05 4.273-6.164 6.34-9.301 4.6-6.919 9.459-13.644 14.496-20.25Z"/>
  <path fill="#DFDFDF" d="M223 861h1c.152 27.067-.101 54.124-.5 81.188l-.036 2.46c-.15 10.118-.304 20.235-.464 30.352h-1l-1-40h-1c-.025-7.493-.043-14.986-.055-22.48-.005-2.55-.012-5.1-.02-7.65-.013-3.66-.018-7.322-.023-10.983l-.015-3.466v-3.215l-.007-2.833C220 882 220 882 221 879c.26-3.672.443-7.338.605-11.016.294-5.883.294-5.883 1.395-6.984ZM220 1215l2 1-.007 2.182c-.02 6.783-.035 13.566-.045 20.35a5974.86 5974.86 0 0 1-.023 10.461c-.013 4.01-.018 8.018-.023 12.027l-.015 3.797v3.518l-.007 3.102c.01 2.684.01 2.684 1.12 5.563l105 1v1l-3.814.031c-11.846.098-23.691.2-35.537.308-6.09.056-12.18.109-18.27.158-5.875.048-11.75.1-17.624.156-2.244.02-4.489.04-6.733.056-3.137.024-6.273.054-9.41.086l-2.83.017-2.587.03-2.249.02c-2.163.073-2.163.073-4.946 1.138-3.066-2.605-4.818-4.135-5.66-8.138-.015-1.147-.03-2.294-.047-3.475l-.088-3.78-.018-3.92-.076-3.978A736.496 736.496 0 0 1 218 1248h1l1-33Z"/>
  <path fill="#D1D1D1" d="M117 676c6.511 3.918 12.645 8.154 18.688 12.75a416.552 416.552 0 0 0 18.177 13.039c5.05 3.439 10.009 6.99 14.947 10.586 7.832 5.695 15.779 11.207 23.786 16.652.715.487 1.43.975 2.168 1.476a288.309 288.309 0 0 0 4.792 3.138l2.5 1.613 2.287 1.451L206 738v2l-5-1v-2l-2.125-.688c-3.499-1.597-5.957-3.82-8.875-6.312a197.417 197.417 0 0 0-5-3 366.235 366.235 0 0 1-4.813-3.063l-2.394-1.535L176 721v-2c-.682-.23-1.364-.461-2.066-.7-3.654-1.62-6.656-3.762-9.871-6.112l-1.803-1.292c-2.916-2.106-5.742-4.269-8.487-6.595-2.536-2.104-5.078-3.68-7.96-5.262-3.132-1.795-5.96-3.826-8.813-6.039v-2l-1.68-.281c-2.94-.91-4.961-2.41-7.445-4.219-3.32-2.445-3.32-2.445-6.875-4.5v-2l-4-1v-3Z"/>
  <path fill="#DEDEDE" d="M86 539h3c-1.378 3.902-3.19 6.837-5.688 10.125-3.402 4.487-6.41 9.148-9.414 13.91-3.132 4.893-6.423 9.676-9.71 14.465l-3.958 5.781-1.737 2.533A554.169 554.169 0 0 0 55 591a117.594 117.594 0 0 1-7 3c1.567-5.096 4.719-8.656 8.063-12.688 1.096-1.335 2.191-2.673 3.285-4.011l1.469-1.776c1.268-1.532 1.268-1.532 2.183-3.525h2l.227-1.598c1.085-3.371 3.096-5.998 5.148-8.84 2.212-3.1 4.396-6.16 6.29-9.472.44-.69.88-1.38 1.335-2.09h2l.75-2.688c1.307-3.462 2.68-5.664 5.25-8.312Z"/>
  <path fill="#D7D7D7" d="M220 1067h1c.155 11.702.303 23.403.443 35.105.065 5.435.133 10.87.205 16.306.07 5.258.134 10.517.195 15.775.024 1.993.05 3.986.078 5.979.167 11.997-.017 23.868-.921 35.835h-1l-1-41h-1c-.059-12.83.073-25.648.372-38.475.066-2.88.126-5.76.185-8.64l.127-5.56.05-2.577c.109-4.342.416-8.471 1.266-12.748Z"/>
  <path fill="#E7E7E7" d="M239 338c2.125.375 2.125.375 4 1a631.102 631.102 0 0 1-4.813 3.5l-2.707 1.969C233 346 233 346 230 346l-.758 1.781c-1.406 2.512-2.908 3.885-5.117 5.719-2.281 1.922-4.415 3.798-6.5 5.938C216 361 216 361 214 361l-.75 1.75c-1.417 2.55-3.126 4.268-5.25 6.25l-4-2c3.776-4.855 7.968-8.888 12.625-12.875l1.704-1.48c2.869-2.415 5.032-3.842 8.671-4.645l1-3c1.996-1.316 1.996-1.316 4.438-2.563 2.622-1.35 4.465-2.34 6.562-4.437Z"/>
  <path fill="#C4C4C4" d="m666.834 1277.918 3.094.021 3.406.04 3.578.028c3.241.028 6.483.06 9.724.094 3.386.034 6.772.062 10.158.092 6.414.056 12.828.117 19.241.18 7.301.072 14.602.138 21.903.203 15.02.135 30.041.277 45.062.424v1c-15.446.177-30.893.343-46.34.495-7.172.07-14.344.145-21.516.229-6.25.072-12.502.138-18.753.195-3.31.03-6.62.066-9.93.107-3.694.046-7.389.08-11.083.11-1.098.016-2.197.032-3.328.05-1.007.005-2.014.01-3.051.017l-2.648.027c-2.541-.249-4.162-.95-6.351-2.23 2.475-1.237 4.067-1.108 6.834-1.082Z"/>
  <path fill="#DBDCDB" d="M225 675c2 2 2 2 2.266 4.45-.056 11.573-1.147 23.038-2.266 34.55l5 1c.125 2.875.125 2.875 0 6l-2 2a220.497 220.497 0 0 0-3 7l-.375-1.938L224 726l-2-1 1-1.875c1.142-2.035 1.142-2.035 1-4.125l-2 1 .219-3.254.281-4.308.145-2.135c.222-3.442.351-6.815.324-10.268C223 697 223 697 224 696c.265-2.465.469-4.903.625-7.375l.156-2.078c.212-3.197.243-5.476-.781-8.547l1-3Z"/>
  <path fill="#CFCFCF" d="M38 621c3.79.549 6.113 1.497 9.152 3.809l2.333 1.75 2.453 1.879 5.109 3.84 2.54 1.917c3.329 2.49 6.707 4.905 10.1 7.305A542.735 542.735 0 0 1 84 652l-2 1c-2.172-1.074-2.172-1.074-4.75-2.688l-2.695-1.683L72 647l-1.992-1.223c-1.376-.865-2.7-1.813-4.008-2.777v-2l-2.188-.813c-2.81-1.186-5.296-2.462-7.812-4.187v-2l-2.188-.813c-2.81-1.186-5.296-2.462-7.812-4.187v-2l-2.313-.75C40.764 624.89 39.7 623.684 38 621Z"/>
  <path fill="#D9DAD9" d="m232 429 3 1-1 2a162.22 162.22 0 0 0-.114 6.836v2.13c0 2.326.009 4.653.016 6.98l.005 4.834c.003 4.244.013 8.489.024 12.734.01 4.33.015 8.66.02 12.99.01 8.499.028 16.997.049 25.496l-3 1 .254-3.008.309-4.117.17-1.957c.316-4.433.17-8.691-.198-13.121-.702-8.857-.685-17.697-.665-26.578.005-2.874 0-5.747-.007-8.621 0-1.838.002-3.675.004-5.512l-.006-2.588.01-2.41.002-2.107c.134-2.095.558-3.964 1.127-5.981Z"/>
  <path fill="#E3E3E3" d="M539 1276h61v1l-43 1 5 1v1c-1.916.054-3.833.093-5.75.125l-3.234.07c-3.01-.195-4.44-.754-7.016-2.195-2.325-.387-4.659-.73-7-1v-1Z"/>
  <path fill="#D9D9D9" d="M225 826h1c.118 10.064-.122 19.966-1 30h-2c-1-3-1.116-4.974-1.098-8.105l.01-2.979.025-3.104.014-3.138c.012-2.558.028-5.116.049-7.674h2l1-5Z"/>
  <path fill="#E6E7E6" d="M172 413h2c-1.495 6.314-5.227 10.869-9 16l-2.766 3.84-2.922 4.035-1.404 1.947c-2.431 3.327-4.88 6.356-7.908 9.178 1.316-4.604 3.092-8.183 6-12h2l.688-2.023c1.695-3.845 3.946-7.141 6.312-10.602l1.367-2.023c.838-1.24 1.678-2.478 2.52-3.714 1.046-1.54 2.08-3.089 3.113-4.638Z"/>
  <path fill="#D0D0D0" d="M221 989h1v40h-2c-.933-4.643-1.078-9.058-.914-13.77l.064-2.186c.046-1.514.095-3.027.147-4.54.078-2.327.145-4.652.21-6.979l.141-4.42.06-2.114c.177-4.876.177-4.876 1.292-5.991Z"/>
  <path fill="#DDD" d="m921 668 2 1c-3.287 2.74-6.706 5.266-10.188 7.75l-2.605 1.86C908 680 908 680 906 680v2c-1.68 1.29-1.68 1.29-3.875 2.625l-2.18 1.352C898 687 898 687 896 687v2c-2.23 1.656-2.23 1.656-5.188 3.5l-2.917 1.844A50.158 50.158 0 0 1 880 698c4.162-4.53 8.832-7.788 13.938-11.188 1.697-1.144 3.394-2.29 5.09-3.437l2.538-1.715c4.64-3.164 9.19-6.451 13.746-9.734A204.743 204.743 0 0 1 921 668Z"/>
  <path fill="#DCDCDC" d="M233 536c2.068 4.135 1.102 9.48 1 14l-.054 2.588c-.068 2.847-.16 5.692-.258 8.537l-.068 2.84-.108 2.668-.08 2.403C233 571 233 571 230 573l.035-2.555.028-3.32.035-3.305c.1-2.772.1-2.772-1.098-4.82h2c.027-2.23.046-4.458.063-6.688l.035-3.761c.011-3.45.011-3.45-.692-6.364-.406-2.187-.406-2.187 1.031-4.5L233 536Z"/>
  <path fill="#DFE0E0" d="M609.877 1276.886c1.73 0 3.46.006 5.19.016l2.753.005c2.914.005 5.828.018 8.742.03A7441.975 7441.975 0 0 1 647 1277v1h-33v2h-21v-1l2.59-.184 3.347-.254c1.103-.08 2.205-.162 3.34-.246 3.71-.43 3.43-1.307 7.6-1.43Z"/>
  <path fill="#E2E1E2" d="m986 622 2 1c-12.096 11-12.096 11-17 11v2c-2.117 1.543-2.117 1.543-4.875 3.188l-2.742 1.667L961 642l-2-1c2.81-2.045 5.624-4.085 8.438-6.125l2.373-1.727A423.909 423.909 0 0 1 986 622Z"/>
  <path fill="#D9D8D9" d="M229 728h2l-1 30h-1l-.184-2.23-.254-2.957c-.08-.963-.162-1.926-.246-2.918-.253-2.837-.253-2.837-.875-5.336-.552-3.203-.337-6.074-.066-9.309l.273-3.484C228 729 228 729 229 728Z"/>
  <path fill="#D9D9DA" d="M184 725c5.145.994 8.97 4.058 13.25 6.938l2.547 1.67 2.406 1.607 2.208 1.472L206 738v2l-5-1v-2l-2.125-.688c-3.499-1.597-5.957-3.82-8.875-6.312l-2.813-1.688C185 727 185 727 184 725Z"/>
  <path fill="#E9E9E9" d="m222 853 1 3h2v12h-1l-1-6-1 17h-1c-.029-3.958-.047-7.917-.063-11.875l-.025-3.418-.01-3.262-.016-3.015C221 855 221 855 222 853ZM267 322l1 2c-6.89 4.215-13.882 8.184-21 12v-3c1.836-1.43 1.836-1.43 4.375-2.875l2.734-1.563A305.34 305.34 0 0 1 267 322Z"/>
  <path fill="#D8D8D8" d="m232 572 2 1c-.14 3.167-.289 6.333-.438 9.5l-.119 2.688c-.254 5.318-.71 10.538-1.443 15.812l-2-2c.204-2.075.421-4.15.703-6.215.65-6.098 1.25-12.924-.703-18.785l2-2Z"/>
  <path fill="#DDD" d="M220 1013h2v16h-2c-2.286-11.429-2.286-11.429 0-16Z"/>
  <path fill="#CECFCE" d="M222 897h1c1.205 6.023 1.203 11.953 0 18l-2 1a2398.8 2398.8 0 0 1-.063-8.938l-.025-2.576-.01-2.45-.016-2.27C221 898 221 898 222 897Z"/>
  <path fill="#D3D4D5" d="M87 655c4.101 1.404 6.98 3.37 10.313 6.125l2.675 2.195L102 665l-3 1-3-2v-2l-1.688-.25c-3.049-.989-4.964-2.598-7.312-4.75v-2Z"/>
  <path fill="#E2E2E2" d="M86 539h3c-1.37 3.994-3.143 6.883-6 10l-3 1c1.25-4.478 2.741-7.643 6-11Z"/>
  <path fill="#DAD9DA" d="m160 432 1 3c-1.293 2.121-1.293 2.121-3.188 4.438l-1.855 2.308c-1.9 2.188-3.882 4.234-5.957 6.254 1.316-4.604 3.092-8.183 6-12h2l2-4Z"/>
  <path fill="#D6D6D6" d="m221 1274 2 3c2.61.384 5.006.603 7.625.688l2.14.103c1.745.083 3.49.147 5.235.209v1l-2.3.184-3.012.254c-.987.08-1.973.162-2.989.246-2.793.234-2.793.234-5.699 1.316l-5-5 2-2Z"/>
  <path fill="#DDD" d="M843 723v3c-2.047 1.79-2.047 1.79-4.75 3.625l-2.672 1.852c-2.284 1.35-3.99 2.076-6.578 2.523 4.14-4.54 8.824-7.718 14-11Z"/>
  <path fill="#CFCFCF" d="M794 719c3.156 1.387 5.199 3.004 7.563 5.5 2.112 2.221 3.853 3.777 6.437 5.5v2c-3.156-1.387-5.199-3.004-7.563-5.5-2.112-2.221-3.853-3.777-6.437-5.5v-2Z"/>
  <path fill="#D4D5D4" d="M226 719c1.188 1.563 1.188 1.563 2 4-1.375 3.75-1.375 3.75-3 7l-.375-1.938L224 726l-2-1c1.152-2.468 2.048-4.048 4-6Z"/>
  <path fill="#D0D0D0" d="M521 1277h15l-1 3h-9v-1l-5-1v-1Z"/>
  <path fill="#E8E9E9" d="M212 375c3.202 2.135 4.273 3.628 6 7v3h2l1 5c-4.18-3.56-6.686-8.087-9-13v-2Z"/>
  <path fill="#D2D2D3" d="M103 666a832.773 832.773 0 0 1 5.375 3.313l3.023 1.863C114 673 114 673 116 676c-3.654-.612-5.86-2.166-8.75-4.438l-2.422-1.87L103 668v-2Z"/>
  <path fill="#E8E8E8" d="M225 715h5v6l-3 1c-1.46-2.647-2-3.894-2-7Z"/>
  <path fill="#DCDBDC" d="M227 758h1c1.323 4.96 1.089 9.911 1 15h-1c-1.663-5.574-2.186-9.307-1-15Z"/>
  <path fill="#DDDDDE" d="M172 413h2c-1.208 4.43-2.517 6.981-6 10 .473-4.167 1.047-6.929 4-10Z"/>
  <path fill="#D7D8D8" d="M808 732c3.941 1.668 6.79 4.227 10 7l-2 1a279.31 279.31 0 0 1-3.438-2.313l-1.933-1.3C809 735 809 735 808 732Z"/>
  <path fill="#EFEFEF" d="M403 266c3.912 1.156 6.875 2.355 10 5l-1 2-9-5v-2ZM984 603c3.324 1.108 3.616 1.484 5.25 4.375l1.078 1.836C991 611 991 611 990 614a782.74 782.74 0 0 1-3-4.375l-1.688-2.46C984 605 984 605 984 603Z"/>
  <path fill="#DCDBDC" d="m854 715 2 1c-2.168 2.276-4.327 4.33-7 6l-3-1 8-6Z"/>
  <path fill="#DBDCDC" d="m101 519 1 2-5 7-2-2 2-4h3l1-3Z"/>
  <path fill="#C5C5C5" d="M542 1277h7l1 3h-8v-3Z"/>
  <path fill="#E1E1E1" d="m216 735-1 4-6 1c4.75-5 4.75-5 7-5Z"/>
  <path fill="#D3D3D4" d="m226 710 4 1v3l-5 1-1-2 2-3Z"/>
  <path fill="#C8C9C9" d="M87 655c4.677 1.477 4.677 1.477 6.313 4.125L94 661c-4.677-1.477-4.677-1.477-6.313-4.125L87 655Z"/>
  <path fill="#D8D8D8" d="m190 388 2 1-5 7-1-4 3-1 1-3Z"/>
  <path fill="#D6D6D6" d="m51 631 6 1 1 4h-2v-2l-5-2v-1Z"/>
  <path fill="#EBEBEB" d="m415 273 9 4-1 2-8-4v-2Z"/>
</svg>