<svg xmlns="http://www.w3.org/2000/svg" viewBox="0 0 1024 1536">
  <path fill="#F5F5F5" d="M517.716 226.87c5.638.005 11.275.002 16.913-.004 4.402-.004 8.804-.002 13.206 0 2.079 0 4.158 0 6.237-.002 40.308-.036 40.308-.036 53.678 11.511 5.657 6.6 6.928 12.032 7.75 20.5 1.5 13.051 3.93 25.332 8.438 37.687l.692 1.912A88.53 88.53 0 0 0 627 304l.907 2.046c3.463 6.66 8.683 8.738 15.406 11.516l2.994 1.303c2.084.905 4.174 1.8 6.266 2.685a839.34 839.34 0 0 1 33.507 15.074c23 10.93 46.023 21.529 69.92 30.376 19.743 7.31 36.572 17.872 51.93 32.27 2.281 2.135 4.46 3.99 7.07 5.73.955 2.38.955 2.38 1.809 5.344 2.12 6.752 5.076 12.848 8.254 19.156 19.727 40.218 34.359 85.102 43.626 128.946 2.031 9.55 4.417 18.983 6.874 28.429 4.065 15.657 7.976 31.348 11.812 47.062a7367.078 7367.078 0 0 0 12.117 48.986c7.14 28.414 14.11 56.855 20.113 85.534.91 4.323 1.87 8.63 2.883 12.93 7.375 31.43 11.777 62.321 11.512 94.613l-.02 2.7c-.125 14.44-.478 28.869-.98 43.3l-.078 2.29c-1.393 40.235-6.339 80.524-11.905 120.373a2434.29 2434.29 0 0 0-2.19 16.144c-3.804 28.714-8.132 57.309-12.935 85.873-.804 4.781-1.59 9.566-2.369 14.351-1.87 11.459-3.802 22.88-6.22 34.237-.933 4.479-1.566 8.884-1.983 13.44-.578 6.237-1.024 9.983-5.605 14.296-2.435 2.834-3.846 6.045-5.34 9.433l-.839 1.825c-6.095 14.192-7.717 29.756-9.661 44.925-.376 2.91-.755 5.818-1.142 8.725a729.72 729.72 0 0 0-.694 5.376c-.555 4.189-1.198 7.854-3.039 11.712-19.483.57-37.718.28-56.796-4.26-3.38-.78-6.772-1.461-10.177-2.127-15.684-3.134-30.919-7.055-44.027-16.613-3.235-6.47-.03-15.396 1.5-22l.723-3.215c.585-2.597 1.177-5.192 1.777-7.785l-2.605 1.426c-32.25 17.198-76.581 11.776-112.179 11.762-3.212 0-6.425 0-9.637.002-24.016.003-48.025-.122-72.036-.64a18849.7 18849.7 0 0 1-27.935-.623c-31.62-.724-63.22-1.01-94.846-.99l-2.707.002c-17.982.01-35.965.04-53.948.107-6.797.025-13.593.044-20.39.06-3.962.008-7.923.022-11.885.045-19.77.113-38.608-.197-57.894-5.151a1657.808 1657.808 0 0 1-11.938-3 3948.181 3948.181 0 0 0-8-2l.367 1.737c5.641 27.044 5.641 27.044 2.668 33.29-12.116 16.05-37.362 20.968-55.992 23.623-6.01.824-12.022 1.61-18.043 2.35l-2.66.328c-4.247.5-8.432.831-12.715.86l-3.023.042C184 1312 184 1312 181 1310c-.72-2.125-.72-2.125-1.21-4.785l-.576-3.01-.589-3.268-.65-3.38a1189.162 1189.162 0 0 1-3.127-17.073c-2.837-15.652-6.67-30.531-15.301-44.075-4.664-7.45-6.596-14.264-8.012-22.936-.423-2.428-.847-4.855-1.274-7.281l-.636-3.673c-.911-5.129-1.94-10.23-2.992-15.332l-.604-2.943c-.415-2.022-.832-4.044-1.249-6.066a10252.9 10252.9 0 0 1-3.557-17.35l-.773-3.78a6848.112 6848.112 0 0 1-6.079-30.189l-.47-2.353-2.377-11.928c-4.6-23.091-9.234-46.173-14.036-69.223-18.092-86.865-18.092-86.865-22.041-118.753a942.752 942.752 0 0 0-1.334-10.196C90.553 885.152 88.46 857.332 92 830l.265-2.073c3.23-25.116 7.897-49.91 13.038-74.697a2122.176 2122.176 0 0 0 3.543-17.49 2011.501 2011.501 0 0 1 7.967-38.303l.684-3.128c6.24-28.398 13.42-56.566 20.594-84.739.842-3.308 1.682-6.616 2.52-9.925 6.257-24.676 12.66-49.315 19.147-73.931.787-2.986 1.572-5.972 2.355-8.96 20.837-79.526 20.837-79.526 36.818-104.035 1.235-1.912 1.235-1.912 2.569-4.907 3.693-6.924 9.917-10.065 16.5-13.812l3.117-1.89c19.372-11.576 40.65-20.022 61.712-27.972 13.104-4.961 25.66-10.832 38.171-17.138l2.788-1.402 2.735-1.375 2.717-1.366c1.79-.9 3.578-1.801 5.366-2.704 7.227-3.626 14.544-7.034 21.894-10.403l6.586-3.031c2.762-1.272 5.524-2.542 8.294-3.797 10.719-4.873 18.35-9.708 22.674-21.016 1.727-5.304 2.703-10.75 3.759-16.219 8.46-41.382 8.46-41.382 22.003-50.445 11.533-6.56 24.305-7.493 37.344-7.86l3.663-.113c18.956-.535 37.931-.419 56.893-.4ZM264 827c-4.609 14.962-9.123 29.884-12.745 45.12-2.154 8.89-4.885 17.576-7.804 26.242l-1.01 3.11-.915 2.727c-.666 3.546-.17 6.253.474 9.801.223 1.423.44 2.847.653 4.271l.355 2.352c2.12 14.286 3.506 28.628 4.867 43.002l.391 4.066c1.422 14.735 2.778 29.473 3.953 44.23l1.156 14.454.287 3.577c2.45 30.133 6.357 60.085 10.338 90.048h1c.768-40.78 1.244-81.556 1.517-122.342.035-5.141.072-10.282.11-15.423.221-29.514.413-59.028.424-88.544l.002-3.195c.011-17.777-.236-35.544-.639-53.316l-.034-2.083c-.113-3.568-.34-5.037-2.38-8.097Zm495 8c-.747 7.79-1.149 15.49-1.145 23.314l-.01 3.255c-.01 3.57-.012 7.142-.013 10.712l-.012 7.75c-.012 7.755-.01 15.51-.008 23.265v6.604c-.008 49.81.403 99.61 1.092 149.415l.1 7.292c.136 10.019.279 20.037.43 30.055l.09 6.26c.212 14.626.501 29.234 1.235 43.845.226 4.93.26 9.373-.759 14.233a80.637 80.637 0 0 0-.161 4.304l-.029 2.42-.013 2.58-.02 2.743c-.018 2.943-.024 5.885-.027 8.828l-.007 3.027A426.49 426.49 0 0 0 763 1238c3.265-5.659 3.116-11.561 2.957-17.922-.026-1.58-.05-3.16-.073-4.74l-.038-2.509c-.176-13.57.12-26.869 1.904-40.329l.27-2.054.276-2.088.563-4.276.288-2.183c1.232-9.543 2.045-19.125 2.853-28.712l.25-2.95c1.557-18.561 2.759-37.143 3.932-55.731 1.318-20.858 2.927-41.68 4.706-62.502 1.155-13.55 2.23-27.09 2.99-40.668l.2-3.53c.303-5.475.588-10.952.846-16.43l.303-5.802.103-2.601c.304-5.567 1.61-9.8 3.67-14.973-.226-5.214-1.83-9.868-3.562-14.75-2.655-7.711-5.026-15.485-7.313-23.313C772.69 871.415 767.071 852.972 760 835h-1Zm-489 324v7h1v-7h-1Z"/>
  <path fill="#B4B2AF" d="M648.063 392.938 651 393v2h-2c.506 2.169 1 4 2 6h-2l-2 3-2.5.375-2.5.625c-1.155 2.471-1.155 2.471-2 5l-3 1v-2a294.9 294.9 0 0 0-3.938.875l-2.214.492c-2.055.463-2.055.463-2.848 2.633h-3c-1.859 1.573-2.908 2.816-4 5-3.679 2.644-7.534 3.94-11.816 5.254-2.221.702-2.221.702-4.336 1.836C603 426 603 426 601 426l-2 4-1-2c-4.956 3.73-4.956 3.73-8 9l-5-1v2l-10 2-1 3h-2l-1.375 1.938c-1.836 2.33-2.754 2.666-5.625 3.062v-4c17.34-9.766 17.34-9.766 25-14l-1.813.969c-2.688 1.267-5.264 1.544-8.187 2.031-2.15.95-2.15.95-4 2l-3 1v2h-2l-1 2c-5.423 3-5.423 3-8 3v2h-2v2l-3.438 1.625c-9.952 4.985-18.562 11.098-24.625 20.5l-1.306 2.007c-5.455 8.535-8.955 16.312-10.272 26.434C520 500 520 500 519 502a157.373 157.373 0 0 0-.063 6.688l.012 1.994c.012 2.106.03 4.212.051 6.318.027 2.77.047 5.542.063 8.313l.035 3.738C519 532 519 532 518 534h-2l.063 3.875c.062 3.875.062 3.875-1.063 6.125h-2v2l2 1v12h-2v2l2 1h-2v2h2v11l-3 1 2 1v9l-3 1-2-1v-8h2v-2l-2-1h2v-2h-2l2-9h-2c.75-7.75.75-7.75 3-10h-2l1-2-1-1v-4h2v-2h-2l-.113-2.336-.2-3.039-.175-3.023L509 534l-3-2c-.182-3.06-.182-3.06.059-7.008.066-1.465.128-2.93.187-4.396l.101-2.336c.769-20.29-3.279-38.2-16.507-54.283L488 462l-1.559-1.727c-4.578-4.452-10.435-6.946-16.136-9.66A90.331 90.331 0 0 1 462 446l3-3c19.256 9.096 19.256 9.096 25 15v2h2c3 5.75 3 5.75 3 8h2l.875 2.375c.974 2.722.974 2.722 3.125 4.625 1.547 3.387 2.998 6.8 4.434 10.234 1.756 4.219 1.756 4.219 4.566 7.766 2.957.583 2.957.583 6 0 3.14-3.49 3.986-8.12 5.238-12.55.934-3.004 2.243-5.701 3.762-8.45h2l.285-2.2c.825-3.23 2.082-5.016 4.153-7.613l1.87-2.394L535 458h2v-2l4-1v-2l1.938-.313L545 452l1-3h3v-2l7-2v-2l4-1v-2l3.375-.75c3.684-.793 3.684-.793 4.57-3.188 1.392-2.72 2.764-3.17 5.555-4.312l2.406-1.016C578 430 578 430 580 430l1-2a78.037 78.037 0 0 1 5-2v-2l2.117-.516 2.758-.734 2.742-.703c2.907-1.277 3.1-2.252 4.383-5.047 1.777-1.125 1.777-1.125 3.938-2l2.417-.992c3.675-1.4 7.36-2.767 11.067-4.078 1.761-.636 3.509-1.31 5.242-2.02 2.336-.91 2.336-.91 4.961-1.348 4.891-.815 9.607-2.213 14.375-3.562v-2l4-1c-.03-1.454-.03-1.454-.063-2.938.083-4.042.083-4.042 4.125-4.125Z"/>
  <path fill="#E1E1E0" d="m553 437 1 2-2 1-.875 2.813c-1.215 3.442-2.422 4.812-5.125 7.187l-1.625 1.75C543 453 543 453 541 453v2l-4 1v2h-2l-.688 1.563c-1.5 2.787-3.293 5.225-5.19 7.753-1.308 1.803-1.308 1.803-2.122 4.684h-2l-3 11h-2l-.313 3.25c-1.012 5.52-1.012 5.52-3.687 7.75-3.688.25-3.688.25-7 0v-2l-2-1a149.177 149.177 0 0 1-3.438-7.188c-.602-1.327-1.204-2.654-1.808-3.98l-.882-1.955c-.821-1.768-1.706-3.505-2.595-5.24C497 470 497 470 497 468h-2c-3-5.75-3-5.75-3-8h-2v-3h3v3l4-1 3 6h3l-2 3 3 3 1-2 2.688.063c4.295-.082 8.172-.99 12.312-2.063l-3.438-.375L513 466l-1-2 1-2h8l1-4h5c-.776-3.075-.776-3.075-3-5 1.313-1.5 1.313-1.5 3-3h3v2h3l-1-3-2-1v-2l8 1 2-4 4 1-1-6 10-1Z"/>
  <path fill="#C3C2C2" d="m382 394 2 1-1 2 2.188.813c4.135 1.745 7.904 3.697 10.812 7.187l1 3 2.625-.188c4.95.276 8.09 2.128 11.875 5.25 2.416 2.094 2.416 2.094 5.5 2.938 3.366 1.122 5.249 2.799 8 5 3.1 1.2 3.1 1.2 6 2 2 1 2 1 3 3l3 1 1 2c3.054 1.705 5.98 2.993 9.313 4.063C450 434 450 434 451 436a101.38 101.38 0 0 0 6 2v2l6 2v2c-2.788 1.033-3.868 1.045-6.75.063L454 443v-2l-1.75-.438L446 439a343842972.785 343842972.785 0 0 1 7.422 4.492A91.883 91.883 0 0 0 460 447v3l3.25.875c2.844.853 5.185 1.689 7.75 3.125v2h-6l-1-2-1.938-.375L460 453a89.47 89.47 0 0 1-2-4l-3-1v-2l-3-1-3 3-.5-2.125c-2.185-4.189-5.647-6.267-9.5-8.875l2-2c-4.1-3.137-4.1-3.137-9-4l4 3h-5v-2l-2.375-.313C426 431 426 431 424 428l-3-1c-3-1-3-1-5-4 5.75 1.875 5.75 1.875 8 3v-2l-3.375-.875C417 422 417 422 415 420l-1.75 1.125c-2.25.875-2.25.875-4.375.188C407 420 407 420 405 417h-3l-1.875-1c-2.522-1.187-4.37-1.153-7.125-1l-1-5-1.688-.375c-2.533-.685-4.891-1.616-7.312-2.625l3-2v-2l-5-1c-.625-2.313-.625-2.313-1-5l2-3Z"/>
  <path fill="#E0E0E0" d="M259 1088h2l4 29 1-11 2-1c.169 4.999.329 9.997.482 14.996.053 1.699.109 3.397.166 5.095.083 2.45.158 4.9.23 7.35l.083 2.277c.127 4.562-.19 8.782-.961 13.282h2l-.625 2.813c-.742 3.339-.742 3.339 1.625 6.187h3l2 1-1 3c-.1 2.237-.138 4.476-.145 6.715l-.01 2.056c-.01 2.246-.012 4.491-.013 6.737l-.01 4.698a4629.98 4629.98 0 0 0-.007 9.86c0 4.193-.014 8.386-.031 12.579-.011 3.237-.013 6.475-.013 9.713a1084.1 1084.1 0 0 1-.013 4.633c-.036 7.954.28 15.27 2.242 23.009-.875 3.063-.875 3.063-2 5-4.507-6.76-3.117-16.686-3.027-24.555l.037-6.547c.025-3.403.053-6.807.086-10.21.03-3.31.048-6.62.064-9.93l.04-3.09.011-2.875.023-2.519c-.26-2.519-1.008-4.079-2.234-6.274-2.747-8.53-3.592-16.97-4.063-25.875-.129-2.352-.265-4.704-.41-7.055l-.164-3.1c-.392-3.203-1.307-5.929-2.363-8.97-.395-2.254-.395-2.254-.598-4.348l-.24-2.334-.224-2.38c-.156-1.575-.314-3.15-.473-4.723l-.2-2.09c-.242-2.182-.242-2.182-.774-4.53-.53-2.805-.7-5.481-.807-8.333l-.127-3.233-.12-3.341-.13-3.4c-.106-2.763-.208-5.525-.307-8.288Zm11 71v7h1v-7h-1Z"/>
  <path fill="#B0ADA9" d="m509 499 1 11h6v-3h2c.196 4.125.38 8.25.563 12.375l.17 3.563.146 3.398.143 3.142C519 532 519 532 518 534h-2l.063 3.875c.062 3.875.062 3.875-1.063 6.125h-2v2l2 1v12h-2v2l2 1h-2v2h2v11l-3 1 2 1v9l-3 1-2-1v-8h2v-2l-2-1h2v-2h-2l2-9h-2c.75-7.75.75-7.75 3-10h-2l1-2-1-1v-4h2v-2h-2l-.113-2.336-.2-3.039-.175-3.023L509 534l-3-2a53.647 53.647 0 0 1-.293-7.195l.013-2.144c.017-2.262.054-4.524.092-6.786.016-1.533.03-3.065.042-4.598.033-3.76.084-7.518.146-11.277 2-1 2-1 3-1Z"/>
  <path fill="#E7E5E4" d="M648.063 392.938 651 393v2h-2c.506 2.169 1 4 2 6h-2l-2 3-2.5.375-2.5.625c-1.155 2.471-1.155 2.471-2 5l-3 1v-2a294.9 294.9 0 0 0-3.938.875l-2.214.492c-2.055.463-2.055.463-2.848 2.633h-3c-1.859 1.573-2.908 2.816-4 5-3.679 2.644-7.534 3.94-11.816 5.254-2.221.702-2.221.702-4.336 1.836C603 426 603 426 601 426l-2 4-1-2c-4.956 3.73-4.956 3.73-8 9l-5-1v2l-10 2-1 3h-2l-1.375 1.938c-1.836 2.33-2.754 2.666-5.625 3.062v-4c17.34-9.766 17.34-9.766 25-14l-6 2v-2h2l1-2 3-1 1-2a206.38 206.38 0 0 1 5-2l2.625-1.625C601 420 601 420 604 420a70.959 70.959 0 0 0 4.125-.813l2.133-.457L612 418c1.044-3.133.934-3.99 0-7l2.082-.586 2.73-.789 2.708-.773c2.685-.805 2.685-.805 5.48-2.852l2.625.063c4.49-.084 8.2-1.504 12.375-3.063v-2l4-1-.063-2.938c.083-4.042.083-4.042 4.125-4.125Z"/>
  <path fill="#AFADAB" d="M464 443c3.09 1.402 6.17 2.824 9.25 4.25l2.645 1.2c4.41 2.053 7.875 3.808 11.105 7.55l3 2v2h2c3 5.75 3 5.75 3 8h2l.875 2.375c.974 2.722.974 2.722 3.125 4.625 1.547 3.387 2.998 6.8 4.434 10.234 1.756 4.219 1.756 4.219 4.566 7.766 2.915.584 2.915.584 6 0 2.404-2.378 2.404-2.378 4-5l-.438 3.313c-.655 5.216-1.11 10.45-1.562 15.687h-2v3h-6l-.367-1.898-.508-2.477-.492-2.46c-.5-2.352-.5-2.352-2.633-4.165-.605-1.82-.605-1.82-1.188-4.125C500.685 480.613 493.962 464.31 481 456a250.08 250.08 0 0 0-10.695-5.387A90.331 90.331 0 0 1 462 446l2-3Z"/>
  <path fill="#DBDBDB" d="M262 715h2c1.032 9.107 1.214 18.193 1.316 27.348l.063 4.743c.044 3.309.085 6.618.124 9.927.048 4.158.102 8.316.158 12.474.25 18.837.412 37.67.339 56.508h-2l-.246 3.188c-.77 6.163-2.869 11.939-4.817 17.812l-1.142 3.504c-.925 2.834-1.857 5.666-2.795 8.496h-1c.43-4.082.924-7.735 2.063-11.688.86-3.04 1.019-5.199.937-8.312.589-3.829 1.777-7.332 3-11a530 530 0 0 0 1-5l1.017-3.236c.97-3.711 1.227-6.723 1.213-10.545v-2.01a940.796 940.796 0 0 0-.043-6.709l-.019-4.82c-.138-26.895-.69-53.79-1.168-80.68Z"/>
  <path fill="#D6D6D5" d="M500 475h2l2 3 1-2h18l-1 7h-2l-.313 3.25c-1.012 5.52-1.012 5.52-3.687 7.75-3.688.25-3.688.25-7 0v-2l-2-1a157.244 157.244 0 0 1-3.625-7.5l-.984-2.129C500 476.158 500 476.158 500 475Zm8 2v4l4-1-2-1 1-2h-3Z"/>
  <path fill="#E3E1E0" d="m382 394 2 1-1 2 2.188.813c4.135 1.745 7.904 3.697 10.812 7.187l1 3 2.688-.125c3.285.124 5.366.739 8.312 2.125l-1 5h2v2l6 2-4 3c-3.161-1.37-3.993-1.99-6-5h-3l-1.875-1c-2.522-1.187-4.37-1.153-7.125-1l-1-5-1.688-.375c-2.533-.685-4.891-1.616-7.312-2.625l3-2v-2l-5-1c-.625-2.313-.625-2.313-1-5l2-3Z"/>
  <path fill="#C9C7C4" d="m509 499 1 11h6v-3h2c.196 4.125.38 8.25.563 12.375l.17 3.563.146 3.398.143 3.142C519 532 519 532 518 534l-3-1 2-1-1-8h-7l-1 6c-1.002-3.379-1.196-6.563-1.316-10.078l-.127-3.516-.12-3.656-.13-3.703A3904.27 3904.27 0 0 1 506 500c2-1 2-1 3-1Z"/>
  <path fill="#9F9D9A" d="m613 413 1 4c-1.247.65-2.498 1.296-3.75 1.938l-2.11 1.09c-3.17 1.44-5.652 1.972-9.14 1.972l-2 2c-2.625.125-2.625.125-5 0l-1 2-3 1-1 2-3 1-1 2c-1.777 1.07-1.777 1.07-3.938 2.125l-2.152 1.07C575 436 575 436 573 436v2h-2l-1 2c-2.438 1.188-2.438 1.188-5 2l-2-1c1-2 1-2 4-3l.906-1.922c1.43-2.715 2.79-3.18 5.594-4.328l2.406-1.016C578 430 578 430 580 430l1-2a78.037 78.037 0 0 1 5-2v-2l2.117-.516 2.758-.734 2.742-.703c2.917-1.282 3.062-2.26 4.383-5.047 2.094-1.23 2.094-1.23 4.5-2.188l2.406-.98L607 413c2.49-1.245 3.41-.777 6 0Z"/>
  <path fill="#DCD9D6" d="M648.063 392.938 651 393v2h-2c.506 2.169 1 4 2 6h-2l-2 3-2.5.375-2.5.625c-1.155 2.471-1.155 2.471-2 5l-3 1v-2a294.9 294.9 0 0 0-3.938.875l-2.214.492c-2.055.463-2.055.463-2.848 2.633l-1.75-.625c-2.805-.467-3.808.286-6.25 1.625h-6v-3c5.025-2.4 9.453-4.223 15-5 3.683-.941 7.342-1.965 11-3v-2l4-1-.063-2.938c.083-4.042.083-4.042 4.125-4.125Z"/>
  <path fill="#DBDBDB" d="M591 321c1.108 3.325.845 5.622 0 9h-2v3l-3-1-2 3v-2l-6 2 1-2-3.91.438-5.153.562c-.847.095-1.695.19-2.568.29-4.824.52-9.517.815-14.369.71v-1l3.246-.621 4.192-.817 2.142-.408c3.504-.438 3.504-.438 6.42-2.154l8-1h-17v-1l3.324-.367 4.364-.508 2.185-.238c4.045-.48 7.354-1.278 11.127-2.887 2.313.375 2.313.375 4 1l1-2 4 1 1-3Z"/>
  <path fill="#E1E1E1" d="m781 1199 3.563 1.188 2.488.828c2.144.715 4.287 1.435 6.43 2.156l3.769 1.265 3.516 1.184a505462604.694 505462604.694 0 0 1 7.13 2.32c22.722 7.21 45.26 9.88 68.927 10.886 3.768.205 7.446.62 11.177 1.173l-1 2c-31.589-1.385-62.596-4.69-92.688-15.125l-2.013-.695c-4.248-1.56-7.687-3.506-11.299-6.18v-1Z"/>
  <path fill="#84807E" d="M519 488c1.016 3.16.802 4.838 0 8-.216 1.914-.403 3.83-.563 5.75l-.253 2.984L518 507h-2v3h-6l-.367-1.898-.508-2.477-.492-2.46c-.5-2.352-.5-2.352-2.633-4.165-.125-3.125-.125-3.125 0-6l3-1 1 1c2.915.5 2.915.5 6 0 1.935-2.39 1.935-2.39 3-5Z"/>
  <path fill="#CBCBCB" d="M272 1164c1.995 2.993 2.267 3.714 2.416 7.087l.119 2.486c.03.889.062 1.777.094 2.693l.116 2.817c.424 11.528.29 23.06.16 34.593-.031 2.853-.049 5.705-.065 8.558l-.04 2.576c-.022 5.006.533 9.43 1.854 14.266.495 2.749-.278 4.554-1.654 6.924-4.419-6.628-3.13-16.296-3.063-24.027l.012-3.117c.016-4.345.044-8.691.072-13.037.018-3.199.032-6.397.041-9.596l.01-3.137c-.004-7.526-.28-15.01-.804-22.518A180.667 180.667 0 0 1 271 1165l1-1Z"/>
  <path fill="#DCDCDC" d="M771 868h2c3.96 10.457 3.96 10.457 5.125 15.625L779 887l2 1c.177 1.765.352 3.531.523 5.297.615 3.487 1.749 6.746 2.914 10.078 2.028 5.812 3.604 11.54 4.563 17.625l7-1-1.813 1.813c-2.587 3.77-3.391 7.144-4.378 11.566-.849 2.75-1.958 4.442-3.809 6.621-.251-6.409-.251-6.409 1.063-9.5 2.126-5.67-.69-11.795-2.625-17.25-2.776-8.064-5.27-16.197-7.688-24.375l-1.033-3.483c-1.7-5.772-3.315-11.541-4.717-17.392Z"/>
  <path fill="#EEECEB" d="m589 429 2 1c-7.097 5.577-15.41 9.97-23.895 13.05L565 444a106.103 106.103 0 0 0-1 5c-2.063 1.313-2.063 1.313-4 2l1 3c-2 2-2 2-5.125 2.125L553 456l-1-6c5.75-3 5.75-3 8-3v-2h2v-2l1.938-.375L566 442l1-2 2 1 1-2 3-1v-2h2l1-2c3.61-1.703 7.104-3.134 11-4l2-1Z"/>
  <path fill="#D6D6D6" d="M264 804h1c1.174 7.338 1.094 14.582 1 22h-2l-.246 3.188c-.77 6.163-2.869 11.939-4.817 17.812l-1.142 3.504c-.925 2.834-1.857 5.666-2.795 8.496h-1c.43-4.082.924-7.735 2.063-11.688.86-3.04 1.019-5.199.937-8.312.589-3.829 1.777-7.332 3-11a530 530 0 0 0 1-5l1-3.063c1.54-5.17 1.666-10.581 2-15.937Z"/>
  <path fill="#E6E6E6" d="M762 701h1c.046 10.475.082 20.95.104 31.424.01 4.864.024 9.728.047 14.592.022 4.694.034 9.388.039 14.083.003 1.79.01 3.581.021 5.371.015 2.51.017 5.018.016 7.527l.022 2.24c-.016 4.033-.46 7.133-2.249 10.763h-1c-.06-13.144.086-26.275.372-39.415.065-3.016.125-6.032.185-9.048.26-12.527.741-25.027 1.443-37.537Z"/>
  <path fill="#E4E4E4" d="M235 1215c-3.435 2.29-4.985 2.178-9 2 4.862-3.241 4.862-3.241 9-2Zm-9 2c-1 2-1 2-3.953 3.113-11.544 3.369-23.283 5.097-35.172 6.7l-2.464.336c-2.367.32-4.736.628-7.106.933l-2.13.283c-5.087.63-10.05.709-15.175.635 3.428-3.159 5.974-3.406 10.563-3.563 1.353-.066 2.705-.135 4.058-.207l2.164-.107c16.314-.903 33.55-8.535 49.215-8.123Z"/>
  <path fill="#D7D7D7" d="m760 788 2 1c.025 4.323.043 8.647.055 12.97.005 1.47.012 2.939.02 4.408.013 2.118.018 4.235.023 6.352l.016 3.857c-.099 2.957-.474 5.538-1.114 8.413.084 2.218.084 2.218.438 4.313L762 833l3 1-.559 1.672c-.533 2.813-.126 4.793.496 7.578l.59 2.703L766 848h-2c-1.92-4.116-2.72-8.26-3.535-12.695-.445-2.45-.445-2.45-1.465-5.305-.095-2.058-.13-4.12-.133-6.18l-.004-3.758.012-3.937-.012-3.82A265.19 265.19 0 0 1 760 788Z"/>
  <path fill="#C8C6C5" d="m382 394 2 1-1 2 2.188.813c4.135 1.745 7.904 3.697 10.812 7.187l1 3h6l1 4h2l-1 2a974.403 974.403 0 0 1-8.938-3.813l-2.576-1.08c-.809-.35-1.617-.702-2.45-1.064l-2.27-.968C387 406 387 406 386 403l-5-1c-.625-2.313-.625-2.313-1-5l2-3Z"/>
  <path fill="#E9E9E9" d="M259 1088h2c.723 5.048 1.434 10.098 2.136 15.149a1511 1511 0 0 0 .728 5.138c1.376 9.613 2.576 18.97 2.136 28.713h-1l-2-9h-1c-2.015-13.301-2.586-26.566-3-40Z"/>
  <path fill="#E1E1E1" d="m268 1154 1.313 1.5c1.684 1.832 1.684 1.832 4.687 1.5l2 1-2 9-3-2 1 1c.125 1.6.176 3.207.188 4.813l.042 2.644c-.24 2.652-.888 4.268-2.23 6.543-2.572-9.184-3.894-16.532-2-26Z"/>
  <path fill="#9D9B99" d="m507 522 1 4 1-2h7c1.125 7.625 1.125 7.625 0 11l-5 1v-2l-5-2c-.125-6.625-.125-6.625 1-10Z"/>
  <path fill="#DBDBDB" d="M594 306c1.255 3.766.37 5.372-1 9l-1.969.164c-5.065.439-10.11.948-15.152 1.59l-3.147.4c-2.11.272-4.219.548-6.328.828-7.173.903-14.177 1.185-21.404 1.018v-1l2.87-.335c3.56-.418 7.12-.84 10.68-1.264 1.532-.182 3.064-.362 4.596-.541 11.505-1.333 11.505-1.333 22.878-3.497C588 312 588 312 592 312l-1-4h3v-2Z"/>
  <path fill="#CBCBCB" d="m594 428 2 1-3.809 4.492c-1.279 1.514-1.279 1.514-2.191 3.508l-5-1v2l-10 2-1 3h-2l-1.375 1.938c-1.836 2.33-2.754 2.666-5.625 3.062v-4c8.512-4.861 17.015-9.63 25.84-13.906 2.085-.915 2.085-.915 3.16-2.094Z"/>
  <path fill="#BBB9B6" d="M464 443c3.09 1.402 6.17 2.824 9.25 4.25l2.645 1.2c4.385 2.041 7.949 3.769 11.105 7.55l1.75 1.75L490 459c-9.944-2.915-19.19-7.568-28-13l2-3Z"/>
  <path fill="#E4E4E4" d="M786 941c2 2 2 2 2.06 4.778l-.267 3.515-.28 3.85-.326 4.044-.29 3.987c-.97 12.887-.97 12.887-1.897 17.826l-2 1c-.145-8.418.297-16.733.938-25.125l.263-3.727.264-3.53.238-3.2C785 942 785 942 786 941Z"/>
  <path fill="#E2E2E2" d="M591 321c.934 3.01 1.044 3.867 0 7l-2.313-.125c-2.914-.096-2.914-.096-5.687 2.125-3.188.125-3.188.125-6 0v-1h-17v-1l3.324-.367 4.364-.508 2.185-.238c4.045-.48 7.354-1.278 11.127-2.887 2.313.375 2.313.375 4 1l1-2 4 1 1-3Z"/>
  <path fill="#EDECEB" d="M443 437c3.866 1.041 7.495 2.037 11 4v2l9 1 1 3c3.503 1.716 3.503 1.716 7 3v4c-3.912-.782-7.427-2.247-11-4l-1-3c-2.378-1.586-2.378-1.586-5.25-3-7.334-3.806-7.334-3.806-10.75-6v-1Z"/>
  <path fill="#AEACA9" d="M408 411c3 1 3 1 4.313 2.438 1.692 1.786 1.692 1.786 4.562 2.5 3.408 1.158 5.418 2.731 8.125 5.062l2 1-1 2 4 1-1 2a525.107 525.107 0 0 1-5.938-2.313l-3.34-1.3C417 422 417 422 416 419c-3.512-1.23-3.512-1.23-7-2v-2h-2l1-4Z"/>
  <path fill="#B7B5B1" d="m512 565 3 1v9l-3 1 2 1v9l-3 1-2-1v-8h2v-2l-2-1h2v-2h-2c1.875-5.75 1.875-5.75 3-8Z"/>
  <path fill="#AEAEAE" d="M272 1209h1v15h2l-.125 3.438c-.023 3.277.42 6.082 1.25 9.25.93 3.733.872 5.873-1.125 9.312-4.665-6.997-3.127-17.499-3.063-25.625l.014-3.332c.012-2.681.028-5.362.049-8.043Z"/>
  <path fill="#E2E2E2" d="M775 1094h1c.245 8.853-.08 17.554-.875 26.375l-.238 2.829-.254 2.632-.222 2.36L774 1130l-2 1c1.33-33.661 1.33-33.661 3-37Z"/>
  <path fill="#D0D0D0" d="M264 804h1c1.174 7.338 1.094 14.582 1 22h-2v4h-2v-2h-2c.505-2.777 1.122-5.375 2-8.063 1.54-5.17 1.666-10.581 2-15.937Z"/>
  <path fill="#D1D0CF" d="M426 422c4.75.875 4.75.875 7 2v2h-2v3l2 1-1 1 4 3h-5v-2l-2.375-.313C426 431 426 431 424 428l-3-1c-3-1-3-1-5-4l3.688.938c3.09.774 6.18 1.475 9.312 2.062-1.053-1.158-1.053-1.158-3-2v-2Z"/>
  <path fill="#CAC7C4" d="m613 413 1 4c-1.247.65-2.498 1.296-3.75 1.938l-2.11 1.09c-2.042.928-3.951 1.504-6.14 1.972v-4h-2c1.25-2.502 2.35-2.922 4.813-4.188l2.082-1.105c2.465-.828 3.688-.56 6.105.293Z"/>
  <path fill="#BBB9B5" d="M648.063 392.938 651 393v2h-2c.506 2.169 1 4 2 6h-2l-2 3c-2.625.688-2.625.688-5 1l-2-4 4-1-.063-2.938c.083-4.042.083-4.042 4.125-4.125Z"/>
  <path fill="#8E8A85" d="M509 591h4c.139 7.793-.264 15.431-1 23.188A2230.177 2230.177 0 0 1 511 625l-1-.001c-.168-3.437-.334-6.875-.5-10.313l-.145-2.958-.136-2.842-.127-2.619A130.294 130.294 0 0 1 509 601h2v-2l-2-1h2v-2l-2-1h2v-2h-2v-2Z"/>
  <path fill="#EAEAEA" d="M433 329h15v3l3 2c-3.989 1.33-7.185.384-11.188-.438l-2.271-.447A952.612 952.612 0 0 1 432 332l1-3Z"/>
  <path fill="#DEDEDE" d="m245 890 2 1-6 19-14-3v-2l12 1 1.059-2.992 1.379-3.883.697-1.973c1.752-4.925 1.752-4.925 2.865-7.152Z"/>
  <path fill="#DCDAD8" d="M612 411h2l1 3 1.813-1c2.187-1 2.187-1 5.187-1l2-1v3l-2 2-1 2c-4.284 3.213-8.847 4.046-14 5 2.679-2.872 5.438-4.338 9-6h-2l-2-6Z"/>
  <path fill="#DDD" d="M767 1178c2.617 5.126 2.617 5.126 3 8l-2 2 2 3-2 1c-.47 3.276-.47 3.276-.625 7.063l-.227 3.91L767 1206c-4.799-7.903-1.912-19.483 0-28Z"/>
  <path fill="#C9C9C9" d="M759 821c2.234 4.033 2.545 7.45 3 12l3 1-.559 1.672c-.533 2.813-.126 4.793.496 7.578l.59 2.703L766 848h-2c-1.92-4.116-2.72-8.26-3.535-12.695-.445-2.45-.445-2.45-1.465-5.305a81.355 81.355 0 0 1-.063-4.688l.028-2.449L759 821Z"/>
  <path fill="#DDDCDC" d="m612 416 5 1c-2.13 1.735-3.914 2.968-6.5 3.938-2.864 1.217-4.434 2.767-6.5 5.062l-3-1v-2h-2l-1 2 1-4 2-.375c3.697-.77 7.34-1.695 11-2.625v-2Z"/>
  <path fill="#E3E2E1" d="M490 457h3v3l4-1 3 6h3l-5 4v-2h-2v-2l-3-1c-.688-2.063-.688-2.063-1-4h-2v-3Z"/>
  <path fill="#E2E2E2" d="M259 1088h2c1.366 7.937 2.375 15.026 1 23h-1c-1.231-7.727-2.27-15.168-2-23Z"/>
  <path fill="#A8A7A3" d="M448 436c4.704.627 7.314 1.672 11.063 4.625 1.813 1.568 1.813 1.568 3.937 1.375v2c-2.788 1.033-3.868 1.045-6.75.063L454 443v-2l-1.875-.438C450 440 450 440 448 439v-3Z"/>
  <path fill="#D9D9D9" d="m761 1234 2 1v9h2a108.817 108.817 0 0 1-1 7l-2 1v-3l-3-1 1-1c.235-2.183.414-4.372.563-6.563l.253-3.628L761 1234Z"/>
  <path fill="#494542" d="m509 501 1 4h6l1-4c1 1 1 1 1.063 3.563L518 507h-2v3h-6l-1-9Z"/>
  <path fill="#D2D2D2" d="M265 1138c2.899 3.5 3.311 5.432 3 10h2l-2 12c-2.44-2.44-2.287-3.214-2.414-6.57l-.117-2.715-.094-2.84-.117-2.863c-.095-2.337-.18-4.674-.258-7.012Z"/>
  <path fill="#C3BFBD" d="m510 534 1 2 5-1v7l-6 2v-10Z"/>
  <path fill="#CFCECC" d="M508 522h11c.125 9.75.125 9.75-1 12l-3-1 2-1-1-8h-7l-1 6c-1.082-3.365-.925-4.298 0-8Z"/>
  <path fill="#B0AEAB" d="M389 404c5.75-.125 5.75-.125 8 1v3h6l1 4h2l-1 2-11-5v-2l-5-2v-1Z"/>
  <path fill="#AAA7A4" d="M431 426c2.938.375 2.938.375 6 1l1 2a78.037 78.037 0 0 0 5 2v2h2v2h2l-1 2-15-8v-3Z"/>
  <path fill="#6C6763" d="M509 495c1.675.286 3.344.618 5 1l-2 3 1 2h2v4h-5a543.754 543.754 0 0 1-1.063-4.438l-.597-2.496L508 496l1-1Z"/>
  <path fill="#A8A5A3" d="M625 408c-.25 1.875-.25 1.875-1 4-3.374 2.25-6.025 2-10 2v-3c6.5-3 6.5-3 11-3Z"/>
  <path fill="#A19F9C" d="m598 417 4 1c-1.152 3.456-1.911 4.198-5 6-2.75.188-2.75.188-5 0l-1 2-2 1v-3h2v-2l2.375-.25c2.772-.478 2.772-.478 3.938-2.813L598 417Z"/>
  <path fill="#E7E7E7" d="M570.848 329.902 577 330v1l-5 1v2l-19 1v-1l3.246-.621 4.192-.817 2.142-.408c2.894-.567 5.582-2.11 8.268-2.252Z"/>
  <path fill="#C8C4C2" d="m512 565 3 1v9h-4v-2h-2c1.875-5.75 1.875-5.75 3-8Z"/>
  <path fill="#CDCDCE" d="m459 447 1 3c2.31.741 4.648 1.402 7 2 1.354.625 2.7 1.272 4 2v2h-6l-1-2-1.938-.375C460 453 460 453 458.875 451l-.875-2-2-1 3-1Z"/>
  <path fill="#D7D7D7" d="M771 868h2c2.327 5.984 4.43 11.58 5 18-2-1-2-1-3.29-4.309a394.91 394.91 0 0 1-1.335-4.129l-.695-2.103C771 870.295 771 870.295 771 868Z"/>
  <path fill="#B8B7B5" d="M517 507h1v16h-3v-11h1l1-5Z"/>
  <path fill="#AEABA9" d="M419 417c3.049 1.016 3.867 1.774 6 4l2 1-1 2 4 1-1 2-7-3v-2l-4-1 1-4Z"/>
  <path fill="#ECEBE9" d="m637 409-2 4-4-1-1 3h-7c2.253-3.379 2.35-3.27 6-4l2.563-1.063C634 409 634 409 637 409Z"/>
  <path fill="#D6D6D6" d="M765 849h2c2.666 6.05 4.51 11.39 5 18-2-1-2-1-3.29-4.309a394.91 394.91 0 0 1-1.335-4.129l-.695-2.103C765 851.295 765 851.295 765 849Z"/>
  <path fill="#E7E7E7" d="M789 925h2c-.497 5.661-1.545 9.877-4 15h-1c-.363-5.802.743-9.64 3-15Z"/>
  <path fill="#CACACA" d="m591 321 1 4c-5.487 1.868-10.222 2.236-16 2 1.688-1.563 1.688-1.563 4-3 2.75.313 2.75.313 5 1l1-2 4 1 1-3Z"/>
  <path fill="#EFEEED" d="m552 439 .875 1.875c1.062 2.258 1.062 2.258 3.125 4.125h-2l-1 2h-4v2l-3-1 1.875-2.25c1.73-2.238 2.986-4.187 4.125-6.75Z"/>
  <path fill="#C0BDBA" d="m632 406-1 3-3 1-1 2-2 1-2-6c2.957-1.478 5.742-1.06 9-1Z"/>
  <path fill="#85837E" d="M509 591h4v11l-4-1h2v-2l-2-1h2v-2l-2-1h2v-2h-2v-2Z"/>
  <path fill="#A4A29F" d="M645 393h6v2h-2c.506 2.169 1 4 2 6a56.54 56.54 0 0 1-7-4l1-4Z"/>
  <path fill="#F3F2F0" d="M581 436a1437.687 1437.687 0 0 1-5.875 3.5l-3.305 1.969C569 443 569 443 567 443v-2h2l1-2 3-1 1-2c4.475-1.262 4.475-1.262 7 0Z"/>
  <path fill="#B6B2AF" d="m588 423 3 1h-2l-1 5-1.938.375L584 430l-1 2-2 1c0-3 0-3 2-5l1-2h2v-2l2-1Z"/>
  <path fill="#E8E8E8" d="M570 353c2.375.25 2.375.25 5 1l2 4h-9l2-5Z"/>
  <path fill="#C6C6C6" d="M264 804h1c1.673 11.502 1.673 11.502 1 17l-2 2c-1.096-4.246-.929-7.96-.563-12.313l.31-3.8L264 804Z"/>
  <path fill="#E0DEDC" d="M503 480h4c1.046 3.137 1 5.724 1 9l2 1-1 2c-2.677-1.339-2.951-2.72-4.125-5.438l-1.07-2.433C503 482 503 482 503 480Z"/>
  <path fill="#DEDEDD" d="M513 477h9c-1.625 3-1.625 3-4 6-3.25.375-3.25.375-6 0l3-2v-2l-2-2Z"/>
  <path fill="#C0BCBA" d="m562 439 1 2 2 1-3 1v2h-2v2l-3 1c0-4 0-4 1-6h2v-2l2-1Z"/>
  <path fill="#CDCBC9" d="m444 432 6 2v2h-2v2h-8l-1-2 4-2 3 2-1-1-1-3Z"/>
  <path fill="#CCC" d="M274 1232c1.568 3.04 2.664 5.56 3 9-.938 2.813-.938 2.813-2 5-2.366-3.549-2.109-4.576-1.625-8.688l.336-3.011L274 1232Z"/>
  <path fill="#DEDEDE" d="M270 1168h2c.286 8.571.286 8.571-2 12-1.123-2.245-1.134-3.515-1.125-6l-.008-2.125C269 1170 269 1170 270 1168Z"/>
  <path fill="#D7D7D7" d="m787 917 2 1v3l7-1c-1.813 2.5-1.813 2.5-4 5h-3c-1.765-3.088-2-4.233-2-8Z"/>
  <path fill="#D4D3D3" d="M388 408c4.827 1.413 8.716 3.43 13 6-2.928.976-4.956 1.082-8 1l-1-5-4-1v-1Z"/>
  <path fill="#E8E8E8" d="M202 409c3.865.414 6.127 2.526 9 5l-1 3-1.625-2.063c-2.287-2.32-2.287-2.32-5.625-1.687L200 414c.875-3.875.875-3.875 2-5Z"/>
  <path fill="#E5E5E5" d="M758 825h1c.533 1.746 1.05 3.497 1.563 5.25l.878 2.953c.551 2.76.497 4.188-.441 6.797l-2-3h-1c-.762-4.316-1.16-7.744 0-12Z"/>
  <path fill="#F0F0EF" d="m555 448 3 1-1 4-5 1c.375-2.438.375-2.438 1-5l2-1Z"/>
  <path fill="#E7E6E7" d="m542 429 10 4-2 2c-3.412-.37-6.689-1.109-10-2l2-4Z"/>
  <path fill="#E7E6E5" d="m631 401 3 1c3.053.158 3.053.158 6-1v3l-2-1-1 2c-2.314.73-4.648 1.401-7 2 0-4 0-4 1-6Z"/>
  <path fill="#E7E7E7" d="M640 330c5.986 1.502 11.613 2.942 17 6-2 1-2 1-5.223.074a334.532 334.532 0 0 1-3.84-1.387l-1.97-.685c-4.84-1.748-4.84-1.748-5.967-4.002Z"/>
  <path fill="#E1E1E1" d="M390 318c1.407 2.815.667 4.57.063 7.625l-.59 3.04L389 331h-1l-1-12 3-1Z"/>
  <path fill="#EDEBE7" d="M510 526h5l1 4h-7l1-4Z"/>
  <path fill="#C9C7C6" d="M519 485c1 3 1 3-.438 6.188L517 494l-3-1-1-5 2.438-.375L518 487l1-2Z"/>
  <path fill="#ACAAA6" d="M484 457c6.702 1.936 6.702 1.936 9 5v2c-2.38-.176-3.702-.697-5.379-2.402-1.242-1.504-2.435-3.05-3.621-4.598Z"/>
  <path fill="#D5D5D5" d="m570 441 2 2c-2.462 3.815-2.462 3.815-5.188 4.75L565 448v-4c2.5-1.75 2.5-1.75 5-3Z"/>
  <path fill="#9C9995" d="m582 427 3 2-4 1-1 4c-1.875.625-1.875.625-4 1l-2-2h2v-2l1.938-.375L580 430l1-2 1-1Z"/>
  <path fill="#F1F0EE" d="m612 416 5 1c-2.85 2.322-5.464 3.94-9 5-2.313-.375-2.313-.375-4-1 5.75-3 5.75-3 8-3v-2Z"/>
  <path fill="#EEE" d="m314 352-1 3-4-2c2-1 2-1 5-1Zm-7 2 2 1-3 2-3-1c1.875-1.063 1.875-1.063 4-2Zm4 1 1 2-2-1 1-1Zm-10 2 2 1h-3l1-1Z"/>
  <path fill="#6F6C6A" d="m517 495 2 1v6l-5-2c1.875-3.875 1.875-3.875 3-5Z"/>
  <path fill="#B4B1B0" d="m457 440 6 2v2c-2.788 1.033-3.868 1.045-6.75.063L454 443l3-3Z"/>
  <path fill="#A4A09D" d="M605 414h6c-1 3-1 3-2.875 4.188C606 419 606 419 603 419c1-3 1-3 2-5Z"/>
  <path fill="#B5B2B0" d="m576 433-1 3h-2v2h-2l-1 2-1-6c3.625-2.125 3.625-2.125 7-1Z"/>
  <path fill="#DDD" d="M594 306c1.255 3.766.37 5.372-1 9l-4-1 3-2-1-4h3v-2Z"/>
  <path fill="#DFDFDF" d="M765 1228h2c.293 6.055.293 6.055 0 8l-3 2 1-10Z"/>
  <path fill="#E4E4E4" d="M257 1073h2c1.429 8.571 1.429 8.571-1 12-.982-4.053-1.082-7.839-1-12Z"/>
  <path fill="#888482" d="m510 531 6 2v2l-5 1v-2h-2l1-3Z"/>
  <path fill="#E0E0E1" d="m559 451 2 3c-2 2-2 2-5.125 2.125L553 456v-2l6-3Z"/>
  <path fill="#A8A4A2" d="m641 404-2 4h-6v-3c4.625-2.125 4.625-2.125 8-1Z"/>
  <path fill="#C3C1BE" d="M509 588h5c.625 2.313.625 2.313 1 5l-2 3-1-3 1-2-4-1v-2Z"/>
  <path fill="#A2A09E" d="M496 471c2.5 1.688 2.5 1.688 5 4 .313 2.75.313 2.75 0 5h-2l-3-9Z"/>
  <path fill="#E6E4E2" d="M431 430c5.538.615 5.538.615 7.875 2.563L440 434l-3 2-6-6Z"/>
  <path fill="#E7E5E4" d="M594 417h4c-1 3-1 3-4 5l-3-1c1.25-2 1.25-2 3-4Z"/>
  <path fill="#D6D3D1" d="m402 409 6 1-1 5-5-1 4-2h-2v-2l-2-1Z"/>
  <path fill="#DCDCDC" d="m786 941 2 2c-.023 2.602-.023 2.602-.375 5.625l-.336 3.04L787 954h-1c-.194-1.979-.38-3.958-.563-5.938l-.316-3.34L785 942l1-1Z"/>
  <path fill="#ECE9E5" d="M515 543c1.804 2.76 2.013 3.89 1.625 7.25L516 553l-1-2-2-1h2v-2l-2-1v-3l2-1Z"/>
  <path fill="#A5A29F" d="M503 485c2 2 2 2 2 5l3 1v2h-2l-1 2c-1.316-3.62-2-6.096-2-10Z"/>
  <path fill="#D0CECC" d="m414 415 5 2-1 4 4 2c-2.438-.375-2.438-.375-5-1l-1-2 1-2h-2l-1-3Z"/>
  <path fill="#93908E" d="m508 492 2 3c-.875 3.188-.875 3.188-2 6-2-2-2-2-2.125-5.125L506 493l2-1Z"/>
  <path fill="#BDBAB9" d="m535 458 3 3c-1.375 2-1.375 2-3 4h-2c.875-4.75.875-4.75 2-7Z"/>
  <path fill="#E3E3E1" d="m482 449 6 3-2 4c-3-2-3-2-3.688-4.625L482 449Z"/>
  <path fill="#C4C2C0" d="m483 452-1 3c-4.75-.75-4.75-.75-7-3 3.29-1.097 4.713-.8 8 0Z"/>
  <path fill="#D1D2D3" d="m594 428 2 1-3 2 1-3Zm-4 4 2 1-2 4h-2v-4l2-1Z"/>
  <path fill="#D4D4D3" d="M618 419c-2.313 2.313-3.479 2.496-6.625 3.125l-2.477.508L607 423c3.335-3.53 6.122-5.626 11-4Z"/>
  <path fill="#E2E2E2" d="M763 1244h2a108.817 108.817 0 0 1-1 7l-2 1c-.125-5.75-.125-5.75 1-8Z"/>
  <path fill="#EBEBEB" d="M268 1154c1.563 1.125 1.563 1.125 3 3-.313 3.188-.313 3.188-1 6-2.29-3.435-2.178-4.985-2-9Z"/>
  <path fill="#A9A5A2" d="m556 443 3 3h-2v2h-5c1-2 1-2 4-3v-2Z"/>
  <path fill="#EAE8E7" d="m566 440 1 4-6 3 1-4 4-1v-2Z"/>
  <path fill="#D0CDCA" d="M597 423v2a100.644 100.644 0 0 1-6 3l-2-1c2.701-2.824 3.944-4 8-4Z"/>
  <path fill="#B2AFAD" d="m618 409 1 3-3 3-2-1v-3l4-2Z"/>
  <path fill="#7A7978" d="m382 394 2 1-1 2 2 1v3h-3v-3l-2-1 2-3Z"/>
</svg>