<svg xmlns="http://www.w3.org/2000/svg" viewBox="0 0 1024 1536">
  <path fill="#F0F0F0" d="M496.735 179.74c4.418.01 8.835.004 13.252-.008 16.897-.037 33.763.101 50.634 1.096l3.766.21c11.8.792 24.105 2.198 34.613 7.962l3.188 1.688c8.829 7.26 11.687 17.964 14.003 28.747 1.983 9.15 4.794 17.962 7.809 26.815l.653 1.95a624.28 624.28 0 0 0 1.91 5.566l1.128 3.274c2.091 4.73 5.27 8.142 9.122 11.523l1.894 1.69c5.574 4.245 11.984 7.145 18.293 10.122l2.524 1.195c6.208 2.907 12.482 5.488 18.87 7.973 4.395 1.776 8.661 3.765 12.942 5.795 4.864 2.303 9.773 4.482 14.712 6.62a986.887 986.887 0 0 1 13.64 6.058c11.059 4.998 22.1 9.981 33.375 14.484 64.102 25.745 64.102 25.745 78.937 50.5l1.188 1.965C843.23 391.924 849.488 410.492 856 429l1.552 4.388c15.174 43.01 28.229 86.633 39.67 130.774a1940.34 1940.34 0 0 0 3.103 11.832c2.168 8.161 4.277 16.31 6.05 24.569 1.736 7.86 3.727 15.617 5.875 23.375 4.109 14.945 7.53 30.036 10.952 45.15 1.2 5.302 2.419 10.6 3.653 15.894 5.74 24.636 10.91 49.34 15.64 74.19 1.01 5.3 2.057 10.592 3.13 15.88 1.551 7.648 3.026 15.273 4.063 23.01l.353 2.483c3.876 27.917 3.576 55.969.268 83.908l-.26 2.202c-2.03 17.123-4.669 34.14-7.408 51.161-.399 2.483-.795 4.965-1.19 7.448-4.243 26.621-8.634 53.212-13.451 79.736l-.48 2.652A4005.257 4005.257 0 0 1 920 1068l-.509 2.66c-7.36 38.418-15.612 76.703-24.95 114.692-1.07 4.413-1.92 8.758-2.478 13.273-.779 5.139-2.76 8.748-5.368 13.195-10.786 20.231-15.976 44.308-22.57 66.18l-1.119 3.7c-1.978 6.619-3.755 13.216-5.202 19.972C857 1304 857 1304 854 1306c-28.736 3.197-74.405-8.075-98-25-3.586-3.81-3.426-6.82-3.305-11.852.435-4.492 1.48-8.752 2.649-13.105.67-3.107.77-5.875.656-9.043l-2.246.77c-6.419 2.097-12.734 3.746-19.379 4.918l-2.021.36c-10.686 1.793-21.458 2.196-32.272 2.48l-2.265.061c-24.361.652-48.735.75-73.103.928-5.364.04-10.727.083-16.091.127a44680.437 44680.437 0 0 1-25.222.201c-29.275.232-58.536.18-87.808-.216l-9.579-.126c-7.546-.1-15.093-.2-22.639-.303-7.698-.104-15.395-.204-23.093-.303-6.701-.086-13.403-.174-20.105-.265-3.962-.053-7.925-.106-11.887-.156-16.308-.206-32.594-.54-48.89-1.252-7.304-.316-14.605-.446-21.916-.54l-4.325-.063c-2.977-.043-5.955-.084-8.932-.124-3.718-.049-7.436-.102-11.154-.158A3165.65 3165.65 0 0 0 256 1253c-.009 1.764-.015 3.529-.02 5.293l-.012 2.978c.034 2.913.312 5.721.72 8.604.34 3.407.407 4.886-.875 8.125-11.753 12.969-37.386 16.517-53.813 20l-2.51.54c-9.732 2.014-19.304 2.74-29.24 2.835l-3.068.042c-5.796-.037-10.161-.407-15.182-3.417-3.031-4.043-3.891-8.275-4.762-13.148l-.94-4.943-.486-2.613c-2.607-13.946-5.463-27.804-9-41.546l-.934-3.7c-2.482-9.44-5.77-18.258-10.503-26.8-2.114-4.141-3.063-8.033-3.887-12.605l-.383-2.125c-1.048-5.918-1.9-11.858-2.707-17.813-1.743-12.77-3.837-25.398-6.535-38.002-4.872-22.848-8.919-45.835-12.943-68.845-.91-5.188-1.825-10.376-2.74-15.563-1.915-10.864-3.816-21.73-5.71-32.597l-1.366-7.832c-3.005-17.215-5.91-34.429-8.291-51.743l-.71-5.059a6695.84 6695.84 0 0 1-1.396-10.015c-.486-3.494-.986-6.985-1.494-10.475-1.45-9.947-2.803-19.88-3.775-29.888l-.37-3.802c-4.587-48.612-3.658-95.33 7.562-143.084 1.794-7.756 3.248-15.547 4.663-23.38 2.4-13.194 5.24-26.263 8.254-39.329.827-3.59 1.645-7.183 2.46-10.777 3.469-15.185 7.231-30.278 11.208-45.338.915-3.47 1.818-6.942 2.72-10.415 10.53-40.497 21.952-80.675 34.454-120.61.62-1.983 1.239-3.966 1.856-5.95C153.948 475.265 161.843 450.59 170 426l.715-2.164c4.569-13.818 9.667-27.282 15.848-40.461l1.533-3.324c5.201-10.697 12.023-18.74 22.404-24.613l2.341-1.377c7.917-4.607 15.998-8.905 24.159-13.061l1.958-1.002c17.287-8.823 34.915-16.952 52.524-25.106 10.276-4.764 20.499-9.632 30.706-14.54 3.875-1.863 7.754-3.72 11.633-5.575l5.806-2.782c4.562-2.186 9.132-4.354 13.725-6.475 11.84-5.37 11.84-5.37 22.648-12.52l2.469-1.84c15.072-12.19 19.103-31.936 24.031-49.785 7.08-25.598 7.08-25.598 13.5-30.375l1.637-1.254c20.936-14.703 54.734-10.07 79.098-10.007ZM244 782l-.76 2.892c-5.332 20.206-11.155 39.8-19.24 59.108l-1.038 2.487a1700.64 1700.64 0 0 1-3.838 9.093 1037.555 1037.555 0 0 0-8.309 20.17 926.575 926.575 0 0 1-2.223 5.47c-4.531 11-4.531 11-3.28 22.468l.872 2.011c.983 2.772 1.327 5.382 1.691 8.301.802 6.26 2.022 12.338 3.375 18.5 2.512 11.583 4.345 23.236 6.133 34.947 1.485 9.706 3.098 19.328 5.18 28.928 2.443 11.43 3.809 22.941 5.182 34.537 1.437 12.096 3.157 24.09 5.255 36.088 3.361 19.246 5.724 38.6 8 58h1c1.005-11.626 1.286-23.225 1.5-34.887l.122-6.254c.11-5.661.213-11.322.314-16.984.064-3.59.13-7.18.195-10.769 1.369-75.812 1.937-151.638 1.991-227.461l.011-8.993c.006-4.61.006-9.22.001-13.83 0-1.665 0-3.332.002-4.998.003-2.254-.001-4.509-.007-6.763l-.002-3.795A41.27 41.27 0 0 0 245 782h-1Zm534 27-.017 2.355a27610.31 27610.31 0 0 1-.67 76.083l-.03 2.94c-.529 51.66-1.325 103.263-3.783 154.872l-.164 3.46c-1.043 21.94-2.206 43.874-3.741 65.786-.61 8.85-.832 17.635-.595 26.504h1l.471-3.687c2.853-22.22 5.752-44.374 9.972-66.384a750.478 750.478 0 0 0 1.545-8.421c1.399-7.84 2.825-15.665 4.453-23.461 3.722-18.027 6.038-35.94 7.856-54.25.778-7.743 1.75-15.457 2.766-23.172l.503-3.843a7368.78 7368.78 0 0 1 1.868-14.023c.399-2.982.796-5.964 1.191-8.946l.37-2.778a477.324 477.324 0 0 0 2.271-21.305c.35-3.88.903-7.31 2.05-11.035 1.428-6.177-1.162-11.253-3.441-16.945-.939-2.484-1.872-4.97-2.8-7.457l-.75-1.988c-3.122-8.332-5.892-16.78-8.637-25.242l-.78-2.395c-3.92-12.091-7.365-24.203-9.908-36.668h-1Zm-10 334 1 4Zm-1 5c-1.467 5.225-2.226 9.581-2 15h1c1.263-5.075 2.27-9.728 2-15h-1Zm-3 15 1 4Zm-1 4v5h1v-5h-1Zm-1 17c-4.266 14.948-2.101 32.563-2 48h1c1.657-12.529 3.048-24.972 3.188-37.625l.04-2.084c.005-3.669-.134-5.15-2.228-8.291Z"/>
  <path fill="#EAEAEA" d="M779 763h1c.904 6.172 1.015 12.105.878 18.34-.343 15.907.365 30.32 5.122 45.66l1.152 3.758a179.189 179.189 0 0 0 1.953 5.707 99.821 99.821 0 0 1 1.86 5.93c1.008 3.512 2.167 6.92 3.41 10.355l1.324 3.672c1.161 3.193 2.324 6.386 3.489 9.578l1.812 5 1.25 3.438C803 877 803 877 803 881h2l.375 2c.77 3.697 1.695 7.34 2.625 11l5-1-2.938 2.625c-5.208 6.005-4.197 14.353-3.945 21.875-.117 3.5-.117 3.5-1.046 6.699-1.14 4.046-1.78 7.964-2.325 12.121l-.32 2.366c-.222 1.645-.441 3.29-.658 4.936-.327 2.476-.663 4.95-1 7.425-1.565 11.616-2.873 23.14-2.74 34.879-.033 2.464-.446 4.683-1.028 7.074-.95 5.278-1.055 10.304-.938 15.645C796 1011 796 1011 795 1013a87.253 87.253 0 0 0 0 4.688c.048 4.214-.382 8.14-1 12.312.03 1.887.03 1.887.063 3.813.046 3.05-.323 5.713-1 8.687-.962 4.372-1.29 8.592-1.5 13.063-.312 6.457-1.198 12.645-2.402 18.992-1.457 7.771-2.32 15.587-3.161 23.445-.543 5.029-1.168 10.01-2 15v3a93.365 93.365 0 0 1-1 4c-2.053 8.026-3.349 16.058-4.215 24.29-.467 4.143-1.363 7.798-2.785 11.71-1.105 3.865-1.955 7.629-2.438 11.625-.562 3.375-.562 3.375-2.187 6.5-1.593 2.749-1.593 2.749-1.25 5.563.927 2.45 1.871 3.657 3.875 5.312l-5 1 4 4-3 1v2.738c0 13.262 0 13.262-.438 14.95-.657 2.701-.924 5.405-1.242 8.164-.32 2.15-.812 4.176-1.383 6.273-1.057 3.707-1.057 3.707-.937 6.938 0 3.664-.886 6.455-2 9.937l2 1c-3.873 11.851-3.873 11.851-5.96 15.832-2.706 5.643-4.227 11.986-5.04 18.168h-2c-.342-6.72.629-12.384 2.344-18.887.66-3.132.77-5.922.656-9.113l-2.246.77c-6.419 2.097-12.734 3.746-19.379 4.918l-2.021.36c-10.686 1.793-21.458 2.196-32.272 2.48l-2.265.061c-24.361.652-48.735.75-73.103.928-5.364.04-10.727.083-16.091.127a44680.625 44680.625 0 0 1-25.222.201c-29.275.232-58.536.18-87.808-.216l-9.579-.126c-7.546-.1-15.093-.2-22.639-.303-7.698-.104-15.395-.204-23.093-.303-6.701-.086-13.403-.174-20.105-.265-3.962-.053-7.925-.106-11.887-.156-16.308-.206-32.594-.54-48.89-1.252-7.304-.316-14.605-.446-21.916-.54l-4.325-.063c-2.977-.043-5.955-.084-8.932-.124-3.718-.049-7.436-.102-11.154-.158A3165.65 3165.65 0 0 0 256 1253c-.009 1.764-.015 3.529-.02 5.293l-.012 2.978c.034 2.913.312 5.721.72 8.604.34 3.407.407 4.886-.875 8.125-11.753 12.969-37.386 16.517-53.813 20l-2.51.54c-9.732 2.014-19.304 2.74-29.24 2.835l-3.068.042c-5.796-.037-10.161-.407-15.182-3.417-3.031-4.043-3.891-8.275-4.762-13.148l-.94-4.943-.486-2.613c-2.616-13.993-5.49-27.89-9.062-41.671l-.96-3.751c-1.622-6.139-3.454-11.918-6.144-17.677-.812-2.761-.517-4.476.354-7.197 3.23-1.615 6.82-1.583 10.375-1.938 6.258-.657 12.438-1.465 18.637-2.562 4.635-.776 9.295-1.35 13.957-1.938 17.163-2.299 34.433-5.572 50.969-10.75l2.437-.756c1.898-.62 3.766-1.33 5.625-2.056l1-2-3.21.91-4.165 1.152-2.117.604c-5.281 1.447-5.281 1.447-7.508.334a411.23 411.23 0 0 1 4.25-2l2.39-1.125C225 1184 225 1184 229 1184v-2l13-3-1-4h2l-.508-3.621c-2.058-15.68-2.058-15.68.508-23.379h-2l-.168-1.712c-.252-2.555-.51-5.109-.77-7.663l-.263-2.695-.264-2.578-.238-2.38c-.204-2.043-.204-2.043-1.297-3.972-.339-2.055-.618-4.12-.875-6.188l-.259-2.069c-.588-4.898-1.058-9.801-1.487-14.716-1.201-13.634-2.738-26.999-5.327-40.455-2.525-13.45-4.188-27.016-5.909-40.588l-.713-5.562-.347-2.712c-.902-6.838-2.152-13.555-3.625-20.291-.497-3.712-.152-6.754.542-10.419 2.279 3.814 2.994 7.943 3.813 12.25l.516 2.7c1.901 10.512 3.09 21.114 4.357 31.716a708.855 708.855 0 0 0 5.376 36.834c3.653 21.113 6.532 42.332 8.255 63.697.358 4.25.934 8.392 1.714 12.587.18.98.362 1.96.549 2.97L245 1149l2.742-.003c22.194-.022 44.388-.039 66.582-.049 10.734-.005 21.468-.012 32.201-.023 9.375-.01 18.75-.017 28.124-.02 4.946 0 9.893-.003 14.84-.01 19.287-.029 38.551.05 57.83.661 18.098.57 36.194.666 54.3.747 4.826.023 9.652.05 14.478.076 8.104.044 16.209.085 24.314.124 8.204.039 16.41.08 24.614.125l3.056.016 6.088.033c73.42.606 73.42.606 146.831-.177l6.86-.145c5.38-.113 10.76-.231 16.14-.355v-2h-47l1-2 1.873-.025c6.507-.086 13.013-.186 19.52-.292 2.42-.038 4.839-.073 7.259-.105 19.259-.241 19.259-.241 38.348-2.578l-.035-3.762-.028-4.926-.025-2.474-.01-2.412-.016-2.206c.128-2.485.625-4.78 1.114-7.22.197-2.096.36-4.196.5-6.297l.25-3.656.25-3.797c.93-13.953.93-13.953 1.535-18.836.68-5.744.747-11.511.903-17.289a1306.7 1306.7 0 0 1 1.43-32.894c.088-1.567.174-3.134.259-4.7.12-2.201.245-4.401.373-6.601l.219-3.837C772 1019 772 1019 773 1016h2c-.887 32.842-2.055 65.701-4.39 98.475l-.243 3.447-.215 2.925c-.195 4.053-.182 8.096-.152 12.153.15-1.176.3-2.352.456-3.563 2.905-22.591 6.144-44.918 10.88-67.205 1.237-6.02 2.25-12.078 3.266-18.139.727-4.31 1.483-8.602 2.39-12.878 2.71-12.897 4.157-25.822 5.506-38.915 1.056-10.245 2.225-20.463 3.564-30.675l.504-3.84c.617-4.676 1.242-9.351 1.868-14.026.399-2.982.796-5.964 1.191-8.947l.37-2.777a477.324 477.324 0 0 0 2.271-21.305c.35-3.88.903-7.31 2.05-11.035 1.428-6.177-1.162-11.253-3.441-16.945-.939-2.484-1.872-4.97-2.8-7.457l-.75-1.988C791.991 859.069 787.485 844.52 783 830l-1.015-3.255c-4.52-14.888-4.601-29.276-3.985-44.745l.12-3.051c.225-5.322.518-10.635.88-15.949Zm-11 380 1 4Zm-1 5c-1.467 5.225-2.226 9.581-2 15h1c1.263-5.075 2.27-9.728 2-15h-1Zm-3 15 1 4Zm-1 4v5h1v-5h-1Zm-1 17c-4.266 14.948-2.101 32.563-2 48h1c1.657-12.529 3.048-24.972 3.188-37.625l.04-2.084c.005-3.669-.134-5.15-2.228-8.291Z"/>
  <path fill="#E2E2E2" d="M220 984c2.279 3.814 2.994 7.943 3.813 12.25l.516 2.7c1.901 10.512 3.09 21.114 4.357 31.716a708.855 708.855 0 0 0 5.376 36.834c3.578 20.679 6.316 41.417 8.077 62.335.698 7.62 1.89 15.154 3.077 22.709 2.261 14.405 3.856 28.343 3.725 42.96-.024 2.853-.046 5.706-.066 8.559l-.016 2.17c-.05 9.462.255 18.739 1.453 28.142l.357 2.801a100.68 100.68 0 0 0 2.85 13.37c1.446 5.092 2.3 10.072 2.856 15.329l.324 2.469c.406 3.722.56 6.039-.91 9.539-11.132 13.174-37.69 16.703-53.789 20.117l-2.51.54c-9.732 2.014-19.304 2.74-29.24 2.835l-3.068.042c-5.796-.037-10.161-.407-15.182-3.417-3.031-4.043-3.891-8.275-4.762-13.148l-.94-4.943-.486-2.613c-2.616-13.993-5.49-27.89-9.062-41.671l-.96-3.751c-1.622-6.139-3.454-11.918-6.144-17.677-.812-2.761-.517-4.476.354-7.197 3.23-1.615 6.82-1.583 10.375-1.938 6.258-.657 12.438-1.465 18.637-2.562 4.635-.776 9.295-1.35 13.957-1.938 17.163-2.299 34.433-5.572 50.969-10.75l2.437-.756c1.898-.62 3.766-1.33 5.625-2.056l1-2-3.21.91-4.165 1.152-2.117.604c-5.281 1.447-5.281 1.447-7.508.334a411.23 411.23 0 0 1 4.25-2l2.39-1.125C225 1184 225 1184 229 1184v-2l13-3-1-4h2l-.508-3.621c-2.058-15.68-2.058-15.68.508-23.379h-2l-.168-1.712c-.252-2.555-.51-5.109-.77-7.663l-.263-2.695-.264-2.578-.238-2.38c-.204-2.043-.204-2.043-1.297-3.972-.339-2.055-.618-4.12-.875-6.188l-.259-2.069c-.588-4.898-1.058-9.801-1.487-14.716-1.201-13.634-2.738-26.999-5.327-40.455-2.525-13.45-4.188-27.016-5.909-40.588l-.713-5.562-.347-2.712c-.902-6.838-2.152-13.555-3.625-20.291-.497-3.712-.152-6.754.542-10.419Z"/>
  <path fill="#C6C6C6" d="M779 763h1c.904 6.172 1.015 12.105.878 18.34-.343 15.907.365 30.32 5.122 45.66l1.152 3.758a179.189 179.189 0 0 0 1.953 5.707 99.821 99.821 0 0 1 1.86 5.93c1.008 3.512 2.167 6.92 3.41 10.355l1.324 3.672c1.161 3.193 2.324 6.386 3.489 9.578l1.812 5 1.25 3.438C803 877 803 877 803 881h2l.375 2c.77 3.697 1.695 7.34 2.625 11l5-1-2.938 2.625c-5.208 6.005-4.197 14.353-3.945 21.875-.117 3.5-.117 3.5-1.046 6.699-1.14 4.046-1.78 7.964-2.325 12.121l-.32 2.366c-.222 1.645-.441 3.29-.658 4.936-.327 2.476-.663 4.95-1 7.425-1.565 11.616-2.873 23.14-2.74 34.879-.033 2.464-.446 4.683-1.028 7.074-.95 5.278-1.055 10.304-.938 15.645C796 1011 796 1011 795 1013a87.253 87.253 0 0 0 0 4.688c.048 4.214-.382 8.14-1 12.312l.063 3.813c.046 3.05-.323 5.713-1 8.687-.962 4.372-1.29 8.592-1.5 13.063-.312 6.457-1.198 12.645-2.402 18.992-1.457 7.771-2.32 15.587-3.161 23.445-.543 5.029-1.168 10.01-2 15v3a93.365 93.365 0 0 1-1 4c-2.053 8.026-3.349 16.058-4.215 24.29-.467 4.143-1.363 7.798-2.785 11.71-1.105 3.865-1.955 7.629-2.438 11.625-.562 3.375-.562 3.375-2.187 6.5-1.593 2.749-1.593 2.749-1.25 5.563.927 2.45 1.871 3.657 3.875 5.312l-5 1 4 4-3 1v2.738c0 13.262 0 13.262-.438 14.95-.657 2.701-.924 5.405-1.242 8.164-.32 2.15-.812 4.176-1.383 6.273-1.057 3.707-1.057 3.707-.937 6.938 0 3.664-.886 6.455-2 9.937l2 1c-3.873 11.851-3.873 11.851-5.96 15.832-2.706 5.643-4.227 11.986-5.04 18.168h-2c-.276-5.436.123-9.912 1.5-15.188 1.442-5.821 1.685-11.048 1.54-17.023-.044-4.225.185-8.388.46-12.601.359-5.61.502-11.127.375-16.75-.255-14.14 1.722-28.384 3.125-42.438l3-1c.829-1.78.829-1.78 1.264-4.01l.6-2.596.605-2.855.65-2.975c2.222-10.54 3.634-21.167 4.964-31.85.714-5.715 1.465-11.425 2.218-17.136l.441-3.355c1.537-11.544 3.5-22.974 5.717-34.407.53-2.757 1.033-5.517 1.525-8.28l.478-2.681.476-2.668a633.644 633.644 0 0 1 3.503-18.14c3.722-18.027 6.038-35.94 7.856-54.25.778-7.743 1.75-15.457 2.765-23.172l.504-3.843a7368.78 7368.78 0 0 1 1.868-14.023c.399-2.982.796-5.964 1.191-8.947l.37-2.777a477.324 477.324 0 0 0 2.271-21.305c.35-3.88.903-7.31 2.05-11.035 1.428-6.177-1.162-11.253-3.441-16.945-.939-2.484-1.872-4.97-2.8-7.457l-.75-1.988C791.991 859.069 787.485 844.52 783 830l-1.015-3.255c-4.52-14.888-4.601-29.276-3.985-44.745l.12-3.051c.225-5.322.518-10.635.88-15.949Zm-17 421c-4.266 14.948-2.101 32.563-2 48h1c1.657-12.529 3.048-24.972 3.188-37.625l.04-2.084c.005-3.669-.134-5.15-2.228-8.291Z"/>
  <path fill="#DBDBDB" d="M773 1016h2c-1.001 37.058-2.721 74.069-5.035 111.068l-.194 3.117c-.12 1.925-.241 3.85-.365 5.774-.251 4.02-.484 8.01-.406 12.041h-2a1747.51 1747.51 0 0 1-1.375 9.25l-.383 2.645-.39 2.558-.35 2.349c-.527 2.307-1.362 4.132-2.502 6.198h-1c-.087-5.47.092-10.724.781-16.152.258-1.869.258-1.869.219-3.848l-3.627.974c-6.415 1.417-12.8 1.38-19.346 1.44-1.367.019-2.735.038-4.103.059-3.603.05-7.205.09-10.808.128-2.845.031-5.689.071-8.533.111-27.55.39-55.085.446-82.632-.14-20.32-.42-40.632-.614-60.955-.603l-3.054.001c-10.075.007-20.15.024-30.226.058-20.628.067-41.239-.04-61.864-.457-26.724-.536-53.436-.655-80.164-.633l-2.931.002c-14.92.01-29.838.035-44.757.06-13.159.022-26.318.043-39.477.053-5.65.005-11.299.015-16.948.029-3.49.007-6.98.01-10.47.013-1.605.002-3.21.005-4.815.01-8.479.029-16.859-.108-25.29-1.105v-1c38.186-.98 76.37-1.113 114.567-1.123 3.832-.002 7.664-.006 11.495-.01 6.197-.006 12.393-.006 18.59-.001 2.285 0 4.57 0 6.856-.002 13.537-.011 27.05.21 40.58.625 19.176.583 38.346.728 57.53.814 4.827.023 9.653.05 14.479.076 8.104.044 16.209.085 24.314.124 8.204.039 16.41.08 24.614.125l3.056.016 6.088.033c73.42.606 73.42.606 146.831-.177l6.86-.145c5.38-.113 10.76-.231 16.14-.355v-2h-47l1-2 1.873-.025c6.507-.086 13.013-.186 19.52-.292 2.42-.038 4.839-.073 7.259-.105 19.259-.241 19.259-.241 38.348-2.578l-.035-3.762-.028-4.926-.025-2.474-.01-2.412-.016-2.206c.128-2.485.625-4.78 1.114-7.22.197-2.096.36-4.196.5-6.297l.25-3.656.25-3.797c.93-13.953.93-13.953 1.535-18.836.68-5.744.747-11.511.903-17.289a1306.7 1306.7 0 0 1 1.43-32.894c.088-1.567.174-3.134.259-4.7.12-2.201.245-4.401.373-6.601l.219-3.837C772 1019 772 1019 773 1016Z"/>
  <path fill="#A8A8A8" d="M784 1066h1c.254 7.844-.736 15.31-1.875 23.063-.373 2.613-.746 5.226-1.117 7.84l-.538 3.757a534.956 534.956 0 0 0-1.47 11.465c-2.059 16.613-4.367 33.102-8.273 49.392-1.7 7.124-2.894 14.2-3.727 21.483h-2l.473 1.992c.772 4.405.88 8.84 1.045 13.301.184 3.714.373 5.544 2.482 8.707-.313 1.688-.313 1.688-1 4-.228 1.95-.455 3.9-.68 5.852-.32 2.15-.812 4.176-1.383 6.273-1.057 3.707-1.057 3.707-.937 6.938 0 3.664-.886 6.455-2 9.937l2 1c-3.873 11.851-3.873 11.851-5.96 15.832-2.706 5.643-4.227 11.986-5.04 18.168h-2c-.276-5.436.123-9.912 1.5-15.188 1.442-5.821 1.685-11.048 1.54-17.023-.044-4.225.185-8.388.46-12.601.359-5.61.502-11.127.375-16.75-.255-14.14 1.722-28.384 3.125-42.438l3-1c.826-1.762.826-1.762 1.257-3.972l.597-2.58c.2-.938.398-1.876.603-2.843l.65-2.964c2.53-12.011 4.05-24.158 5.58-36.329.443-3.448.888-6.896 1.336-10.344.274-2.119.545-4.238.811-6.358.842-6.582 1.915-13.093 3.166-19.61h2l.332-2.125c.997-5.966 2.349-11.288 4.668-16.875Zm-22 118c-4.266 14.948-2.101 32.563-2 48h1c1.657-12.529 3.048-24.972 3.188-37.625l.04-2.084c.005-3.669-.134-5.15-2.228-8.291Z"/>
  <path fill="#B7B7B7" d="M790 489h1c.027 3.063.047 6.125.063 9.188l.025 2.619c.016 4.244-.204 8.034-1.088 12.193-.244 3.163-.369 6.33-.5 9.5-.07 1.677-.142 3.354-.219 5.031l-.092 2.237C789 532 789 532 788.5 534.349c-.604 3.202-.7 6.276-.781 9.534l-.056 1.984c-.058 2.086-.111 4.172-.163 6.258-.226 8.99-.526 17.929-1.5 26.875h1l.875-3.438L789 572l2-1c1.294 8.06.641 14.285-2 22l2 1c.065 3.33.122 6.418-.563 9.688-.605 2.293-.605 2.293.125 4.437.145.619.29 1.237.438 1.875l-2 3c-.243 2.209-.243 2.209-.125 4.64.015.907.03 1.813.047 2.747l.156 5.68c.092 5.424-.265 9.806-2.078 14.933h-1v-22c-1.55 3.1-1.361 6.426-1.527 9.836l-.126 2.42c-.466 9.452-.7 18.909-.91 28.369l-.065 2.788c-.265 11.405-.426 22.797-.355 34.205.042 11.068-.407 22.12-.88 33.177a1428.66 1428.66 0 0 0-.25 6.16c-.098 2.557-.209 5.114-.324 7.67l-.082 2.224c-.25 4.92-.25 4.92-2.481 7.151 1.904-175.554 1.904-175.554 9.133-251.832l.22-2.36c.33-3.343.682-6.582 1.647-9.808Z"/>
  <path fill="#8A8A8A" d="M220 984c2.279 3.814 2.994 7.943 3.813 12.25l.516 2.7c1.901 10.512 3.09 21.114 4.357 31.716a708.855 708.855 0 0 0 5.376 36.834c3.578 20.679 6.316 41.417 8.077 62.335.698 7.62 1.89 15.154 3.077 22.709 2.261 14.405 3.856 28.343 3.725 42.96l-.066 8.559-.019 2.162c-.088 12.422.89 24.474 2.869 36.755.275 2.02.275 2.02.275 5.02h-2c-1.383-6.819-2.306-13.524-2.754-20.469-.163-2.653-.163-2.653-1.246-5.531-.358-4.492-.467-8.997-.625-13.5l-.156-3.785-.133-3.621-.124-3.323C245 1195 245 1195 246 1192l-3 1 1-6-3-1 2-4h-6c1.375-1.5 1.375-1.5 3-3h2l-1-4h2l-.508-3.621c-2.058-15.68-2.058-15.68.508-23.379h-2l-.168-1.712c-.252-2.555-.51-5.109-.77-7.663l-.263-2.695-.264-2.578-.238-2.38c-.204-2.043-.204-2.043-1.297-3.972-.339-2.055-.618-4.12-.875-6.188l-.259-2.069c-.588-4.898-1.058-9.801-1.487-14.716-1.201-13.634-2.738-26.999-5.327-40.455-2.525-13.45-4.188-27.016-5.909-40.588l-.713-5.562-.347-2.712c-.902-6.838-2.152-13.555-3.625-20.291-.497-3.712-.152-6.754.542-10.419Z"/>
  <path fill="#C1C1C1" d="M761 1176h1c2.464 7.538 2.464 7.538 1 11l-1 1c-1.547 12.57-1.099 25.365-1 38l2-18 2 3 2-6 3 2-.438 1.5c-.622 2.769-.917 5.535-1.242 8.352-.32 2.15-.812 4.176-1.383 6.273-1.057 3.707-1.057 3.707-.937 6.938 0 3.664-.886 6.455-2 9.937l2 1c-3.873 11.851-3.873 11.851-5.96 15.832-2.706 5.643-4.227 11.986-5.04 18.168h-2c-.276-5.436.123-9.912 1.5-15.188 1.442-5.821 1.685-11.048 1.54-17.023-.044-4.225.185-8.388.46-12.601.371-5.83.525-11.598.438-17.438-.077-6.85.338-13.614.937-20.438l.238-2.827c.451-4.763 1.114-8.994 2.887-13.485Z"/>
  <path fill="#D7D7D7" d="M773 1016h2c-1.001 37.058-2.721 74.069-5.035 111.068l-.194 3.117c-.12 1.925-.241 3.85-.365 5.774-.251 4.02-.484 8.01-.406 12.041h-2a1747.51 1747.51 0 0 1-1.375 9.25l-.383 2.645-.39 2.558-.35 2.349c-.527 2.307-1.362 4.132-2.502 6.198h-1c-.087-5.47.092-10.724.781-16.152.258-1.869.258-1.869.219-3.848l-3 1c-2.228.07-4.458.085-6.688.063l-3.574-.028L746 1152v-1l18-2v-3h-6v-2l7-1-.035-3.762-.028-4.926-.025-2.474-.01-2.412-.016-2.206c.128-2.485.625-4.78 1.114-7.22.197-2.096.36-4.196.5-6.297l.25-3.656.25-3.797c.93-13.953.93-13.953 1.535-18.836.68-5.744.747-11.511.903-17.289a1306.7 1306.7 0 0 1 1.43-32.894c.088-1.567.174-3.134.259-4.7.12-2.201.245-4.401.373-6.601l.219-3.837C772 1019 772 1019 773 1016Z"/>
  <path fill="#C2C2C2" d="M220 984c2.279 3.814 2.994 7.943 3.813 12.25l.516 2.7c1.901 10.512 3.09 21.114 4.357 31.716a708.935 708.935 0 0 0 5.376 36.834c2.043 11.806 3.867 23.613 5.375 35.5l.273 2.085c.25 1.93.487 3.86.724 5.79l.408 3.305c.145 2.584-.035 4.383-.842 6.82l-.367-1.934-.508-2.504-.492-2.496L238 1112l-2-1c-.423-2.515-.423-2.515-.676-5.895l-.312-3.787-.158-2.035c-.867-10.916-2.085-21.648-4.167-32.408-2.802-14.55-4.681-29.196-6.544-43.891l-.713-5.562-.347-2.712c-.902-6.838-2.152-13.555-3.625-20.291-.497-3.712-.152-6.754.542-10.419Z"/>
  <path fill="#A5A5A5" d="M779 763h1c.904 6.172 1.015 12.105.878 18.34-.343 15.907.365 30.32 5.122 45.66l1.152 3.758a179.189 179.189 0 0 0 1.953 5.707 99.821 99.821 0 0 1 1.86 5.93c1.008 3.512 2.167 6.92 3.41 10.355l1.324 3.672c1.161 3.193 2.324 6.386 3.489 9.578l1.812 5 1.25 3.438C803 877 803 877 803 881h2l.375 2c.774 3.715 1.59 7.346 2.625 11l2 1-4 1c-4.565-10.355-8.234-20.98-11.875-31.688l-.934-2.737C788.288 847.182 783.696 832.757 780 818l-.605-2.192c-1.684-6.55-1.659-12.949-1.582-19.683l.019-3.572c.086-9.87.496-19.706 1.168-29.553Z"/>
  <path fill="#CECECE" d="M793 1001h1c1.294 19.392 1.294 19.392.25 26.95-.25 2.055-.253 3.982-.188 6.05.048 2.985-.34 5.59-1 8.5-.96 4.372-1.288 8.592-1.5 13.063-.311 6.457-1.197 12.645-2.401 18.992-1.638 8.733-2.538 17.538-3.47 26.37-.954 8.969-.954 8.969-3.691 13.075-.273-7.677.467-15.107 1.424-22.718.464-3.694.907-7.39 1.353-11.087l.293-2.41c1.173-9.717 2.26-19.444 3.34-29.173.337-3.023.676-6.047 1.015-9.07l.622-5.6.293-2.61c.345-3.126.66-6.184.66-9.332l-.586 3.246-.789 4.191-.383 2.143c-.348 1.82-.789 3.623-1.242 5.42l-2 1c.669-4.306 1.345-8.611 2.026-12.915.231-1.462.46-2.925.687-4.388.328-2.11.662-4.22.998-6.33l.603-3.84c.644-3.313 1.539-6.358 2.686-9.527Z"/>
  <path fill="#C9C9C9" d="m239 793 2 1c-3.182 17.06-8.916 32.934-15.676 48.873-2.245 5.3-4.458 10.615-6.666 15.93-.52 1.252-1.041 2.503-1.563 3.753-3.588 8.6-7 17.234-9.953 26.076-.63 1.82-1.376 3.6-2.142 5.368l-3 1c.442-4.33 1.243-7.931 3.059-11.887 1.18-2.65 2.215-5.342 3.254-8.05l1.304-3.399a604.84 604.84 0 0 0 2.828-7.64c2.652-7.284 5.528-14.192 9.11-21.083 2.536-5.16 4.465-10.548 6.445-15.941l.723-1.834c2.321-5.943 3.859-12 5.382-18.187 1.244-4.906 2.772-9.382 4.895-13.979Z"/>
  <path fill="#F1F1F1" d="M233 1185c-1 3-1 3-2.651 3.844l-2.146.656-2.387.745-2.566.755-2.613.794c-12.366 3.7-24.908 6.142-37.637 8.206l2-3-3.438.438L177 1198c-.744.095-1.488.19-2.254.29-4.955.602-9.754.8-14.746.71 3.032-2.022 4.349-2.379 7.848-2.86l2.987-.434 3.227-.456c10.69-1.586 21.13-3.771 31.608-6.407l3.13-.769c.91-.23 1.82-.462 2.756-.7 2.544-.39 4.01-.084 6.444.626 2.45-.525 2.45-.525 4.938-1.438 3.517-1.212 6.335-1.729 10.062-1.562Z"/>
  <path fill="#B0B0B0" d="M784 1066h1c.254 7.844-.736 15.31-1.875 23.063-.37 2.584-.738 5.169-1.105 7.753l-.537 3.747c-.77 5.48-1.438 10.972-2.088 16.468-.358 2.69-.826 5.317-1.395 7.969h-1l1-9h-2v-9l-3 21h-2c1.552-14.425 3.203-28.757 6-43h2l.332-2.125c.997-5.966 2.349-11.288 4.668-16.875Z"/>
  <path fill="#C9C9C9" d="M790 571h1c1.294 8.06.641 14.285-2 22l2 1c.065 3.33.122 6.418-.563 9.688-.605 2.293-.605 2.293.125 4.437.145.619.29 1.237.438 1.875l-2 3c-.243 2.209-.243 2.209-.125 4.64.015.907.03 1.813.047 2.747l.156 5.68c.092 5.424-.265 9.806-2.078 14.933h-1v-22l-2 2a246.4 246.4 0 0 1 .5-20.438c.47-7.195.613-14.349.5-21.562h2l.938-3.438C789 572 789 572 790 571Z"/>
  <path fill="#CCC" d="M784 1113c0 2.67-.309 4.465-1 7-2.053 8.026-3.349 16.058-4.215 24.29-.467 4.143-1.363 7.798-2.785 11.71-1.105 3.865-1.955 7.629-2.438 11.625-.562 3.375-.562 3.375-2.187 6.5-1.593 2.749-1.593 2.749-1.25 5.563.927 2.45 1.871 3.657 3.875 5.312l-5 1 4 4-3 1v13h-3l-1-21h2l.043-2.29c.459-10.59 2.791-20.454 5.259-30.727 1.409-6.02 2.657-12.077 3.91-18.131 3.257-15.32 3.257-15.32 6.788-18.852Z"/>
  <path fill="#C7C7C7" d="M767 1112c2.429 3.643 2.257 6.307 2.195 10.512l-.008 2.206c-.011 2.324-.037 4.646-.062 6.97-.01 1.576-.02 3.152-.027 4.728A2346.36 2346.36 0 0 1 769 1148h-2a1747.51 1747.51 0 0 1-1.375 9.25l-.383 2.645-.39 2.558-.35 2.349c-.527 2.307-1.362 4.132-2.502 6.198h-1c-.087-5.47.092-10.724.781-16.152.258-1.869.258-1.869.219-3.848l-3 1c-2.228.07-4.458.085-6.688.063l-3.574-.028L746 1152v-1l18-2v-3h-6v-2l7-1-.07-3.48c-.13-9.418.236-18.25 2.07-27.52Z"/>
  <path fill="#A6A6A6" d="M237 1107h1c1.953 8.216 3.419 16.302 4.265 24.697.401 3.868.993 7.607 1.782 11.416 1.27 6.792 1.21 13.498 1.14 20.387l-.001 3.82c-.045 9.257-.045 9.257-1.186 12.68h2l-1 6 2 1-3 6c-1.125-3.75-1.125-3.75 0-6l-3-1 2-4h-6c1.375-1.5 1.375-1.5 3-3h2l-1-4h2l-.508-3.621c-2.058-15.68-2.058-15.68.508-23.379h-2l-.168-1.712c-.252-2.555-.51-5.109-.77-7.663l-.263-2.695-.264-2.578-.238-2.38c-.204-2.043-.204-2.043-1.297-3.972-.921-6.654-1.11-13.293-1-20Z"/>
  <path fill="#E0E0E0" d="M764 1146v3c-6.378 1.173-12.503 2.295-19 2l-1-3h-47l1-2a53531.964 53531.964 0 0 1 27.883-.573c3.401-.07 6.802-.14 10.203-.208l3.158-.067c18.93-.378 18.93-.378 24.756.848Z"/>
  <path fill="#C3C3C3" d="m243 1182-1 4 2 1v2h-2l-1 2v-3l-2.57.734a4172.34 4172.34 0 0 1-5.471 1.56 777.89 777.89 0 0 0-9.479 2.757c-23.772 7.036-23.772 7.036-29.48 4.949l5.688-1.625 3.812-1.09c3.333-.952 6.666-1.902 10-2.851l2.849-.812c1.876-.535 3.752-1.07 5.628-1.603l2.628-.75 2.349-.668A146.512 146.512 0 0 0 232 1187l1-2-3.21.91-4.165 1.152-2.117.604c-5.281 1.447-5.281 1.447-7.508.334a411.23 411.23 0 0 1 4.25-2l2.39-1.125C225 1184 225 1184 229 1184v-2c5.593-2.055 8.407-2.055 14 0Z"/>
  <path fill="#ADADAD" d="M790 489h1c.027 3.063.047 6.125.063 9.188l.025 2.619c.016 4.244-.204 8.034-1.088 12.193-.244 3.163-.369 6.33-.5 9.5-.07 1.677-.142 3.354-.219 5.031l-.092 2.237C789 532 789 532 788.498 534.375c-.58 3.061-.678 5.971-.744 9.086l-.096 3.838-.047 2.017A534.024 534.024 0 0 1 785 591h-1c-.403-27.938 1.056-55.617 3.563-83.438l.193-2.16c1.137-12.525 1.137-12.525 2.244-16.402Z"/>
  <path fill="#B0B0B0" d="M229 1051h1v5h2c3.053 13.916 5.023 27.939 6.813 42.063l.353 2.734c.335 2.6.659 5.2.979 7.8l.308 2.388c.433 3.63.576 6.512-.453 10.015l-.367-1.934-.508-2.504-.492-2.496L238 1112l-2-1c-.439-2.626-.439-2.626-.71-6.14l-.33-3.907-.165-2.08c-.9-11.234-2.097-22.249-4.525-33.274-1.08-4.99-1.439-9.489-1.27-14.599Z"/>
  <path fill="silver" d="M789 1037h1c-.336 11.311-1.624 22.406-3.145 33.614a606.059 606.059 0 0 0-3.18 28.828c-.979 11.19-2.25 21.83-5.675 32.558h-1c-.164-3.865-.043-7.178.914-10.93 1.391-6.025 1.957-12.114 2.586-18.257 1.534-14.471 1.534-14.471 2.625-21.563.673-4.41 1.036-8.733 1.25-13.188.588-10.48 2.693-20.76 4.625-31.062Z"/>
  <path fill="#D7D7D7" d="M811 1201c1.584.265 3.167.538 4.75.813l2.672.457c3.1.632 6.126 1.378 9.187 2.171 6.254 1.58 12.517 2.713 18.891 3.684l3.38.52c10.028 1.473 19.995 2.126 30.12 2.355v2c-8.13 1.218-15.84.743-24 0l-3.164-.223-2.899-.215-2.535-.183C845 1212 845 1212 842.656 1211.05c-3.326-1.316-6.567-1.832-10.093-2.426-7.703-1.351-15.085-3.323-22.563-5.625l1-2Z"/>
  <path fill="#B6B6B6" d="M771 1157c1.511 3.98.515 7.249-.375 11.313-1.059 4.894-1.97 9.727-2.625 14.687h-2l.457 1.973c.685 3.817.979 7.598 1.23 11.465l.182 2.236c.3 4.635-.187 7.925-1.869 12.326a70.226 70.226 0 0 0-.625 4.875l-.227 2.367L765 1220h-1c-3.343-39.705-3.343-39.705 5-55 .791-2.65 1.395-5.299 2-8Z"/>
  <path fill="#E7E7E7" d="m845 1204 14 1 1 3 2.625-.5c6.073-.893 12.255-.576 18.375-.5v4c-11.867.22-23.295.203-35-2l-1-5Z"/>
  <path fill="#DADADA" d="M776 950h1c.19 28.781.19 28.781-.438 42.375l-.118 2.62c-.26 5.039-.596 10.028-1.444 15.005l-2 1c-.144-11.847.234-23.636.8-35.469.14-2.95.27-5.9.401-8.851l.264-5.64.117-2.668c.303-6.142.303-6.142 1.418-8.372Z"/>
  <path fill="#D2D2D2" d="M770 1069h1c2.873 18.02.29 36.898-1 55h-1c-4.505-17.648-.879-37.163 1-55Z"/>
  <path fill="#A7A7A7" d="M779 763h1c1.313 9.042 1.027 18.079.829 27.188-.196 9.501.512 18.134 2.617 27.42.529 3.236.452 5.274-.446 8.392-5.067-9.18-5.447-19.888-5.25-30.125l.033-3.517c.125-9.801.55-19.58 1.217-29.358Z"/>
  <path fill="#E5E5E5" d="M217 1188c-2.71 2.71-5.696 3.137-9.313 4l-2.187.533c-5.303 1.259-10.604 2.215-16.004 2.963-2.687.387-5.35.818-8.023 1.29l-2.4.419c-1.544.272-3.088.548-4.631.83-4.886.849-9.482 1.088-14.442.965 3.032-2.022 4.349-2.379 7.848-2.86l2.987-.434 3.227-.456c10.717-1.59 21.187-3.783 31.696-6.407l3.14-.769c.915-.23 1.83-.462 2.771-.7C214 1187 214 1187 217 1188Z"/>
  <path fill="#CBCBCB" d="M793 1001h1c1.45 15.972 1.45 15.972-.39 22.39-1.079 4.618-1.425 9.343-1.912 14.053A299.058 299.058 0 0 1 790 1051h-1c.964-19.968.964-19.968 2-29l-.586 3.246-.789 4.191-.383 2.143c-.348 1.82-.789 3.623-1.242 5.42l-2 1c.669-4.306 1.345-8.611 2.026-12.915.231-1.462.46-2.925.687-4.388.328-2.11.662-4.22.998-6.33l.603-3.84c.644-3.313 1.539-6.358 2.686-9.527Z"/>
  <path fill="#D7D7D7" d="M796 972h1c1.457 6.922 1.677 14.105 0 21-1.086 6.031-1.1 11.896-1 18l-2 1-1-6h-1c.142-2.834.289-5.667.438-8.5l.119-2.398c.768-14.427.768-14.427 2.443-16.102.368-2.328.702-4.662 1-7Z"/>
  <path fill="#D3D3D3" d="m764 1240 2 1c-3.873 11.851-3.873 11.851-5.96 15.832-2.706 5.643-4.227 11.986-5.04 18.168h-2c-.341-6.708.646-12.383 2.266-18.89.875-3.708 1.363-7.323 1.734-11.11h1v10l.805-2.773 1.07-3.602 1.055-3.586C762 1242 762 1242 764 1240Z"/>
  <path fill="#CCC" d="m208 927 3 1c3.69 8.92 4.04 19.47 5 29h-3l-2-6h-1l-.184-3.219c-.609-10.418-.609-10.418-1.816-20.781Z"/>
  <path fill="#BFBFBF" d="M767 1112c2.366 3.55 2.246 5.072 2.23 9.277l-.005 3.744-.038 3.917-.001 3.904c-.054 11.379-.054 11.379-1.186 14.158l-3 1c-.413-24.776-.413-24.776 2-36Z"/>
  <path fill="#B6B6B6" d="M795 865c2.722 1.018 3.814 1.671 5.266 4.242l.984 2.633 1.016 2.617C803 877 803 877 803 881h2l.375 2c.774 3.715 1.59 7.346 2.625 11l2 1-4 1a323.716 323.716 0 0 1-8.313-21.125l-.807-2.261C795 867.25 795 867.25 795 865Z"/>
  <path fill="#D9D9D9" d="M794 1020c1.25 3.748.575 6.1 0 10l.063 3.813c.046 3.05-.323 5.713-1 8.687-1.112 5.047-1.354 10.005-1.596 15.158-.424 7.584-1.899 14.924-3.467 22.342h-1c.24-3.893.49-7.784.745-11.676.126-1.957.247-3.915.368-5.873.48-7.246 1.235-14.345 2.414-21.51.771-4.795 1.266-9.617 1.772-14.445.596-5.391.596-5.391 1.701-6.496Z"/>
  <path fill="#A4A4A4" d="M247 1194h1l.044 2.098c.367 15.755 1.421 31.189 3.696 46.787.26 2.115.26 2.115.26 5.115h-2c-1.383-6.819-2.306-13.524-2.754-20.469-.163-2.653-.163-2.653-1.246-5.531-.016-2.14.034-4.28.121-6.418l.147-3.799.17-3.97.158-4.006c.13-3.27.264-6.538.404-9.807Z"/>
  <path fill="#D5D5D5" d="m789 593 2 1c.065 3.33.122 6.418-.563 9.688-.605 2.293-.605 2.293.125 4.437.145.619.29 1.237.438 1.875l-2 3c-.243 2.209-.243 2.209-.125 4.64.015.907.03 1.813.047 2.747l.156 5.68c.092 5.424-.265 9.806-2.078 14.933h-1c-.336-15.994.068-32.229 3-48Z"/>
  <path fill="#E0E0E0" d="m176 888 7 2v2l2.125.313c3.266.78 5.922 2.108 8.875 3.687v2h4v2h4l1-5h1l-1 9a1719.13 1719.13 0 0 1-4.375-1.438l-2.46-.808C194 901 194 901 192 900v-3l-1.977-.516C184.668 895 180.331 893.534 176 890v-2Z"/>
  <path fill="#939393" d="M237 1107h1c2.15 9.047 3.592 17.954 4.57 27.188.266 2.354.582 4.703.98 7.039.592 3.652.514 7.078.45 10.773l-1-4h-2l-.168-1.712c-.252-2.555-.51-5.109-.77-7.663l-.263-2.695-.264-2.578-.238-2.38c-.204-2.043-.204-2.043-1.297-3.972-.921-6.654-1.11-13.293-1-20Z"/>
  <path fill="#DDD" d="M244 1103h1c.192 4.093.371 8.186.537 12.28.059 1.393.12 2.786.187 4.179.094 2 .173 4.001.253 6.002l.158 3.65C246 1132 246 1132 244 1134a88.982 88.982 0 0 0-2 4c-.798-7.83-1.145-15.196 0-23h2v-12Z"/>
  <path fill="#E6E6E6" d="M718 1147h42c-4.004 4.004-6.261 3.971-11.813 4.063L745 1151l-1-3h-26v-1Z"/>
  <path fill="#D1D1D1" d="m767 1205 3 2-.438 1.5c-.622 2.769-.917 5.535-1.242 8.352-.32 2.15-.812 4.176-1.383 6.273-1.057 3.707-1.057 3.707-.937 6.938 0 3.664-.886 6.455-2 9.937h-1a511.569 511.569 0 0 1-.063-4.188l-.035-2.355c.098-2.457.098-2.457.575-4.793.904-4.604.922-9.294 1.144-13.973.362-3.52 1.121-6.396 2.379-9.691Z"/>
  <path fill="#C3C3C3" d="M225 1021h1c3.46 11.41 4.6 23.2 6 35h-2c-1.724-3.057-2.403-5.67-2.852-9.14l-.39-2.997-.383-3.113-.406-3.066c-.713-5.61-1.118-11.03-.969-16.684Z"/>
  <path fill="#929292" d="M776 1101h1c.573 9.444-1.043 18.403-2.62 27.667-.733 4.5-1.287 9.024-1.853 13.548C772 1145 772 1145 770 1149l1-21h2l.148-2.352c.575-8.295 1.583-16.431 2.852-24.648Z"/>
  <path fill="#EBEBEB" d="m825 1200 8 1v2h11v2c-4.285 2.857-7.964 2.347-12.938 1.5L829 1206l1-2-6-2 1-2Z"/>
  <path fill="#B7B7B7" d="M768 1150h1c-.445 6.804-1.691 13.174-3.3 19.793-.956 4.38-1.408 8.74-1.7 13.207-3.002-3.002-3.96-4.958-4.125-9.25L760 1171l3-1c.884-2.007.884-2.007 1.387-4.473l.654-2.724.646-2.866.682-2.876A751.404 751.404 0 0 0 768 1150Z"/>
  <path fill="#C1C1C1" d="m253 1262 1 3h2c1.437 8.918 1.437 8.918-.188 12.938-1.843 2.097-3.39 3.667-5.812 5.062h-4c1.268-2.536 2.91-4.1 5-6h2l2-10h-2v-5Z"/>
  <path fill="#CFCFCF" d="M227 1192c-7.32 2.222-14.635 4.257-22.125 5.813l-3.695.769c-2.865.377-4.508.395-7.18-.582 3.974-1.151 7.952-2.285 11.933-3.41 2.07-.59 4.133-1.203 6.196-1.817l3.996-1.148 3.695-1.086c3.337-.566 4.46-.447 7.18 1.461Z"/>
  <path fill="#EBEBEB" d="m233 1185-1 3a80.946 80.946 0 0 1-7.875 2.75l-2.223.707c-5.506 1.675-5.506 1.675-8.902.543 3.029-3.029 5.841-4.411 9.875-5.625 1.265-.39 1.265-.39 2.555-.79 2.612-.595 4.9-.69 7.57-.585Z"/>
  <path fill="#D1D1D1" d="M240 528h1c1.889 12.076 2.225 23.795 2 36h-1l-.168-2.124c-.253-3.188-.511-6.376-.77-9.563l-.263-3.342-.264-3.233-.238-2.967c-.247-2.76-.247-2.76-.858-5.391-.603-3.27-.012-6.13.561-9.38Z"/>
  <path fill="#9F9F9F" d="m765 1187 2 1c.223 2.708.429 5.415.625 8.125l.195 2.305c.327 4.733-.084 8.077-1.82 12.57a70.226 70.226 0 0 0-.625 4.875l-.227 2.367L765 1220h-1c-.205-11.02.419-21.999 1-33Z"/>
  <path fill="#E3E3E3" d="M801 927c2.034 4.067 2.358 5.61 2 10l-.922 2.082c-1.82 4.927-2.238 10.133-2.933 15.32l-.364 2.52-.31 2.3L798 961l-2 1 5-35Z"/>
  <path fill="#A9A9A9" d="M790 848c3 1 3 1 4.133 3.258 1.822 5.266 3.373 10.18 3.867 15.742-3.499-3.05-4.873-5.653-6.25-10.063l-1.016-3.16C790 851 790 851 790 848Z"/>
  <path fill="#929292" d="M248 1180h1c.126 7.28.126 7.28-.469 10.688-.677 4.224-.886 8.418-1.094 12.687l-.13 2.52c-.106 2.035-.207 4.07-.307 6.105h-1c-1.564-19.377-1.564-19.377-1-24l2-2a89.55 89.55 0 0 0 1-6Z"/>
  <path fill="#E6E6E6" d="M769 1184c5.438-.363 5.438-.363 7.938 1.25 1.062 1.75 1.062 1.75.75 3.938L777 1191l5 1-1 2a101.168 101.168 0 0 1-6-2l-1-2a134.078 134.078 0 0 0-6-3l1-3Z"/>
  <path fill="#D9D9D9" d="M784 1113c0 2.67-.309 4.465-1 7-.776 2.983-1.41 5.975-2 9-.59 3.025-1.227 6.017-2 9h-1c-.378-7.442-.448-17.956 4.605-23.883L784 1113Zm-27 132h1c.253 6.069-.302 11.162-2 17-1.336-3.774-.724-6.858-.063-10.75l.59-3.547L757 1245Zm-3 17c1.908 3.175 2.16 5.106 1.625 8.75l-.336 2.422L755 1275h-2a535.423 535.423 0 0 1-.063-4.25l-.035-2.39c.094-2.267.466-4.189 1.098-6.36Z"/>
  <path fill="#DEDEDE" d="M217 1188c-4.144 4.144-11.937 4.778-17.637 5.191-1.789-.003-3.577-.086-5.363-.191 3.727-2.485 7.181-3.189 11.5-4.188l2.34-.576c5.79-1.36 5.79-1.36 9.16-.236Z"/>
  <path fill="#D7D7D7" d="m785 1090 2 1-.438 2.379c-1.269 6.768-1.269 6.768-1.5 13.621-.072 3.487-.905 4.387-3.062 7-.52-8.345 1.042-15.91 3-24Z"/>
  <path fill="#DFDFDF" d="m811 893 2 1-2.938 2.5c-3.672 3.612-3.888 6.458-4.062 11.5h-1l-2 6c-1.425-2.85-.717-4.759-.188-7.875l.52-3.18c.937-4.131 1.71-6.25 5.168-8.758L811 893Z"/>
  <path fill="#D2D2D2" d="M764 1146v3l-7 1 2-2-16-1v-1c6.787-1.81 14.179-1.436 21 0Z"/>
  <path fill="#BABABA" d="M244 1187v2h-2l-1 2v-3l-2.484.691-3.266.871-3.234.88c-2.86.529-4.332.542-7.016-.442 7.16-3.167 11.183-4.173 19-3Z"/>
  <path fill="#9A9A9A" d="M237 1107h1a911.27 911.27 0 0 1 1.5 6.563l.844 3.69c.642 3.67.77 7.032.656 10.747l-3 1 .063-2.813c.095-3.21.095-3.21-1.063-6.187a163.05 163.05 0 0 1-.063-6.688l.028-3.574L237 1107Z"/>
  <path fill="#BCBCBC" d="m176 888 7 2v2l2.125.313c3.266.78 5.922 2.108 8.875 3.687v2c-6.018-1.439-11.78-3.63-17-7l-1-3Z"/>
  <path fill="#A2A2A2" d="M771 1131h1c-.112 3.146-.242 6.292-.375 9.438-.03.878-.062 1.756-.094 2.662-.26 5.856-1.107 11.212-2.531 16.9h-1c-.723-21.555-.723-21.555 3-29Z"/>
  <path fill="#B2B2B2" d="M249 1227h1l2 21h-2c-1.68-7.301-2.19-13.588-1-21Z"/>
  <path fill="#EBEBEB" d="M670 1148h15l-1 3h8v1h-16l4-2-10-1v-1Z"/>
  <path fill="#CACACA" d="M759 1201h2l-1 19-3 1c-.264-6.865.742-13.258 2-20Z"/>
  <path fill="#BABABA" d="M782 1066c1.676 4.09.24 7.715-.938 11.75l-.591 2.113A643.51 643.51 0 0 1 779 1085l-2-1c.449-2.627.909-5.251 1.375-7.875l.383-2.262c1.015-5.636 1.015-5.636 3.242-7.863Z"/>
  <path fill="#C4C4C4" d="M217 971c2.59 2.59 2.374 4.027 2.625 7.625l.227 3.04L220 984l-2 1c-2.383-8.787-2.383-8.787-2-13l1-1Z"/>
  <path fill="#DBDBDB" d="m789 593 2 1c.065 3.33.122 6.418-.563 9.688-.468 2.476-.226 3.945.563 6.312h-3c-.185-11.522-.185-11.522 1-17Z"/>
  <path fill="#D4D4D4" d="m769 1175 .375 1.75c.95 3.421 2.107 5.732 4.625 8.25l-2.313.438c-2.769.525-2.769.525-5.687 1.562v-4h2l-.063-3.438C768 1176 768 1176 769 1175Z"/>
  <path fill="#DDD" d="M777 868h1c.027 1.458.046 2.917.063 4.375l.035 2.46C778 877 778 877 777 879c-.225 1.537-.408 3.08-.563 4.625l-.253 2.477L776 888h-1a878.94 878.94 0 0 1-.125-7.75l-.05-2.21c-.036-3.844 0-6.786 2.175-10.04Z"/>
  <path fill="#ACACAC" d="M225 1021h1c1.704 5.16 2.222 9.443 2.125 14.938l-.027 2.072c-.024 1.663-.06 3.327-.098 4.99h-1c-2.296-14.597-2.296-14.597-2-22Z"/>
  <path fill="#C4C4C4" d="M212 945c2.042 1.692 2.918 2.637 3.512 5.262l.175 2.426.2 2.449L216 957h-3c-.982-4.053-1.082-7.839-1-12Z"/>
  <path fill="#BFBFBF" d="M804 886h2l.367 1.715.508 2.222.492 2.215c.463 2.055.463 2.055 2.633 2.848l-4 1a327.76 327.76 0 0 1-1.563-3.875l-.878-2.18C803 888 803 888 804 886Z"/>
  <path fill="#CDCDCD" d="m764 1155 2 1a890.794 890.794 0 0 1-1.375 6.938l-.773 3.902L763 1170l-2 1v-9h2l1-7Z"/>
  <path fill="#C6C6C6" d="M206 883h1c-.875 7.625-.875 7.625-2 11l-3 1c.466-4.75 1.17-8.108 4-12Z"/>
  <path fill="#CDCDCD" d="M795 983h1c1.517 10.558 1.517 10.558-1 15h-1c-.185-10.558-.185-10.558 1-15Z"/>
  <path fill="#DEDEDE" d="M773 1016h2c.054 1.458.093 2.916.125 4.375l.07 2.46C775 1025 775 1025 773 1027c-1.125-7.625-1.125-7.625 0-11Z"/>
  <path fill="#D9D9D9" d="m777 1140 2 2c-.172 2.531-.172 2.531-.75 5.5l-.547 2.969C777 1153 777 1153 775 1155c.142-1.75.289-3.5.438-5.25.08-.975.162-1.95.246-2.953.267-2.362.67-4.516 1.316-6.797Z"/>
  <path fill="#D4D4D4" d="m240 1183-1 3-6 1v-2l-2-1c3.196-1.065 5.657-1.074 9-1Z"/>
  <path fill="#B4B4B4" d="M762 1236h1c.383 5.232-.781 8.378-3 13h-1l1-9h2v-4Z"/>
  <path fill="#E5E5E5" d="m793 1191 13 3v2c-5.115.64-8.673-1.595-13-4v-1Z"/>
  <path fill="#CFCFCF" d="M228 1185c-2.421 2.421-3.801 2.528-7.125 3.125l-2.758.508L216 1189c1.28-2.56 2.242-2.699 4.875-3.688l2.117-.824C225 1184 225 1184 228 1185Z"/>
  <path fill="#DADADA" d="m208 927 3 1c.73 2.066.73 2.066 1.188 4.563l.48 2.503L213 937c-1.953-.742-1.953-.742-4-2-.839-2.678-.818-5.174-1-8Z"/>
  <path fill="#CBCBCB" d="m239 793 2 1-2 10-1-4-2-1 3-6Z"/>
  <path fill="#D8D8D8" d="M217 1188c-2.495 2.495-3.673 2.36-7.125 2.625l-2.758.227L205 1191c4.021-2.68 7.26-4.58 12-3Z"/>
  <path fill="#E5E5E5" d="m233 1185-1 3-6 1v-3c2.463-1.231 4.28-1.072 7-1Z"/>
  <path fill="#D6D6D6" d="m772 1162 2 2c-.255 4.585-.86 7.587-4 11a438.124 438.124 0 0 1 2-13Z"/>
  <path fill="#AFAFAF" d="m223 1007 1 4h2l-1 9h-1c-1.102-4.41-1.077-8.484-1-13Z"/>
  <path fill="#969696" d="M783 821c2.4 3.6 4.322 6.961 3.625 11.375L786 834c-2.666-4.554-3.316-7.74-3-13Z"/>
  <path fill="#A3A3A3" d="M234 1086h3l-1 12h-1l-1-12Z"/>
  <path fill="#C1C1C1" d="M214 959c3 3 3 3 3.188 6.188L217 968l-2 1-1-10Z"/>
  <path fill="#B6B6B6" d="M786 526c1.803 3.607 2.466 6.084 3 10h-3v-10Z"/>
  <path fill="#E2E2E2" d="m825 1200 8 1v2l-9-1 1-2Z"/>
  <path fill="#D8D8D8" d="M758 1146h6v3l-7 1 2-2-1-2Z"/>
  <path fill="#E9E9E9" d="M204 900c1.563 1.813 1.563 1.813 3 4l-1 3-3-1a99.984 99.984 0 0 1 0-5l1-1Z"/>
  <path fill="#C3C3C3" d="m176 888 7 2 1 4c-2.972-1.125-5.334-2.223-8-4v-2Z"/>
  <path fill="#BABABA" d="M228 1045c3.15 3.423 3.562 6.443 4 11h-2c-2.326-3.634-2.163-6.77-2-11Z"/>
  <path fill="#ADADAD" d="M766 1138h1l1 9-3 1 1-10Z"/>
</svg>