<?xml version="1.0" encoding="UTF-8"?>
<svg viewBox="0 0 729.66 795.54" xmlns="http://www.w3.org/2000/svg">
 <path d="m285.92 10.035c-0.32257-0.015518-0.65491 0.007565-1.0166 0.030151-0.019592-3.89e-4 -0.039124 1.03e-4 -0.058716 0-0.27374-0.001179-0.58649 0.05785-0.92865 0.121-0.029358 0.006969-0.078247-0.007961-0.11731 0-4.2525 0.68218-10.607 3.7766-21.331 10.157-20.167 11.993-83.416 34.627-114.2 40.869-17.782 3.6073-29.181 8.324-38.575 15.961-7.1656 5.8262-17.987 21.746-22.768 33.493-4.8976 12.054-11.262 34.424-11.262 39.57 0 2.8472-2.0333 7.2432-5.2887 11.517-5.5136 7.2304-8.6516 16.067-8.6613 24.394-0.009827 2.6979-0.98737 5.7327-2.1898 6.7403-4.7314 3.9757-7.3025 12.881-7.9477 27.539-0.50836 11.782-1.9258 18.725-6.843 34.068-13.803 43.118-23.374 80.461-25.661 100.06-0.32257 2.7892-0.8407 10.093-1.2805 18.198-0.019592 0.35654-0.04895 0.66885-0.068542 1.0273-0.22479 3.5494-0.44965 7.0753-0.56696 10.309-0.12708 3.7331-0.19556 6.65-0.23462 9.1279-0.097839 5.6414 0.078186 8.5239 0.71362 10.187 0.009827 0.038269 0.019592 0.085419 0.029358 0.12176 1.0264 3.4925 3.2064 4.3331 7.322 5.1994 2.7176 0.57159 8.7591 2.6714 13.452 4.6553 8.7101 3.684 24.733 8.7311 37.226 11.759 3.8322 0.93008 17.772 2.1037 30.979 2.5997 22.474 0.84366 24.303 1.1373 27.968 4.5944 2.1604 2.033 6.2466 4.5315 9.0816 5.5313 1.5251 0.53821 2.6004 0.91635 3.3238 1.3917 0.009766 0.00589 0.019531 0.022583 0.029358 0.029449 0.43988 0.34375 0.77216 0.7641 1.046 1.2395 0.40082 1.046 0.19556 2.6056-0.24445 5.3811-0.53754 3.4266-2.4341 10.217-4.2133 15.084-1.7695 4.8674-3.8713 13.082-4.6924 18.258-1.6326 10.324-0.56696 31.247 2.0627 40.174 1.3882 4.6877 1.1438 7.1538-1.3979 14.117-8.1335 22.286-7.7718 37.44 1.3099 56.859 5.3278 11.391 5.5526 15.509 1.4077 25.302-3.4997 8.2528-4.0666 21.232-1.1633 26.389 1.3099 2.3375 2.2191 15.876 2.8643 42.624 0.8017 33.096 1.4664 41.508 4.4187 53.898 2.7958 11.731 3.8419 16.762 9.0621 18.742 0.029358 0.010803 0.058716 0.0177 0.087891 0.029541 1.4762 0.74146 3.2457 1.038 5.4354 0.9978 4.0863 0.28094 9.6291 0.031433 17.538-0.2721 28.115-1.0783 43.013 0.78278 71.412 8.8864 21.468 6.1256 31.449 8.2617 50.023 10.793 1.7498 0.23865 4.9758 0.4812 8.9936 0.69434 0.9776 0.21509 1.6716 0.42133 1.7889 0.54504 0.50842 0.50781 10.9 0.5304 24.322 0.30151 0.11725 0.002014 0.23456-0.001953 0.36169 0 2.3853 0.036377 4.7901 0.044189 7.1656 0.060913 55.39 0.38892 79.272-4.3184 131.77-25.997 40.863-16.876 54.969-21.151 78.558-23.82 6.843-0.7749 13.148-2.09 13.979-2.9326 6.8528-6.927 5.0835-69.025-2.4829-87.331-2.1605-5.2367-2.0334-6.1462 2.1212-16.354 7.7815-19.082 9.9713-28.427 9.9518-42.532-0.009766-10.813-0.67456-14.653-3.5486-20.283-3.92-7.6556-3.881-9.4382 0.83093-33.826 2.0626-10.686 2.7665-22.404 2.835-48.154l0.0977-33.917 1.4959-0.0913h8.0062c11.31 0 19.532-3.1398 26.922-10.307 4.8097-4.674 7.3612-5.6492 22.729-8.5848 30.637-5.8505 67.58-18.531 73.866-25.362 0.76257-0.83188 1.3296-1.5184 1.7009-2.3276 0.009766-0.018677 0.019653-0.040283 0.029419-0.059906 0.60608-0.92716 0.89941-1.8523 0.89941-2.7804 0-0.74841-0.3324-2.5644-0.87-4.9892-0.41064-2.6331-1.0754-6.0558-2.0237-10.882-2.835-14.355-24.107-85.345-35.232-117.62-4.7314-13.709-5.2789-16.899-4.4187-25.182 1.1829-11.455-0.88965-20.052-6.8137-28.324-3.4215-4.7732-4.6141-8.5956-5.406-17.109-1.8867-20.24-13.803-67.541-20.265-80.409-11.809-23.516-29.444-34.344-90.562-55.53-43.805-15.187-61.45-22.542-73.504-30.712-6.2077-4.2046-12.533-8.133-14.067-8.7058-1.6033-0.59595-6.5792 0.56011-11.623 2.6904-17.42 7.3434-46.699 11.811-77.844 11.88-33.277 0.073269-51.45-4.1155-83.24-19.165-0.77228-0.36653-1.6227-0.5883-2.6003-0.63475z" fill="#ff7f00"/>
 <path d="m281.18 5.599c-3.173-0.01399-16.387 6.997-22.618 12.003-3.529 2.836-40.439 17.01-65.805 25.27-28.69 9.342-36.916 11.623-52.297 14.558-24.079 4.596-37.799 15.236-48.903 37.889-3.145 6.415-6.879 16.689-8.283 22.838-1.405 6.148-3.223 11.877-4.035 12.711-0.81097 0.83499-1.467 4.479-1.467 8.126 0 6.366-0.672 7.727-10.3 20.867-1.356 1.852-3.032 8.114-3.729 13.944-0.91999 7.694-2.252 11.698-4.921 14.558-3.087 3.308-3.918 6.579-5.135 20.375-1.571 17.805-2.313 20.871-13.143 55.557-8.335 26.699-15.162 53.025-19.714 75.838-3.477 17.428-6.358 43.152-5.288 47.368 0.37097 1.461 3.65 3.75 7.275 5.079s10.589 3.878 15.466 5.664c27.312 10.001 36.058 11.696 63.727 12.342l26.622 0.615 5.5629 5.601c4.851 4.887 6.5311 5.603 13.417 5.603 4.333 0 7.887 0.51099 7.886 1.169-0.005005 3.228-8.483 35.153-10.269 38.689-3.228 6.386-4.388 26.644-2.263 39.182 2.85 16.807 2.485 22.543-2.475 39.088-5.257 17.537-4.746 23.323 3.7899 42.906 5.686 13.046 6.03 19.484 1.681 30.594-3.622 9.253-4.065 17.798-1.192 22.869 1.348 2.378 2.278 15.918 2.934 42.597 0.97302 39.541 3.82 61.975 8.436 66.759 1.535 1.592 4.172 1.74 11.37 0.58502 10.585-1.698 46.033 0.14099 58.531 3.048 4.365 1.014 16.522 4.251 26.989 7.171 19.068 5.32 46.76 11.208 58.653 12.465 3.4898 0.36902 21.715 0.48102 40.468 0.24603 27.623-0.34302 37.248-1.1 50.737-3.908 28.199-5.871 42.322-10.387 73.05-23.423 33.807-14.342 58.567-21.941 78.062-23.946 7.972-0.81897 11.162-1.852 12.287-3.97 2.021-3.802 1.943-37.977-0.12201-53.678-0.90399-6.871-3.145-16.901-4.982-22.284l-3.331-9.757 5.838-13.727c11.276-26.438 12.925-47.316 4.676-59.557-3.074-4.561-3.77-7.064-2.965-10.835 9.349-43.833 10.829-80.623 4.584-114.13l-1.008-5.387 10.911 1.231c19.711 2.244 28.114-0.008057 37.656-10.126 3.426-3.632 6.534-5.101 12.685-5.94 19.386-2.64 44.877-9.306 65.255-17.082 18.935-7.224 18.593-6.624 13.509-23.515-1.725-5.734-5.348-18.347-8.038-28.008-6.489-23.302-15.85-53.699-25.552-82.919-7.102-21.389-7.812-24.786-6.877-32.902 1.327-11.518-1.0991-20.64-6.877-25.823-4.17-3.742-4.617-5.2-5.594-19.021-0.99902-14.154-7.145-43.005-10.544-49.401-0.857-1.61-1.559-4.722-1.559-6.925s-1.92-9.186-4.249-15.512c-6.418-17.436-18.524-29.699-39.275-39.797-8.783-4.274-25.605-11.078-37.381-15.143-63.959-22.084-76.751-27.35-92.794-38.074-7.4978-5.012-9.7816-5.838-12.501-4.524-14.296 6.91-55.331 13.051-87.262 13.05-31.981 0-54.405-4.448-77.817-15.42-4.362-2.044-9.544-3.716-11.493-3.724zm-2.14 6.371c0.91803 0 3.098 2.798 4.83 6.217 5.716 11.284 22.598 32.29 32.673 40.659 19.732 16.389 42.774 24.16 60.488 20.376 19.139-4.09 35.776-12.636 52.541-26.963 8.2901-7.084 23.952-24.568 28.975-32.317l2.5674-3.909 6.5707 4.37c3.6138 2.409 6.5715 5.111 6.5715 6.002 0 3.799-9.9518 20.964-18.155 31.333-16.807 21.242-38.745 34.158-67.487 39.736-34.858 6.763-67.236-3.567-94.934-30.318-14.848-14.34-30.351-37.12-30.351-44.598 0-2.247 12.379-10.588 15.71-10.588zm205.43 19.144c0.23959 0 5.3618 2.063 11.37 4.556 6.007 2.492 15.214 6.013 20.448 7.848 5.233 1.835 22.989 8.035 39.459 13.789 35.249 12.317 53.009 20.633 62.963 29.455 7.693 6.82 15.854 20.618 18.797 31.764 2.011 7.617 1.402 9.283-9.995 27.486l-6.418 10.249-2.201-5.479c-3.428-8.541-6.468-11.049-13.265-11.049-4.866 0-7.35 1.202-12.409 6.002-7.295 6.918-8.785 11.615-14.274 45.09-1.945 11.858-3.816 21.857-4.157 22.222-0.341 0.367-0.61102-9.182-0.61102-21.237 0-37.733-6.479-72.853-13.418-72.853-3.969 0-5.872 32.269-3.637 61.496 0.93396 12.222 1.953 24.848 3.545 43.921 3.7889 45.395 2.338 91.471-4.064 129.33-4.945 29.236-6.2 33.677-33.225 115.64-12.193 36.979-22.88 69.448-23.748 72.145-1.9063 5.925-2.0843 13.451-0.30621 13.451 3.2661 0 12.028-12.162 33.377-46.322l3.4839-5.571-1.07 4.771c-1.747 7.69-9.094 28.382-20.112 56.694-11.819 30.372-18.58 45.258-25.979 57.125-5.7903 9.287-6.4828 12.771-2.812 14.189 4.3083 1.666 8.7987-4.543 19.836-27.393 12.51-25.896 20.837-47.053 38.695-98.215 2.913-8.344 5.801-16.411 6.4191-17.944 1.35-3.3539 3.9739-2.16 3.9739 1.816 0 1.565 2.261 7.383 5.012 12.927 5.434 10.953 5.434 11.253-0.18396 39.151-2.7941 13.875-35.425 75.255-61.404 115.54-8.8281 13.69-10.003 18.59-4.4629 18.59 2.1947 0 5.8761-4.116 12.104-13.574 12.857-19.523 34.835-57.86 47.772-83.317 6.138-12.078 11.716-21.62 12.379-21.208 2.473 1.539 3.256 13.671 1.467 22.623-3.74 18.726-13.474 42.172-22.037 53.155-11.684 14.986-24.643 28.882-32.948 35.334-6.266 4.868-8.475 7.617-8.131 10.033 0.26001 1.828 1.563 3.535 2.874 3.787 3.624 0.69403 21.475-15.135 35.638-31.579l12.654-14.713 1.834 4.556c2.923 7.369 5.678 35.289 5.104 51.677l-0.52 15.174-4.7681 0.431c-20.899 1.876-51.231 11.053-85.642 25.916-22.95 9.911-48 17.744-71.43 22.314-19.537 3.812-67.301 5.589-87.964 3.294-16.648-1.85-42.464-7.328-60.244-12.804-19.863-6.119-38.966-9.607-52.908-9.634-6.227-0.012024-12.773-0.41803-14.517-0.89203-4.019-1.094-25.736-43.82-23.84-46.907 1.861-3.035 12.058-1.358 42.087 6.955 21.456 5.941 55.976 14.667 68.984 17.422 10.712 2.267 18.76 3.86 37.289 7.355 21.289 4.018 83.004 9.729 104.65 9.696 15.474-0.023987 49.698-4.094 54.038-6.433 2.5635-1.382 2.948-2.295 1.5591-3.693-2.1361-2.151-20.611-1.778-28.792 0.58502-7.2738 2.1-23.503 1.9659-32.734-0.27802-24.91-6.053-72.528-23.963-107.22-40.32-8.586-4.048-15.898-7.356-16.261-7.356-1.456 0-31.803-18.158-42.424-25.392-17.407-11.856-36.483-33.024-48.414-53.679-5.575-9.649-13.928-24.042-18.553-31.979-20.142-34.559-25.96-59.803-13.785-59.803 3.438 0 7.315 3.027 17.88 14.004 11.187 11.623 15.745 18.091 26.775 37.92 16.911 30.399 30.999 51.762 44.441 67.436 11.283 13.156 17.606 16.584 17.606 9.541 0-2.12-1.543-5.221-3.393-6.894-4.104-3.709-17.239-20.716-17.239-22.315 0-0.633 3.734 2.416 8.314 6.772 37.829 35.98 100.49 65.974 159 76.115 39.046 6.769 42.026 6.996 42.026 3.448 0-1.317-0.37259-2.401-0.82449-2.401-2.9303 0-26.328-7.1-32.338-9.818-18.429-8.336-32.921-16.331-35.822-19.76-1.7449-2.062-8.1678-7.114-14.274-11.235-57.874-39.061-126.49-118.51-162.63-188.33-5.457-10.541-11.484-20.719-13.418-22.623-7.225-7.112-21.9-61.273-29.128-107.54-10.068-64.456-11.897-144.64-5.227-228.32 0.98401-12.337 1.426-13.698 5.044-15.451 2.18-1.056 22.138-7.86 44.38-15.112s43.414-14.491 47.038-16.097c3.625-1.607 7.569-2.528 8.7419-2.032 1.173 0.49601 5.197 4.789 8.955 9.511 8.317 10.447 24.812 24.113 37.319 30.933 20.56 11.209 46.378 16.105 68.771 13.019 41.22-5.682 71.796-26.738 93.498-64.328 3.93-6.807 7.3395-12.373 7.5801-12.373zm-353.88 76.116c2.221-0.394 2.324 2.416 0.061035 8.218-2.798 7.172-6.478 8.65-10.209 4.124-1.834-2.226-1.289-3.296 3.943-8.125 2.786-2.57 4.872-3.98 6.205-4.217zm-16.199 19.699c0.69605 0 3.148 1.646 5.44 3.631l4.157 3.602-2.415 10.372c-1.326 5.701-2.811 13.049-3.331 16.344-0.52099 3.293-1.508 6.001-2.171 6.001-1.494 0-11.339-10.129-11.339-11.664 0-0.61801 0.98603-1.108 2.201-1.108 3.0139 0 4.22-3.702 5.288-16.375 0.5-5.929 1.473-10.803 2.17-10.803zm527.94 14.374c2.081 0 6.395 20.417 8.528 40.319 1.833 17.106 2.348 18.922 6.204 21.977 5.4609 4.325 7.429 11.799 5.808 22.129-1.141 7.267-0.62201 10.209 4.309 24.592 14.411 42.036 34.106 108.59 32.582 110.04-1.624 1.54-15.145 5.513-43.004 12.65-13.447 3.444-25.397 6.279-26.561 6.279-2.59 0-2.711-8.012-0.61102-40.997 0.828-13.026 1.875-59.464 2.323-103.17l0.824-79.471 4.157-7.171c2.296-3.944 4.746-7.171 5.441-7.171zm-36.922 8.309c4.067 0.029999 5.206 2.545 5.013 9.265-0.13702 4.731-1.733 7.057-10.362 15.112l-10.178 9.511 1.009-7.11c0.55298-3.917 1.576-9.277 2.292-11.911 0.71594-2.635 1.7399-6.734 2.262-9.111 0.75104-3.424 2.138-4.562 6.663-5.417 1.2681-0.23898 2.3621-0.34598 3.301-0.33899zm-505.82 17.422c1.108-0.01001 3.4121 1.751 7.9481 5.847l8.374 7.572-1.834 6.371c-1.8859 6.619-1.341 40.067 1.651 102.22 0.80304 16.688 2.216 48.519 3.1171 70.729 0.901 22.21 2.0439 41.026 2.537 41.828 0.49298 0.80298-0.52002 2.217-2.231 3.139-7.597 4.095-53.122-0.513-57.492-5.817-1.028-1.246-1.833-5.631-1.804-9.756 0.03302-4.502-0.93299-8.631-2.384-10.311-2.058-2.3831-2.118-3.799-0.42804-9.573 4.146-14.155 15.891-28.204 32.307-38.658 5.065-3.225 9.606-6.895 10.086-8.156 2.098-5.504-1.844-11.702-16.902-26.47l-15.71-15.389 1.651-6.156c0.91101-3.391 3.731-13.651 6.265-22.807 2.535-9.156 4.615-18.519 4.615-20.806 0-6.083 4.188-11.124 12.074-14.528 7.75-3.346 8.659-6.324 4.462-14.497-2.241-4.365-2.226-6.085-0.031006-17.882 1.337-7.181 2.628-14.299 2.873-15.821 0.11102-0.681 0.35302-1.072 0.85601-1.076zm522.75 4.862c0.107-0.002991 0.21997 0.037994 0.30701 0.12302 1.349 1.36-2.701 208.25-4.188 213.91-1.694 6.451-8.311 12.931-16.933 16.559-3.0529 1.285-6.925 2.339-8.619 2.339-3.009 0-3.064-1.211-2.0169-50.724 0.91199-43.156 1.5389-52.47 4.218-62.665 4.825-18.361 6.951-27.095 9.138-37.55 1.103-5.27 2.548-11.738 3.24-14.374 0.69202-2.635 2.442-11.6 3.882-19.945 1.4399-8.344 3.306-18.2 4.126-21.883 0.81995-3.682 1.498-8.905 1.498-11.635 0-4.47 3.75-14.109 5.348-14.158zm-12.928 5.356l-0.887 4.802c-0.49103 2.634-1.344 8.02-1.894 11.972-1.806 12.951-12.924 67.062-13.999 68.144-0.34003 0.34299-1.049-1.585-1.59-4.309-0.54102-2.723-1.698-4.511-2.567-3.97-0.86902 0.54102-2.249 3.283-3.057 6.095-1.941 6.761-2.152-26.813-0.27502-43.122 1.156-10.034 2.225-12.805 8.467-21.576 3.936-5.53 9.115-11.839 11.492-14.035l4.3101-4.001zm92.458 192.98c1.403-0.108 2.36 0.96201 2.934 3.264 0.53406 2.141 1.384 4.969 1.895 6.309 0.61401 1.611-0.63196 3.251-3.668 4.832-7.5961 3.955-33.449 12.176-51.165 16.282-19.102 4.427-25.369 4.859-25.369 1.723 0-1.194 0.44305-5.391 0.97803-9.325 0.87903-6.447 1.323-7.079 4.677-6.434 3.468 0.66797 22.345-2.817 33.193-6.124 2.616-0.797 11.192-3.277 19.042-5.54 7.85-2.262 15.447-4.481 16.872-4.894 0.21899-0.062988 0.41101-0.076996 0.61102-0.092987zm-566.42 1.262c0.031982-0.015015 0.052979-0.003998 0.09198 0.032013 0.61102 0.56699 3.618 9.893 6.693 20.744 3.076 10.851 5.988 20.994 6.449 22.53 0.59497 1.986-0.062012 2.801-2.231 2.801-5.639 0-8.698-3.78-9.109-11.265-0.21399-3.904-0.953-13.578-1.65-21.483-0.65302-7.412-0.73798-13.137-0.24396-13.359zm480.81 34.627c0.47198-0.06897 0.73303-0.015015 0.73303 0.18402 0 2.56-8.17 11.344-12.807 13.759-5.366 2.794-13.524 3.057-15.099 0.492-1.249-2.037 3.432-6.156 7-6.156 1.251 0 6.46-2.149 11.583-4.771 3.843-1.966 7.171-3.302 8.59-3.508zm-459.3 37.95c0.38501 0.031982 0.77002 0.88 1.345 2.277 2.552 6.21 7.96 21.163 9.078 25.147 0.55396 1.976 0.76599 3.574 0.48901 3.539-0.27704-0.035034-3.945-3.264-8.161-7.171l-7.671-7.11 2.323-9.203c1.352-5.372 1.957-7.533 2.597-7.479zm26.347 40.073c0.60101 0.20502 3.418 4.474 7.1221 10.897 21.725 37.678 42.966 62.848 72.896 86.364 17.107 13.442 30.137 26.258 30.137 29.671 0 6.206-14.354 1.284-34.446-11.819-15.993-10.428-23.749-19.222-37.931-42.905-7.042-11.759-15.813-26.274-19.47-32.256-6.429-10.52-16.056-31.237-18.339-39.428-0.11401-0.41101-0.10803-0.57001 0.030945-0.52399zm-40.651 69.992l2.9951 7.202c17.574 42.269 39.474 77.8 56.27 91.29 6.91 5.55 50.903 28.452 54.68 28.47 1.577 0.007996 22.491 8.652 28.395 11.726 2.592 1.351 5.652 3.581 6.785 4.956 2.978 3.612 0.67999 3.096-23.687-5.079-18.789-6.302-62.519-24.874-91.603-38.935-10.68-5.163-20.377-9.387-21.548-9.387s-3.46-3.991-5.104-8.864c-2.986-8.8441-3.001-8.891 0.51898-18.776 4.892-13.734 4.57-22.461-1.284-35.056-2.644-5.69-5.147-14.2-5.592-18.929l-0.8261-8.618zm10.208 98.215c0.38904 0 9.881 4.519 21.09 10.033 11.21 5.516 25.734 12.666 32.277 15.882 13.746 6.759 13.519 6.845-5.564 2.093-21.487-5.351-34.642-7.583-41.445-6.987l-6.113 0.555-0.489-10.804c-0.25702-5.928-0.143-10.772 0.24396-10.772z" fill-opacity=".09"/>
 <path d="m285.24 6.0349c-0.328-0.015621-0.668 0.007668-1.024 0.030449-0.020996-4.5e-4 -0.040009 9.2e-5 -0.062012 0-0.27399-0.00124-0.59698 0.058208-0.93298 0.12185-0.038025 0.00713-0.082001-0.008011-0.12201 0-4.296 0.68755-10.695 3.806-21.516 10.236-20.342 12.086-84.137 34.897-115.18 41.188-17.939 3.6354-29.432 8.3889-38.906 16.085-7.228 5.8716-18.144 21.915-22.964 33.755-4.9451 12.147-11.361 34.692-11.361 39.878 0 2.87-2.047 7.3-5.3342 11.608-5.5625 7.286-8.7247 16.191-8.7396 24.584-0.004761 2.719-0.98895 5.777-2.1998 6.793-4.7753 4.006-7.3677 12.981-8.0163 27.753-0.52142 11.874-1.9473 18.872-6.9013 34.334-13.922 43.455-23.575 81.089-25.887 100.84-0.3291 2.811-0.84638 10.172-1.2959 18.34-0.019714 0.35901-0.04071 0.67401-0.060303 1.035-0.23407 3.577-0.4563 7.13-0.57251 10.39-0.13428 3.762-0.19958 6.702-0.24109 9.199-0.094604 5.685 0.083008 8.59 0.72321 10.266 0.010498 0.039001 0.019409 0.085999 0.030212 0.12302 1.0274 3.52 3.2337 4.367 7.3834 5.24 2.7356 0.57602 8.8313 2.692 13.561 4.691 8.7846 3.713 24.953 8.8 37.55 11.851 3.8701 0.93701 17.921 2.12 31.251 2.62 22.66 0.84998 24.511 1.146 28.207 4.63 2.175 2.049 6.3 4.567 9.162 5.575 1.537 0.54199 2.615 0.923 3.345 1.402 0.010986 0.005981 0.018982 0.02298 0.029968 0.029999 0.44299 0.34601 0.77899 0.76999 1.055 1.249 0.41104 1.054 0.20203 2.626-0.23999 5.423-0.54797 3.453-2.46 10.297-4.25 15.202-1.791 4.906-3.905 13.184-4.732 18.4-1.649 10.405-0.57501 31.491 2.081 40.488 1.393 4.724 1.144 7.209-1.417 14.227-8.2 22.459-7.834 37.732 1.326 57.303 5.372 11.479 5.6 15.63 1.416 25.499-3.527 8.317-4.1 21.397-1.176 26.594 1.326 2.356 2.244 16 2.893 42.956 0.80499 33.354 1.482 41.832 4.461 54.319 2.82 11.822 3.868 16.892 9.131 18.888 0.032013 0.011047 0.05899 0.018005 0.089996 0.030029 1.489 0.74701 3.278 1.046 5.486 1.005 4.12 0.28296 9.709 0.031982 17.689-0.27399 28.352-1.087 43.379 0.789 72.026 8.956 21.651 6.173 31.717 8.326 50.448 10.876 1.769 0.24103 5.023 0.48498 9.072 0.70001 0.98599 0.21698 1.684 0.42499 1.808 0.54999 0.50699 0.51099 10.992 0.534 24.53 0.30298 0.121 0.002014 0.23999-9.77e-4 0.362 0 2.409 0.037048 4.834 0.045044 7.232 0.062012 55.86 0.39203 79.954-4.352 132.9-26.2 41.215-17.007 55.441-21.316 79.228-24.005 6.907-0.78101 13.262-2.1071 14.103-2.956 6.906-6.981 5.126-69.563-2.501-88.012-2.18-5.277-2.056-6.194 2.14-16.481 7.844-19.23 10.049-28.648 10.035-42.863-0.01001-10.898-0.67999-14.768-3.585-20.442-3.95-7.715-3.912-9.511 0.84399-34.09 2.082-10.769 2.787-22.579 2.862-48.529l0.09-34.182 1.507-0.092h8.077c11.411 0 19.702-3.164 27.153-10.387 4.858-4.711 7.43-5.694 22.933-8.652 30.894-5.896 68.153-18.676 74.497-25.56 0.77405-0.83899 1.337-1.531 1.717-2.346 0.01001-0.018982 0.021973-0.040985 0.031982-0.060974 0.612-0.93402 0.90302-1.866 0.90302-2.802 0-0.75403-0.33502-2.584-0.87402-5.028-0.41901-2.654-1.088-6.103-2.049-10.967-2.858-14.467-24.308-86.01-35.53-118.54-4.768-13.815-5.328-17.03-4.461-25.378 1.199-11.544-0.89801-20.209-6.871-28.545-3.446-4.81-4.656-8.662-5.455-17.242-1.898-20.397-13.915-68.067-20.432-81.036-11.908-23.699-29.704-34.611-91.343-55.963-44.184-15.305-61.975-22.718-74.135-30.952-6.259-4.2374-12.642-8.1964-14.194-8.7737-1.614-0.6006-6.628 0.5645-11.724 2.7113-17.564 7.4007-47.095 11.904-78.505 11.972-33.566 0.073803-51.901-4.1476-83.959-19.314-0.78101-0.36942-1.638-0.59288-2.622-0.63973zm-3.014 13.709c0.012024 0.004501 0.019012-0.005398 0.030029 0 0.009979 0.004704 0.019989 0.0252 0.030975 0.030403l7.474 12.978c9.442 16.429 31.776 39.334 45.355 46.55 5.176 2.7509 14.667 6.2298 21.095 7.7076 10.114 2.3255 13.041 2.4052 21.849 0.6702 12.399-2.4426 26.314-8.5798 38.544-17.03 9.057-6.2577 32.027-29.224 39.81-39.787l4.038-5.453 7.263 4.661c4.508 2.8792 7.292 5.816 7.292 7.677 0.005005 4.3009-9.43 20.66-18.292 31.714-16.634 20.749-38.244 33.906-64.973 39.543-47.854 10.092-98.655-16.143-122.66-63.336-6.89-13.549-6.681-14.417 5.183-21.325l7.956-4.6002zm12.416 6.6413c1.346 0.081497 6.094 1.5083 11.482 3.473 19.446 7.0905 28.293 9.0317 51.443 9.444 8.988 0.947 14.74 0.9471 25.767 0 25.4-0.4589 41.941-2.5054 57.259-6.946 2.91-0.8439 5.568-1.2554 5.907-0.9139 0.33701 0.3416-3.842 5.3669-9.282 11.15-10.026 10.656-10.658 10.969-28.661 15.11-9.512 2.1887-48.558 3.1235-61.628 1.4623-6.375-0.8102-17.309-3.2607-24.32-5.4226-12.714-3.9202-12.788-3.938-20.884-15.263-4.466-6.2456-7.804-11.669-7.445-12.034 0.04599-0.045399 0.17001-0.072601 0.362-0.060898zm-38.665 9.2307c0.013 0.001301 0.019012 0.028801 0.031006 0.030502l6.66 12.917c5.323 10.344 10.144 16.508 23.898 30.495 14.04 14.278 19.552 18.714 29.744 23.946 30.973 15.897 59.932 18.281 91.765 7.555 28.922-9.746 53.994-32.198 69.343-62.118 3.098-6.0374 5.013-8.2175 6.811-7.6466 1.381 0.4379 9.219 3.4421 17.389 6.6412s29.888 11.046 48.279 17.456c61.202 21.335 75.656 31.526 84.653 59.68l3.043 9.475c0.02002 0.33 0.031982 0.672 0.030029 0.97501-0.001038 0.22699-0.054016 0.49699-0.12 0.82199l-6.901 12.491c-4.032 7.26-8.996 15.247-11.03 17.761-3.599 4.449-3.713 4.482-3.768 0.94301-0.062012-4.08-4.247-13.152-6.901-14.927-2.743-1.834-11.105-1.385-13.169 0.701-3.931 3.973-2.14 6.089 4.249 5.057 5.127-0.829 6.367-0.46399 7.806 2.254 2.57 4.856 2.212 16.085-0.513 16.085-1.221 0-6.418 4.68-11.542 10.419s-9.695 9.833-10.155 9.079c-0.82501-1.346 0.38397-8.524 4.339-25.834 1.091-4.782 1.643-9.253 1.235-9.962-1.766-3.074-6.166 4.317-8.017 13.465-4.721 23.354-5.439 27.917-7.412 46.854-0.87299 8.376-3.489 72.334-5.305 129.84-0.86499 27.385-2.104 54.425-2.772 60.076-0.69501 5.88-6.986 27.504-14.706 50.57-7.421 22.169-15.765 47.423-18.535 56.116-12.158 38.168-33.396 90.797-43.817 108.58-3.403 5.802-6.179 10.986-6.179 11.546 0 0.56104 1.498 0.79602 3.345 0.518 7.428-1.118 28.946-49.86 52.89-119.85 1.934-5.65 5.867-16.312 8.739-23.7 2.872-7.39 7.456-20 10.186-28.028 2.731-8.029 5.572-14.213 6.329-13.74 1.929 1.206 1.713 44.366-0.30102 60.656-4.49 36.298-7.451 46.803-20.433 72.443-12.612 24.914-27.196 50.705-44.753 79.117-6.897 11.161-9.592 16.867-8.497 17.974 0.88199 0.89002 2.333 1.167 3.223 0.60901 4.084-2.55 41.571-67.255 57.712-99.588 9.23-18.489 10.408-20.138 12.326-17.487 3.526 4.875 3.312 20.155-0.45203 33.938-3.965 14.515-13.176 35.072-19.83 44.264-3.461 4.782-13.955 16.342-23.325 25.682-16.317 16.263-20.647 23.56-10.367 17.426 5.033-3.004 28.268-26.726 37.579-38.356l5.697-7.127 1.747 4.5081c3.135 8.181 5.567 29.923 6.178 47.128-9.77e-4 0.14398 0.002014 0.284 0 0.427-0.011963 1.314-0.055969 2.621-0.089966 3.93l-0.392 15.14v0.031982c-0.29297 1.838-0.69202 3.106-1.206 3.624-1.031 1.044-4.238 1.89-7.112 1.89-14.651 0-43.692 8.863-81.698 24.919-34.896 14.741-62.594 22.268-94.087 25.621-13.639 1.451-45.19 1.77-57.59 0.578-19.955-1.917-45.832-7.334-70.609-14.775-19.967-5.996-47.187-9.68-69.072-9.353-9.313 0.14002-17.52-0.36798-18.234-1.127-3.013-3.202-6.229-33.229-6.839-63.883-0.52301-26.196-1.198-34.036-3.497-40.579-1.346-3.831-2.057-5.902-2.049-8.073 0.012024-0.30701 0.038025-0.633 0.061005-0.94397 0.003021-0.072021 0.02301-0.143 0.029022-0.21399 0.241-2.084 1.091-4.575 2.592-8.895 4.853-13.968 4.482-22.264-1.566-35.431-6.82-14.845-6.987-27.531-0.60397-46.824l4.551-13.799-2.592-10.938c-3.835-16.065-3.395-32.033 1.296-46.976 2.148-6.843 4.324-14.768 4.852-17.608 1.112-5.989 3.021-6.722 4.219-1.615 2.325 9.913 20.339 59.495 27.183 74.822 13.569 30.385 38.143 73.213 54.817 95.505 6.952 9.293 20.591 23.701 22.422 23.701 3.372 0 0.91702-5.167-6.539-13.74-4.392-5.049-10.992-13.427-14.646-18.644-16.298-23.266-48.625-85.709-61.389-118.57-5.235-13.481-15.273-44.463-24.591-75.856-2.322-7.825-4.836-16.014-5.575-18.188-5.446-16.029-13.478-65.033-11.904-72.626 0.46298-2.231-0.13901-10.098-1.326-17.488-5.719-35.608-6.77-74.036-2.982-107.48 4.198-37.086 4.33-44.129 1.084-52.917-2.225-6.025-4.553-8.962-9.915-12.552-3.85-2.577-7.54-5.626-8.227-6.763-1.838-3.04-8.579-2.496-10.337 0.82201-0.83496 1.579-1.756 7.446-2.049 13.04-0.29303 5.593-1.213 10.118-2.05 10.084-2.36-0.098999-13.651-19.871-13.651-23.914 0-5.538 6.5531-20.845 13.2-30.862 9.484-14.292 18.234-19.856 38.031-24.189 28.486-6.2339 79.842-22.738 102.74-33.024l8.92-4.0213zm69.977 27.174c0.633-0.030502 1.863 0.1741 3.797 0.518 2.935 0.5217 7.78 1.751 10.789 2.7113 7.975 2.5442 57.131 2.3352 64.612-0.2741 3.283-1.145 6.341-1.7243 6.781-1.2795 1.147 1.1591-12.118 8.7518-21.759 12.46-9.471 3.6428-27.353 5.009-36.163 2.7723-7.549-1.9162-23.319-10.305-26.912-14.318-1.623-1.8129-2.202-2.5386-1.145-2.5896zm-207.25 72.658c3.902 0.15001 11.972 9.348 13.863 16.177 1.816 6.561 1.178 24.41-1.085 30.373-0.43802 1.152-1.256 2.088-1.809 2.071-2.858-0.085007-16.018-9.936-20.312-15.202-6.06-7.431-6.403-10.504-1.024-9.14 4.671 1.186 5.211 0.101 6.72-13.556 0.60901-5.51 1.93-10.299 2.923-10.632 0.21997-0.072998 0.46399-0.101 0.724-0.091003zm521 11.698c0.56201 0.033005 0.92401 0.88701 1.447 2.286 2.92 7.808 7.293 31.096 8.347 44.478 0.98102 12.451 1.49 14.135 5.516 17.76 5.536 4.987 6.733 9.621 5.635 21.874-0.78198 8.711-0.044006 12.014 7.684 35.003 7.408 22.038 29.913 95.904 30.257 99.254-0.011047 0.091003-0.004028 0.18201-0.030029 0.27301-1.281 1.425-21.953 8.186-34.325 11.181-5.591 1.354-12.631 3.123-15.641 3.93-3.01 0.80701-8.813 2.314-12.899 3.351-7.631 1.937-10.371 6.215-3.978 6.215 4.516 0 32.322-6.927 51.866-12.916 8.488-2.603 15.935-4.135 16.574-3.413 0.63904 0.72101 2.003 3.811 3.014 6.854 1.642 4.94 1.482 5.805-1.386 8.165-4.366 3.591-32.982 13.073-53.975 17.882-9.459 2.168-19.167 3.953-21.577 3.96l-4.401 0.031 0.844-13.039c1.976-30.928 2.962-68.957 3.858-149.79l0.964-85.727c0.16101-0.38301 0.34302-0.77901 0.54303-1.219l5.545-8.591c3.681-5.664 5.181-7.854 6.118-7.799zm-552.85 2.194c0.64648 0 2.9144 3.37 5.0629 7.494 3.9066 7.499 20.708 24.928 32.336 33.572l6.148 4.6-1.357 13.131c-1.518 14.494-0.24603 66.441 2.081 85.025 0.815 6.52 2.103 21.113 2.893 32.414 0.78799 11.303 2.171 24.822 3.043 30.038 1.853 11.095 9.816 42.546 14.435 57 1.77 5.539 2.777 10.803 2.23 11.699-2.101 3.434-7.761 1.407-13.471-4.844-6.342-6.946-7.174-7.153-22.542-5.332-0.80798 0.095001-1.659 0.17502-2.501 0.24301l-6.961-0.06c-3.563-0.041016-6.561-0.098022-9.3127-0.15302-18.494-1.627-41.167-7.609-64.1-17.182-7.7055-3.216-9.4475-4.661-9.8545-8.042-0.2915-2.421 0.39337-4.446 1.6574-4.935 1.1823-0.45999 9.4089 1.717 18.293 4.843 11.505 4.049 16.645 5.2 17.841 3.99 3.0443-3.076-3.9864-7.794-19.92-13.403-7.8548-2.766-14.5-5.228-15.611-5.789-0.11646-0.18597-0.21796-0.38199-0.30127-0.57898-0.041687-3.998 5.3816-33.828 8.8299-48.225 4.3056-17.977 16.708-60.69 20.282-69.854 3.4525-8.855 7.7078-32.428 7.7149-42.712 0.003845-5.547 0.9856-8.547 3.8876-12.033 5.155-6.194 7.082-11.73 7.082-20.351 0-5.89 0.948-8.294 5.4547-13.617 3.8718-4.572 5.4848-7.985 5.4848-11.699 0-2.886 0.52881-5.239 1.1753-5.239zm534.01 28.484c0.11005 0.013 0.19501 0.044998 0.27203 0.12199 1.153 1.165-1.897 202.44-3.194 210.84-1.443 9.344-4.785 14.031-14.105 19.741-6.45 3.953-10.758 5.318-18.805 5.971l-10.426 0.853 1.054-6.153c2.147-12.485 4.073-70.809 3.978-120.76-0.092041-48.891 1.311-70.695 5.003-77.744 2.85-5.444 20.279-26.597 21.91-26.597 1.127 0 1.341 2.785 0.66199 8.318-2.988 24.353-14.53 80.137-18.715 90.479-1.055 2.609-3.217 9.899-4.821 16.206-2.349 9.227-2.551 11.853-0.96503 13.436 1.576 1.571 2.373 1.434 3.978-0.76199 1.653-2.262 8.059-26.773 16.606-63.64 2.447-10.562 5.777-29.29 7.745-43.473 1.024-7.389 2.151-14.865 2.501-16.603 0.73901-3.671 5.7-10.424 7.322-10.236zm-6.599 232.32c5.71 0-5.355 14.883-13.683 18.4-4.932 2.084-10.559 2.478-16.876 1.128-1.719-0.36902-4.724-1.015-6.659-1.432-6.077-1.311-4.266-5.454 2.38-5.454 6.522 0 19.486-4.36 27.906-9.383 3.012-1.795 6.121-3.259 6.932-3.259zm-415.58 38.141c-3.362-0.181-2.197 4.208 4.43 17.609 36.144 73.093 103.57 152.16 167.92 196.89 10.89 7.569 19.8 9.079 15.219 2.59-0.63199-0.896-8.378-6.803-17.208-13.131-21.178-15.176-32.057-24.381-52.528-44.448-39.585-38.803-79.505-92.263-104.45-139.92-6.057-11.568-10.957-19.172-12.627-19.498-0.26498-0.050995-0.52899-0.078979-0.75397-0.091003zm-39.508 203.41c-1.173 0.097046-1.568 0.77802-1.568 1.95 0 1.787 24.635 14.41 50.54 25.894 10.465 4.641 23.965 10.808 29.985 13.678s18.333 7.859 27.364 11.121c16.695 6.029 25.796 7.151 25.796 3.168 0-0.422-0.76099-1.023-2.049-1.768-0.020996-0.018005-0.039001-0.041992-0.059998-0.059998-0.564-0.47003-1.326-0.87-2.11-1.097-0.031006-0.01001-0.05899-0.02301-0.089996-0.031006-3.336-1.573-8.487-3.555-15.249-5.849-22.288-7.562-59.023-23.052-90.107-38.02-13.608-6.551-19.872-9.199-22.452-8.986z" stroke-width="9"/>
</svg>
