<svg xmlns="http://www.w3.org/2000/svg" viewBox="0 0 1024 1536">
  <path fill="#F0EDE8" d="M408.945 185.867c15.399 9.356 34.097 15.195 51.938 17.672C464 204 464 204 465 205c28.769 3.737 58.104 1.974 87 1v-2l3.008-.297c9.88-1.057 20.223-2.295 29.21-6.82 2.33-1.154 4.22-1.025 6.782-.883v-2l2.273-.883c7.756-3.106 14.687-6.88 21.704-11.387 5.804-3.38 11.43-3.569 18.023-2.73 6.68 1.807 12.728 5.366 18.863 8.492 4.217 2.027 8.54 3.662 12.922 5.293 3.087 1.167 6.118 2.421 9.153 3.715 5.467 2.31 11.02 4.285 16.64 6.191a70.3 70.3 0 0 1 7.328 3.278c4.005 2.052 8.083 3.542 12.344 4.969 10.716 3.69 21.049 8.155 31.408 12.74 2.76 1.217 5.478 2.367 8.342 3.322v2l2.664.34c3.348.662 5.703 1.641 8.711 3.222l3.102 1.606L768 236c2.912 1.468 5.831 2.921 8.75 4.375l4.172 2.086L784 244v2l5 1v2l2.75.813c2.98 1.088 4.936 2.05 7.25 4.187v2l1.75.813c2.306 1.216 4.27 2.49 6.25 4.187v2l1.875.75c2.512 1.478 2.886 2.69 4.125 5.25l3 1c2.688 2.438 2.688 2.438 5 5v2h2c4.352 7.193 7.33 14.453 9.848 22.43a115.92 115.92 0 0 0 3.215 8.757c1.864 4.518 3.41 9.109 4.91 13.758a169.516 169.516 0 0 0 2.465 6.82c1.723 4.557 3.122 9.19 4.5 13.86.39 1.317.39 1.317.79 2.66.762 2.571 1.518 5.143 2.272 7.715.198.675.395 1.35.6 2.044 3.038 10.413 5.826 20.892 8.552 31.39a10472.536 10472.536 0 0 0 1.85 7.094c1.589 6.041 3.311 12.038 5.06 18.034 2.325 8.004 4.27 16.028 6.008 24.176.882 4.113 1.888 8.187 2.93 12.262a552.395 552.395 0 0 1 4.22 17.962c1.856 8.44 3.788 16.864 5.717 25.288a138008.562 138008.562 0 0 1 3.119 13.625c6.288 27.471 6.288 27.471 8.944 40.125l1.047 4.922c10.604 50.109 10.604 50.109 12.979 68.743.536 4.063 1.357 7.936 2.4 11.901 1.685 6.544 2.726 13.13 3.708 19.81.524 3.556 1.067 7.108 1.612 10.66l.325 2.117c.844 5.437 1.84 10.83 2.929 16.222 2.533 12.686 4.258 25.504 6.087 38.306.647 4.512 1.32 9.018 2.015 13.522 1.926 12.52 3.574 25.022 4.772 37.634a247.393 247.393 0 0 0 2.56 18.573c1.872 10.766 2.957 21.6 4.066 32.465 1.122 10.959 2.246 21.883 3.996 32.762 2.068 13.024 2.993 26.165 4.067 39.3.312 3.798.627 7.596.947 11.393.197 2.34.39 4.68.578 7.02.453 5.402 1.048 10.723 1.923 16.074 1.11 6.928 1.59 13.833 1.989 20.834a4305.588 4305.588 0 0 1 .872 14.68c.215 3.675.437 7.351.659 11.027a6724.04 6724.04 0 0 1 2.36 41.18c.805 14.906.805 14.906 2.29 29.756 4.316 35.36 8.25 73.003 5.099 108.547a1165496716.296 1165496716.296 0 0 0-.566 6.413c-1.157 15.009-.841 30.072-.728 45.114l.02 3.24c.014 2.02.032 4.039.056 6.058.036 5.01.034 9.823-1.062 14.727-5.81 5.134-12.311 5.116-19.734 5.5l-4.426.25c-2.307.126-4.613.251-6.92.375-2.239.121-4.478.248-6.717.375l-2.099.107c-3.675.176-3.675.176-7.104 1.393a88.123 88.123 0 0 1-4.785.281l-3.014.112-3.264.107-3.34.123c-4.73.174-9.462.338-14.194.502-3.447.121-6.894.248-10.34.375l-3.264.107-3.014.112-2.66.092c-2.178.063-2.178.063-4.125 1.189-2.884.072-5.742.093-8.625.063l-2.43-.014c-1.981-.012-3.963-.03-5.945-.049v-2l-1.938-.75c-2.062-1.25-2.062-1.25-2.664-3.045-.406-2.252-.653-4.451-.828-6.732l-.222-2.655a969.39 969.39 0 0 1-.422-5.406c-.629-7.334-2.176-14.272-3.926-21.412-.552-2.408-1.102-4.817-1.648-7.227-.575-2.466-1.15-4.932-1.727-7.398l-.844-3.734c-1.598-6.783-3.582-12.87-6.607-19.147-3.527-7.493-5.202-15.51-6.986-23.556a913.399 913.399 0 0 0-6.313-26.25c-2.119-8.3-3.881-16.603-5.407-25.03-1.263-6.871-2.882-13.612-4.617-20.377a465.788 465.788 0 0 1-3.726-15.531l-.463-2.1c-.98-4.476-1.943-8.955-2.907-13.433-.615-2.856-1.234-5.71-1.852-8.565-.455-2.102-.904-4.206-1.354-6.31l-.865-3.998-.764-3.557a167.356 167.356 0 0 0-2.477-9.024c-.27-.894-.54-1.788-.82-2.709-.205-.678-.41-1.356-.623-2.054l.003 2.358c.022 19.07.038 38.14.049 57.21.005 9.224.012 18.446.023 27.67.01 8.052.017 16.105.02 24.158 0 4.251.003 8.502.01 12.753.018 10.618-.003 21.234-.105 31.851l-.019 2.127c-.043 4.643-.13 9.284-.237 13.927l-.042 3.517-.096 3.21-.062 2.78c-.708 3.173-2.077 4.387-4.544 6.439-3.36 1.68-7.15 1.394-10.852 1.555l-2.902.127c-13.914.537-27.842.468-41.764.448a4401.54 4401.54 0 0 0-12.052.004c-15.291.019-30.58-.041-45.867-.46a1639.25 1639.25 0 0 0-5.875-.149c-31.149-.986-31.149-.986-35.688-5.525-11.103-1.16-22.287-1.16-33.438-1.125l-2.483.002c-13.377.01-26.74.28-40.113.61-17.505.428-34.96.555-52.466.138l-2.79-.065c-29.289-.71-29.289-.71-41.71-2.56-1.748-.084-3.5-.13-5.25-.125l-2.516-.008c-2.406.046-2.406.046-5.234 1.133-2.715.21-5.414.375-8.133.5l-2.401.123c-3.391.174-6.783.338-10.174.502-2.475.121-4.95.248-7.425.375l-2.342.107c-3.562-.126-3.562-.126-6.525 1.393-2.274.291-4.556.518-6.84.719l-2.133.19c-2.32.203-4.643.398-6.964.591l-2.422.204c-14.209 1.186-28.385 1.97-42.641 2.296l-2.444.056c-8.674.197-17.349.385-26.023.57-10.597.227-21.191.473-31.783.874l-3.06.107c-4.18-.234-4.18-.234-7.69 1.393-4.345.243-8.695.229-13.045.24-2.182.01-4.363.04-6.545.072a2159.1 2159.1 0 0 1-4.176.016l-3.837.028c-3.684-.386-5.514-1.061-8.397-3.356-2.092-3.251-2.187-5.657-1.994-9.472l.148-3.478.19-3.89c.12-2.925.228-5.85.332-8.777l.087-2.435c.377-11.21.432-22.425.518-33.64l.057-7.05c.058-7.274.11-14.547.162-21.82.07-9.564.141-19.128.219-28.692l.028-3.552c.22-26.735.71-53.464 1.253-80.194l-.34 1.881-1.553 8.575-.534 2.959a929.213 929.213 0 0 1-5.073 25.835l-.492 2.344c-6.407 30.384-13.922 60.553-21.559 90.648-.966 3.811-1.9 7.627-2.804 11.453-2.452 10.309-5.23 19.88-10.235 29.297-9.87 18.666-14.356 37.709-16.688 58.546-.915 7.967-2.076 15.2-5.722 22.462-9.868.108-19.703.01-29.563-.438l-2.793-.118-2.585-.128-2.303-.11C135 1236 135 1236 134 1235c-2.97-.233-5.923-.405-8.898-.535l-2.742-.13c-1.925-.09-3.85-.179-5.776-.265-2.912-.13-5.824-.268-8.736-.408-12.45-.61-12.45-.61-24.909-.5C81 1233 81 1233 78 1231a167.9 167.9 0 0 0-10.107-1.035c-3.086-.303-5.474-.698-8.107-2.378-2.792-4.044-2.26-7.944-2.141-12.74l.024-3.06c.029-3.242.085-6.483.144-9.725.057-4.217.103-8.434.144-12.652l.034-3.149c.974-21.987.974-21.987-3.534-43.132-2.026-5.01-1.863-9.852-1.77-15.191l.03-3.234c.139-9.018.6-18.016 1.158-27.016l.237-3.878c.464-6.8 1.251-13.414 2.451-20.123.61-3.752.794-7.457.937-11.25.255-6.024.736-11.976 1.434-17.964 1.304-11.796 1.95-23.628 2.629-35.473.246-4.292.498-8.584.753-12.875l.165-2.954.162-2.726.136-2.39C63 986 63 986 64 983c.205-1.708.366-3.422.5-5.137l.248-3.147.252-3.404.272-3.557c.47-6.394.83-12.773 1.02-19.181.673-22.506 2.993-45.242 6.631-67.464 1.15-7.133 1.894-14.3 2.64-21.485C78.28 833.44 78.28 833.44 80 830c.244-1.49.443-2.987.617-4.487l.334-2.826.354-3.074.77-6.474c.398-3.394.796-6.788 1.19-10.182 1.307-11.197 2.647-22.259 5.02-33.284 1.656-8.512 2.494-17.172 3.517-25.778 1.099-9.18 2.379-18.147 4.435-27.17 1.834-8.95 2.85-18.065 4.063-27.116 1.608-11.946 3.606-23.698 6.229-35.463 2.296-10.455 4.27-20.977 6.174-31.51l.46-2.537c.77-4.24 1.534-8.48 2.287-12.723 1.284-7.142 2.606-14.1 4.851-21.014 1.444-4.881 2.228-9.921 3.136-14.924 1.78-9.513 3.732-18.935 6.045-28.33.96-3.907 1.895-7.82 2.83-11.733l.622-2.593c1.928-8.098 3.746-16.221 5.566-24.345 2.077-9.27 4.226-18.512 6.584-27.716 1.97-7.77 3.724-15.588 5.478-23.409l.461-2.051c.735-3.272 1.47-6.543 2.203-9.815 2.903-12.925 6.132-25.71 9.774-38.446l.96-3.367 1.888-6.586c1.508-5.28 2.984-10.57 4.464-15.86l.904-3.219c1.567-5.592 3.12-11.187 4.651-16.788l.925-3.36c.579-2.106 1.154-4.213 1.723-6.321a136.638 136.638 0 0 1 5.55-16.161c1.646-4.116 2.846-8.36 4.09-12.611 1.253-4.167 2.9-7.848 4.845-11.727a304.13 304.13 0 0 0 2.25-7.25c2.181-6.859 5.174-12.146 9.75-17.75l2.309-2.844a499.23 499.23 0 0 1 4.578-5.515c2.177-2.637 2.177-2.637 4.082-5.641 7.129-10.53 17.345-17.493 28.031-24l1.875-1.146c6.382-3.862 12.768-7.33 19.773-9.932 2.5-.98 4.84-2.132 7.227-3.36 4.501-2.303 9.089-4.267 13.777-6.156 2.871-1.206 5.69-2.48 8.516-3.785 5.654-2.584 11.4-4.844 17.207-7.059 7.437-2.87 14.722-5.864 21.918-9.296 2.582-1.207 5.179-2.289 7.832-3.328 7.336-2.88 14.434-6.084 21.313-9.938 14.424-8 14.424-8 21.562-8v-2c9.893-3.298 15.807.708 23.945 5.867Z"/>
  <path fill="#EAE6E0" d="M268 233v2l-1.57.715c-14.677 6.722-29.208 13.73-40.59 25.523C224 263 224 263 222 263l-.734 1.672c-1.542 2.836-3.44 5.106-5.516 7.578-3.311 3.983-6.506 8.008-9.559 12.191C205 286 205 286 203 288v3l-.79 1.87c-.479 2.354-.479 2.354 1.66 4.537l2.782 2.663 1.494 1.458a553.904 553.904 0 0 0 4.792 4.597c2.079 1.995 4.15 3.998 6.214 6.008.503.488 1.006.976 1.523 1.48 4.532 4.465 8.51 9.295 12.325 14.387l2-2c-.213-1.954-.213-1.954-.875-4.188-1.353-5.896-1.238-11.586-1.098-17.59.138-3.24.138-3.24-1.027-6.222.438-2.688.438-2.688 1-5 1.719 2.578 2.482 4.104 3.25 7l.578 2.063C237 304 237 304 235 307h5c3.689 11.593 4.357 23.234 4.766 35.312.147 4.27.305 8.542.476 12.812.74 18.873 1.09 37.74 1.32 56.626l.03 2.448c.136 11.21.252 22.418.358 33.627.032 3.395.067 6.79.104 10.186.524 48.041-.562 95.836-3.081 143.817l-.127 2.41c-.119 2.259-.241 4.517-.365 6.775-.07 1.26-.138 2.52-.209 3.817a186.61 186.61 0 0 1-.512 6.685c-.764 8.076-.913 16.095-.918 24.201l-.015 4.363a6730.55 6730.55 0 0 0-.028 11.904c-.008 4.297-.021 8.593-.034 12.889-.025 8.43-.044 16.859-.062 25.288-.021 9.914-.048 19.827-.074 29.74-.048 17.807-.091 35.614-.132 53.421a147144.617 147144.617 0 0 1-.166 66.837 164359.82 164359.82 0 0 0-.288 127.551l-.006 2.646c-.026 13.16-.06 26.32-.1 39.48-.03 9.742-.053 19.485-.07 29.227-.01 5.193-.022 10.386-.043 15.578a3692.01 3692.01 0 0 0-.031 13.721 965.229 965.229 0 0 1-.018 4.813 877.388 877.388 0 0 0-.009 6.373l-.01 3.522c.242 2.903.832 4.44 2.244 6.931.243 2.701.243 2.701.23 5.754l-.005 3.338-.037 3.47-.002 3.483c-.045 8.533-.045 8.533-1.186 11.955a172.85 172.85 0 0 0-.125 7.563l-.012 2.076c-.05 3.807-.05 3.807 1.137 7.361-.938 2.625-.938 2.625-2 5h-2l1 36-3-1c-1.126-6.894-.92-13.463-.58-20.425.521-12.167.763-24.313.84-36.49.022-3.437.05-6.874.077-10.31.059-7.342.111-14.683.163-22.025.069-9.61.141-19.219.219-28.828l.028-3.575c.219-26.786.708-53.566 1.253-80.347l-.34 1.881-1.553 8.575-.534 2.959a929.213 929.213 0 0 1-5.073 25.835l-.492 2.344c-6.407 30.384-13.922 60.553-21.559 90.648-.966 3.811-1.9 7.627-2.804 11.453-2.452 10.309-5.23 19.88-10.235 29.297-9.87 18.666-14.356 37.709-16.688 58.546-.915 7.967-2.076 15.2-5.722 22.462-9.868.108-19.703.01-29.563-.438l-2.793-.118-2.585-.128-2.303-.11C135 1236 135 1236 134 1235c-2.97-.233-5.923-.405-8.898-.535l-2.742-.13c-1.925-.09-3.85-.179-5.776-.265-2.912-.13-5.824-.268-8.736-.408-12.45-.61-12.45-.61-24.909-.5C81 1233 81 1233 78 1231a167.9 167.9 0 0 0-10.107-1.035c-3.086-.303-5.474-.698-8.107-2.378-2.792-4.044-2.26-7.944-2.141-12.74l.024-3.06c.029-3.242.085-6.483.144-9.725.057-4.217.103-8.434.144-12.652l.034-3.149c.974-21.987.974-21.987-3.534-43.132-2.026-5.01-1.863-9.852-1.77-15.191l.03-3.234c.139-9.018.6-18.016 1.158-27.016l.237-3.878c.464-6.8 1.251-13.414 2.451-20.123.61-3.752.794-7.457.937-11.25.255-6.024.736-11.976 1.434-17.964 1.304-11.796 1.95-23.628 2.629-35.473.246-4.292.498-8.584.753-12.875l.165-2.954.162-2.726.136-2.39C63 986 63 986 64 983c.205-1.708.366-3.422.5-5.137l.248-3.147.252-3.404.272-3.557c.47-6.394.83-12.773 1.02-19.181.673-22.506 2.993-45.242 6.631-67.464 1.15-7.133 1.894-14.3 2.64-21.485C78.28 833.44 78.28 833.44 80 830c.244-1.49.443-2.987.617-4.487l.334-2.826.354-3.074.77-6.474c.398-3.394.796-6.788 1.19-10.182 1.307-11.197 2.647-22.259 5.02-33.284 1.656-8.512 2.494-17.172 3.517-25.778 1.099-9.18 2.379-18.147 4.435-27.17 1.834-8.95 2.85-18.065 4.063-27.116 1.608-11.946 3.606-23.698 6.229-35.463 2.296-10.455 4.27-20.977 6.174-31.51l.46-2.537c.77-4.24 1.534-8.48 2.287-12.723 1.284-7.142 2.606-14.1 4.851-21.014 1.444-4.881 2.228-9.921 3.136-14.924 1.78-9.513 3.732-18.935 6.045-28.33.96-3.907 1.895-7.82 2.83-11.733l.622-2.593c1.928-8.098 3.746-16.221 5.566-24.345 2.077-9.27 4.226-18.512 6.584-27.716 1.97-7.77 3.724-15.588 5.478-23.409l.461-2.051c.735-3.272 1.47-6.543 2.203-9.815 2.903-12.925 6.132-25.71 9.774-38.446l.96-3.367 1.888-6.586c1.508-5.28 2.984-10.57 4.464-15.86l.904-3.219c1.567-5.592 3.12-11.187 4.651-16.788l.925-3.36c.579-2.106 1.154-4.213 1.723-6.321a136.638 136.638 0 0 1 5.55-16.161c1.646-4.116 2.846-8.36 4.09-12.611 1.253-4.167 2.9-7.848 4.845-11.727a304.13 304.13 0 0 0 2.25-7.25c2.181-6.859 5.174-12.146 9.75-17.75l2.309-2.844a499.23 499.23 0 0 1 4.578-5.515c2.177-2.637 2.177-2.637 4.082-5.641 8.995-13.285 35.29-35 52.031-35Z"/>
  <path fill="#BBAE98" d="M233 293c1.719 2.578 2.482 4.104 3.25 7l.578 2.063C237 304 237 304 235 307h5c3.689 11.593 4.357 23.234 4.766 35.312.147 4.27.305 8.542.476 12.812.74 18.873 1.09 37.74 1.32 56.626l.03 2.448c.136 11.21.252 22.418.358 33.627.032 3.395.067 6.79.104 10.186.524 48.041-.562 95.836-3.081 143.817l-.127 2.41c-.119 2.259-.241 4.517-.365 6.775-.07 1.26-.138 2.52-.209 3.817a186.61 186.61 0 0 1-.512 6.685c-.764 8.076-.913 16.095-.918 24.201l-.015 4.363a6730.55 6730.55 0 0 0-.028 11.904c-.008 4.297-.021 8.593-.034 12.889-.025 8.43-.044 16.859-.062 25.288-.021 9.914-.048 19.827-.074 29.74-.048 17.807-.091 35.614-.132 53.421-.039 17.049-.08 34.097-.125 51.146l-.008 3.147-.033 12.544a164359.82 164359.82 0 0 0-.288 127.551l-.006 2.646c-.026 13.16-.06 26.32-.1 39.48-.03 9.742-.053 19.485-.07 29.227-.01 5.193-.022 10.386-.043 15.578a3692.01 3692.01 0 0 0-.031 13.721 965.229 965.229 0 0 1-.018 4.813 877.388 877.388 0 0 0-.009 6.373l-.01 3.522c.242 2.903.832 4.44 2.244 6.931.243 2.701.243 2.701.23 5.754l-.005 3.338-.037 3.47-.002 3.483c-.045 8.533-.045 8.533-1.186 11.955a172.85 172.85 0 0 0-.125 7.563l-.012 2.076c-.05 3.807-.05 3.807 1.137 7.361-.938 2.625-.938 2.625-2 5h-2l1 36-3-1c-1.126-6.894-.92-13.463-.58-20.425.521-12.167.763-24.313.84-36.49.022-3.437.05-6.874.077-10.31.059-7.342.111-14.683.163-22.025.069-9.61.141-19.219.219-28.828l.028-3.575c.219-26.786.708-53.566 1.253-80.347l-.331 1.855c-.508 2.832-1.018 5.665-1.528 8.497l-.521 2.916c-1.62 8.97-3.56 17.854-5.62 26.732-1.5-1.25-1.5-1.25-3-3v-4h3v-4l-4 1 2-4h3l-1-2c-.03-2.309.067-4.6.16-6.906.052-2.317.052-2.317-2.16-4.094.375-2.625.375-2.625 1-5h2l-1-9 2-1-.063-3.875c-.062-3.875-.062-3.875 1.063-6.125h-3l-1 4c-1.231-3.694-.644-6.206 0-10h2l-.125-2.375C232 960 232 960 234 958l-1.063-2.75c-.902-3.128-1.07-4.302.063-7.25h-2c1.875-4.875 1.875-4.875 3-6 .04-1.666.043-3.334 0-5l-2 1-2-6 2-2c1.317-2.578 2.337-5.18 3-8-.64-2.46-.64-2.46-2-4l2-1c1.134-2.017 1.134-2.017 2-4h2v-4h-2l.438-1.965c1.521-8.043 1.754-15.863 1.75-24.035l.001-3.328c-.032-4.724-.202-9.044-1.189-13.672a102.562 102.562 0 0 1 0-5.063c.079-3.195-.092-5.865-1-8.937h1c.029-4.125.047-8.25.063-12.375l.025-3.563.01-3.398.016-3.142c.057-2.518.057-2.518-1.114-4.522l1-3h-2v-3h2l-1-4h-2l-2 4h-2v-3l-3-1 4-4-1-2 2-1v-2l-3-1c1.37-2.95 2.826-5.565 5-8h3v-2h-2l-.375-3.375c-.272-3.656-.272-3.656-2.625-5.625l2-2h4l-1-6h-2l1.125-1.75c1.167-2.25 1.167-2.25 0-4.5L236 770l3-1-3-8 3-1v-3l-3-1c-.688-2.063-.688-2.063-1-4l3-2c.28-2.508.372-4.766.328-7.273l-.006-2.183a504.86 504.86 0 0 0-.04-4.574 647.52 647.52 0 0 1-.048-6.986l-.03-4.445-.014-2.106c-.048-3.281-.19-6.293-1.19-9.433h1v-37h-2l.996-1.664c1.198-2.786 1.17-4.688 1.066-7.711-.128-6.917.367-13.735.938-20.625l-3 2c-.25-3.512-.213-5.592 1.438-8.75 2.092-4.353 2.288-8.476 2.562-13.25h-2l-1-5h2l1-9-4-2c2-3 2-3 4-4 .983-3.502 1.081-6.757 1-10.375-.077-6.171.401-12.238.977-18.375.022-3.175-.265-4.637-1.977-7.25l2-1-.625-3.313C241 562 241 562 243 559c-.531-1.594-1.073-3.186-1.688-4.75C241 552 241 552 242 548.75c1.199-4.495.684-7.192 0-11.75l1-3h-2l1-3h2c.027-1.458.046-2.917.063-4.375l.035-2.46c.047-2.214.047-2.214-1.098-4.165h2l-1-5-3 1c-1.044-3.133-.934-3.99 0-7l-2-1 1.938-.563c2.43-1.344 2.43-1.344 2.75-4.687L244 499c.327-2.001.659-4.001 1-6l-2-1h2l-.5-2.875c-.685-4.701-.586-9.385-.5-14.125h-3l-1 2-2-1 1-3h2l1-2 2 1 1-8h-2v2l-5 2c.25-1.813.25-1.813 1-4l2.063-1.438L243 461c.25-2.5.25-2.5 0-5l1-3-1-3 1-2c.096-1.456.13-2.916.125-4.375l.008-2.336c-.06-2.28-.06-2.28-.672-4.394C243 435 243 435 243.5 432.063c.516-3.16.267-4.993-.5-8.063-.966-4.346-.845-7.714-.191-12.043.27-2.765-.243-5.254-.809-7.957v-3l-1.375 1.375L237 406v-2h-2v2l-3 1c-.773-4.736-1-9.21-1-14l-.625-3c-.375-3-.375-3 .563-6.25.9-3.179 1.153-4.88 1.058-8.047-.049-4.327.173-8.576.512-12.89l.3-3.868c.212-2.63.43-5.26.657-7.89 1.019-12.393 1.019-12.393-3.192-23.782l-1.898-1.898-1.914-1.977L225 322l1-2 7 8 2-2c-.213-1.954-.213-1.954-.875-4.188-1.353-5.896-1.238-11.586-1.098-17.59.138-3.24.138-3.24-1.027-6.222.438-2.688.438-2.688 1-5Zm5 240 3 2-3 1v-3Zm-9 285 2 2h-2v-2Z"/>
  <path fill="#D9D4CD" d="M240 814h1l-.002 1.804a155618.858 155618.858 0 0 0-.11 121.012c-.008 13.648-.024 27.296-.042 40.945-.019 13.998-.03 27.997-.034 41.995-.003 8.642-.012 17.284-.028 25.925a7997.4 7997.4 0 0 0-.011 17.765c.001 3.42 0 6.838-.011 10.257-.01 3.704-.008 7.407-.003 11.11l-.017 3.29.012 3-.002 2.592c.271 2.521 1.059 4.09 2.248 6.305.243 2.701.243 2.701.23 5.754l-.005 3.338-.037 3.47-.002 3.483c-.045 8.533-.045 8.533-1.186 11.955a172.85 172.85 0 0 0-.125 7.563l-.012 2.076c-.05 3.807-.05 3.807 1.137 7.361-.938 2.625-.938 2.625-2 5h-2l1 36-3-1c-1.126-6.894-.92-13.463-.58-20.425.521-12.167.763-24.313.84-36.49.022-3.437.05-6.874.077-10.31.059-7.342.111-14.683.163-22.025.069-9.61.141-19.219.219-28.828l.028-3.575c.219-26.786.708-53.566 1.253-80.347l-.331 1.855c-.508 2.832-1.018 5.665-1.528 8.497l-.521 2.916c-1.62 8.97-3.56 17.854-5.62 26.732-1.5-1.25-1.5-1.25-3-3v-4h3v-4l-4 1 2-4h3l-1-2c-.03-2.309.067-4.6.16-6.906.052-2.317.052-2.317-2.16-4.094.375-2.625.375-2.625 1-5h2l-1-9 2-1-.063-3.875c-.062-3.875-.062-3.875 1.063-6.125h-3l-1 4c-1.231-3.694-.644-6.206 0-10h2l-.125-2.375C232 960 232 960 234 958l-1.063-2.75c-.902-3.128-1.07-4.302.063-7.25h-2c1.875-4.875 1.875-4.875 3-6 .04-1.666.043-3.334 0-5l-2 1-2-6 2-2c1.317-2.578 2.337-5.18 3-8-.64-2.46-.64-2.46-2-4l2-1c1.134-2.017 1.134-2.017 2-4h2v-4h-2l.438-1.965c1.521-8.043 1.754-15.863 1.75-24.035l.001-3.328c-.032-4.724-.202-9.044-1.189-13.672a102.562 102.562 0 0 1 0-5.063c.079-3.195-.092-5.865-1-8.937h1c.029-4.125.047-8.25.063-12.375l.025-3.563.01-3.398.016-3.142c.057-2.518.057-2.518-1.114-4.522l1-3h-2v-3h2l2-5Z"/>
  <path fill="#C9C1B1" d="M233 293c1.719 2.578 2.482 4.104 3.25 7l.578 2.063C237 304 237 304 235 307h5c4.044 12.71 4.45 25.56 4.887 38.786.112 3.175.25 6.348.394 9.523.63 14.441.825 28.863.844 43.316l.008 2.73c.006 2.56.004 5.122 0 7.684l.006 2.35c-.024 5.38-.024 5.38-1.139 7.611a95.33 95.33 0 0 0-.063 5.125l.028 2.758L245 429l-2-1 .063-2.188c.039-2.753.039-2.753-.625-5.125-.496-3.045-.081-5.663.37-8.695.268-2.778-.24-5.275-.808-7.992v-3l-1.375 1.375L237 406v-2h-2v2l-3 1c-.773-4.736-1-9.21-1-14l-.625-3c-.375-3-.375-3 .563-6.25.9-3.179 1.153-4.88 1.058-8.047-.049-4.327.173-8.576.512-12.89l.3-3.868c.212-2.63.43-5.26.657-7.89 1.019-12.393 1.019-12.393-3.192-23.782l-1.898-1.898-1.914-1.977L225 322l1-2 7 8 2-2c-.213-1.954-.213-1.954-.875-4.188-1.353-5.896-1.238-11.586-1.098-17.59.138-3.24.138-3.24-1.027-6.222.438-2.688.438-2.688 1-5Z"/>
  <path fill="#E0DBD4" d="M241 299h2c.676 3.853 1.34 7.707 2 11.563l.578 3.29c2.412 14.168 2.412 14.168.422 18.147h2l-.035 2.098c-.4 13.51-.4 13.51 1.553 26.777.573 2.525.56 4.783.51 7.371l-.038 3.037c-.035 2.1-.074 4.198-.117 6.297l-.033 3.041-.051 2.764c.231 2.868 1.118 4.973 2.211 7.615-.91 2.702-2.4 4.6-4 7h2c.65 4.957 1.04 9.686.938 14.688-.045 3.24.032 5.227 1.125 8.312 1.173 3.756.688 6.504.226 10.375-.466 5.841-.329 11.683-.251 17.54l.024 2.683.036 2.422C252 456 252 456 251 458l.563 3.438c.685 4.62-.168 8.625-1.188 13.144-.585 2.552-.585 2.552.625 5.418a242.44 242.44 0 0 1 0 8v4c-.01 1.36-.023 2.721-.035 4.082l-.028 4.73-.025 2.37c-.02 4.715.404 9.143 1.088 13.818-.086 2.555-.086 2.555-.375 4.875l-.3 2.574L251 527c-1.413 9.583-1.413 9.583 0 19a78.766 78.766 0 0 1-.938 4.938c-1.245 6.766-1.203 13.356-1.075 20.206l.04 2.512.055 2.244c-.085 2.168-.528 4.01-1.082 6.1-.019 1.77.005 3.542.063 5.313.056 4.672-.503 8.3-2.063 12.687h-1c-.972-13.663-1.063-27.072-.21-40.73 1.316-21.36 1.424-42.691 1.398-64.082l-.004-2.581c-.04-26.787-.276-53.572-.621-80.357l-.03-2.333a3834.167 3834.167 0 0 0-1.01-52.335l-.057-2.269c-.389-15.144-1.05-30.301-4.087-45.18-.67-3.775-1.132-7.628.621-11.133Z"/>
  <path fill="#BFB09A" d="m450.938 1175.625 2.14-.005c8.544.002 17.01.436 25.526 1.11 15.529 1.228 30.969 1.583 46.534 1.53 3.437-.01 6.873-.004 10.31.008 14.873.041 29.597-.334 44.405-1.809 21.922-2.128 44.84.079 66.147 5.541l-2 2c-3.223-.207-3.223-.207-7.063-.813l-3.847-.582C630 1182 630 1182 629 1181c-11.103-1.16-22.287-1.16-33.438-1.125l-2.483.002c-13.377.01-26.74.28-40.113.61-17.505.428-34.96.555-52.466.138l-2.79-.065c-29.289-.71-29.289-.71-41.71-2.56-1.748-.084-3.5-.13-5.25-.125l-2.516-.008c-2.406.046-2.406.046-5.234 1.133-2.715.21-5.414.375-8.133.5l-2.401.123c-3.391.174-6.783.338-10.174.502-2.475.121-4.95.248-7.425.375l-2.342.107c-3.562-.126-3.562-.126-6.525 1.393-2.274.291-4.556.518-6.84.719l-2.133.19c-2.32.203-4.643.398-6.964.591l-2.422.204c-14.209 1.186-28.385 1.97-42.641 2.296l-2.444.056c-8.674.197-17.349.385-26.023.57-10.597.227-21.191.473-31.783.874l-3.06.107c-4.18-.234-4.18-.234-7.69 1.393-2.268.1-4.539.13-6.809.133l-2.066.003c-1.445 0-2.89-.001-4.335-.006-2.215-.005-4.429 0-6.644.007-1.401 0-2.803-.002-4.205-.004l-3.884-.004C243 1189 243 1189 241 1188v-2c11-.489 22-.967 33-1.438l2.483-.106c20.92-.893 41.829-1.677 62.767-2.018 24.445-.418 48.735-1.204 73.004-4.286 12.93-1.638 25.645-2.54 38.683-2.527Z"/>
  <path fill="#DFD9CF" d="M630 182c5.625 16.876-5.265 41.62-12 57a964.06 964.06 0 0 0-1.938 5.188C608.779 262.219 595.804 276.135 580 287l-2.625 1.852C564.353 297.649 547.896 303.954 532 303v-1l3.918-.7c14.658-2.709 27.147-6.658 40.082-14.3l1.98-1.129c3.055-1.762 3.055-1.762 4.52-4.808L583 279c5.227-5 5.227-5 9-5l.313-1.688c.834-2.807 2.005-4.918 3.687-7.312l3-1 1-3h2l.313-2.188c.754-3.086 2.04-5.11 3.687-7.812l1-3c1-3 1-3 2.563-5.313 1.458-2.726 1.74-4.329 2.027-7.355l.242-2.458L612 231l-2.244.719c-3.395 1.081-6.794 2.15-10.193 3.219l-3.53 1.13c-6.398 2-12.34 3.481-19.033 3.932l1-2c2.229-.642 4.486-1.185 6.75-1.688 10.312-2.393 20.255-5.854 30.25-9.312l-.613-2.324C614 222 614 222 615.813 219.188L618 217h2l1-5-2-1c.375-2.438.375-2.438 1-5l2-1-1-2 1-3h2l-.563-3.188c-.6-5.232.322-9.066 2.563-13.812 2-1 2-1 4-1Z"/>
  <path fill="#E3E0D9" d="m243 823 3 2c.328 2.61.328 2.61.25 5.75l-.047 3.11c-.203 3.14-.203 3.14-.707 5.935-.505 3.263-.625 6.327-.629 9.627l-.004 3.605.012 3.723-.012 3.77.004 3.59.004 3.28c-.047 2.593-.047 2.593 1.129 4.61l-2 2c-.293 2-.293 2-.23 4.29l.005 2.605.037 2.73.002 2.66c.027 3.952.141 7.796.725 11.707.684 4.858.332 9.628.024 14.508l-.159 2.781c-.128 2.24-.263 4.48-.404 6.719l2 1-.492 1.648c-.586 2.715-.64 5.202-.633 7.977l-.008 2.914c-.03 2.466-.03 2.466 1.133 4.461h-2l.254 2.41c1.255 14.853.364 29.721-.254 44.59l2 1-1 2c-.07 2.535.003 5.054.063 7.59C245 1000 245 1000 244 1003a106.99 106.99 0 0 0-.098 5.438l.01 3.21.025 3.352.014 3.352c.009 2.05.02 4.101.033 6.152.02 3.139-.054 5.941-.547 9.059-.742 3.29-.742 3.29.563 5.437.125 2.563.125 2.563 0 5l-1 1c-.06 3.098-.02 6.18.04 9.277.043 3.72-.143 7.109-1.04 10.723l2 1h-2l.563 3.188c.388 3.383.32 5.576-.563 8.812h-1c-.147-6.571-.289-13.143-.427-19.714-.048-2.22-.096-4.44-.146-6.66-.279-12.496-.464-24.987-.452-37.486l.002-3.911c.012-14.062.096-28.124.192-42.186l.044-6.58c.047-6.945.094-13.89.143-20.834.05-7.083.097-14.166.141-21.25.382-60.753.382-60.753.976-82.18l.056-2.168c.295-10.855.295-10.855 1.471-12.031Z"/>
  <path fill="#CAC0B0" d="M239 899h1c.094 9.46.164 18.92.207 28.38.02 4.396.049 8.792.095 13.188.29 28.516-2.464 54.649-9.302 82.432-1.5-1.25-1.5-1.25-3-3v-4h3v-4l-4 1 2-4h3l-1-2c-.03-2.309.067-4.6.16-6.906.052-2.317.052-2.317-2.16-4.094.375-2.625.375-2.625 1-5h2l-1-9 2-1-.063-3.875c-.062-3.875-.062-3.875 1.063-6.125h-3l-1 4c-1.231-3.694-.644-6.206 0-10h2l-.125-2.375C232 960 232 960 234 958l-1.063-2.75c-.902-3.128-1.07-4.302.063-7.25h-2c1.875-4.875 1.875-4.875 3-6 .04-1.666.043-3.334 0-5l-2 1-2-6 2-2c1.317-2.578 2.337-5.18 3-8-.64-2.46-.64-2.46-2-4l2-1c1.134-2.017 1.134-2.017 2-4h2v-4h-2l2-10Z"/>
  <path fill="#E1DBD1" d="M820 1126c1.746 2.62 2.387 4.038 3 7l3-1 2 1-.07 1.828-.055 2.422-.07 2.39c.219 2.645.679 4.183 2.195 6.36 3.562.819 3.562.819 7 1v2l-2 1v1h28c-2.752 2.752-4.922 2.616-8.75 3.125l-3.672.508A76.446 76.446 0 0 1 841 1155l-1 7h-2c-1.009 4.236-1.009 4.236-.063 8.375L839 1172l-2 2h-1l.487 1.854c4.794 18.363 8.682 36.736 11.118 55.564.337 2.69.337 2.69 1.395 5.582-1.938-.75-1.938-.75-4-2-.941-2.806-1.204-5.588-1.43-8.527l-.222-2.655a969.39 969.39 0 0 1-.422-5.406c-.629-7.334-2.176-14.272-3.926-21.412-.552-2.408-1.102-4.817-1.648-7.227-.575-2.466-1.15-4.932-1.727-7.398l-.844-3.734c-1.609-6.829-3.572-13.03-6.662-19.337-3.092-6.366-4.653-13.207-6.307-20.054l-.543-2.223c-.875-3.74-1.488-7.183-1.269-11.027Z"/>
  <path fill="#C8BEAE" d="M268 233v2l-1.57.715c-14.677 6.722-29.208 13.73-40.59 25.523C224 263 224 263 222 263l-.734 1.672c-1.542 2.836-3.44 5.106-5.516 7.578-3.311 3.983-6.506 8.008-9.559 12.191C205 286 205 286 203 288v3l-.808 1.849c-.461 2.407-.461 2.407 1.806 4.716.966.965 1.945 1.917 2.936 2.857l1.55 1.53a630.273 630.273 0 0 0 4.953 4.798c1.114 1.089 2.227 2.179 3.338 3.27 2.73 2.673 5.473 5.33 8.225 7.98l-1 2-20-20-3 1c-1.716 3.503-1.716 3.503-3 7h2a564.99 564.99 0 0 1-.813 6.875l-.457 3.867C198 322 198 322 195 324h-4l-.313 3.375L190 331l-3 2-2-1c.962-5.952 2.369-11.298 4.742-16.836a133.119 133.119 0 0 0 2.828-7.89c3.083-9.392 5.942-17.636 12.43-25.274l2.3-2.824a448.318 448.318 0 0 1 4.587-5.535c2.177-2.637 2.177-2.637 4.082-5.641 8.995-13.285 35.29-35 52.031-35Z"/>
  <path fill="#C0B5A3" d="M240 669h1c.07 18.871.123 37.742.155 56.613.016 8.762.037 17.524.071 26.285.03 7.635.05 15.27.056 22.904.004 4.044.013 8.089.035 12.133.02 3.804.027 7.607.022 11.41.001 1.4.007 2.798.019 4.197.014 1.904.01 3.809.003 5.713l.008 3.234L241 814l-3 2-2-2-1.375 2.5L233 819h-2v-3l-3-1 4-4-1-2 2-1v-2l-3-1c1.37-2.95 2.826-5.565 5-8h3v-2h-2l-.375-3.375c-.272-3.656-.272-3.656-2.625-5.625l2-2h4l-1-6h-2l1.125-1.75c1.167-2.25 1.167-2.25 0-4.5L236 770l3-1-3-8 3-1v-3l-3-1c-.688-2.063-.688-2.063-1-4l3-2c.415-2.127.415-2.127.293-4.57l-.03-2.715c-.024-.937-.05-1.874-.076-2.84l-.04-2.863A624.405 624.405 0 0 0 238 730h2v-61Zm-11 149 2 2h-2v-2Z"/>
  <path fill="#DDD9D1" d="M55 1086h2c-.54 16.007-1.134 32.007-2 48l2-2c2.938.813 2.938.813 6 2l1 3c6.432 2.031 12.894 2.36 19.59 2.659 5.216.244 5.216.244 7.41 1.341v2l1.69-.016c11.488-.093 22.859.03 34.31 1.016l-1 2a7642.332 7642.332 0 0 1-32-1l-3.448-.113a1334.32 1334.32 0 0 1-8.552-.324l-2.452-.082c-3.785-.168-7.2-.575-10.86-1.579-3.487-.853-4.475-.912-7.688.098l-1 6-2-4-2 2c-2.964-6.6-3.436-12.063-3.313-19.25l.026-3.23c.186-12.87 1.204-25.699 2.287-38.52Zm5 48 1 3v-3h-1Z"/>
  <path fill="#B8A894" d="M57 1147c1.474 1.05 1.474 1.05 3 3a55.5 55.5 0 0 1 .417 7.21l.026 2.213c.025 2.414.029 4.827.034 7.241.014 1.675.03 3.35.047 5.025.042 4.408.067 8.817.087 13.226.036 7.064.097 14.129.159 21.193.019 2.474.03 4.947.041 7.42l.031 4.521.003 2.1c-.24 3.204-.24 3.204 1.155 5.851 2.261.35 4.532.639 6.805.902l2.126.249c2.314.268 4.629.528 6.944.786l2.405.272c17.44 1.962 34.891 3.261 52.407 4.318l2.251.136c3.637.219 7.274.434 10.912.64 6.745.388 13.445.86 20.15 1.697v1c-4.397.025-8.793.043-13.19.055-1.496.005-2.993.012-4.49.02-2.147.013-4.294.018-6.441.023l-3.92.016C135 1236 135 1236 134 1235c-2.97-.233-5.923-.405-8.898-.535l-2.742-.13c-1.925-.09-3.85-.179-5.776-.265-2.912-.13-5.824-.268-8.736-.408-12.45-.61-12.45-.61-24.909-.5C81 1233 81 1233 78 1231a167.9 167.9 0 0 0-10.107-1.035c-3.097-.304-5.475-.694-8.107-2.398-2.757-3.963-2.262-7.691-2.141-12.403l.025-2.97c.02-2.1.049-4.202.085-6.303.096-5.45.129-10.901.17-16.352l.031-3.266c.076-9.102-.104-18.177-.456-27.273l-.145-3.767A1506.15 1506.15 0 0 0 57 1147Z"/>
  <path fill="#A99781" d="M240 814h1c.024 23.248.041 46.496.052 69.744.005 10.8.012 21.6.023 32.399.01 9.436.017 18.873.02 28.31 0 4.974.003 9.95.01 14.925.04 27.221-.347 54.41-1.105 81.622l-2-1 .045-2.144c.138-6.665.27-13.33.398-19.996.066-3.427.133-6.854.205-10.28.083-3.94.157-7.879.23-11.818l.083-3.732.06-3.457.061-3.048c.034-2.652.034-2.652-1.082-5.525l.43-2.06c.838-4.321.709-8.584.7-12.975l.005-3.052c.004-3.325.001-6.65-.002-9.976a11458.984 11458.984 0 0 0-.002-21.474c-.006-6.21-.003-12.42.003-18.632.004-4.775.002-9.55 0-14.324 0-2.29 0-4.58.002-6.87.003-3.201-.001-6.401-.007-9.602l.007-2.868c-.014-4.202-.134-8.062-1.136-12.167a102.562 102.562 0 0 1 0-5.063c.079-3.195-.092-5.865-1-8.937h1c.029-4.125.047-8.25.063-12.375l.025-3.563.01-3.398.016-3.142c.057-2.518.057-2.518-1.114-4.522l1-3h-2v-3h2l2-5Z"/>
  <path fill="#D8D2C6" d="M233 293c1.719 2.578 2.482 4.104 3.25 7l.578 2.063C237 304 237 304 235 307h2l.06 2.216c.096 3.324.205 6.648.315 9.971.03 1.151.062 2.301.094 3.487l.117 3.369.095 3.094c.192 2.898.192 2.898 1.407 5.548C240 337 240 337 239 340l-2-3 1.05 1.621c1.26 3.154.774 5.13.137 8.442l-.582 3.16C237 353 237 353 236 356l2 1a900.238 900.238 0 0 1-.375 7.188l-.094 2.04c-.235 4.015-1 7.088-2.531 10.772.273 2.341.598 4.678 1 7l-1 1c-.4 2.522-.75 5.03-1.063 7.563l-.275 2.154c-.224 1.76-.444 3.522-.662 5.283-2.78-4.17-2.962-8.047-3-13a220.523 220.523 0 0 1 2-7 69.15 69.15 0 0 0-.004-4.281c-.048-4.332.173-8.587.512-12.906l.3-3.868c.212-2.63.43-5.26.657-7.89 1.019-12.393 1.019-12.393-3.192-23.782l-1.898-1.898-1.914-1.977L225 322l1-2 7 8 2-2c-.213-1.954-.213-1.954-.875-4.188-1.353-5.896-1.238-11.586-1.098-17.59.138-3.24.138-3.24-1.027-6.222.438-2.688.438-2.688 1-5Z"/>
  <path fill="#F7F6F2" d="M363 202h2l.516 2.316c.806 3.567 1.64 7.126 2.484 10.684l.844 3.57c1.809 7.22 4.034 14.117 6.719 21.055l.887 2.298c1.563 3.932 3.268 7.498 5.55 11.077l1.98 3.418c4.092 7.016 8.272 13.541 13.586 19.727C399 278 399 278 399 280h2c4 4.47 4 4.47 4 7l3 1c1.719 1.742 1.719 1.742 3.5 3.875 4.004 5.088 4.004 5.088 9.5 8.125.688 2.063.688 2.063 1 4l4 1v2l2.375.938C431 309 431 309 433 310v2l2.188.813c2.788 1.177 5.253 2.578 7.812 4.187-1.563.75-1.563.75-4 1-2.503-1.13-4.67-2.521-7-4v-2l-1.813-.375C428 311 428 311 425 309v-2l-1.77-.809c-15.655-8.362-27.23-26.39-37.131-40.616a444.868 444.868 0 0 0-2.888-4.079c-3.857-5.528-6.612-11.288-9.211-17.496l-1.504-3.508c-5.242-12.456-8.989-24.877-9.496-38.492Z"/>
  <path fill="#E0D9D0" d="M388 182c-3.238 2.776-6.061 4.445-10 6l-1.5 1.563C375 191 375 191 372.687 191.375c-3.855.897-5.772 2.98-8.687 5.625l-1-3c.834 15.178 3.824 28.979 9.271 43.1.637 1.66 1.242 3.332 1.842 5.005 7.693 20.28 22.032 37.147 36.82 52.618A103.758 103.758 0 0 1 418 303c-4.148-1.64-6.982-4.638-10.063-7.75l-1.731-1.747C380.174 266.768 365.108 233.825 360 197c-3.87-.348-3.87-.348-6.25 1.375-3.528 2.085-6.755 2.745-10.75 3.625v-2c4.436-2.26 8.889-4.413 13.438-6.438 3.415-1.53 6.657-3.154 9.875-5.062 5.701-3.25 15.24-8.649 21.687-6.5Z"/>
  <path fill="#E8E6E2" d="M247 430h1v130h1c.027 2.917.047 5.833.063 8.75l.025 2.5.01 2.422.016 2.222c-.117 2.156-.567 4.023-1.114 6.106-.019 1.77.005 3.542.063 5.313.056 4.672-.503 8.3-2.063 12.687h-1c-.993-13.955-1.046-27.652-.21-41.6 1.488-25.307 1.644-50.62 1.81-75.962.042-5.942.092-11.885.142-17.827.095-11.537.18-23.074.258-34.611Z"/>
  <path fill="#DCD8CF" d="m246 600 2 1-.5 1.938c-.548 3.356-.532 6.488-.438 9.878C247 615 247 615 246.5 616.937c-.826 3.408-.515 6.823-.438 10.31C246 630 246 630 245.5 632.207c-.618 3.452-.594 6.71-.563 10.218l.012 2.14c.016 3.002.044 6.004.072 9.006.018 2.201.03 4.402.042 6.604l.035 3.966c-.072 2.811-.256 5.39-.63 8.16-.421 3.33-.366 5.506.532 8.698h-2l1 4 2-1-3 12h-1c-1.096-37.826-1.096-37.826-1.125-53.688l-.014-2.99c.014-6.813.486-13.54 1.139-20.322h1l.148-3.395.227-4.418.094-2.236c.204-3.77.395-5.748 2.531-8.951Z"/>
  <path fill="#CFC7B7" d="M630 182c3.18 9.54-.592 21.374-2.938 30.75l-.802 3.212c-1.986 7.627-1.986 7.627-4.26 11.038-2.625.688-2.625.688-5 1 1.375-1.5 1.375-1.5 3-3h2v-2h-3l1-5h2l-.219-2.047-.281-2.703-.281-2.672c-.318-3.748-.249-6.973.781-10.578h2l-.563-3.188c-.6-5.232.322-9.066 2.563-13.812 2-1 2-1 4-1Z"/>
  <path fill="#E6E1DA" d="m635 1141 2 1-1 3 3.813.5 2.144.281c2.198.272 2.198.272 5.043.219h2v2l2 1-1 2 2.813-.188c3.187.188 3.187.188 5.062 1.688L659 1154c-2.566.855-3.935 1.014-6.625.438L650 1154l-2 2v-2l-2.773-.402-3.602-.535-3.586-.528C635 1152 635 1152 633 1151a176.3 176.3 0 0 0-5-1v-2h-2l1 5-3-1-1 3v-5l-6-1 1-3h7l-1-4 2.688 1.188c3.31 1.199 3.31 1.199 6.062-.626L635 1141Z"/>
  <path fill="#C4B59F" d="M957 1230v2c-3.788 1.162-7.61 1.3-11.54 1.5l-4.444.25-6.986.375c-2.252.121-4.504.248-6.757.375l-2.118.107c-3.701.173-3.701.173-7.155 1.393a88.123 88.123 0 0 1-4.785.281l-3.014.112-3.264.107-3.34.123c-4.73.174-9.462.338-14.194.502-3.447.121-6.894.248-10.34.375l-3.264.107-3.014.112-2.66.092c-2.178.063-2.178.063-4.125 1.189-2.884.072-5.742.093-8.625.063l-2.43-.014c-1.981-.012-3.963-.03-5.945-.049v-2c3.047-.866 5.89-1.19 9.052-1.341l3.07-.153 3.331-.154 7.141-.355 3.79-.184c20.913-1.019 41.797-2.207 62.668-3.898l2.325-.187c2.02-.163 4.04-.332 6.061-.5 3.532-.226 7.024-.268 10.562-.228Z"/>
  <path fill="#B9A588" d="m647 1183 2.334.083c26.01.899 52.016 1.21 78.039 1.45 5.506.05 11.012.106 16.518.16 10.703.106 21.406.208 32.109.307v1c-10.89.8-21.707 1.15-32.625 1.133a5140.41 5140.41 0 0 1-14.44-.002c-4.065-.006-8.13-.003-12.194.003-16.232.02-32.453-.088-48.678-.58l-2.035-.058c-12.737-.38-12.737-.38-19.028-1.496v-2Z"/>
  <path fill="#E1DED9" d="M147 469h1c.369 16.893.369 16.893-2 24l-2-1c.095.76.19 1.519.29 2.3.11.995.22 1.989.335 3.012l.352 2.989C145 503 145 503 143 506l2 1c-.762 3.61-2.125 6.858-3.563 10.25l-1.378 3.266L139 523h-2l-2 10 2-1-1 6h-3l-2 2c.358-5.195 1.166-9.831 2.688-14.813 2.15-7.193 3.712-14.465 5.25-21.812A731.675 731.675 0 0 1 147 469Z"/>
  <path fill="#E1DCD1" d="M835 1170c2 1.188 2 1.188 4 3 .25 2.688.25 2.688 0 5l3 1 .367 2.492a397.34 397.34 0 0 0 4.203 23.207l.555 2.676.508 2.398C848 1212 848 1212 848 1216l1.5 1.5 1.5 1.5v4h2l-1 3h-2l-1 5c-3-2-3-2-3.613-4.217l-.344-2.787-.425-3.149-.43-3.41c-1.463-10.57-3.522-20.826-6.17-31.162-1.385-5.437-2.467-10.689-3.018-16.275Z"/>
  <path fill="#DBD7CF" d="m199 296 4 2-5 10h2a564.99 564.99 0 0 1-.813 6.875l-.457 3.867C198 322 198 322 195 324h-4l-.313 3.375L190 331l-3 2-2-1c1.15-7.115 3.157-13.392 6-20 .67-1.665 1.338-3.331 2-5h2l.621-1.898.816-2.477.81-2.46C198 298 198 298 199 296Z"/>
  <path fill="#D0C9BB" d="m238 307 3 1c2.712 13.66 3.663 27.088 4 41l-2 1c-5.854-13.799-7.54-27.022-6-42l1-1Z"/>
  <path fill="#B5A38B" d="M336 1184v1l-2.982.076c-3.65.094-7.302.194-10.952.296-1.58.044-3.16.085-4.74.125-2.272.058-4.543.122-6.814.187l-2.14.05c-3.038.092-5.468.298-8.372 1.266-1.906.138-3.816.225-5.727.281l-3.375.114-7.07.21-3.367.114-3.1.092c-2.317-.071-2.317-.071-3.361 1.189-2.268.1-4.539.13-6.809.133l-2.066.003c-1.445 0-2.89-.001-4.335-.006-2.215-.005-4.429 0-6.644.007-1.401 0-2.803-.002-4.205-.004l-3.884-.004C243 1189 243 1189 241 1188v-2c31.687-1.46 63.28-2.312 95-2Z"/>
  <path fill="#B6A692" d="M65 969h1c.51 16.009-.928 31.936-2.143 47.883-.223 2.952-.44 5.904-.655 8.857A2122.534 2122.534 0 0 1 58 1085h-2l.184-2.43c.44-5.968.843-11.93 1.136-17.908.338-6.76.84-13.458 1.617-20.182 1.3-11.798 1.946-23.632 2.626-35.48.246-4.292.498-8.584.753-12.875l.165-2.954.162-2.726.136-2.39C63 986 63 986 64 983c.226-2.393.408-4.79.563-7.188l.253-3.855L65 969Z"/>
  <path fill="#9A8464" d="M238 1041h1l1 145-3-1c-1.12-6.87-.922-13.409-.582-20.345.588-13.714.797-27.41.898-41.135l.063-7.216c.055-6.229.104-12.457.153-18.686.051-6.397.106-12.794.161-19.19.107-12.476.209-24.952.307-37.428Z"/>
  <path fill="#C8BFAE" d="M235 784h4v28h2l-2 4-3-2-1.375 2.5L233 819h-2v-3l-3-1 4-4-1-2 2-1v-2l-3-1c1.37-2.95 2.826-5.565 5-8h3v-2h-2l-.375-3.375c-.272-3.656-.272-3.656-2.625-5.625l2-2Zm-6 34 2 2h-2v-2Z"/>
  <path fill="#A89674" d="M827 1154c2.724 2.353 3.814 4.625 5 8l2-2 1 3 2 2c.563 1.938.563 1.938 1 4l1 3-2 2h-1l.487 1.854c4.794 18.363 8.682 36.736 11.118 55.564.337 2.69.337 2.69 1.395 5.582-1.938-.75-1.938-.75-4-2-.941-2.806-1.204-5.588-1.43-8.527l-.222-2.655a969.39 969.39 0 0 1-.422-5.406c-.629-7.334-2.176-14.272-3.926-21.412-.552-2.408-1.102-4.817-1.648-7.227-.575-2.466-1.15-4.932-1.727-7.398l-.844-3.734c-1.626-6.902-3.62-13.106-6.815-19.447C827 1157 827 1157 827 1154Z"/>
  <path fill="#D9D4CC" d="M88 774h1c.12 6.136-.305 12.132-.879 18.242-.343 2.719-.343 2.719.879 4.758-.938 2.625-.938 2.625-2 5l4 2c-1.152 2.468-2.048 4.048-4 6h2v2h-2l-1 3-1-3 .5 1.813c1.02 4.46-.204 7.895-1.5 12.187h-2v8h-2a979.373 979.373 0 0 1 3.738-35.735c.174-1.418.345-2.837.515-4.256.243-2.022.494-4.043.747-6.064l.438-3.546c.595-3.6 1.496-6.913 2.562-10.399Z"/>
  <path fill="#DFDAD0" d="M620 206h2v12l-2 1c-.652 2.025-.652 2.025-1 4h3v2l-3 2h3l-1 3h-5l-.25 2.75c-.842 3.65-1.929 4.884-4.75 7.25l1-9-2.244.719c-3.395 1.081-6.794 2.15-10.193 3.219l-3.53 1.13c-6.398 2-12.34 3.481-19.033 3.932l1-2c2.229-.642 4.486-1.185 6.75-1.688 10.312-2.393 20.255-5.854 30.25-9.312l-.613-2.324C614 222 614 222 615.813 219.188L618 217h2l1-5-2-1 1-5Z"/>
  <path fill="#D5CCBD" d="m232 982 1 4h2l1-2h2c-.47 8.998-2.012 17.488-4.063 26.25l-.853 3.738c-.687 3.006-1.382 6.01-2.084 9.012-1.5-1.25-1.5-1.25-3-3v-4h3v-4l-4 1 2-4h3l-1-2c-.03-2.309.067-4.6.16-6.906.052-2.317.052-2.317-2.16-4.094.375-2.625.375-2.625 1-5h2l-.563-3.938c-.316-2.214-.316-2.214-.437-4.062l1-1Z"/>
  <path fill="#D9D4CB" d="m240 998 3 1c.81 6.34 1.128 12.488 1.063 18.875l-.014 2.547c-.009 1.545-.02 3.09-.033 4.636A604.757 604.757 0 0 0 244 1030l-.563 3.563c-.742 3.29-.742 3.29.563 5.437.125 2.563.125 2.563 0 5l-1 1c-.06 3.098-.02 6.18.04 9.277.043 3.72-.143 7.109-1.04 10.723l2 1h-2l.563 3.188c.388 3.383.32 5.576-.563 8.812h-1c-1.21-54.063-1.21-54.063-1-80Z"/>
  <path fill="#F7F6F1" d="M404 223c5.138 1.371 9.94 2.9 14.688 5.313 18.708 8.783 40.969 11.17 61.312 13.687v1c-24.505.68-54.035-4.6-75-18l-1-2Z"/>
  <path fill="#CFC7B9" d="M620 228c1.46 3.445.609 5.753-.74 9.127l-.822 1.935-.832 2.006c-6.84 16.16-6.84 16.16-13.606 21.932.96-6.392 2.243-10.648 6-16 1.162-2.95 2.07-5.97 3-9 2.35-7.554 2.35-7.554 5.188-9.5L620 228Z"/>
  <path fill="#D3CBB8" d="M169 383c2.47 4.37 2.546 8.075 2 13-.61 2.061-1.366 3.978-2.21 5.953-.869 2.25-1.334 4.43-1.79 6.797-.694 3.407-1.538 5.676-4 8.25l-1-1-2 3c.642-6.16 1.848-12.002 3.375-18l.633-2.578c1.334-5.304 2.979-10.337 4.992-15.422Z"/>
  <path fill="#AE9A83" d="m646 1182-2 2c-3.223-.207-3.223-.207-7.063-.813l-3.847-.582C630 1182 630 1182 629 1181a106.947 106.947 0 0 0-5.379-.5l-3.45-.249-3.734-.251-3.784-.263c-11.876-.8-23.758-1.33-35.653-1.737v-1c22.661-3.215 46.911-.663 69 5Z"/>
  <path fill="#C0B39D" d="M130 542c1.516 1.258 1.516 1.258 3 3-.18 2.8-.465 5.275-1 8l-.563 3-.437 2-2-2 1 10-2 1-1-3-1 6h2v3l-1 1a69.603 69.603 0 0 0-.563 4.063L126 582h-2v5l-3 1c1.225-15.654 5.284-30.793 9-46Z"/>
  <path fill="#D9D3C8" d="M233 293c1.719 2.578 2.482 4.104 3.25 7l.578 2.063C237 304 237 304 235 307h2l.06 2.216c.096 3.324.205 6.648.315 9.971.03 1.151.062 2.301.094 3.487l.117 3.369.095 3.094c.192 2.898.192 2.898 1.407 5.548C240 337 240 337 239 340l-.918-1.793c-2.545-4.8-4.993-8.538-9.082-12.207l-4-4 1-2 7 8 2-2c-.213-1.954-.213-1.954-.875-4.188-1.353-5.896-1.238-11.586-1.098-17.59.138-3.24.138-3.24-1.027-6.222.438-2.688.438-2.688 1-5Z"/>
  <path fill="#E1D7CA" d="m331 205 2 1c-9.327 4.898-18.729 9.226-28.545 13.055a352.356 352.356 0 0 0-18.168 7.687c-4.047 1.82-8.01 3.13-12.287 4.258v-2l3.113-1.355 4.2-1.833 2.033-.884a627.447 627.447 0 0 0 11.963-5.377c5.732-2.613 11.562-4.918 17.441-7.176 1.974-.762 3.948-1.525 5.922-2.29l2.78-1.07a150.62 150.62 0 0 0 6.626-2.85L331 205Z"/>
  <path fill="#B5A48F" d="M71 897h2c-1.362 23.734-3.44 47.368-6 71h-1c.256-23.89 1.972-47.303 5-71Z"/>
  <path fill="#D6CDC0" d="M810 1082h3c1.657 3.752 2.502 7.264 3.125 11.313l.508 3.238L817 1099h-2l2 9h3l2 2-1 2a99.797 99.797 0 0 0 0 5h2l-2 4-2-6-2 2c-3.314-11.638-5.886-22.942-7-35Z"/>
  <path fill="#DED9D0" d="m243 823 3 2c.328 2.61.328 2.61.25 5.75l-.047 3.11c-.203 3.14-.203 3.14-.707 5.935-.505 3.263-.625 6.327-.629 9.627l-.004 3.605.012 3.723-.012 3.77.004 3.59.004 3.28c-.047 2.593-.047 2.593 1.129 4.61l-3 1a404.87 404.87 0 0 1-1.13-31.251c.005-2.238 0-4.475-.007-6.712 0-1.428.002-2.855.004-4.283l.004-3.865C242 824 242 824 243 823Z"/>
  <path fill="#C5B7A4" d="m578.54 1177.121 1.974.072c2.037.075 4.074.16 6.111.245l4.2.158c3.391.128 6.783.263 10.175.404v1c-8.285.263-16.57.524-24.855.782-3.848.12-7.696.241-11.544.364-3.722.118-7.444.234-11.166.35-1.411.044-2.823.088-4.234.134-22.02.705-22.02.705-30.889-.13l-3.074-.281L513 1180v-1l1.755-.031c6.068-.109 12.136-.224 18.203-.341 2.26-.043 4.52-.085 6.78-.125 3.262-.059 6.524-.122 9.785-.187l3.026-.05c4.596-.096 9.125-.295 13.697-.793 4.134-.45 8.131-.515 12.293-.352Z"/>
  <path fill="#E0DACC" d="M797 1018h2c2.532 8.936 2.532 8.936 0 14l4-1c.34 1.874.671 3.75 1 5.625l.563 3.164c.431 3.167.73 6.025.437 9.211l-3 2c-7.48-28.042-7.48-28.042-5-33Z"/>
  <path fill="#C9C0A9" d="M820 1126c1.746 2.62 2.387 4.038 3 7l3-1 2 1-.07 1.828-.055 2.422-.07 2.39c.219 2.645.679 4.183 2.195 6.36 3.562.819 3.562.819 7 1v2c-1.478.194-2.958.38-4.438.563l-2.496.316L828 1150l-1-1v5c-2-1-2-1-2.686-3.054l-.603-2.68-.664-2.93-.672-3.086-.695-3.04c-1.003-4.5-1.816-8.58-1.68-13.21Z"/>
  <path fill="#E7E2DA" d="M946.563 1143.938 950 1144v3c-4.912 1.213-9.843 1.343-14.875 1.563l-2.803.128c-7.78.334-15.537.417-23.322.309l1-2a76.014 76.014 0 0 1 7.063-1.125l2.14-.26c5.953-.658 11.847-.767 17.83-.63 1.656.036 3.312.03 4.967.015 1-1 1-1 4.563-1.063Z"/>
  <path fill="#B1A492" d="M55 1086h2l-.305 8.74c-.089 2.522-.176 5.043-.263 7.564-.219 6.268-.463 12.531-.791 18.794l-.167 3.308a720.848 720.848 0 0 1-.345 6.215l-.14 2.82-.14 2.46c0 2.406 0 2.406 2.151 5.099.125 3.188.125 3.188 0 6-2-1-2-1-3.11-3.863-1.309-5.06-1.186-10.13-1.14-15.324l.012-3.244c.133-12.89 1.153-25.729 2.238-38.569Z"/>
  <path fill="#E7E4DD" d="m246 600 2 1-.5 1.938c-.548 3.356-.532 6.488-.438 9.878C247 615 247 615 246.5 616.937c-.826 3.408-.515 6.823-.438 10.31-.06 2.706-.45 5.12-1.062 7.753h-1l-1 15h-1v-31h1l.148-3.395.227-4.418.094-2.236c.204-3.77.395-5.748 2.531-8.951Z"/>
  <path fill="#D4C7B4" d="M268 233v2l-1.57.715C250.783 242.881 236.154 250.513 224 263l-3-1c9.352-10.697 32.234-29 47-29Z"/>
  <path fill="#BAA690" d="M898 1235v2l-2.722.076c-3.329.095-6.657.194-9.986.296-1.44.044-2.882.085-4.324.125-2.07.058-4.14.122-6.21.187l-3.777.11c-2.907.009-2.907.009-4.981 1.206-2.884.072-5.742.093-8.625.063l-2.43-.014c-1.981-.012-3.963-.03-5.945-.049v-2c3.002-.851 5.788-1.182 8.902-1.316l2.92-.128 3.115-.119 3.198-.128c10.29-.382 20.57-.406 30.865-.309Z"/>
  <path fill="#B4A492" d="M79 835h2c-.868 7.66-1.745 15.317-2.634 22.974-.413 3.556-.822 7.111-1.224 10.668-.462 4.086-.939 8.171-1.415 12.256l-.433 3.88-.424 3.579-.364 3.163C74 894 74 894 72 896c3.146-42.606 3.146-42.606 7-61Z"/>
  <path fill="#C5BCAD" d="M147 469h1c.369 16.893.369 16.893-2 24l-2-1 1 10-3-1-3 10c-1.134-4.536-.436-7.589.625-12l.544-2.351c2.16-9.244 4.488-18.45 6.831-27.649Z"/>
  <path fill="#B8A794" d="M106 658h1c.18 6.424-.412 12.107-1.75 18.375-2.009 9.863-3.508 19.764-4.854 29.738l-.466 3.328-.4 2.96c-.512 2.513-1.266 4.38-2.53 6.599.576-9.483 1.689-18.822 3.047-28.22.327-2.276.644-4.553.96-6.83 1.244-8.779 2.816-17.347 4.993-25.95Z"/>
  <path fill="#E3DED5" d="m906 1147 2 2c-3.036 1.741-5.339 2.283-8.824 2.414l-2.846.117-3.018.094-3.086.115c-8.743.302-17.479.366-26.226.26v-1c11.565-2.028 22.626-3.323 34.375-3.008 3.45.16 3.45.16 6-.61L906 1147Z"/>
  <path fill="#D6CFC4" d="M611 241c1 3 1 3-.25 5.875C609 250 609 250 607.437 252.25c-1.45 2.776-1.621 4.267-1.937 7.313-1.247 7.517-7.261 12.338-12.5 17.437l-2-1 2.25-1.875c3.686-3.623 5.085-8.335 6.75-13.125h2l.313-2.188c.754-3.086 2.04-5.11 3.687-7.812l1-3.063c.971-2.852 2.07-4.656 4-6.937Z"/>
  <path fill="#E8E4DD" d="m499 1141 2 1c.625 2.063.625 2.063 1 4h-6l1 5c-8.429 1.429-8.429 1.429-13-1v-5h2l1-2c2.563-.625 2.563-.625 5-1v3l2 1 1-1 4-4Z"/>
  <path fill="#E2DDD5" d="m80.434 1139.867 3.004.008 2.996-.008C89 1140 89 1140 91 1141v2l1.69-.016c11.488-.093 22.859.03 34.31 1.016l-1 2c-4.301-.07-8.602-.158-12.903-.262a650.893 650.893 0 0 0-4.369-.084c-10.952-.178-21.243-1.159-31.728-4.654 1-1 1-1 3.434-1.133Z"/>
  <path fill="#B9A792" d="M96 719h1c.226 7.22-.637 13.896-1.875 21-1.4 8.303-2.673 16.573-3.44 24.96-.348 3.447-.712 5.08-2.685 8.04a315.264 315.264 0 0 1 3.157-33.126c.35-2.361.69-4.724 1.027-7.087l.66-4.533.306-2.127c.734-4.895.734-4.895 1.85-7.127Z"/>
  <path fill="#C0B5A1" d="M241 601h1c2.087 9.393 1.699 20.56 0 30l-2 1v-6h-2l-1-5h2l1-9-4-2c2-3 2-3 4-4 .656-2.527.656-2.527 1-5Z"/>
  <path fill="#C2B59E" d="M239 923h1c.05 6.514.086 13.029.11 19.543.01 2.218.024 4.435.04 6.653.025 3.182.036 6.364.045 9.546l.032 3.018v2.79l.014 2.463C240 969 240 969 238 971l-.148-3.14-.227-4.11-.094-2.066c-.214-3.671-.542-6.547-2.531-9.684h2l-1-7h3v-22Z"/>
  <path fill="#BAA986" d="M238 1144h1l1 42-3-1c-1.207-7.26-.942-14.29-.625-21.625l.133-3.64c.213-5.339.529-10.472 1.492-15.735Z"/>
  <path fill="#E7E3DB" d="m826 1145 1.188 2c1.666 2.292 1.666 2.292 4.5 2.25L834 1149l1 2 17 1v1c-2.916.363-5.832.716-8.75 1.063l-2.5.314-2.422.283-2.222.27c-2.229.074-3.98-.29-6.106-.93l1.063 1.813C832 1158 832 1158 831 1161c-3.496-5.506-5.701-9.408-5-16Z"/>
  <path fill="#E5DBCF" d="M624 180c-7.787 6.468-19.45 15-30 15v-2l3.184-1.574 4.254-2.113 2.218-1.1c4.596-2.293 9.08-4.695 13.45-7.4 2.385-1.024 4.326-.955 6.894-.813Z"/>
  <path fill="#C3B9A6" d="M244 366h1v37h-1v-15h-4c-1.75-1.5-1.75-1.5-3-3l2-4h2l1-2v2h2v-15Z"/>
  <path fill="#DFD9CF" d="m629 1147 7 1v2l2.195-.07c5.418-.101 9.706.054 14.805 2.07 1.994.37 3.993.713 6 1-2 2-2 2-5.063 2.188C651 1155 651 1155 650 1154l-2 2v-2l-2.773-.402-3.602-.535-3.586-.528C635 1152 635 1152 633 1151a176.3 176.3 0 0 0-5-1l1-3Z"/>
  <path fill="#C2B8A8" d="M84 799h1l-.07 3.648c-.02 1.576-.037 3.151-.055 4.727l-.05 2.406c-.018 2.074.072 4.148.175 6.219l2 2-3 8h-2v8h-2c1.043-11.717 2.164-23.376 4-35Z"/>
  <path fill="#E7E2D9" d="M615 230c-.488 6.055-.488 6.055-1 8l-3 2 1-9-2.244.719c-3.395 1.081-6.794 2.15-10.193 3.219l-3.53 1.13c-6.398 2-12.34 3.481-19.033 3.932l1-2a111.493 111.493 0 0 1 7.125-1.813c7.068-1.638 13.775-3.796 20.57-6.332 3.55-.918 5.778-.729 9.305.145Z"/>
  <path fill="#A49179" d="M467 1177c15.431-.313 30.632.636 46 2v1c-4.663.025-9.326.043-13.99.055-1.586.005-3.173.012-4.76.02-2.279.013-4.557.018-6.836.023l-2.156.015c-5.03 0-5.03 0-7.258-1.113a141.25 141.25 0 0 0-5.625-.563l-3.04-.253L467 1178v-1Z"/>
  <path fill="#E1DCD2" d="M234 340c1.198 4.147.89 7.994.563 12.25l-.159 2.258c-.129 1.83-.266 3.662-.404 5.492l-3-2 .254-1.898.309-2.477.316-2.46c.303-2.214.303-2.214-.879-4.165a135.73 135.73 0 0 1 3-7Zm-2 20h1v19c-2.82-2.82-2.474-5.006-2.75-8.938l-.297-3.777C230 363 230 363 232 360Z"/>
  <path fill="#E2DFD9" d="m219 267 3 1c-3.625 5.875-3.625 5.875-7 7l-.813 2.125c-1.614 3.908-4.113 6.976-7.187 9.875h-2v2l-3-1 1.215-1.328c4.644-5.182 8.835-10.638 12.965-16.23C218 268 218 268 219 267Z"/>
  <path fill="#EAE5DE" d="M365 198c2.828 5.448 4.955 11.033 5.438 17.188.436 5.482 2.17 10.55 3.82 15.773C375 234 375 234 374 237c-5.244-11.653-9.697-26.1-9-39Z"/>
  <path fill="#B5A48C" d="m647 1183 34 1c-3.338 2.225-4.406 2.247-8.297 2.23l-3.156-.005-3.297-.037-3.25-.002c-5.433-.03-10.649-.23-16-1.186v-2Z"/>
  <path fill="#F5F3EE" d="M912 1142h7v3c-8.81 2.937-18.835 2.12-28 2l1.938-.375L895 1146l1-2c2.84 0 5.237.403 8 1v-2l3.438.063c3.378.353 3.378.353 4.562-1.063Z"/>
  <path fill="#C5BBA9" d="M620 228c1.324 3.026.914 4.272-.11 7.496a248.356 248.356 0 0 1-1.64 3.941l-.805 1.987c-1.54 3.726-3.273 7.18-5.445 10.576l-1-3 1.438-2.75c1.801-3.748 1.635-6.14 1.562-10.25 1.248-5.514 1.248-5.514 4.125-7.375L620 228Z"/>
  <path fill="#D2CA9E" d="m805 1050 2 1v4h-2l2 12 3 1c.625 2.875.625 2.875 1 6l-2 2 3 1h-2l-1 4a2445.774 2445.774 0 0 1-3-11.625l-.867-3.316-.82-3.223-.762-2.952c-.578-3.027-.647-5.81-.551-8.884l2-1Z"/>
  <path fill="#C4BC9D" d="m184 333 .375 1.75c.55 2.292.55 2.292 1.75 4.375L187 341l-1 2h-3v3h-2l-.805 3.43-1.07 4.445-.527 2.262c-1.371 5.636-1.371 5.636-3.598 7.863 1.121-6.421 2.672-12.625 4.5-18.875l.647-2.234c1.028-3.458 2.073-6.742 3.853-9.891Z"/>
  <path fill="#DBD5CA" d="M827 1154c2.724 2.353 3.814 4.625 5 8l2-2 1 3 2 2c.563 1.938.563 1.938 1 4l1 3-2 2-2-3h-2c-1.007-2.268-2.006-4.54-3-6.813l-.867-1.947c-1.27-2.918-2.133-5.023-2.133-8.24Z"/>
  <path fill="#D1C9BB" d="M234 958h2c.625 2.313.625 2.313 1 5l-2 3c.315 3.142.315 3.142 1 6l-5-1-1 4c-1.231-3.694-.644-6.206 0-10h2l-.125-2.375C232 960 232 960 234 958Z"/>
  <path fill="#CDC5B6" d="M236 922h1c.135 2.102.232 4.207.313 6.313l.175 3.55C237 935 237 935 234.48 936.918L232 938l-2-6 2-2c1.02-2.325 2.02-4.658 3-7l1-1Z"/>
  <path fill="#E0DCD6" d="m80 837 5 1-2 1c-.433 2.647-.433 2.647-.563 5.75-.232 3.845-.594 7.488-1.437 11.25l2 1-4 2c-1.365-4.764-.713-8.994-.063-13.813l.303-2.388c.246-1.934.502-3.867.76-5.799Z"/>
  <path fill="#D2CBBD" d="M233 330c3.304 1.652 4.003 4.686 5.313 8.012 1.189 5.17-.026 9.925-1.313 14.988-2.037-1.658-2.936-2.47-3.258-5.129l.133-2.433c.17-5.225-.257-10.253-.875-15.438Z"/>
  <path fill="#F7F6F2" d="m580 236 1 2c-11.79 3.293-23.727 5.43-36 5v-1c1.6-.532 3.206-1.05 4.813-1.563l2.707-.878C555 239 555 239 558 240c2.435-.23 2.435-.23 5.105-.777l2.979-.557c1.024-.2 2.048-.398 3.104-.603l3.138-.592c2.56-.484 5.117-.974 7.674-1.471Z"/>
  <path fill="#D8CFC0" d="M630 182c1.158 3.473 1.069 6.36 1 10l-2-4c-1.963 3.505-2.959 7.134-4 11l-2-1a292.931 292.931 0 0 1-.125-4.375l-.07-2.46C623 189 623 189 625 187l.5-2.063.5-1.937c2-1 2-1 4-1Z"/>
  <path fill="#BFB8A5" d="M137 512h1l1 7h-2c-.815 4.655-1.434 9.31-2 14l2-1-1 6h-3l-2 2c.579-6.595 1.797-12.69 3.563-19.063l.708-2.623c.57-2.106 1.149-4.21 1.729-6.314Z"/>
  <path fill="#DEDAD2" d="m244 574 5 3-.5 2.938c-.427 2.895-.513 5.638-.438 8.562.065 4.209-.71 7.526-2.062 11.5h-1l-1-26Z"/>
  <path fill="#E2DFDB" d="m60 1175 4 2-.535 1.715c-.653 3.207-.047 5.965.476 9.164C64 1190 64 1190 62 1193a75.316 75.316 0 0 0-1 5h-1v-23Z"/>
  <path fill="#DFDBD4" d="m245 1183 2.125.563c2.852.589 2.852.589 5.594-.032 3.608-.584 7.003-.628 10.656-.593l3.773.027L270 1183v1l-7 1v1h-22l-1 2v-3h5v-2Z"/>
  <path fill="#EBE8E2" d="m510 1145 3 1-2 4h2v2c-10.558.369-10.558.369-15-2v-2c2.649-.605 4.961-1 7.688-.938 2.51.198 2.51.198 4.312-2.062Z"/>
  <path fill="#C7B5AA" d="M220 263h2c-1.569 3.572-3.748 6.271-6.25 9.25-3.278 3.936-6.411 7.91-9.363 12.094-1.596 1.906-3.356 3.235-5.387 4.656 1.28-4.549 3.889-7.267 6.988-10.672 3.018-3.492 5.645-7.245 8.313-11.008C218 265 218 265 220 263Z"/>
  <path fill="#D4CCA7" d="M797 1018h2c1.556 5.127 2.124 8.712 1.227 13.969-.384 3.437.226 6.63.773 10.031-2.22-3.33-2.83-5.855-3.688-9.75l-.824-3.61c-.511-3.813-.207-6.877.512-10.64Z"/>
  <path fill="#CDC5B7" d="M174 365h1v6l2-1c-1.173 9.33-1.173 9.33-4.625 12.125L170 383c.51-6.437 1.73-11.96 4-18Z"/>
  <path fill="#B8AC9C" d="M53 1114h1c1.037 6.08 1.047 11.884.873 18.035-.059 3.882-.08 5.653 2.127 8.965.125 3.188.125 3.188 0 6-2-1-2-1-3.117-3.754-1.468-5.618-1.093-11.423-1.008-17.184l.027-3.517c.024-2.849.057-5.697.098-8.545Z"/>
  <path fill="#C4B9A2" d="M114 617h1v9h1v5h-2a116.344 116.344 0 0 0-1.465 6.324l-.472 2.364-.465 2.386L111 644l-2 1c.62-6.476 1.668-12.712 3.063-19.063l.564-2.623c.454-2.105.913-4.21 1.373-6.314Z"/>
  <path fill="#DED9D2" d="M102 704c1.7 5.101.97 8.133-1 13-.381 2.326-.725 4.66-1 7h-3c.233-2.183.472-4.365.723-6.547.236-2.086.446-4.176.652-6.265.635-3.241 1.416-4.787 3.625-7.188Z"/>
  <path fill="#B6A58F" d="M441 1176h28v1l9 1v1c-2.354.027-4.708.047-7.063.063l-3.972.035c-3.752-.093-7.259-.535-10.965-1.098-2.644-.211-5.29-.399-7.938-.563l-2.072-.13A2055.19 2055.19 0 0 0 441 1177v-1Z"/>
  <path fill="#9E8F77" d="M235 984h3c-.462 7.193-1.25 14.003-3 21h-1v-8h-1c.14-1.792.288-3.584.438-5.375.08-.998.162-1.995.246-3.023C234 986 234 986 235 984Z"/>
  <path fill="#D4CAB8" d="M233 973h2l1 7 2-6h1a424.4 424.4 0 0 1-.375 4.75c-.07.882-.14 1.763-.21 2.672-.414 2.569-1.127 4.336-2.415 6.578l-1-2h-2v-4l-2-1h2v-8Z"/>
  <path fill="#EAE6DF" d="M658 1152c1.896.142 3.792.289 5.688.438 1.055.08 2.111.162 3.199.246 3.113.316 3.113.316 5.863.879 2.445.475 3.91.217 6.25-.563v3c-14.781.185-14.781.185-21-1v-3Z"/>
  <path fill="#E4E0D7" d="M233 293c2.48 3.719 3.085 6.635 4 11l-1 1c0 1.974.003 3.948.031 5.922-.037 2.45-.438 4.705-1.031 7.078-2-2-2-2-2.16-5.371.022-1.356.055-2.711.097-4.067.179-5.35.179-5.35-.937-10.562.438-2.688.438-2.688 1-5Z"/>
  <path fill="#C5B69D" d="m858.5 1235.813 2.844-.043c2.716.235 4.335.845 6.656 2.23-3.31 1.655-6.991 1.1-10.625 1.063l-2.43-.014c-1.981-.012-3.963-.03-5.945-.049v-2c3.213-.947 6.155-1.165 9.5-1.188Z"/>
  <path fill="#E3DFD9" d="M156 437h1c-.595 15.745-.595 15.745-4 23l-2-1c.643-3.105 1.29-6.209 1.938-9.313l.552-2.67.537-2.568.492-2.364C155 440 155 440 156 437Z"/>
  <path fill="#DCD6CB" d="M232 380c2.057 3.396 2.27 6.062 2.25 10l.016 3.125c-.261 2.821-.813 4.476-2.266 6.875-2.004-7.243-2.004-12.757 0-20Z"/>
  <path fill="#E0DCD3" d="m246 600 2 1-.5 1.938c-.548 3.356-.532 6.488-.438 9.878-.111 3.902-1.301 6.745-3.062 10.184a1188 1188 0 0 1-.125-9.813c-.017-.928-.034-1.857-.05-2.814l-.02-2.705-.032-2.491C244 603 244 603 246 600Z"/>
  <path fill="#B9AC96" d="M245 417h1v34h-1l-.184-2.484-.254-3.266c-.08-1.067-.162-2.135-.246-3.234-.219-2.898-.219-2.898-.914-5.157-.495-2.288.012-3.6.598-5.859.044-2.229.04-4.459 0-6.688a157.418 157.418 0 0 1 0-6.312l1-1Z"/>
  <path fill="#D9D4CB" d="M60 1071h1c.027 1.73.047 3.458.063 5.188l.035 2.917c-.093 2.75-.477 5.22-1.098 7.895l2 1-2 3c-.454 2.28-.454 2.28-.625 4.688l-.227 2.449L59 1100h-1c-.058-4.27-.094-8.541-.125-12.813l-.05-3.681-.02-3.526-.032-3.253C58 1074 58 1074 60 1071Z"/>
  <path fill="#B7A998" d="M88 774h1c.155 5.731-.348 10.893-1.5 16.5l-.434 2.203A862.719 862.719 0 0 1 86 798h-1c-.307-7.701-.517-16.966 3-24Z"/>
  <path fill="#D8D2C6" d="m233 422 2 1c-.492 7.385-.492 7.385-3.063 10.5L230 435l-2-1c.453-1.44.912-2.876 1.375-4.313l.773-2.425C231 425 231 425 233 422Z"/>
  <path fill="#EAE6DF" d="M306 1152h13v3c-1.415.197-2.832.382-4.25.563l-2.39.316c-2.365.121-4.111-.183-6.36-.879v-3Z"/>
  <path fill="#C6BDAA" d="M243 504c1.563 1.063 1.563 1.063 3 3-.063 3.563-.063 3.563-1 7-2.063 1.438-2.063 1.438-4 2-1.044-3.133-.934-3.99 0-7l-2-1 4-2v-2Z"/>
  <path fill="#D6D1CA" d="M200 289c2.063.438 2.063.438 4 1-.315.473-.63.946-.953 1.434-3.233 4.995-5.77 10.072-8.047 15.566-1.662-4.055-.21-6.78 1.375-10.688l1.398-3.511C199 290 199 290 200 289Z"/>
  <path fill="#E3DED8" d="M474 1169h2c1.688 1.75 1.688 1.75 3 4-.418 2.14-.418 2.14-1 4-1.416.082-2.833.14-4.25.188l-2.39.105C469 1177 469 1177 465 1174h10l-1-5Z"/>
  <path fill="#D8D1C3" d="m230 997 2 1v5h1c.125 2.875.125 2.875 0 6l-2 2-1-4-3 1c.308-1.647.621-3.292.938-4.938l.527-2.777C229 998 229 998 230 997Z"/>
  <path fill="#D9D4CC" d="m68 946 4 1v3h2l-1 5-3 1v6h-1l-1-16Z"/>
  <path fill="#ADA18B" d="M120 590h1c-.647 8.89-2.87 17.372-5 26h-1c.495-8.514 1.135-18.27 5-26Z"/>
  <path fill="#DED8CF" d="m240 1152 2.688 1c3.021.912 5.196 1.183 8.312 1v2l-1.645.586-2.167.789-2.145.773c-2.29.879-2.29.879-5.043 2.852v-9Z"/>
  <path fill="#DED6C1" d="M795 1004c2.134 3.556 2.711 6.884 3 11-.938 2.938-.938 2.938-2 5-1.952-2.928-2.366-4.085-2.75-7.438l-.297-2.308c.054-2.585.742-4.05 2.047-6.254Z"/>
  <path fill="#D8D2C8" d="m68 1140 2 1c1.73.02 3.46-.008 5.188-.063 4.72-.055 8.38.487 12.812 2.063v1a692.68 692.68 0 0 1-7.063.125l-3.972.07c-4.083-.2-7.115-.923-10.965-2.195l2-2Z"/>
  <path fill="#A28F77" d="M623 1179c8.017-.415 15.22 1.14 23 3l-2 2c-7.105-.405-14.246-1.749-21-4v-1Z"/>
  <path fill="#A2947D" d="M233 1005h1c-.585 6.142-1.54 12.007-3 18-1.5-1.25-1.5-1.25-3-3v-4h3v-4l-4 1 2-4h3l1-4Z"/>
  <path fill="#D6C9B2" d="m790 986 2 1c.633 2.941.633 2.941 1.125 6.563l.508 3.628L794 1000h-2l1 7c-2.259-2.259-2.345-2.942-2.688-6l-.261-2.125C790 997 790 997 791 995a64.583 64.583 0 0 0-.438-4.625l-.308-2.477L790 986Z"/>
  <path fill="#DDD8CE" d="m242 698 3 2-.496 2.973c-.596 4.168-.616 8.261-.566 12.465l.013 2.216c.012 1.782.03 3.564.049 5.346l-2 1v-26Z"/>
  <path fill="#D0C7BF" d="M124 574h3l-1 8h-2v5l-3 1 1-11h2v-3Z"/>
  <path fill="#E9E6DF" d="M473 1142h2l2 7c-2 1-2 1-4.063.688C471 1149 471 1149 470 1147l-2 2c.313-1.938.313-1.938 1-4l3-1 1-2Z"/>
  <path fill="#F7F6F2" d="M444 318c6.147 1.47 11.422 4.06 17 7v1c-5.763-.49-11.042-1.914-16-5l-1-3Z"/>
  <path fill="#CDB9AE" d="m365.75 1181.938 2.422.027L370 1182l1 3h-13l-1-2c2.995-.872 5.636-1.108 8.75-1.063Z"/>
  <path fill="#AA9A81" d="M467 1177h20v1l5 1v1c-1.958.027-3.917.046-5.875.063l-3.305.035C480 1180 480 1180 478 1179a141.25 141.25 0 0 0-5.625-.563l-3.04-.253L467 1178v-1Z"/>
  <path fill="#DBD6CE" d="M63 1041c2 2 2 2 2.25 4.875-.238 2.981-.705 4.614-2.25 7.125l3 1-4 3c-.221-2.29-.427-4.582-.625-6.875l-.352-3.867L61 1043l2-2Z"/>
  <path fill="#DCD3C7" d="M268 233v2a740.612 740.612 0 0 1-7.25 3.563l-2.066 1.037c-3.706 1.78-5.763 2.706-9.684 1.4 13.945-8 13.945-8 19-8Z"/>
  <path fill="#D9CEBF" d="M157 1234a608.7 608.7 0 0 1 6.313-.125l3.55-.07C170 1234 170 1234 173 1236c-3.065 1.533-6.268 1.103-9.625 1.063l-2.14-.014c-1.745-.012-3.49-.03-5.235-.049l1-3Z"/>
  <path fill="#F2F0EB" d="m99 1137 7 1v2h2v-2l4 2-4 3v-2H97l2-4Z"/>
  <path fill="#DAD4C8" d="m231 412 3 2c-.61 3.558-1.578 6.683-3 10-2-2-2-2-2.25-5.438C229 415 229 415 231 412Z"/>
  <path fill="#D1C6BD" d="M130 542c1.563 1 1.563 1 3 3-.18 2.8-.465 5.275-1 8l-.563 3-.437 2c-2.546-3.82-2.317-7.586-2-12 .5-2.5.5-2.5 1-4Z"/>
  <path fill="#DBD5CB" d="m240 1168 1 2c2.025.652 2.025.652 4 1l-2 2-2-1 1.063 1.688c1.163 2.87.547 4.337-.063 7.312l2 3-4-1v-15Z"/>
  <path fill="#DCD8D1" d="M98 726h1c1.354 6.277 1.354 6.277-.438 9.938L97 738l-2-1c.114-1.46.242-2.917.375-4.375.07-.812.14-1.624.21-2.46C96 728 96 728 98 726Z"/>
  <path fill="#DDD9D2" d="M120 603c2 3 2 3 2 6l-2 1a78.037 78.037 0 0 0-2 5h-2c.28-1.814.575-3.626.875-5.438l.492-3.058L118 604l2-1Z"/>
  <path fill="#DDD7CE" d="M142 507h3c-.762 3.61-2.125 6.858-3.563 10.25l-1.378 3.266L139 523c-1.456-4.52-.27-7.516 1-12h2v-4Z"/>
  <path fill="#D1CBBD" d="m236 356 2 1a862.52 862.52 0 0 1-.375 7.375c-.03.699-.062 1.397-.094 2.117-.304 5.281-.304 5.281-2.531 7.508-1.06-3.346-.975-6.086-.625-9.563l.273-2.878C235 359 235 359 236 356Z"/>
  <path fill="#E1DCD5" d="m56 1132 7 2 1 4H54l2-6Zm4 2 1 3v-3h-1Z"/>
  <path fill="#BEB398" d="M224 1046h1c-.48 5.569-1.3 10.67-3 16h-1v-6h-3l1-3c2.063-.688 2.063-.688 4-1l1-6Z"/>
  <path fill="#C8BDA7" d="M78 1230h19l1 3c-2.771.08-5.54.14-8.313.188l-2.38.076-2.295.029-2.11.048C81 1233 81 1233 78 1230Z"/>
  <path fill="#A49176" d="m647 1183 22 1v1c-2.354.197-4.707.383-7.063.563l-3.972.316c-3.888.119-7.156-.21-10.965-.879v-2Z"/>
  <path fill="#D4CCAD" d="M818 1117c2 3 2 3 2 6l1.938.75c2.062 1.25 2.062 1.25 2.812 3.375L825 1129h-3l-1-3h-2l-1-9Z"/>
  <path fill="#DBD6CF" d="M66 995c1.945 2.918 2.453 4.625 3 8h-2v4h-2c-1.51-3.019-1.175-5.673-1-9l2-3Z"/>
  <path fill="#DDD8D1" d="M105 687c1.367 4.102 1.317 6.313-.5 10.25L103 700l-2-1 1-11 3-1Z"/>
  <path fill="#ECE9E4" d="M458 238h13l1 3-14-1v-2Z"/>
  <path fill="#E4DFD7" d="m847 1232 3 1c1.892.222 3.789.406 5.688.563l3.011.253L861 1234v1c-8.429 2.429-8.429 2.429-13 1l-1-4Z"/>
  <path fill="#C9B9A3" d="M432 1176c9.41-.185 9.41-.185 14 1-3.527 2.351-5.029 2.214-9.188 2.125l-3.292-.055-2.52-.07 1-3Z"/>
  <path fill="#C1B7A4" d="M624 216c1.36 3.093.89 4.358-.125 7.688C622 227 622 227 619.312 227.938L617 228c1.375-1.5 1.375-1.5 3-3h2v-2l-3-1 1.938-.75c2.25-1.066 2.25-1.066 2.812-3.375L624 216Z"/>
  <path fill="#AE9870" d="M827 1154c2.689 2.356 3.92 4.636 5.25 7.938l1.078 2.59c.719 2.643.592 3.93-.328 6.472-1.007-2.268-2.006-4.54-3-6.813l-.867-1.947c-1.27-2.918-2.133-5.023-2.133-8.24Z"/>
  <path fill="#DFDAD1" d="M492.125 1148.625c1.955.59 1.955.59 3.875-.625l1 3c-8.429 1.429-8.429 1.429-13-1v-2c2.972-1.486 5.043-.282 8.125.625Z"/>
  <path fill="#D8D2C7" d="m57 1139 8 2-1 2h-3l-1 6c-1.884-3.265-2.493-6.281-3-10Z"/>
  <path fill="#DAD5CF" d="M65 1026c1.456 4.52.27 7.516-1 12-2-2-2-2-2.195-4.164l.07-2.461.055-2.477L62 1027l3-1Z"/>
  <path fill="#DAD7CF" d="m67 960 1 3c2 1.209 2 1.209 4 2l-2 1 .188 3.813c.105 2.144.105 2.144-.188 4.187l-3 3v-17Z"/>
  <path fill="#DCD6CA" d="M625 187h1v11h-3a292.931 292.931 0 0 1-.125-4.375l-.07-2.46C623 189 623 189 625 187Z"/>
  <path fill="#E7E3DC" d="M256.188 1153.875 260 1154v2l2 1c-1.79.222-3.582.427-5.375.625l-3.023.352L251 1158l-2-2c3.089-2.06 3.71-2.239 7.188-2.125Z"/>
  <path fill="#E5E0D5" d="M805 1055h2c1.423 3.823 2.24 6.913 2 11l-3-1-1-10Z"/>
  <path fill="#D8D0C1" d="M229 1017h1a256.6 256.6 0 0 1-.313 4.875l-.175 2.742C229 1027 229 1027 226 1029c-.288-7.5-.288-7.5 2-11l1-1Z"/>
  <path fill="#D7D2CB" d="M65 1010h1l1 11-3 1c-1.589-1.589-1.17-3.248-1.188-5.438l-.042-2.433C63 1012 63 1012 65 1010Z"/>
  <path fill="#E7E3DD" d="M256 1183h14v1l-7 1v1h-8l1-3Z"/>
  <path fill="#DDD6CA" d="m824 1132 4 1-1 9c-2.063-1.625-2.063-1.625-4-4 .25-3.25.25-3.25 1-6Z"/>
  <path fill="#DDD6CB" d="m818 1107 4 3-1 2a99.797 99.797 0 0 0 0 5h2l-2 4a646.822 646.822 0 0 1-1.5-4.75l-.844-2.672C818 1111 818 1111 818 1107Z"/>
  <path fill="#B9AB7F" d="M813 1098c2.525 2.525 2.557 4.138 3.125 7.625l.508 3.04L817 1111h2l-1 6c-1.675-3.087-2.704-6.114-3.625-9.5-.26-.938-.52-1.877-.79-2.844C813 1102 813 1102 813 1098Z"/>
  <path fill="#DCD7CE" d="M83 827h2v2h3l-1 5-5 1 1-8Z"/>
  <path fill="#DFDAD1" d="M242 801h2c1.23 6.4 1.23 6.4.063 9.438L243 812h-1v-11Z"/>
  <path fill="#C5BBA7" d="M239 636h1v10l-4 2c-.348-4.877.583-7.77 3-12Z"/>
  <path fill="#DFDCD6" d="M133 536c2 3 2 3 1.625 6.188L134 545h-2l-1 3c-1.354-6.277-1.354-6.277.438-9.938L133 536Z"/>
  <path fill="#C2B8A8" d="M244 515h2c1.206 3.619 1.108 6.925 1.063 10.688l-.014 2.126c-.012 1.729-.03 3.458-.049 5.186h-1v-11l-3-1 2-1-1-5Z"/>
  <path fill="#B9B2A4" d="M189 318c1.455 2.91.635 4.958.063 8.125l-.59 3.32L188 332h-3c.284-1.585.578-3.168.875-4.75l.492-2.672c.601-2.447 1.413-4.384 2.633-6.578Z"/>
  <path fill="#D3CCBF" d="m622 227-1 3h-5l-1 3v-3l-4-1c3.634-2.326 6.77-2.163 11-2Z"/>
  <path fill="#E9E5DE" d="M339 1152v3c-1.437.054-2.875.093-4.313.125l-2.425.07C330 1155 330 1155 327 1153c4.412-1.47 7.483-2.369 12-1Z"/>
  <path fill="#D7D3CD" d="M56 1093h1v8h2c1 3 1 3 .063 5.188L58 1108c-2.351-3.527-2.214-5.029-2.125-9.188l.055-3.292.07-2.52Z"/>
  <path fill="#C6BCA9" d="M242 531h3l-1 9-2-3 1-3h-2l1-3Zm-4 2 3 2-3 1v-3Z"/>
  <path fill="#DAD4C9" d="M232 960h1c.315 5.99-.318 9.636-3 15-1.231-3.694-.644-6.206 0-10h2v-5Z"/>
  <path fill="#F7F4ED" d="M954 933h1c.369 9.41.369 9.41-2 14h-1v-9h1l1-5Z"/>
  <path fill="#DFDCD5" d="m108 665 2 1-3 13h-1c-1.005-5.024-1.03-8.265 1-13l1-1Z"/>
  <path fill="#C8BFAE" d="M245 459v5h-2v2l-5 2c.368-3.31 3.187-9 7-9Z"/>
  <path fill="#E3DED6" d="M208 304c3.938 3.323 3.938 3.323 4.25 6.75L212 313h-3l-1-9Z"/>
  <path fill="#EBE8E1" d="m443 235 13 1v3c-1.98-.28-3.96-.575-5.938-.875l-3.34-.492L444 237l-1-2Z"/>
  <path fill="#F5F3EF" d="m933 1140 2 3c-3.85 2.567-5.586 1.833-10 1l6-3 2 1v-2Z"/>
  <path fill="#E7E3DB" d="M618 1139h3l2 6-8-1v-2h3v-3Z"/>
  <path fill="#C5BBA7" d="M237 808h2v4h2l-2 4-2-1v-2l-3-1 2-1 1-3Z"/>
  <path fill="#DAD3B6" d="m229 254 1 3-6 6-3-1 8-8Z"/>
  <path fill="#B3A289" d="m844 1225 1 4h2l2 8c-1.953-.68-1.953-.68-4-2-.61-2.383-.61-2.383-.75-5.125l-.172-2.758L844 1225Z"/>
  <path fill="#E9E6DF" d="m612 1144 3 3c-1 1-1 1-2.848 1.098L606 1148v-2l6-2Z"/>
  <path fill="#BEB5AB" d="M124 567h2v3h2v3l-3 1-2 3 1-10Z"/>
  <path fill="#D5CEC2" d="M232 930h2v7l-2 1-2-6 2-2Z"/>
  <path fill="#C5BAA5" d="M239 899h1v15h-1v-5h-2l2-10Z"/>
  <path fill="#DFDAD1" d="m242 789 3 1c.337 4.94.161 5.785-3 10v-11Z"/>
  <path fill="#DED8CE" d="M611 241c1 3 1 3-.313 6.063C609 250 609 250 607 252c-.366-3.938-.302-5.565 2-8.875l2-2.125Z"/>
  <path fill="#EDEAE4" d="M490 240h7l1 3h-9l1-3Z"/>
  <path fill="#F8F6F2" d="m596 231 2 2c-7.286 3.429-7.286 3.429-12 3l2-1v-2l3.438-.438c3.37-.174 3.37-.174 4.562-1.562Z"/>
  <path fill="#E6E2D8" d="m616 220 1 4h3v2c-1.875.625-1.875.625-4 1l-2-2c.536-3.536.536-3.536 2-5Z"/>
  <path fill="#E6E2DB" d="M503 1147v2h2v3l-7-2v-2c3-1 3-1 5-1Z"/>
  <path fill="#DBD5CB" d="m75 889 3 1c-.549 4.571-1.417 8.674-3 13-1.104-3.311-.927-5.247-.563-8.688l.31-3.011L75 889Z"/>
  <path fill="#CCC3B3" d="m234 831 3 1c-.813 2.438-.813 2.438-2 5l-3 1-1-5h2l1-2Z"/>
  <path fill="#C5BBA7" d="M243 545h1c.054 1.458.093 2.916.125 4.375l.07 2.46C244 554 244 554 242 556c-1.6-4.002-.293-7.046 1-11Z"/>
  <path fill="#C7BEAC" d="m241 471 5 1-2 3h-3l-1 2-2-1 1-3h2v-2Z"/>
  <path fill="#E1DDD6" d="m250 388 2 1c-1.09 3.775-1.908 6.47-5 9 .507-3.719 1.116-6.735 3-10Z"/>
  <path fill="#E6E1D7" d="m626 180 5 1-1 4v-3c-1.985.267-1.985.267-4 1l-1 3-1-3 2-3Z"/>
  <path fill="#E1DCD3" d="M619 1175h10l-1 4-9-3v-1Z"/>
  <path fill="#D9D1C5" d="M830 1154h12c-3.991 1.996-5.7 2.195-10 2l-1 2-1-4Z"/>
  <path fill="#E8E3DA" d="M815 1100c1.5 1 1.5 1 3 3 .273 2.718.135 5.257 0 8-2.566-3.85-2.551-6.435-3-11Z"/>
  <path fill="#CBC1B1" d="M236 963c1.042 3.386 1.23 6.467 1 10l-2 2c-1.309-3.927-1.21-7.098 0-11l1-1Z"/>
  <path fill="#DCD7CF" d="m70 923 3 1v3l2 1-4 3c-1-1-1-1-1.063-4.563L70 923Z"/>
  <path fill="#C6BDAB" d="M239 750v7l-3-1c-.688-2.063-.688-2.063-1-4 3-2 3-2 4-2Z"/>
  <path fill="#BEB7AC" d="M120 590h1a763.515 763.515 0 0 1-.438 4.375c-.08.812-.162 1.624-.246 2.46C120 599 120 599 119 601l-2-1c1.875-7.75 1.875-7.75 3-10Z"/>
  <path fill="#E6E2D9" d="M234 320c2 3 2 3 1.625 5.688L235 328h-3c0-3.204.743-5.094 2-8Z"/>
  <path fill="#E2DDD7" d="m202 299 2 1-4 8h-2c.53-3.821 1.497-6.062 4-9Z"/>
  <path fill="#C2B6A3" d="M197 296h2c-.45 1.46-.91 2.918-1.375 4.375l-.773 2.46C196 305 196 305 194 307c.468-4.056.88-7.466 3-11Z"/>
  <path fill="#E6E3DC" d="m243 1150 2.375 1.063L248 1152l2-1-1 4h-5l-1-5Z"/>
  <path fill="#EAE5DE" d="M455 1145h3v2h3v2h-7c0-3 0-3 1-4Z"/>
  <path fill="#DED9CF" d="m242 752 2 1c.95 2.927 1.232 4.428.063 7.313L243 762h-1v-10Z"/>
  <path fill="#D7D0C3" d="M231 475h2c2 3 2 3 1.625 5.188L234 482l-4-5 1-2Z"/>
  <path fill="#E3DFD8" d="M492 1176v2c-3.146.262-4.618.248-7.313-1.5L483 1175c3.766-1.255 5.372-.37 9 1Z"/>
  <path fill="#E5E1D8" d="m658 1152 7 1v2h-7v-3Z"/>
  <path fill="#EBE8E1" d="m469 1141 2 1-2 3h-2l-1 4-1-2-2-1 2.438-1.375c2.65-1.372 2.65-1.372 3.562-3.625Z"/>
  <path fill="#D8D0C1" d="M225 1030h3l-1 7-1-2-3 1 2-6Z"/>
  <path fill="#DAD5CC" d="m80 837 5 1-2 1c-.658 3.03-.658 3.03-1 6h-1l-1-8Z"/>
  <path fill="#F8F7F3" d="M463 326c3.775 1.09 6.47 1.908 9 5-1.316-.255-2.628-.53-3.938-.813l-2.214-.457L464 329l-1-3Z"/>
  <path fill="#E1DDD4" d="m635 1141 2 1-1 4h-4l-1-3c1.875-1.063 1.875-1.063 4-2Z"/>
  <path fill="#D9D4CE" d="m71 913 3 2c.313 3 .313 3 0 6l-2 2-1-10Z"/>
  <path fill="#CCC3B3" d="M231 777h2l1 4-3 2v-2h-2l2-4Z"/>
  <path fill="#E4E0D9" d="m171 381 2 1c.625 2.063.625 2.063 1 4l-3 2c-1.125-4.75-1.125-4.75 0-7Z"/>
  <path fill="#D4CEC3" d="M244 341h1v8l-2 1-1-6h2v-3Z"/>
</svg>