<svg xmlns="http://www.w3.org/2000/svg" viewBox="0 0 1024 1536">
  <path fill="#F0EDE8" d="M631 207v2l2.063.75C636 211 636 211 639.25 212.938c2.618 1.54 5.094 2.56 8 3.437 4.625 1.445 8.591 3.644 12.8 6.016 8.062 4.399 16.568 7.912 25.055 11.394 2.81 1.179 5.57 2.432 8.332 3.715 3.989 1.839 8.013 3.459 12.125 5 4.787 1.804 9.272 3.874 13.805 6.23 5.064 2.442 10.362 4.328 15.633 6.27v2l2.516.234c4.308.947 7.474 2.776 11.234 5.016 1.428.831 2.858 1.66 4.29 2.488l2.074 1.202c2.286 1.285 4.63 2.402 7.011 3.498 9.436 4.606 19.782 11.809 26.875 19.562v2l3 1a101.35 101.35 0 0 1 4.625 5.375l2.414 2.96C801 303 801 303 802 306h2c5.994 10.893 9.947 21.638 13.3 33.587 1.037 3.574 2.239 7.083 3.45 10.6 4.813 14.141 8.965 28.505 13.25 42.813l.89 2.959c2.329 7.753 4.532 15.512 6.438 23.38.61 2.418 1.302 4.782 2.047 7.161 1.578 5.117 2.844 10.302 4.125 15.5 1.843 7.543 1.843 7.543 4 15 1.789 5.71 3.157 11.528 4.592 17.335a949.337 949.337 0 0 0 4.943 19.024c1.34 5.054 2.593 10.127 3.84 15.204.943 3.783 1.963 7.544 2.98 11.308 2.335 8.688 4.403 17.434 6.457 26.192l1.18 5.01a12532 12532 0 0 1 2.375 10.102c.882 3.76 1.768 7.518 2.655 11.277C883.861 586.599 887.13 600.75 890 615l.553 2.738a5585.478 5585.478 0 0 1 3.092 15.465c.942 4.742 1.9 9.481 2.867 14.219 2.586 12.719 5.04 25.429 7.09 38.245.953 5.89 2.089 11.7 3.398 17.52 2.085 9.33 3.323 18.758 4.518 28.238.749 5.815 1.64 11.502 2.947 17.22 2.004 8.991 2.976 18.09 4.035 27.23 1.63 14.1 1.63 14.1 4.008 28.086 1.69 8.614 2.643 17.266 3.57 25.991 1.59 14.953 3.38 29.855 5.547 44.736 1.898 13.061 3.332 26.113 4.387 39.27l.312 3.82.253 3.288c.355 3.303.837 6.527 1.375 9.802 1.152 7.34 1.76 14.69 2.31 22.092.18 2.438.368 4.876.556 7.313.4 5.18.791 10.36 1.182 15.54.454 6.003.912 12.006 1.375 18.01.182 2.37.358 4.74.535 7.11a444.915 444.915 0 0 0 2.648 25.467c.761 6.202 1.1 12.425 1.442 18.662l.244 4.247c.216 3.778.423 7.556.628 11.335.13 2.382.261 4.763.394 7.145 1.182 21.292 2.166 42.58 2.655 63.9.066 2.765.15 5.528.243 8.291.234 9.088-.72 17.87-2.009 26.86-2.302 16.33-2.272 32.602-1.984 49.054.043 2.561.066 5.122.087 7.684l.056 2.345c.022 4.552-.43 7.495-3.314 11.077-5.41 3.055-10.623 3.692-16.75 4.188l-2.747.245c-7.247.594-14.457.723-21.725.581-1.925-.035-3.852-.029-5.778-.014l-1 1c-1.466.146-2.94.227-4.412.281l-2.842.112-3.09.107-3.15.123c-4.468.174-8.936.338-13.405.502-3.253.121-6.505.248-9.757.375l-3.09.107-2.842.112-2.514.092c-1.908-.012-1.908-.012-2.898 1.189-3.276.408-6.58.517-9.875.688l-2.8.181-2.692.143-2.472.14C829 1247 829 1247 826 1245c-.736-2.692-.736-2.692-1.246-6.133l-.592-3.847-.296-2.048a634.746 634.746 0 0 0-.956-6.334 2331.346 2331.346 0 0 1-2.43-16.163c-2.148-14.477-5.061-27.999-10.765-41.522-3.71-8.827-5.625-17.863-7.572-27.222-1.176-5.612-2.488-10.985-4.393-16.389-1.6-4.994-2.587-10.157-3.688-15.28l-1.582-7.25-.768-3.542c-.768-3.528-1.559-7.05-2.355-10.57-2.112-9.361-4.003-18.762-5.857-28.177-.493-2.488-.995-4.974-1.5-7.46-2.101-10.36-4.059-20.738-5.93-31.141-1.185-6.583-2.41-13.159-3.633-19.735-2.451-13.21-4.821-26.429-7.023-39.683L765 960.01 764 954l-.07 3.856c-.215 12.006-.436 24.012-.66 36.018-.116 6.172-.23 12.344-.34 18.516-.107 5.959-.217 11.918-.33 17.876-.043 2.271-.084 4.542-.124 6.813-.056 3.186-.117 6.372-.179 9.558l-.046 2.831c-.093 4.523-.407 8.875-1.027 13.362-.495 4.789-.396 9.616-.413 14.426l-.026 3.659a5745.9 5745.9 0 0 0-.055 9.874c-.019 3.457-.043 6.914-.067 10.37-.06 8.78-.112 17.56-.163 26.341-.055 9.481-.112 18.962-.178 28.444-.023 3.435-.045 6.87-.062 10.305-.02 3.832-.044 7.663-.07 11.495l-.013 3.417c-.09 11.348-.09 11.348-1.177 16.839-10.015 6.899-27.307 4.143-39.022 4.13-2.005 0-4.01.003-6.016.005-5.415.004-10.83.003-16.245 0-5.682-.003-11.364 0-17.046 0-9.538.003-19.075 0-28.612-.005-11.011-.005-22.022-.003-33.033.002-9.474.005-18.948.005-28.421.003-5.65-.002-11.3-.002-16.95.001-5.31.003-10.62.001-15.931-.005a3210.11 3210.11 0 0 0-5.831.002c-24.577.025-24.577.025-28.893-2.133a125.96 125.96 0 0 0-5.994-.13l-3.812-.009-4.135.006a4249.097 4249.097 0 0 0-13.071.002c-3.79.006-7.578.003-11.367-.003a4084.5 4084.5 0 0 0-8.717 0c-1.397 0-2.795 0-4.192-.002-1.949-.003-3.898.002-5.847.007l-3.366.002c-2.44-.156-2.44-.156-3.499 1.127-1.74.209-3.487.35-5.234.465l-3.523.233-3.993.24-2.122.127c-5.708.337-11.418.64-17.128.935l-2.601.135c-31.654 1.627-63.32 2.152-95.008 2.517-3.045.035-6.09.073-9.134.11-36.923.452-36.923.452-53.402-.055l-2.99-.072c-14.836-.606-14.836-.606-18.865-4.635a202.655 202.655 0 0 1-.203-8.297l-.02-2.653c-.018-2.933-.024-5.867-.027-8.8l-.006-3.061c-.01-20.14 1.002-40.174 2.291-60.266 1.522-23.868 2.114-47.676 2.063-71.591l-.005-7.888c-.003-6.13-.01-12.26-.021-18.389-.011-7-.017-13.999-.022-20.998-.01-14.352-.028-28.705-.05-43.057l-.41 2.426c-4.885 28.869-4.885 28.869-7.715 41.449l-1.527 6.96c-.235 1.065-.47 2.13-.71 3.227-1.044 4.808-1.984 9.635-2.9 14.47-.65 3.056-1.384 6.069-2.152 9.097-1.576 6.24-2.946 12.511-4.274 18.809a34908.844 34908.844 0 0 1-2.423 11.387c-5.97 28.055-11.961 56.113-19.06 83.91-.552 2.172-1.083 4.349-1.595 6.53l-.734 3.11-.594 2.586c-.786 2.637-1.73 5.007-2.808 7.531-2.545 6.248-3.833 12.662-5.16 19.258l-1.473 7.11-.727 3.576a731.658 731.658 0 0 1-2.297 10.576c-1.756 8.15-2.839 16.369-3.902 24.634l-.476 3.452-.403 3.078c-.731 3.128-1.748 5.248-3.66 7.824-2.758.523-2.758.523-6.125.375l-3.742-.137c-1.378-.078-2.755-.158-4.133-.238-1.544-.07-3.088-.14-4.633-.207-11.938-.579-11.938-.579-14.367-1.793a73.024 73.024 0 0 0-4.187-.373l-2.62-.172-2.838-.174-2.914-.19c-3.085-.201-6.169-.397-9.254-.591-3.073-.195-6.147-.39-9.22-.59-1.914-.126-3.829-.247-5.743-.365-4.173-.27-8.127-.689-12.224-1.545-2.362-.188-4.727-.34-7.094-.465l-4.12-.236c-2.147-.12-4.293-.237-6.439-.349-2.085-.11-4.169-.23-6.253-.352l-3.76-.203c-3.141-.372-5.485-1.062-8.334-2.395-.787-5.287-1.005-9.96-.563-15.313 3.656-33.677 3.656-33.677-2.462-65.527-1.234-2.734-1.218-4.822-1.205-7.816l.005-3.352.038-3.492.001-3.398c.104-19.938.104-19.938 2.186-24.102.211-1.736.37-3.479.5-5.223l.248-3.276.252-3.563.272-3.724c.527-7.489.882-14.961 1.103-22.464.402-12.68 1.49-25.3 2.563-37.938l.259-3.098c1.565-18.599 1.565-18.599 2.842-26.921 1.202-7.865 1.691-15.76 2.223-23.693 2.783-41.19 2.783-41.19 5.738-47.1.222-1.587.394-3.182.54-4.778l.284-3.018.297-3.282.318-3.388c.336-3.595.668-7.19.999-10.784 3.116-33.84 3.116-33.84 5.535-45.415 1.115-5.522 1.798-11.056 2.43-16.651l.76-6.506c.387-3.36.772-6.722 1.157-10.083 1.367-11.897 2.792-23.721 5.034-35.49.937-5.227 1.54-10.482 2.11-15.761.673-6.118 1.382-12.231 2.099-18.344l.384-3.387.37-3.144.326-2.83C103 752 103 752 104 751c.422-2.59.789-5.168 1.121-7.77l.318-2.398c.337-2.547.668-5.096.999-7.644 1.688-12.927 3.426-25.795 6.04-38.575.81-4.049 1.534-8.113 2.272-12.176 1.745-9.596 3.55-19.157 5.732-28.663 1.433-6.278 2.704-12.583 3.956-18.899 3.552-17.892 7.245-35.73 11.397-53.493a761.2 761.2 0 0 0 4.29-19.507 403.844 403.844 0 0 1 4.375-18.89c1.27-4.974 2.405-9.97 3.5-14.985 2.655-12.116 5.752-24.103 8.933-36.09 1.924-7.286 3.748-14.597 5.567-21.91 7.805-31.314 7.805-31.314 11.473-41.86 1.292-3.95 2.377-7.942 3.464-11.952 2.048-7.514 4.368-14.874 6.9-22.241a677.41 677.41 0 0 0 2.065-6.177c4.664-14.124 9.506-28.19 14.645-42.149.713-1.96 1.408-3.928 2.094-5.898 4.38-12.545 8.825-24.068 16.859-34.723a706.685 706.685 0 0 0 2.563-3.621l1.346-1.912 2.627-3.735c4.149-5.832 4.149-5.832 6.464-7.732h2l.754-1.8c1.433-2.53 2.84-3.691 5.176-5.407l2.392-1.768 2.553-1.837 2.607-1.895c9.715-6.983 19.6-12.412 30.518-17.293l3.02-1.352c21.826-9.732 21.826-9.732 32.285-13.609 3.706-1.429 7.279-3.112 10.879-4.789 3.088-1.37 6.215-2.566 9.378-3.75 4.818-1.818 9.354-3.889 13.922-6.254 3.715-1.84 7.546-3.364 11.383-4.93 3.233-1.358 6.399-2.822 9.57-4.316 6.408-2.992 12.945-5.518 19.563-8l2.621-1.137c4.028-1.461 7.296-1.024 11.379.137 4.168 2.07 8.056 4.537 12 7 8.534 4.868 17.1 8.735 26.352 12.035a94.852 94.852 0 0 1 5.035 1.992c3.227 1.202 6.418 1.828 9.8 2.473l4.036.777L464 235c1.709.352 3.417.706 5.125 1.063 1.624.315 3.25.628 4.875.937l2.621.531c14.633 2.643 41.619 7.35 55.379.469 2.75-.325 5.494-.611 8.25-.875a154.08 154.08 0 0 0 20.832-3.54c2.734-.548 5.14-.698 7.918-.585v-2l1.766-.48c8.421-2.397 16.746-5.34 24.297-9.833C598 219 598 219 601 219l1-3c2.66-1.994 5.612-4 9-4l1-3c7.193-5.317 10.96-5.445 19-2Z"/>
  <path fill="#ECE7E1" d="m221 304 2 1a768.984 768.984 0 0 1-3.375 5.5l-1.898 3.094L216 316h-2a446.93 446.93 0 0 0 1 6l.223 1.953c1.15 3.029 3.187 4.147 5.777 6.047 6.195 4.867 10.781 10.323 15 17v2h3l-1-5 2-1v3l3 1c2.9 3.76 3.305 6.387 3.063 11.063-.197 3.985-.182 6.499 1.937 9.937l-.035-2.738-.028-3.575-.035-3.55C248 355 248 355 249 352h2v2h2l1-2c.027 1.48.046 2.958.063 4.438l.035 2.496C254 361 254 361 253 362a62.624 62.624 0 0 0-.688 4.375l-.324 2.398c-.19 2.52-.19 2.52 2.012 5.227l-1 3 2 1c.228 4.458.429 8.916.625 13.375l.195 3.793.157 3.73.158 3.396c-.11 3.017-.455 5.32-1.131 8.216-1.172 5.718-1.258 11.213-1.2 17.033l.01 3.378c.007 2.416.02 4.832.035 7.248.027 3.882.04 7.763.051 11.645.017 5.544.038 11.088.064 16.632a11103.665 11103.665 0 0 1 .096 45.235c.016 24.45-.239 48.88-.998 73.319l-.066 2.185c-.333 10.855-.675 21.712-1.24 32.559-.667 13.08-.895 26.118-.87 39.214v6.276c0 5.602.006 11.204.013 16.806.006 5.883.006 11.765.008 17.648.003 11.106.01 22.212.021 33.318.011 12.658.017 25.316.022 37.974.01 26.006.028 52.013.05 78.02l2-3c.054 1.416.093 2.833.125 4.25l.07 2.39c-.212 2.567-.908 4.152-2.195 6.36l2 1c.029 3.48.047 6.958.063 10.438l.025 3.01.01 2.86.016 2.65C253 881 253 881 252 882c-.109 1.91-.147 3.825-.158 5.739l-.03 3.778-.017 4.182-.03 4.375c-.027 3.971-.048 7.942-.068 11.913-.022 4.145-.05 8.29-.076 12.436-.05 7.855-.095 15.71-.138 23.566-.05 8.94-.105 17.88-.16 26.821-.114 18.397-.22 36.793-.323 55.19h-1l-1-74-5 29c-1.001 4.978-2.012 9.926-3.125 14.875l-1.527 6.96c-.235 1.065-.47 2.13-.71 3.227-1.044 4.808-1.984 9.635-2.9 14.47-.65 3.056-1.384 6.069-2.152 9.097-1.576 6.24-2.946 12.511-4.274 18.809a34908.844 34908.844 0 0 1-2.423 11.387c-5.97 28.055-11.961 56.113-19.06 83.91-.552 2.172-1.083 4.349-1.595 6.53l-.734 3.11-.594 2.586c-.786 2.637-1.73 5.007-2.808 7.531-2.545 6.248-3.833 12.662-5.16 19.258l-1.473 7.11-.727 3.576a731.658 731.658 0 0 1-2.297 10.576c-1.756 8.15-2.839 16.369-3.902 24.634l-.476 3.452-.403 3.078c-.731 3.128-1.748 5.248-3.66 7.824-2.758.523-2.758.523-6.125.375l-3.742-.137c-1.378-.078-2.755-.158-4.133-.238-1.544-.07-3.088-.14-4.633-.207-11.938-.579-11.938-.579-14.367-1.793a73.024 73.024 0 0 0-4.187-.373l-2.62-.172-2.838-.174-2.914-.19c-3.085-.201-6.169-.397-9.254-.591-3.073-.195-6.147-.39-9.22-.59-1.914-.126-3.829-.247-5.743-.365-4.173-.27-8.127-.689-12.224-1.545-2.362-.188-4.727-.34-7.094-.465l-4.12-.236c-2.147-.12-4.293-.237-6.439-.349-2.085-.11-4.169-.23-6.253-.352l-3.76-.203c-3.141-.372-5.485-1.062-8.334-2.395-.787-5.287-1.005-9.96-.563-15.313 3.656-33.677 3.656-33.677-2.462-65.527-1.234-2.734-1.218-4.822-1.205-7.816l.005-3.352.038-3.492.001-3.398c.104-19.938.104-19.938 2.186-24.102.211-1.736.37-3.479.5-5.223l.248-3.276.252-3.563.272-3.724c.527-7.489.882-14.961 1.103-22.464.402-12.68 1.49-25.3 2.563-37.938l.259-3.098c1.565-18.599 1.565-18.599 2.842-26.921 1.202-7.865 1.691-15.76 2.223-23.693 2.783-41.19 2.783-41.19 5.738-47.1.222-1.587.394-3.182.54-4.778l.284-3.018.297-3.282.318-3.388c.336-3.595.668-7.19.999-10.784 3.116-33.84 3.116-33.84 5.535-45.415 1.115-5.522 1.798-11.056 2.43-16.651l.76-6.506c.387-3.36.772-6.722 1.157-10.083 1.367-11.897 2.792-23.721 5.034-35.49.937-5.227 1.54-10.482 2.11-15.761.673-6.118 1.382-12.231 2.099-18.344l.384-3.387.37-3.144.326-2.83C103 752 103 752 104 751c.422-2.59.789-5.168 1.121-7.77l.318-2.398c.337-2.547.668-5.096.999-7.644 1.688-12.927 3.426-25.795 6.04-38.575.81-4.049 1.534-8.113 2.272-12.176 1.745-9.596 3.55-19.157 5.732-28.663 1.433-6.278 2.704-12.583 3.956-18.899 3.552-17.892 7.245-35.73 11.397-53.493a761.2 761.2 0 0 0 4.29-19.507 403.844 403.844 0 0 1 4.375-18.89c1.27-4.974 2.405-9.97 3.5-14.985 2.655-12.116 5.752-24.103 8.933-36.09 1.924-7.286 3.748-14.597 5.567-21.91 7.805-31.314 7.805-31.314 11.473-41.86 1.292-3.95 2.377-7.942 3.464-11.952 2.048-7.514 4.368-14.874 6.9-22.241a677.41 677.41 0 0 0 2.065-6.177c4.664-14.124 9.506-28.19 14.645-42.149.713-1.96 1.408-3.928 2.094-5.898C207.7 326.66 212.258 314.872 221 304Z"/>
  <path fill="#BFB09B" d="m250 373 2 1c2.34 75.35 2.957 150.62.535 225.977l-.117 3.647c-.183 5.395-.382 10.787-.662 16.178-.668 13.062-.895 26.08-.87 39.156v6.276c0 5.602.006 11.204.013 16.806.006 5.883.006 11.765.008 17.648.003 11.106.01 22.212.021 33.318.011 12.658.017 25.316.022 37.974.01 26.006.028 52.013.05 78.02l2-3c.054 1.416.093 2.833.125 4.25l.07 2.39c-.212 2.567-.908 4.152-2.195 6.36l2 1c.029 3.48.047 6.958.063 10.438l.025 3.01.01 2.86.016 2.65C253 881 253 881 252 882c-.109 1.91-.147 3.825-.158 5.739l-.03 3.778-.017 4.182-.03 4.375c-.027 3.971-.048 7.942-.068 11.913-.022 4.145-.05 8.29-.076 12.436-.05 7.855-.095 15.71-.138 23.566-.05 8.94-.105 17.88-.16 26.821-.114 18.397-.22 36.793-.323 55.19h-1l-1-74-5 29c-1.063 5.29-2.136 10.551-3.313 15.813l-.798 3.65c-.624 2.847-1.254 5.693-1.889 8.537h-1c-.359-6.516 1.007-12.415 2.438-18.75 1.586-7.038 2.864-13.87 3.336-21.08C243 971 243 971 244 969h-2l2-14 4-1-1-2c-2.031-6.094-.93-12.369-.023-18.605.176-2.453.176-2.453-.934-4.778-1.283-3.22-1.344-5.847-1.356-9.304l-.05-3.45L245 913l3-2c.446-2.344.446-2.344.356-5.118l.01-3.284-.038-3.614-.004-3.778c-.008-3.431-.03-6.861-.058-10.292-.021-2.912-.031-5.824-.041-8.737-.073-20.751-.403-41.496-.795-62.244-.445-24.065-.545-48.126-.553-72.195-.002-2.859-.005-5.718-.01-8.577-.044-34.988.753-69.924 1.887-104.891 1.492-46.074 2.54-92.107 2.496-138.207l-.001-3.238c-.012-24.543-.241-49.07-.9-73.605-.36-13.41-.474-26.805-.349-40.22Z"/>
  <path fill="#A9957E" d="M249 1080h1l.06 2.156c.095 3.219.205 6.438.315 9.657.03 1.12.062 2.239.094 3.392l.117 3.252.095 3c.157 2.784.157 2.784 2.319 5.543-.875 3.188-.875 3.188-2 6h-1c-1.538 29.024-2.294 57.936-2 87 7.143 1.11 14.168 1.141 21.388 1.13 1.343 0 2.687.003 4.03.005 3.638.004 7.276.002 10.914 0 3.85-.003 7.698 0 11.546 0 6.49.003 12.981 0 19.472-.005 7.405-.005 14.81-.003 22.216.002 6.422.005 12.843.005 19.264.003 3.805-.002 7.61-.002 11.416.001 16.176.013 32.341-.126 48.513-.547l2.181-.051c9.455-.23 18.739-.917 28.123-2.1 31.071-3.594 62.744-1.852 93.86.275 18.45 1.241 36.844 1.57 55.327 1.537l3.863-.003c3.697-.007 7.394-.023 11.09-.044l3.193-.013c6.2-.056 12.382-.261 18.575-.557 12.84-.612 25.64-.764 38.494-.73l6.426.004c5.551.003 11.102.013 16.654.024 5.7.01 11.398.015 17.098.02 11.119.01 22.238.028 33.357.049v1l-3.438.438c-3.37.174-3.37.174-4.562 1.562-2.583.1-5.139.134-7.722.127l-2.48.005c-2.766.004-5.53 0-8.296-.003l-5.922.006c-5.38.004-10.761.002-16.142 0-5.627-.003-11.255 0-16.882 0-9.462.003-18.924 0-28.386-.005-10.928-.005-21.856-.003-32.785.002-9.38.005-18.76.005-28.14.003-5.603-.002-11.206-.002-16.809.001-5.277.003-10.553.001-15.83-.005-1.933 0-3.865 0-5.798.002-24.492.025-24.492.025-28.808-2.133a125.96 125.96 0 0 0-5.994-.13l-3.812-.009-4.135.006a4249.097 4249.097 0 0 0-13.071.002c-3.79.006-7.578.003-11.367-.003a4084.5 4084.5 0 0 0-8.717 0c-1.397 0-2.795 0-4.192-.002-1.949-.003-3.898.002-5.847.007l-3.366.002c-2.44-.156-2.44-.156-3.499 1.127-1.74.209-3.487.35-5.234.465l-3.523.233-3.993.24-2.122.127c-5.708.337-11.418.64-17.128.935l-2.601.135c-31.654 1.627-63.32 2.152-95.008 2.517-3.045.035-6.09.073-9.134.11-36.923.452-36.923.452-53.402-.055l-2.99-.072c-14.836-.606-14.836-.606-18.865-4.635a161.84 161.84 0 0 1-.238-7.523l-.03-2.475c-.024-2.792-.036-5.585-.044-8.377l-.012-2.927c-.062-33.261 2.338-66.51 4.324-99.698Z"/>
  <path fill="#BCA78E" d="M804 1144c2.204 2.204 2.387 2.966 2.965 5.922l.486 2.36c.321 1.63.642 3.26.961 4.89.96 4.647 1.955 8.793 4.588 12.828l2.02.5 1.98.5c3.324 6.02 5.275 12.584 5.691 19.43.431 3.588 1.387 7.021 2.309 10.507 3.337 12.828 3.337 12.828 3 18.063l-2 2c-.765 7.806 1.34 15.415 3 23 6.277-.413 12.548-.855 18.812-1.441 14.665-1.368 29.335-2.255 44.044-2.992 3.865-.194 7.73-.396 11.595-.598l7.498-.383 3.438-.18c7.21-.356 14.394-.475 21.613-.406-2.785 2.785-5.683 2.715-9.438 3.125l-2.246.26c-6.782.707-13.52.76-20.333.63-1.994-.036-3.989-.03-5.983-.015l-1 1c-1.466.146-2.94.227-4.412.281l-2.842.112-3.09.107-3.15.123c-4.468.174-8.936.338-13.405.502-3.253.121-6.505.248-9.757.375l-3.09.107-2.842.112-2.514.092c-1.908-.012-1.908-.012-2.898 1.189-3.276.408-6.58.517-9.875.688l-2.8.181-2.692.143-2.472.14C829 1247 829 1247 826 1245c-.736-2.692-.736-2.692-1.246-6.133l-.592-3.847-.296-2.048a634.746 634.746 0 0 0-.956-6.334 2331.346 2331.346 0 0 1-2.43-16.163c-2.382-16.053-6.281-30.402-12.23-45.475-2.723-6.934-4.395-13.53-4.25-21Z"/>
  <path fill="#BFAE8D" d="M249 1080h1l.06 2.156c.095 3.219.205 6.438.315 9.657.03 1.12.062 2.239.094 3.392l.117 3.252.095 3c.157 2.784.157 2.784 2.319 5.543-.875 3.188-.875 3.188-2 6h-1c-1.538 29.024-2.294 57.936-2 87 7.439 1.151 14.827 1.22 22.344 1.316l4.136.063c3.603.055 7.207.105 10.81.153 3.687.05 7.374.106 11.062.161 7.216.107 14.432.209 21.648.307v1h80v1c-21.217 1.148-42.447 1.333-63.689 1.558-4.12.043-8.24.092-12.361.145-39.26.504-39.26.504-55.208.008l-2.968-.072c-14.75-.614-14.75-.614-18.774-4.639a161.84 161.84 0 0 1-.238-7.523l-.03-2.475c-.024-2.792-.036-5.585-.044-8.377l-.012-2.927c-.062-33.261 2.338-66.51 4.324-99.698Z"/>
  <path fill="#A7937D" d="M249 867h1c.898 35.074 1.131 70.126 1.069 105.21-.01 6.553-.015 13.106-.02 19.66-.01 12.71-.028 25.42-.049 38.13h-1l-1-74-5 29c-1.063 5.29-2.136 10.551-3.313 15.813l-.798 3.65c-.624 2.847-1.254 5.693-1.889 8.537h-1c-.359-6.516 1.007-12.415 2.438-18.75 1.586-7.038 2.864-13.87 3.336-21.08C243 971 243 971 244 969h-2l2-14 4-1-1-2c-2.031-6.094-.93-12.369-.023-18.605.176-2.453.176-2.453-.934-4.778-1.283-3.22-1.344-5.847-1.356-9.304l-.05-3.45L245 913l3-2c.402-2.762.402-2.762.258-6.012l-.045-3.718-.088-3.957c-.032-2.644-.061-5.287-.086-7.93l-.038-3.859c-.002-6.205.402-12.35.999-18.524Z"/>
  <path fill="#E0D9D1" d="M62 1129h2l1 24 8.945.332c23.879.915 47.669 2.192 71.473 4.272 3.96.345 7.922.67 11.884.988 3.199.258 6.397.52 9.596.783 1.497.123 2.995.244 4.493.363 8.296.667 16.453 1.556 24.609 3.262v1c-14.29-.285-28.367-1.365-42.563-2.938-23.217-2.55-46.327-4.389-69.709-4.077l-3.302.042-2.894.055c-2.346-.076-4.292-.41-6.532-1.082-2.98 3.285-3.363 5.426-3.25 9.813.015.996.03 1.992.047 3.019.158 3.202.158 3.202.71 6.477.58 4.349.641 8.56.618 12.941l-.006 2.762c-.087 15-.638 29.997-1.119 44.988h-2c-.853-4.926-.97-9.276-.563-14.25 3.668-33.714 3.668-33.714-2.464-65.577-1.253-2.8-1.2-4.972-1.168-8.032l.02-3.38.05-3.511.027-3.559c.024-2.897.057-5.794.098-8.691Z"/>
  <path fill="#AB9A81" d="M87 874h2c-.446 8.381-1.141 16.592-2.398 24.895-1.986 13.265-3.51 26.606-4.76 39.959a502.597 502.597 0 0 1-1.819 15.873l-.267 2.086c-.44 3.416-.888 6.83-1.348 10.244-1 7.691-1.648 15.296-2.022 23.039-.39 7.76-1.18 15.463-2 23.187a1639.164 1639.164 0 0 0-4.073 44.03l-.184 2.298a837.722 837.722 0 0 0-1.621 24.928 568.626 568.626 0 0 1-1.755 24.456c-.196 2.127-.378 4.254-.56 6.382-.124 1.365-.25 2.73-.377 4.096l-.33 3.664C65 1126 65 1126 63 1128c-.027-1.958-.046-3.917-.063-5.875l-.035-3.305C63 1116 63 1116 64 1114c.211-1.736.37-3.479.5-5.223l.248-3.276.252-3.563.272-3.724c.527-7.489.882-14.961 1.103-22.464.402-12.68 1.49-25.3 2.563-37.938l.259-3.098c1.565-18.599 1.565-18.599 2.842-26.921 1.202-7.865 1.691-15.76 2.223-23.693 2.783-41.19 2.783-41.19 5.738-47.1.222-1.603.394-3.214.54-4.826l.284-3.047.297-3.31.647-6.94c.334-3.647.668-7.293 1-10.94.322-3.52.65-7.039.978-10.558l.29-3.256A195.167 195.167 0 0 1 87 874Z"/>
  <path fill="#CDC2B3" d="M249 687h1l1 162 2-3c.054 1.416.093 2.833.125 4.25l.07 2.39c-.212 2.567-.908 4.152-2.195 6.36l2 1c.029 3.48.047 6.958.063 10.438l.025 3.01.01 2.86.016 2.65C253 881 253 881 252 882c-.16 2.519-.26 5.013-.316 7.535l-.063 2.283c-.066 2.415-.125 4.83-.184 7.245l-.13 4.9c-.108 4.012-.209 8.025-.307 12.037h-1l-.031-1.84c-.108-6.31-.223-12.62-.341-18.93a4913.83 4913.83 0 0 1-.125-7.069 4760.71 4760.71 0 0 0-.187-10.15l-.05-3.2-.06-2.972-.048-2.618c-.078-2.395-.078-2.395-1.158-5.221a200.52 200.52 0 0 1-.115-7.952v-2.512c.002-2.817.011-5.633.021-8.45l.011-6.11c.061-27.545.303-55.09.528-82.634.062-7.588.122-15.175.182-22.762.122-15.527.247-31.053.373-46.58Z"/>
  <path fill="#DAD3C9" d="m221 304 2 1a768.984 768.984 0 0 1-3.375 5.5l-1.898 3.094L216 316h-2a446.93 446.93 0 0 0 1 6l.223 1.953c1.15 3.029 3.187 4.147 5.777 6.047 6.195 4.867 10.781 10.323 15 17v2h3l-1-5 2-1v3l3 1c3.28 4.06 3.375 7.798 3.188 12.813l-.042 2.1A383.796 383.796 0 0 1 246 367l-2 1-.629-1.8c-4.83-12.996-13.19-25.815-24.371-34.2l-2.188-1.875L215 329c-3.99 1.33-5.694 3.591-8 7a97.448 97.448 0 0 0-2.188 5.75l-1.042 2.984L203 347c-2.309-5.88 1.821-12.453 4-18l1.39-3.645c3.213-8.004 7.208-14.637 12.61-21.355Z"/>
  <path fill="#E4DED5" d="M949 1155v1c-9.964.978-19.94 1.395-29.94 1.816-51.837 1.696-51.837 1.696-103.06 9.184v3h-2l-1 2c-4.777-9.226-4.777-9.226-3-15l2 1v6l1.731-.208c44.862-5.354 90.024-9.975 135.269-8.792Z"/>
  <path fill="#AE9E85" d="M102 762h2c-.442 7.531-1.204 14.97-2.227 22.441l-.34 2.492c-.47 3.416-.945 6.83-1.427 10.244-.355 2.525-.7 5.05-1.045 7.577l-.338 2.333c-.492 3.647-.565 6.39.377 9.913.119 2.477.175 4.958.188 7.438l.042 3.933c-.214 3.384-.758 5.61-2.23 8.629h-2c-2.297 11.96-3.869 23.876-5 36h-2c1.087-14.153 2.693-28.228 4.438-42.313l.312-2.56c1.17-9.538 2.51-19.006 4.234-28.46.868-4.76 1.566-9.481 2.079-14.292.153-1.397.308-2.794.464-4.191l.23-2.079c.659-5.712 1.464-11.408 2.243-17.105Z"/>
  <path fill="#E0D8CA" d="M804 1144c2.204 2.204 2.387 2.966 2.965 5.922l.486 2.36c.321 1.63.642 3.26.961 4.89.96 4.647 1.955 8.793 4.588 12.828l2.02.5 1.98.5c3.324 6.02 5.275 12.584 5.691 19.43.431 3.588 1.387 7.021 2.309 10.507 3.337 12.828 3.337 12.828 3 18.063l-2 2c-2.402-2.402-2.49-3.603-3.07-6.902l-.528-2.948-.527-3.088c-.182-1.015-.364-2.03-.55-3.076C820 1197.464 820 1197.464 820 1194h-2l-.848-3.086c-2.238-7.96-4.743-15.681-7.84-23.351-3.146-7.834-5.446-15.039-5.312-23.563Z"/>
  <path fill="#B09E86" d="M68 1236c26.564 1.144 52.975 3.179 79.437 5.751 3.304.32 6.61.637 9.914.953 7.884.753 15.767 1.518 23.649 2.296v1c-3.951.025-7.902.043-11.853.055-2.006.007-4.012.02-6.018.033l-3.809.01-3.523.016C153 1246 153 1246 151 1245a73.024 73.024 0 0 0-4.187-.373l-2.62-.172-2.838-.174-2.914-.19c-3.085-.201-6.169-.397-9.254-.591-3.073-.195-6.147-.39-9.22-.59-1.914-.126-3.829-.247-5.743-.365-4.173-.27-8.126-.694-12.224-1.545a269.85 269.85 0 0 0-7.164-.43c-1.383-.073-2.766-.148-4.148-.222a917.494 917.494 0 0 0-6.492-.322c-2.1-.098-4.198-.213-6.298-.33l-3.791-.188c-3.206-.524-4.22-.937-6.107-3.508Z"/>
  <path fill="#E3DDD5" d="M252 602c2.551 3.827 2.498 7.17 2.688 11.625l.12 2.544c.404 10.305.05 20.67-1.808 30.831h2l-.438 3.375c-.19 1.541-.376 3.083-.562 4.625-.095.782-.19 1.565-.29 2.371-.697 6.228-.817 12.366-.71 18.629l-3 1c-.255-25.087.218-49.972 2-75Z"/>
  <path fill="#E7E2DA" d="M253 428h3l-.063 3.25c-.1 3.494-.1 3.494.625 5.75.438 2 .438 2-.024 4.777-.896 5.888-.7 11.845-.706 17.786l-.01 3.955c-.006 2.753-.008 5.507-.007 8.26 0 3.514-.014 7.027-.031 10.54-.014 3.374-.013 6.747-.014 10.12l-.022 3.8c.015 5.968.164 11.143 2.252 16.762l-2 2c-.262 2.964-.262 2.964-.16 6.434l.033 3.904c.02 1.366.042 2.733.065 4.1.036 2.665.064 5.33.09 7.996l.054 3.595C256 544 256 544 255 547l2 1v5h-4V428Z"/>
  <path fill="#C1B3A1" d="M648 1199h97v1l-3.438.438c-3.37.174-3.37.174-4.562 1.562-2.983.095-5.943.126-8.926.114h-2.838c-3.111 0-6.222-.009-9.334-.016l-6.452-.005c-5.674-.003-11.347-.013-17.02-.024-5.785-.01-11.57-.015-17.354-.02-11.359-.01-22.717-.028-34.076-.049v-1l7-1v-1Z"/>
  <path fill="#E5DED3" d="M772 996c1.867.457 1.867.457 4 2 1.088 2.814 1.583 5.727 2.125 8.688.313 1.587.628 3.174.945 4.761l.459 2.352c.415 1.936.957 3.843 1.518 5.742 1.109 4.023 1.632 7.943 2.078 12.082l.262 2.234c1.063 9.42 1.063 9.42.086 13.157-.573 2.405-.359 4.29-.035 6.734l.308 2.422L784 1058c-2.429-3.643-2.908-7.068-3.621-11.297l-.44-2.502c-.466-2.65-.922-5.3-1.376-7.951-.6-3.454-1.205-6.907-1.81-10.36l-.442-2.551c-1.13-6.457-2.41-12.872-3.78-19.281A37.062 37.062 0 0 1 772 996Z"/>
  <path fill="#A5947B" d="M62 1129h2l.06 2.092c.096 3.157.205 6.314.315 9.47.03 1.087.062 2.173.094 3.292.21 5.739.788 10.64 2.531 16.146 4.443 24.818 1.803 50.948 1 76h-2c-.853-4.926-.97-9.276-.563-14.25 3.668-33.714 3.668-33.714-2.464-65.577-1.253-2.8-1.2-4.972-1.168-8.032l.02-3.38.05-3.511.027-3.559c.024-2.897.057-5.794.098-8.691Z"/>
  <path fill="#E5DDD3" d="m260 268 1 2h-2l-.25 1.75c-1.533 4.6-6.054 7.346-9.75 10.25-6.46 5.222-12.224 11.042-18 17l-2-1 11-12c-5.934 4.698-10.425 9.986-15 16l-1-3c1.547-2.445 1.547-2.445 3.75-5.125l2.172-2.695C232 289 232 289 235 288l.924-1.851c1.341-2.68 2.872-3.775 5.287-5.532l2.523-1.847 2.641-1.895 2.617-1.918c3.578-2.6 6.991-5.077 11.008-6.957Z"/>
  <path fill="#BDAC97" d="M498 1198v1l-3.472.076c-4.237.094-8.472.194-12.708.296-1.837.044-3.673.085-5.51.125-2.633.058-5.266.122-7.9.187l-2.503.05c-3.762-.256-3.762-.256-6.907 1.266-2.045.22-4.096.373-6.148.5l-3.951.25-4.276.25-2.159.128c-4.43.262-8.86.51-13.29.752-2.102.116-4.204.236-6.305.357-3.748.21-7.496.397-11.246.575l-3.47.198-3.178.135-2.78.136L400 1204l-2-3 2.737-.044c4.296-.077 8.592-.167 12.888-.268l2.4-.057c10.752-.268 21.292-.972 31.975-2.256 16.7-1.97 33.245-1.228 50-.375Z"/>
  <path fill="#E1DCD3" d="M253 935c2 2 2 2 2.23 5.809a353.379 353.379 0 0 1-.042 4.629l-.002 2.353c-.026 3.312-.132 6.048-1.186 9.209.312 2.336.648 4.67 1 7 .427 11.639.85 24.674-2 36l.5 2.813c.57 3.63.148 6.59-.5 10.187l-2-1c-.429-53.282-.429-53.282 2-77Z"/>
  <path fill="#B1A48A" d="M118 666h2l-.411 2.145c-2.38 12.465-4.711 24.915-6.422 37.49-1.315 9.63-2.847 19.226-4.366 28.825l-.617 3.911-.606 3.816c-.398 2.622-.77 5.235-1.105 7.864l-.5 3.86-.426 3.476L105 760l-2 1c-.027-1.48-.046-2.958-.063-4.438l-.035-2.496C103 752 103 752 104 751c.422-2.59.789-5.168 1.121-7.77l.318-2.398c.337-2.547.668-5.096.999-7.644 1.69-12.949 3.44-25.833 6.058-38.634 1.154-5.844 2.1-11.729 3.092-17.603l.51-2.978.453-2.68C117 669 117 669 118 666Z"/>
  <path fill="#E0DAD0" d="M250 1127c.687 2.49 1 4.379 1 7l.063 2.625C251 1139 251 1139 250 1140c-.1 1.414-.13 2.833-.125 4.25l-.008 2.328c.068 2.423.068 2.423.64 4.746.636 3.451.549 6.732.493 10.238-.16 4.886-.16 4.886.59 9.668.76 3.278-1.184 5.846-2.59 8.77h-1a383.627 383.627 0 0 1-.688-37.75l.106-3.876.133-3.608.114-3.226C248 1129 248 1129 250 1127Z"/>
  <path fill="#D9D2C7" d="M250 1030h1l.148 2.3.227 3.013c.07.986.14 1.972.21 2.988.254 2.914.254 2.914 2.415 5.699.247 1.95.247 1.95.243 4.19l.01 2.55-.023 2.756v2.86c-.004 2.004-.012 4.007-.024 6.01-.018 3.028-.02 6.057-.02 9.085-.04 23.124-.04 23.124-1.186 28.549l-2 1c-1.438-23.643-1.096-47.325-1-71Z"/>
  <path fill="#CDC4B9" d="M181 404h2l-2 11 2-3c-.519 5.012-1.348 9.227-3 14-1.046 3.989-2.027 7.993-3 12l-4 1-2 7c-1.562-3.966-.378-7.334.75-11.25l.568-2.05c1.104-3.912 2.369-7.687 3.889-11.45 1.98-5.617 3.314-11.483 4.793-17.25Z"/>
  <path fill="#BDB4AB" d="M246 1168h1l1 32c5.054.632 9.582 1.133 14.6 1.205l3.76.06 3.984.051 4.136.063c3.603.055 7.207.105 10.81.153 3.687.05 7.374.106 11.062.161 7.216.107 14.432.209 21.648.307v1l-1.862.031c-6.441.11-12.882.224-19.323.341-2.399.043-4.797.085-7.196.125-3.463.059-6.926.122-10.389.187l-3.208.05c-5.95.117-11.813.457-17.73 1.103-2.87.204-5.193-.182-7.917-1.087l-2.477-.766C246 1202 246 1202 245 1199c-.016-2.358.035-4.717.121-7.074l.072-2.072c.076-2.181.16-4.361.244-6.542l.159-4.439c.129-3.625.265-7.249.404-10.873Z"/>
  <path fill="#DED6CB" d="M226 335c3.925 3.7 7.022 7.49 10 12v2h3l-1-5 2-1v3l3 1c3.28 4.06 3.375 7.798 3.188 12.813l-.042 2.1A383.796 383.796 0 0 1 246 367l-2 1-.629-1.8c-3.69-9.926-9.318-18.233-16.086-26.325C226 338 226 338 226 335Z"/>
  <path fill="#D9D1C7" d="M252 846c1.377 3.824.728 7.069 0 11l-1 2 2 1c.029 3.48.047 6.958.063 10.438l.025 3.01.01 2.86.016 2.65C253 881 253 881 252 882c-.16 2.519-.26 5.013-.316 7.535l-.063 2.283c-.066 2.415-.125 4.83-.184 7.245l-.13 4.9c-.108 4.012-.209 8.025-.307 12.037h-1a8884.42 8884.42 0 0 1-.104-25.609c-.01-3.964-.024-7.927-.047-11.891-.022-3.826-.034-7.65-.039-11.476-.003-1.46-.01-2.919-.021-4.378a811.423 811.423 0 0 1-.016-6.133l-.014-3.526c.233-2.894.73-4.545 2.241-6.987Z"/>
  <path fill="#C3B8A9" d="m96 816 3 1c.054 2.396.094 4.791.125 7.188l.05 2.04c.04 4.06-.375 7.122-2.175 10.772h-2c-2.297 11.96-3.869 23.876-5 36h-2c1.093-12.703 2.298-25.363 4-38h2l2-19Z"/>
  <path fill="#E5E0D8" d="M250 720h1c.754 9.785 1.15 19.482 1.133 29.3l.003 3.89c.001 2.68 0 5.36-.006 8.04-.005 3.435-.002 6.87.004 10.305.004 3.297.001 6.594-.001 9.89l.006 3.738-.01 3.432-.002 3.026C252 794 252 794 251 796h2l-.465 2.879c-.667 4.67-.879 9.349-1.097 14.058l-.131 2.65c-.105 2.138-.207 4.276-.307 6.413h-1V720Z"/>
  <path fill="#E1DCD2" d="m251 371 3 3-1 3 2 1c.228 4.458.429 8.916.625 13.375l.195 3.793c.305 7.263.076 13.794-1.82 20.832h-1c-1-5.064-1.212-9.976-1.316-15.117l-.063-2.598c-.065-2.72-.125-5.44-.184-8.16l-.13-5.555c-.107-4.523-.208-9.046-.307-13.57Z"/>
  <path fill="#CEC3B6" d="M936 1238c-2.785 2.785-5.683 2.715-9.438 3.125l-2.246.26c-6.782.707-13.52.76-20.333.63-1.994-.036-3.989-.03-5.983-.015l-1 1a153.02 153.02 0 0 1-6.563.063l-3.628-.028L884 1243l-1-3c5.62-.289 11.238-.573 16.858-.854 1.907-.096 3.813-.193 5.72-.292 20.31-1.043 20.31-1.043 30.422-.854Z"/>
  <path fill="#B3A08A" d="m147 1241.813 4.135.282c9.987.697 19.936 1.625 29.865 2.905v1c-3.951.025-7.902.043-11.853.055-2.006.007-4.012.02-6.018.033l-3.809.01-3.523.016C153 1246 153 1246 151 1245a175.668 175.668 0 0 0-6.54-.535l-3.944-.264-4.141-.264A4654.543 4654.543 0 0 0 122 1243v-.999c8.407-1.252 16.554-.803 25-.188Z"/>
  <path fill="#E8E3DC" d="M437 268c4.226.384 7.959.89 11.938 2.375 12.7 4.398 26.283 5.124 39.591 5.89 1.084.07 2.167.137 3.284.208l2.957.164L497 277l1 2c-19.723.617-41.443-2.107-60-9l-1-2Z"/>
  <path fill="#C5AB8F" d="M793 1100c2.376 3.564 3.157 7.084 4.125 11.188l.55 2.271c.448 1.846.887 3.693 1.325 5.541l2-1c3.539 6.614 4.391 12.626 3 20-.036 2-.049 4 0 6-2.043-3.664-3.202-7.557-4.375-11.563l-.653-2.225c-1.656-5.795-3.036-11.63-4.284-17.524l-.52-2.442c-.728-3.565-1.168-6.568-1.168-10.246Z"/>
  <path fill="#DFD9D1" d="M77 996c1.739 5.342.725 10.964.33 16.472-.142 2.02-.269 4.042-.394 6.063l-.268 3.871-.241 3.541c-.396 2.828-.966 4.632-2.427 7.053l-2-1c.434-9.02 1.01-18.015 1.938-27l.226-2.373c.205-1.885.511-3.759.836-5.627l2-1Z"/>
  <path fill="#CDB59C" d="m784 1058 2 2 2-2c1.73 6.16 3.091 11.727 1 18 .24 2.395.24 2.395.813 4.938.17.854.342 1.709.519 2.59.75 2.778 1.598 5.402 3.668 7.472h1c.188 2.313.188 2.313 0 5-1.512 1.668-1.512 1.668-3 3-2.583-8.82-4.606-17.645-6.25-26.688l-.53-2.896c-.693-3.91-1.22-7.426-1.22-11.416Z"/>
  <path fill="#F5F4ED" d="M761 976h1c.195 4.48.373 8.96.537 13.44.058 1.519.12 3.037.187 4.556.404 9.272.315 17.873-1.724 27.004-2.66-3.989-2.169-7.36-2.012-11.973l.069-2.663c.05-1.857.105-3.714.164-5.57.091-2.849.166-5.697.238-8.546.05-1.803.102-3.605.154-5.408l.07-2.592c.2-6.015.2-6.015 1.317-8.248Z"/>
  <path fill="#D7C5AF" d="M765 957c2.388 2.388 2.354 3.77 3 7l2 2a124.815 124.815 0 0 1 1.563 7c.81 4.637.81 4.637 2.437 9-.686 4.686-.686 4.686-2 6a59.19 59.19 0 0 0-.063 4.063L772 996h-1a2855.553 2855.553 0 0 0-1.375-10.063l-.383-2.857A102.642 102.642 0 0 0 766 968a100.76 100.76 0 0 1-.625-5.938l-.227-2.902L765 957Z"/>
  <path fill="#CBC0B0" d="M191 375h1c1.313 6.564.527 10.834-2 17l-1-4-.438 3.438C188 395 188 395 187 396l2 3-4 5-3-1a71.81 71.81 0 0 1 2.594-10.012l.933-2.795.973-2.88.973-2.917c2.386-7.115 2.386-7.115 3.527-9.396Z"/>
  <path fill="#E5DED3" d="M795 1093c1.992 3.475 2.754 6.906 3.563 10.813l.753 3.582L800 1111l.715 3.7c.286 3.317.122 4.598-1.715 7.3a370.139 370.139 0 0 1-4.688-16.25c-.25-.954-.502-1.908-.761-2.89-.582-3.019-.646-5.794-.551-8.86l2-1Z"/>
  <path fill="#E3DDD6" d="M120 658h1l.375 2.313c.506 2.89.506 2.89 2.625 5.687-.426 1.98-.426 1.98-1.313 4.188-1.604 4.36-2.24 8.19-2.687 12.812-.26 2.343-.574 4.682-1 7l-2 1c-1.91-8.914.552-16.439 3-25l-2-1 2-7Z"/>
  <path fill="#AD985D" d="M819 1194c1.957 2.936 2.432 4.382 3.035 7.754l.514 2.842.514 2.966.525 2.885c1.455 8.19 2.581 16.344 2.475 24.678l-.028 2.82L826 1240h-1c-1.343-8.665-2.675-17.332-4-26l-.386-2.509c-.293-1.913-.579-3.827-.864-5.741-.15-.995-.3-1.99-.453-3.016-.318-2.93-.35-5.788-.297-8.734Z"/>
  <path fill="#E7E2DB" d="M252 972h1c.197 3.916.381 7.833.563 11.75l.17 3.367.146 3.242.143 2.984c-.02 2.443-.41 4.315-1.022 6.657l.5 2.813c.57 3.63.148 6.59-.5 10.187l-2-1a7325.17 7325.17 0 0 1-.055-16.608c-.005-1.884-.012-3.77-.02-5.654-.013-2.703-.018-5.406-.023-8.11l-.015-2.569c0-2.02.05-4.04.113-6.059l1-1Z"/>
  <path fill="#AF9C6A" d="M804 1144c2.933 2.933 3.05 6.497 3.813 10.438 1.322 6.405 3.011 11.96 5.949 17.835 3.036 6.686 5.612 14.323 5.238 21.727-2.201-3.933-3.435-8.168-4.813-12.438-1.824-5.593-3.743-11.1-5.937-16.562-2.723-6.934-4.395-13.53-4.25-21Z"/>
  <path fill="#C5B79A" d="M136 582h1c-.47 4.312-1.064 8.466-2.063 12.688-.741 3.176-1.149 6.03-.937 9.312h1c-.114 1.626-.242 3.25-.375 4.875-.07.905-.14 1.81-.21 2.742-.594 3.412-3.033 5.001-5.415 7.383.518-7.85 1.755-15.334 3.5-23l.684-3.098c1.645-7.388 1.645-7.388 2.816-10.902Z"/>
  <path fill="#E2DCD4" d="M115 688c2 3.75 2 3.75 2 6l2 1-.621 1.617c-1.86 5.143-2.764 9.751-2.973 15.219-.49 2.607-1.391 3.503-3.406 5.164-1.17-3.509-.807-5.35-.223-8.98l.557-3.526c.2-1.215.398-2.43.603-3.682l.592-3.716c.484-3.033.975-6.065 1.471-9.096Z"/>
  <path fill="#F8F7F4" d="M760 1032h1c.229 3.957.43 7.916.625 11.875l.195 3.36c.326 6.911-.07 13.06-1.82 19.765h-1c-.025-4.824-.043-9.648-.055-14.471-.005-1.643-.012-3.285-.02-4.927-.013-2.356-.018-4.711-.023-7.067l-.015-2.238c0-1.766.051-3.532.113-5.297l1-1Z"/>
  <path fill="#C4B9A0" d="M152 513c1.516 3.975.499 7.205-.438 11.25l-.87 3.828L150 531l3 1c-2.75 6.75-2.75 6.75-5 9-.707 1.65-1.38 3.316-2 5h-1c.597-6.19 1.548-12.13 2.938-18.188l.513-2.326c.96-4.257 2.084-8.368 3.549-12.486Z"/>
  <path fill="#E5DFD7" d="M253 562h1c1.618 10.927 2.186 20.993 1 32h-2l-1 2c-.216-11.35.431-22.668 1-34Z"/>
  <path fill="#A49274" d="M67 1199h1v37h-2c-.837-4.89-1.02-9.302-.66-14.246l.139-1.988c.146-2.068.302-4.136.459-6.204l.302-4.24c.246-3.441.5-6.882.76-10.322Z"/>
  <path fill="#E3DDD6" d="m106 746 3 1c-.114 2.563-.241 5.125-.375 7.688l-.094 2.185c-.224 4.1-.708 7.37-2.531 11.127l-2-2v-4l-2-1 2-1a99.148 99.148 0 0 0 1.125-7.063l.508-3.91L106 746Z"/>
  <path fill="#A18F80" d="M100 1239c10.853-.284 21.254.527 32 2v1c-4.02.058-8.041.094-12.063.125l-3.435.05c-5.902.035-10.943-.126-16.502-2.175v-1Z"/>
  <path fill="#E5DED1" d="M805 1133c2.024 3.035 2.321 4.194 2.625 7.688l.227 2.449L808 1145h1c.222 1.79.427 3.582.625 5.375l.352 3.023L810 1156l-2 2c-2.474-7.987-4.614-15.618-5-24l2-1Zm3 19 1 2Z"/>
  <path fill="#D6CEC1" d="M249 352h2v2h2l1-2c.027 1.48.046 2.958.063 4.438l.035 2.496C254 361 254 361 253 362a235.648 235.648 0 0 0-1 7h-3c-.195-2.27-.38-4.541-.563-6.813l-.316-3.832C248 355 248 355 249 352Z"/>
  <path fill="#DAD1C4" d="M241 976c1.468 1.964 2.032 3.467 1.884 5.924-.362 2.29-.792 4.555-1.259 6.826l-.46 2.402c-.377 1.952-.77 3.9-1.165 5.848l-3-1-1 2v-3h3l-2-3c.242-3.137.242-3.137.875-6.688l.617-3.574L239 979h2v-3Z"/>
  <path fill="#C2B89F" d="M201 347c1.793 4.167.012 7.747-1.438 11.75l-.736 2.113A605.31 605.31 0 0 1 197 366l2-2-1 6-3 1c-1.667 1.5-1.667 1.5-3 3 2.01-9.469 5.25-18.119 9-27Z"/>
  <path fill="#B6A788" d="M144 547h1c.083 1.52.14 3.041.188 4.563l.105 2.566c-.306 2.994-1.241 5.196-2.493 7.91-1.495 3.664-2.187 7.535-2.988 11.399l-.537 2.505c-.431 2.018-.854 4.037-1.275 6.057h-1c.44-6.72 1.556-13.17 2.938-19.75l.514-2.472c.938-4.367 2.033-8.566 3.548-12.778Z"/>
  <path fill="#EBE4D9" d="M766 944c3.63 6.05 3.14 13.18 3 20l-2 1a800.872 800.872 0 0 1-1.563-7.188l-.458-2.04c-.817-3.892-1.181-6.95.021-10.772l1-1Z"/>
  <path fill="#AA9882" d="M108 725h1c-.414 8.498-1.285 16.886-2.438 25.313l-.37 2.84-.376 2.648-.33 2.38L105 760l-2 1c-.027-1.48-.046-2.958-.063-4.438l-.035-2.496C103 752 103 752 104 751c.37-1.92.683-3.851.973-5.785l.537-3.545.552-3.732.565-3.745c.461-3.064.919-6.128 1.373-9.193Z"/>
  <path fill="#CFC6A9" d="m128 619 2 4h3l-.938 1.625C130.822 627.398 130.41 630 130 633l-3 1-2 2c.779-11.522.779-11.522 3-17Z"/>
  <path fill="#D9CFBF" d="M244 955h3c.458 7.626-1.255 14.603-3 22h-1c-.125-5.75-.125-5.75 1-8h-2l2-14Z"/>
  <path fill="#CBBFAF" d="M249 911v14h-2l-1 4c-.77-5.39-1.375-10.556-1-16 3-2 3-2 4-2Z"/>
  <path fill="#C4B49D" d="M936 1238c-2.909 2.909-6.205 2.758-10.125 3.188l-2.227.287c-5.093.587-9.585.334-14.648-.475 7.187-4.791 18.616-3.134 27-3Z"/>
  <path fill="#B3A68F" d="M81 936h1c-.768 9.361-1.874 18.676-3 28h-1c-1.501-8.62-2.002-20.497 3-28Z"/>
  <path fill="#E0DBD3" d="m109 726 1 2h2l-2 16-3 1c.142-2.23.289-4.459.438-6.688.08-1.24.162-2.482.246-3.761.26-2.933.664-5.685 1.316-8.551Z"/>
  <path fill="#C6BCA5" d="M124 637h2v6h1c.25 5.625.25 5.625-2 9h-2l-1 5h-1a148.557 148.557 0 0 1 3-20Z"/>
  <path fill="#E5DFD8" d="m140 568 3 2c.403 4.353.158 7.223-2 11v3l-4 1c.311-1.896.624-3.792.938-5.688l.527-3.199c.467-2.715.98-5.414 1.535-8.113Z"/>
  <path fill="#C4BAAD" d="M178 425h1a978.719 978.719 0 0 1-.438 4.25c-.08.789-.162 1.578-.246 2.39-.292 2.184-.737 4.237-1.316 6.36l-4 1-2 7c-1.263-3.586-.724-5.953.313-9.563l.8-2.878C173 431 173 431 175 428v7l3-10Z"/>
  <path fill="#E4DDD1" d="M788 1072h3c1.592 5.57 2.207 10.211 2 16l-2 1c-2.254-5.56-2.6-11.079-3-17Z"/>
  <path fill="#D1A58D" d="m779 1033 1 3h3c.197 1.415.382 2.832.563 4.25l.316 2.39c.123 2.395-.303 4.055-.879 6.36.09 2.37.09 2.37.438 4.75l.308 2.422L784 1058c-2.438-3.657-2.922-7.129-3.625-11.375l-.406-2.29c-.655-3.82-1.14-7.443-.969-11.335Z"/>
  <path fill="#E6E1D8" d="M250 681h1v8h3l-1 4h-1l-1 26h-1v-38Z"/>
  <path fill="#E0DAD3" d="M69 1173h2l-.063 3.938c-.012 4.107.352 8.055.942 12.117C72 1191 72 1191 71 1194c-1.96-2.94-2.268-3.674-2.45-6.977l-.13-2.28-.108-2.368-.142-2.39c-.105-1.993-.143-3.99-.17-5.985l1-1Z"/>
  <path fill="#DFD9CF" d="M253 428h3l-.063 3.25c-.098 3.537-.098 3.537.688 6L257 439l-2 3c-.46 2.968-.46 2.968-.625 6.188l-.227 3.292L254 454h-1v-26Z"/>
  <path fill="#CEC3B3" d="m244 351 2 1v15l-2 1c-.65-1.582-1.294-3.166-1.938-4.75l-1.09-2.672A47.331 47.331 0 0 1 239 354l5 3v-6Z"/>
  <path fill="#DCD0C0" d="m239 283 2 1c-.652.63-1.305 1.258-1.977 1.906-5.176 5.07-9.916 10.117-14.023 16.094l-1-3c1.547-2.445 1.547-2.445 3.75-5.125l2.172-2.695C232 289 232 289 235 288a89.47 89.47 0 0 0 2-4l2-1Z"/>
  <path fill="#E4DDD1" d="M782 1046c3.373 1.404 3.865 1.68 5.375 5.25.673 4.04.25 6.048-1.375 9.75-2.187-3.281-2.544-5.33-3.125-9.188l-.508-3.292L782 1046Z"/>
  <path fill="#D0C7B0" d="M249 1080h1l.06 2.156c.095 3.219.205 6.438.315 9.657l.094 3.392.117 3.252.095 3c.157 2.784.157 2.784 2.319 5.543-.875 3.188-.875 3.188-2 6-3.085-3.085-2.803-6.83-3-11 .026-3.863.215-7.707.438-11.563l.158-3.056c.128-2.46.263-4.921.404-7.381Z"/>
  <path fill="#E1D6CA" d="M736 1198h19c-3.598 3.598-5.9 3.531-10.688 3.688l-2.126.103c-1.728.082-3.457.147-5.186.209l1-2-2-2Z"/>
  <path fill="#B2A089" d="M68 1051h1c.978 5.453.973 10.425.563 15.938l-.159 2.36c-.128 1.902-.265 3.802-.404 5.702l-2-1c-.122-7.737.152-15.307 1-23Z"/>
  <path fill="#E3DCCE" d="M325 241a1522.86 1522.86 0 0 1-7.063 3.375l-1.99.96c-4.255 2.013-8.387 3.491-12.947 4.665l1-3c2.8-1.316 2.8-1.316 6.313-2.563 4.538-1.58 4.538-1.58 8.855-3.652 2.32-.994 3.5-.618 5.832.215Z"/>
  <path fill="#E3DDD2" d="M223 300h6c-1.318 5.667-3.487 7.664-8 11l-2-1 1.5-2.313c1.744-2.61 1.744-2.61 1.5-5.687l1-2Z"/>
  <path fill="#E8E3DC" d="m388 243 2.055 1.32c5.617 3.595 11.266 7.09 17.047 10.418C409 256 409 256 410 258c-5.686-1.508-10.044-4.399-14.875-7.625l-2.375-1.563A1114.92 1114.92 0 0 1 387 245l1-2Z"/>
  <path fill="#D6CEC5" d="M66 1153c2.701.09 5.37.237 8.063.438l2.298.158c1.88.13 3.76.266 5.639.404v1l-2.3.078-3.013.172-2.988.14c-3.316.75-3.897 1.838-5.699 4.61h-2a128.624 128.624 0 0 1-1-6l1-1Z"/>
  <path fill="#E3DDD5" d="M102 796c.202 6.36-.372 11.852-2 18h-1c-.766-5.859-1.356-11.204 0-17 2-1 2-1 3-1Z"/>
  <path fill="#DAD3CB" d="M64 1126h1v9l2 1-.5 3.563c-.487 3.85-.58 7.56-.5 11.437h-1c-.973-4.857-1.12-9.45-1.063-14.375l.014-2.23c.012-1.799.03-3.597.049-5.395l-2-1h2v-2Z"/>
  <path fill="#E0DAD3" d="M87 909c1.569 3.138.561 6.266.063 9.625l-.303 2.14c-.248 1.746-.503 3.49-.76 5.235h-3c.087-2.46.194-4.916.313-7.375l.068-2.117c.107-2.031.107-2.031.619-5.508l3-2Z"/>
  <path fill="#E5E0D9" d="m157 504 2 2c-3.027 11.027-3.027 11.027-6 14-1.21-3.632-.628-5.065.438-8.688l.87-3.011L155 506h2v-2Z"/>
  <path fill="#E2DBD0" d="M771 983c2.04 1.686 2.919 2.59 3.441 5.227l.121 2.398c.084 2.346.084 2.346.438 4.375l2 1-1 3c-1.953-1.082-1.953-1.082-4-3-.61-3.137-.61-3.137-.75-6.688l-.172-3.574L771 983Z"/>
  <path fill="#A4905E" d="M819 1194c3.802 5.703 4.286 12.279 4 19h-2c-.34-2.04-.671-4.083-1-6.125l-.563-3.445c-.407-3.191-.515-6.218-.437-9.43Z"/>
  <path fill="#DCD5CB" d="M249 1186h1c1.036 5.05 1.103 9.874 1 15l-4-1c.14-2.146.287-4.292.438-6.438.08-1.194.162-2.39.246-3.62C248 1187 248 1187 249 1186Z"/>
  <path fill="#CBC1B1" d="M230 1040h1c-.516 6.499-1.467 12.662-3 19h-1v-13h2l1-6Z"/>
  <path fill="#D5CEBA" d="m185 395 3 1 1 3c-1.938 2.688-1.938 2.688-4 5l-3-1c.547-3.375 1.055-5.082 3-8Z"/>
  <path fill="#B1A190" d="M63 1145h1l3 18h-2c-2.72-6.5-3.214-11.05-2-18Z"/>
  <path fill="#E4DED5" d="M164 476h1c.08 3.537.018 6.608-1 10l-.563 2.25L163 490h-2c-.027-1.625-.046-3.25-.063-4.875l-.035-2.742C161 480 161 480 162 478h2v-2Z"/>
  <path fill="#B7A897" d="M207 330h1c.324 4.367-.75 7.332-2.5 11.313l-1.406 3.238L203 347c-1.476-3.857-.467-6.388.875-10.188l1.117-3.23C206 331 206 331 207 330Z"/>
  <path fill="#C5B5A5" d="m221 304 2 1c-1.094 1.819-2.2 3.63-3.313 5.438l-1.863 3.058C216 316 216 316 213 317c1.468-3.107 3.2-5.905 5.125-8.75l1.633-2.422L221 304Z"/>
  <path fill="#E8E4DD" d="M420 262c5.76.606 10.72 2.757 16 5l-2 2a521.962 521.962 0 0 1-5.875-1.813l-3.305-1.019C422 265 422 265 420 262Z"/>
  <path fill="#EADFD9" d="M374 219c-7.2 6-7.2 6-12 6 1.02-2.781 1.664-3.818 4.313-5.25 2.705-.755 4.894-.91 7.687-.75Z"/>
  <path fill="#C4B8A6" d="M448 1199v3c-10.558.185-10.558.185-15-1v-1c5.07-.712 9.882-1.107 15-1Z"/>
  <path fill="#E2DACE" d="M810 1157c2 1 2 1 3.188 4.313.718 3.263 1.015 4.68-.188 7.687h-2c-1.806-4.462-2.117-7.31-1-12Z"/>
  <path fill="#AEA08F" d="M65 1113h1c-.114 2.126-.241 4.25-.375 6.375l-.21 3.586C65 1126 65 1126 63 1128a514.784 514.784 0 0 1-.125-5.813l-.07-3.269C63 1116 63 1116 65 1113Z"/>
  <path fill="#BA917A" d="m772 996 3 1-.063 3.313c-.009 5.26.525 10.459 1.063 15.687-1.74-3.108-2.513-5.936-3.125-9.438l-.508-2.808c-.35-2.625-.434-5.11-.367-7.754Z"/>
  <path fill="#E0DAD2" d="m117 678 3 1a485.352 485.352 0 0 1-.375 5.438c-.07 1.009-.14 2.018-.21 3.058-.138.826-.274 1.653-.415 2.504l-2 1a380.414 380.414 0 0 1-.563-4.25l-.316-2.39c-.121-2.365.183-4.111.879-6.36Z"/>
  <path fill="#E2DCD4" d="m252 644 1 3h2c-.52 4.38-1.057 8.688-2 13h-1v-16Z"/>
  <path fill="#D0C2A2" d="m776 1016 1 3h3l-1 13h-1l-2-16Z"/>
  <path fill="#C1B8AE" d="M67 1222h1v14h-2l-1-7h2v-7Z"/>
  <path fill="#D8D2CC" d="M68 1201h1l.375 3.313c.38 3.76.38 3.76 2.625 6.687l-3 6h-1v-16Z"/>
  <path fill="#E5E0D9" d="m131 612 3 3c-.063 2.563-.063 2.563-1 5l-4 2 2-10Z"/>
  <path fill="#CFC3B2" d="M244 955h3v8l-4 1 1-9Z"/>
  <path fill="#CBC1AE" d="M120 658h1l.375 2.313c.506 2.89.506 2.89 2.625 5.687l-2 4-.313-1.938L121 666l-3-1 2-7Z"/>
  <path fill="#E4DCCC" d="m275 263-13 6c1-3 1-3 2.707-4.203l2.106-1.047 2.082-1.078C271 262 271 262 275 263Z"/>
  <path fill="#DAD4CC" d="M70 1048h3c.054 1.625.093 3.25.125 4.875l.07 2.742C73 1058 73 1058 71 1060c-1.262-2.525-1.099-4.312-1.063-7.125l.028-2.758L70 1048Z"/>
  <path fill="#E3DED6" d="M158 493h3c.37 5.538.37 5.538-1.5 7.875L158 502c-1.125-5.625-1.125-5.625 0-9Z"/>
  <path fill="#E3D4C7" d="M945 1237c-6.4 3.077-6.4 3.077-9.438 2.688L934 1239v-2c7.429-1.286 7.429-1.286 11 0Z"/>
  <path fill="#DFDBD3" d="m529 1196 3.813-.063 2.144-.035C537 1196 537 1196 540 1197v2c-1.457.081-2.916.14-4.375.188l-2.46.105L531 1199l-2-3Z"/>
  <path fill="#DFD9D1" d="M69 1091h1c.081 1.457.14 2.916.188 4.375l.105 2.46L70 1100l-3 2c-.25-7.625-.25-7.625 2-11Z"/>
  <path fill="#DCD6CD" d="m96 816 3 1c.082 4.161-.018 7.947-1 12h-1l-1-13Z"/>
  <path fill="#E3DED5" d="M103 780h1v11l-4 2 3-13Z"/>
  <path fill="#D3C9BA" d="m244 351 2 1c.25 6.625.25 6.625-2 10l-2-5h2v-6Z"/>
  <path fill="#AD9B85" d="M257 1202h9l1 2-10 1v-3Z"/>
  <path fill="#E4DFD8" d="m184 401 2 3c-.875 3.688-.875 3.688-2 7-2-3-2-3-1.625-5.188L183 404l-2-1h3v-2Z"/>
  <path fill="#E0D8CC" d="M828 1234c2.383 2.383 2.432 3.754 3 7l1 2-4 1c-.75-3.663-1.238-6.424 0-10Z"/>
  <path fill="#BCB1A0" d="M212 317c1.16 3.479.775 4.342-.438 7.688l-.87 2.449L210 329h-2c.477-1.626.957-3.25 1.438-4.875l.808-2.742C211 319 211 319 212 317Z"/>
  <path fill="#CCBEA8" d="m229 293 2 1-6 8-1-3c1.404-2.264 3.197-4.02 5-6Z"/>
  <path fill="#F5F3EE" d="M672 229c3.438.813 3.438.813 7 2l1 3c-3.147-.7-6.026-1.76-9-3l1-2Z"/>
  <path fill="#DAD4CD" d="M76 979h1v8h2l-1 4h-2v-12Z"/>
  <path fill="#DFD9D0" d="M252 846c1.374 3.818.68 7.073 0 11-2-3-2-3-1.688-5.5A107.8 107.8 0 0 1 252 846Z"/>
  <path fill="#DDD7CE" d="M107 760c.125 2.875.125 2.875 0 6l-2 2-.375-2.938L104 762l-2-1c2-1 2-1 5-1Z"/>
  <path fill="#E2DDD5" d="M151 521h3l-1 7h-3l1-7Z"/>
  <path fill="#FCF2EC" d="m786 287 3 2v2l3 1c1.188 2.063 1.188 2.063 2 4l-4-2v-2l-4-2v-3Z"/>
  <path fill="#E0DBD3" d="M66 1155h5l-2 5h-3v-5Z"/>
  <path fill="#FBFAF4" d="M945 1019h1v9h-3c.588-3.024 1.227-6.018 2-9Z"/>
  <path fill="#DED9D0" d="M91 854h3l1 5h-2l-1 2c-1-1-1-1-1.063-4.063L91 854Z"/>
  <path fill="#DFD9CE" d="m241 325 2 1c-.313 2.375-.313 2.375-1 5l-3 2c.523-2.763 1.109-5.326 2-8Z"/>
  <path fill="#E7E1D9" d="M283 258v2l-7 2v-3c3-1 3-1 7-1Z"/>
  <path fill="#E1DDD0" d="m302 249-1 3c-3.563 1.188-3.563 1.188-7 2l1-3c2.433-1.185 4.28-2 7-2Z"/>
  <path fill="#DCD5CD" d="M69 1066c3 3 3 3 3.188 5.688L72 1074l-3 1v-9Z"/>
  <path fill="#E9E2D8" d="M771 983c3.8 3.8 3.8 3.8 4 7l-3 3-1-10Z"/>
  <path fill="#CFC690" d="M144 547h1v10l-2 1c-1.263-4.293-.63-6.878 1-11Z"/>
  <path fill="#E5E0D8" d="m173 445 1 2c-.938 2.625-.938 2.625-2 5h-2v-6l3-1Z"/>
  <path fill="#DFDAD0" d="M249 327h1c.925 4.716 1.23 7.673-1 12h-1c-.143-8.571-.143-8.571 1-12Z"/>
</svg>