<svg xmlns="http://www.w3.org/2000/svg" viewBox="0 0 720 1080">
  <path fill="#E5E5E1" d="M356.753 189.609c3.441.022 6.883.02 10.325.02 24.895.001 49.355 1.016 73.922 5.371l2.355.413c15.884 2.885 32.602 7.375 42.313 21.22 2.798 4.584 3.008 8.53 2.957 13.804 0 11.785 4.218 20.778 9 31.438a7022.14 7022.14 0 0 1 2.977 6.68l1.322 2.952c1.894 4.388 2.166 7.728 2.076 12.493l1.73.48c7.265 2.09 14.25 4.727 21.27 7.52l3.04 1.152c16.982 6.654 29.036 16.645 38.96 31.848l1.656 2.348c5.158 7.37 7.314 14.373 9.399 23.054 1.15 4.375 2.502 8.667 3.882 12.973 3.765 11.766 7.13 23.594 10.067 35.594a446.43 446.43 0 0 0 1.96 7.687c2.233 8.536 4.046 17.12 5.723 25.781.215 1.102.43 2.204.65 3.34 1.033 5.434 1.892 10.817 2.441 16.32.298 2.553.887 4.98 1.534 7.465 2.263 9.427 3.676 19.006 5.22 28.571.401 2.458.818 4.91 1.25 7.363 1.885 10.781 3.317 21.612 4.735 32.463a654.363 654.363 0 0 0 4.12 26.933c.67 3.885 1.3 7.777 1.925 11.67l.348 2.107c.926 5.785 1.606 11.594 2.277 17.413.635 5.475 1.319 10.941 2.032 16.406l.317 2.438c.427 3.279.855 6.558 1.287 9.836.755 5.743 1.482 11.488 2.177 17.238l.3 2.461c1.45 12.182 2.018 24.22 1.96 36.486-.01 2.75 0 5.5.013 8.25.006 9.178-.379 18.112-1.59 27.211-.646 4.904-.797 9.359-.37 14.28l.3 3.824a90.82 90.82 0 0 0 .91 6.34c1.951 12.886 1.183 24.901-4.75 36.558-2.397 4.851-2.397 4.851-2.273 10.215a51.633 51.633 0 0 0 3.625 6.812c2.247 3.833 2.74 7.213 1.875 11.563-3.533 10.599-3.533 10.599-6.482 13.416-4.69 4.896-4.852 12.39-4.807 18.794l.066 2.993.028 3.154c.03 3.298.08 6.595.132 9.893.048 3.312.092 6.624.123 9.936.02 2.053.049 4.107.09 6.16.09 8.635.09 8.635-2.15 12.654-1.67 1.67-3.697 1.145-5.991 1.161l-3.227.03-3.516.012-3.592.017c-2.516.01-5.03.016-7.546.02a2018 2018 0 0 0-11.542.072c-2.44.007-4.88.012-7.32.016l-3.492.038-3.265-.01-2.864.011c-3.207-.445-5.08-1.409-7.645-3.367-.578-2.603-.81-4.617-.855-7.238l-.1-2.174c-.1-2.3-.168-4.6-.233-6.9-.107-2.997-.228-5.993-.355-8.989l-.092-2.232c-.457-9.86-1.646-19.584-4.803-28.967l-.619-1.969c-.976-3.018-2.036-5.693-3.619-8.449-1.782-4.148-1.366-7.463-1.074-11.895.324-8.891-1.69-15.325-5.523-23.257-4.57-9.851-4.09-20.226-4.206-30.889l-.08-3.646-.04-3.286c-.457-3.547-1.649-6.015-3.401-9.109-1.38 1.146-1.38 1.146-1.034 4.24.034 1.451.072 2.903.112 4.354.027 1.605.053 3.21.078 4.816.043 2.519.092 5.036.166 7.554.375 13.371-1.092 25.185-6.926 37.393-2.935 7.659-2.527 15.963-2.537 24.069-.018 1.95-.037 3.9-.058 5.85-.03 3.032-.051 6.064-.051 9.097-.004 2.956-.038 5.91-.078 8.865l.021 2.744c-.086 4.445-.242 6.423-3.001 10.061-3.517 2.557-6.788 3.151-11.005 3.644l-2.523.31c-28.9 3.344-57.859 3.318-86.91 3.305-4.673-.002-9.345.003-14.018.008-11.055.011-22.11.012-33.165.006-11.28-.006-22.558.006-33.837.027-9.797.018-19.594.024-29.392.02a6730.33 6730.33 0 0 0-17.403.015c-22.009.05-43.934-.103-65.892-1.713l-2.503-.177c-23.575-1.716-23.575-1.716-27.804-6.464-1.387-2.263-1.655-3.594-1.752-6.227l-.107-2.446-.069-2.601-.103-2.707c-.233-6.672-.223-13.332-.19-20.008-.003-4.579-.135-9.148-.332-13.723l-.068-2.287c-.223-4.496-.972-7.382-3.619-11.025-5.72-9.239-4.16-21.705-4.13-32.234.005-2.328 0-4.655-.007-6.983-.003-7.652.18-15.179 1.137-22.783h-2l-.371 1.758c-.641 2.285-1.562 4.036-2.692 6.117-3.663 8.096-2.156 17.158-1.25 25.75.758 9.2-1.607 16.431-5.875 24.5-3.115 6.345-3.12 11.397-2.843 18.27.246 7.62-1.805 13.64-4.832 20.585-5.413 13.018-4.485 28.393-4.518 42.237-.01 2.381-.043 4.761-.08 7.142l.015 2.197c-.098 4.987-.098 4.987-2.24 7.132-2.823 1.6-4.625 1.698-7.861 1.716l-3.367.038-3.621-.008-3.728.015c-2.6.007-5.2.006-7.8-.003a751.36 751.36 0 0 0-8.005.02c-3.843.031-7.686.035-11.53.03l-3.627.034-3.357-.028h-2.958C102 874 102 874 100.18 872.188c-1.744-3.235-1.51-6.353-1.403-9.927l.028-2.297c.03-2.426.08-4.852.132-7.278.571-23.775.571-23.775-7.937-45.687l-1-1a72.542 72.542 0 0 1 .008-4.523l.056-2.83.061-3.022c.088-7.221-.17-13.45-2.441-20.36-2.448-8.112.01-16.404 1.892-24.402 1.529-6.617 2.136-12.396.049-18.988-3.059-10.453-3.937-20.901-3.96-31.75-.01-1.19-.018-2.382-.026-3.609-.02-3.839-.02-7.677-.014-11.516v-3.993c.021-20.093.965-39.746 3.772-59.637.655-4.664 1.215-9.338 1.771-14.015 2.387-19.866 5.407-39.58 8.805-59.296 1.073-6.257 2.03-12.53 2.964-18.809a1405.996 1405.996 0 0 1 13.436-75.165 994.356 994.356 0 0 0 1.986-10.108c5.652-29.203 12.496-58.328 20.953-86.852 1.073-3.624 1.836-6.855 2-10.625 1.241-14.037 14.102-29.323 23.75-38.875 13.538-11.11 32.579-18.27 48.997-23.898 1.917-.565 1.917-.565 2.941-1.727.133-1.685.231-3.374.312-5.063.385-4.664 1.306-7.881 3.586-11.925 1.641-2.997 2.804-6.146 4.024-9.332a86.616 86.616 0 0 1 2.406-5.422c3.149-6.678 4.143-12.247 4.358-19.51.185-5.466 1.247-9.715 3.314-14.748h2l.5-2.125c3.747-7.181 12.775-11.275 20.188-13.785 13.724-4.048 27.577-6.72 41.777-8.285l2.306-.259c18.317-2.002 36.576-2.085 54.982-1.937Z"/>
  <path fill="#DCDCD8" d="M144 347c2 3 2 3 2.938 5.375 1.002 2.71 1.002 2.71 2.75 5.25L151 360l-1 3c1.372 2.677 1.372 2.677 3 5l1-2a333.833 333.833 0 0 1 3.063 4.75l1.722 2.672c1.365 2.895 1.223 3.661.215 6.578l1 2h3l6 11 3-2c.794 1.561 1.585 3.124 2.375 4.688l1.336 2.636c1.216 2.524 2.282 5.063 3.289 7.676l7-5c2.435 16.59 2.609 33.305 3.005 50.037.098 4.072.203 8.143.307 12.214.144 5.641.284 11.282.42 16.924.184 7.585.387 15.17.616 22.755 2.021 68.675.08 137.404-1.348 206.07l-3 1c-.733 2.015-.733 2.015-1 4h2v3h-2l-.371 1.758c-.641 2.285-1.562 4.036-2.691 6.117-3.664 8.096-2.157 17.158-1.25 25.75.757 9.2-1.608 16.431-5.875 24.5-3.116 6.345-3.121 11.397-2.844 18.27.246 7.62-1.805 13.64-4.832 20.585-5.413 13.018-4.485 28.393-4.518 42.237-.01 2.381-.043 4.761-.08 7.142l.015 2.197c-.098 4.987-.098 4.987-2.24 7.132-2.823 1.6-4.625 1.698-7.861 1.716l-3.367.038-3.621-.008-3.728.015c-2.6.007-5.2.006-7.8-.003a751.36 751.36 0 0 0-8.005.02c-3.843.031-7.686.035-11.53.03l-3.627.034-3.357-.028h-2.958C102 874 102 874 100.18 872.188c-1.744-3.235-1.51-6.353-1.403-9.927l.028-2.297c.03-2.426.08-4.852.132-7.278.571-23.775.571-23.775-7.937-45.687l-1-1a72.542 72.542 0 0 1 .008-4.523l.056-2.83.061-3.022c.088-7.221-.17-13.45-2.441-20.36-2.448-8.112.01-16.404 1.892-24.402 1.529-6.617 2.136-12.396.049-18.988-3.059-10.453-3.937-20.901-3.96-31.75-.01-1.19-.018-2.382-.026-3.609-.02-3.839-.02-7.677-.014-11.516v-3.993c.021-20.093.965-39.746 3.772-59.637.655-4.664 1.215-9.338 1.771-14.015 2.387-19.866 5.407-39.58 8.805-59.296 1.073-6.257 2.03-12.53 2.965-18.809a1405.996 1405.996 0 0 1 13.435-75.165 994.356 994.356 0 0 0 1.986-10.108c5.145-26.582 11.587-52.84 18.641-78.977l.554-2.113c1.274-4.722 1.274-4.722 2.946-6.325 2.536-2.64 2.749-6.038 3.5-9.562Z"/>
  <path fill="#E2E1DD" d="M523 780c1.877 3.143 2.158 4.998 1.634 8.598-.66 5.302-.769 10.49-.775 15.828-.018 1.95-.037 3.9-.058 5.85-.03 3.032-.051 6.064-.051 9.097-.004 2.956-.038 5.91-.078 8.865l.021 2.744c-.086 4.445-.242 6.423-3.001 10.061-3.517 2.557-6.788 3.151-11.005 3.644l-2.526.31c-29.35 3.39-58.724 3.279-88.224 3.206-5.997-.013-11.993-.014-17.99-.016-11.3-.006-22.6-.023-33.9-.043-12.888-.022-25.776-.033-38.664-.043-26.46-.021-52.922-.056-79.383-.101l-1-3 4-1-1-41-1 7h-1l-1-9-2 1v5l2-3c.858 12.684 1.12 25.288 1 38h-2l-1-3-1.25 1.563L243 842c-2.137-.251-3.46-.46-5-2-2.34.287-4.674.62-7 1l.84-3.29 1.097-4.335.553-2.16c1.023-4.055 1.89-8.074 2.51-12.215h1v-23l-2.063 2.813c-2.927 3.519-5.586 4.817-9.937 6.187l-3-1-1-5 2.875-.75c3.212-.936 3.212-.936 4.5-3.375L229 793l-2-1v2h-2l1-6h3v-3c-.6.01-1.199.02-1.817.032-2.748.042-5.497.067-8.245.093-.943.017-1.886.034-2.858.05-5.445.039-9.935-.362-15.08-2.175l2-2 3 1c1.335.08 2.674.108 4.012.098l2.295-.01 2.38-.025 2.417-.014c1.965-.012 3.93-.03 5.896-.049v2c24.72-.109 49.44-.222 74.16-.34 11.488-.054 22.975-.107 34.462-.157 64.296-.273 64.296-.273 128.589-.887 2.17-.026 4.342-.048 6.513-.07 16.375-.167 32.594-.793 48.899-2.372 2.467-.18 4.904-.203 7.377-.174Zm-282 6c-1.573 2.842-1.573 2.842-2 6l3-1v-5h-1Zm9 28h1c.226 3.582.428 7.166.625 10.75l.195 3.078.157 2.969.158 2.73C252 836 252 836 250 840v-26Z"/>
  <path fill="#DFDEDA" d="M326 190v1l32 1v2l3 1v14h14v1h-14l.007 6.034c.02 18.746.035 37.493.045 56.24.005 9.638.012 19.276.023 28.914.01 8.4.017 16.801.02 25.202 0 4.448.003 8.896.01 13.344.008 4.188.01 8.375.008 12.563 0 1.536.002 3.072.006 4.608.005 2.1.004 4.2.001 6.3l.003 3.558c-.12 3.162-.53 6.132-1.123 9.237 8.59-1.152 16.47-3.215 24.625-6.125 1.133-.4 2.266-.8 3.433-1.21C403.74 363.045 418.4 355.983 433 348l1 2-2.152 1.242-2.786 1.633-2.777 1.617c-2.392 1.305-2.392 1.305-3.285 3.508h-3l-2 3h-2v3c-3.303.89-6.623 1.463-10 2l-1 3-5 1v5h-2l-1-3c-1.46.45-2.918.91-4.375 1.375l-2.46.773c-2.33.75-2.33.75-4.165 2.852-1.623.473-3.248.94-4.883 1.371-2.402.714-4.673 1.617-6.992 2.567-4.645 1.897-9.326 3.596-14.125 5.062l-1.992.64c-3.546.635-6.587-.67-10.008-1.64v-4l9-2c-5.612-2.068-11.963-4-18-4v-2l-1.66-.445C326.51 369.49 315.944 365.276 306 360l-1 2 3 1c.688 2.063.688 2.063 1 4l-3-1v-2l-2.813-.438C300 363 300 363 297 362v-2l-5-1v-3h-5v-2h-2l-.75-3.25c-1.249-3.746-2.275-5.27-5.25-7.75 3.321 1.258 6.333 2.68 9.379 4.504C310.745 360.705 332.754 369.689 358 376l1-166c-24.64.95-24.64.95-49 4l2.212-.108c3.367-.16 6.734-.307 10.1-.454l3.479-.17c7.17-.305 14.083-.135 21.209.732v1l-3.1.272c-18.93 1.682-37.774 3.6-56.525 6.728l-2.213.362c-13.818 2.278-27.219 5.744-40.224 11.013-1.002.4-2.004.8-3.036 1.21-3.026 1.475-5.36 3.223-7.902 5.415l-.184-2.773-.254-3.602c-.08-1.183-.162-2.367-.246-3.586-.127-2.954-.127-2.954-1.316-5.039.559-2.164.559-2.164 1.438-4.625l.87-2.477L235 216h2l.5-2.125c3.747-7.181 12.775-11.275 20.188-13.785a248.355 248.355 0 0 1 9.562-2.59l3.61-.91c17.738-4.204 36.906-6.827 55.14-6.59Z"/>
  <path fill="#EEEEEB" d="m332.471 189.741 2.017-.01c2.217-.01 4.433-.003 6.649.003l4.669-.005c3.28-.003 6.562 0 9.843.01 4.135.011 8.27.005 12.405-.007 24.58-.058 48.688.968 72.946 5.268l2.355.413c15.914 2.89 32.524 7.397 42.332 21.185 2.917 4.773 2.898 8.936 2.625 14.402l-.068 2.637A356.438 356.438 0 0 1 488 240c-3.324 0-3.935-.405-6.5-2.313l-1.781-1.3C478 235 478 235 476.406 233.395c-1.375-1.51-1.375-1.51-3.406-2.395l-1 2-1-3c-3.287-.8-4.71-1.097-8 0v-2l-3.813.187c-2.144.106-2.144.106-4.187-.187l-1.336-1.445c-2.08-1.944-3.549-2.209-6.332-2.723l-2.705-.518c-.929-.165-1.858-.33-2.815-.502l-2.85-.537A802.7 802.7 0 0 0 432 221l-1 2-1.68-1.496c-2.785-1.805-4.176-1.767-7.445-1.567-2.633.153-2.633.153-4.875.063l-2-2c-2.433-.462-2.433-.462-5.125-.625l-2.758-.227L405 217v2l-2-1.063c-4.037-1.26-6.83-.552-11 .063l-2-1v-1l-13-1 1 2-3-1v-2l-2.555.254-3.32.308-3.305.317C363 215 363 215 361 214l-1-19-2-1v-2h-34c2.802-2.802 4.545-2.254 8.471-2.259Z"/>
  <path fill="#9D9992" d="M169 396c3.121 3.733 5.745 7.652 8.25 11.813l1.102 1.81A1753.33 1753.33 0 0 1 181 414l-.875-3.688c-.492-2.074-.492-2.074-.125-4.312 1.88-1.83 3.941-3.368 6-5 2.435 16.59 2.609 33.305 3.005 50.037.098 4.072.203 8.143.307 12.214.144 5.641.284 11.282.42 16.924.184 7.585.387 15.17.616 22.755 2.021 68.675.08 137.404-1.348 206.07l-3 1c-.733 2.015-.733 2.015-1 4h2v3h-2l-.375 1.875C184 721 184 721 182 723l-3 1c-1.06-3.18-1.13-5.465-1.133-8.805l-.004-3.457.012-3.613-.012-3.59.004-3.465.004-3.163c.129-2.907.129-2.907.7-5.599.65-2.455.65-2.455-.571-5.308a67.732 67.732 0 0 1-.063-4.309l.024-2.513.078-5.219.024-2.518.035-2.29c-.1-2.185-.531-4.045-1.098-6.151-.42-5.593-.672-10.941 1.5-16.188 2.668-6.796 1.905-14.64 1.5-21.812l-1-2c-.238-2.63-.425-5.24-.563-7.875l-.124-2.31c-.887-17.476-.887-17.476.69-21.155 1.05-2.8 1.229-4.768 1.192-7.742l-.02-2.822-.05-2.909-.027-2.966A974.057 974.057 0 0 0 180 569h-1c-.37-3.79-.718-7.582-1.063-11.375l-.314-3.215c-.59-6.628-.574-12.82.377-19.41l3 2-1 2h3l-.563 2.875c-.724 3.024-.724 3.024.563 5.125.297 2.707.544 5.4.754 8.113l.197 2.444c.138 1.71.273 3.418.406 5.127a10562.27 10562.27 0 0 1 1.022 12.804l.19 2.356c.288 3.728.498 7.416.431 11.156v3c2.446-3.753 2.27-7.478 2.227-11.798v-2.366c0-2.576-.016-5.151-.032-7.727l-.008-5.363c-.008-4.702-.028-9.404-.05-14.106-.02-4.799-.03-9.598-.04-14.398-.02-9.414-.055-18.828-.097-28.242l-3 5c-2.344-3.516-3.36-6.102-2.563-10.313L183 501h-2l.563-3.375c.754-3.45.754-3.45-.563-5.625-.07-1.874-.084-3.75-.063-5.625l.028-3.04L181 481h2l-.992-1.699c-1.142-2.606-1.212-4.288-1.133-7.117l.051-2.802.074-2.945c.12-8.84-.183-16.985-3-25.437-.304-2.8-.507-5.599-.719-8.406-.2-2.705-.2-2.705-1.281-5.594a428.447 428.447 0 0 1-.596-5.802c-.657-6.863-1.54-12.905-4.502-19.218-.901-1.978-1.44-3.86-1.902-5.98Z"/>
  <path fill="#D1D0CB" d="M523 780c-10.344 6.058-26.673 4.391-38.313 4.563-2.016.035-4.033.07-6.05.107-5.874.101-11.747.187-17.621.271-4.237.061-8.473.129-12.71.196-32.836.516-65.672.904-98.513.89h-3.19c-10.32-.006-20.64-.021-30.959-.055-20.908-.066-41.756.007-62.644 1.028-.006 2.033-.01 4.067-.014 6.1l-.007 3.432c.033 5.433.279 10.853.521 16.28.408 9.74.633 19.441.5 29.188-2.979-2.979-2.356-6.29-2.414-10.29l-.059-2.48c-.06-2.618-.106-5.236-.152-7.855a4720.49 4720.49 0 0 0-.117-5.32c-.096-4.352-.18-8.703-.258-13.055l-1 7h-1l-1-9-2 1v5l2-3c.858 12.684 1.12 25.288 1 38h-2l-1-3-1.25 1.563L243 842c-2.137-.251-3.46-.46-5-2-2.34.287-4.674.62-7 1l.84-3.29 1.097-4.335.553-2.16c1.023-4.055 1.89-8.074 2.51-12.215h1v-23l-2.063 2.813c-2.927 3.519-5.586 4.817-9.937 6.187l-3-1-1-5 2.875-.75c3.212-.936 3.212-.936 4.5-3.375L229 793l-2-1v2h-2l1-6h3v-3c-.6.01-1.199.02-1.817.032-2.748.042-5.497.067-8.245.093-.943.017-1.886.034-2.858.05-5.445.039-9.935-.362-15.08-2.175l2-2 3 1c1.335.08 2.674.108 4.012.098l2.295-.01 2.38-.025 2.417-.014c1.965-.012 3.93-.03 5.896-.049v2c24.72-.109 49.44-.222 74.16-.34 11.488-.054 22.975-.107 34.462-.157 64.296-.273 64.296-.273 128.589-.887 2.17-.026 4.342-.048 6.513-.07 16.375-.167 32.594-.793 48.899-2.372 2.467-.18 4.904-.203 7.377-.174Zm-282 6c-1.573 2.842-1.573 2.842-2 6l3-1v-5h-1Zm9 28h1c.226 3.582.428 7.166.625 10.75l.195 3.078.157 2.969.158 2.73C252 836 252 836 250 840v-26Z"/>
  <path fill="#D7D6D1" d="M290 785c-2.332 1.206-4.496 2.165-7 3l-1 10h-2v43h-1l-1-40-1 33h-1l-1 8h-1l-1-8-1 7h-1l-1-29-1 25h-1l-1 5h-1c-1.2-7.088-1.328-14.17-1.518-21.346-.05-1.432-.05-1.432-.103-2.892l-.076-2.627c-.115-2.348-.115-2.348-2.303-4.135l-1 25h-1l-1 5h-1l-1-11-1 9h-1l-.076-2.18c-.596-18.432-.596-18.432-1.924-36.82h-1a535.423 535.423 0 0 1-.063-4.25l-.035-2.39c.094-2.267.466-4.189 1.098-6.36l-2-1c4.108-.144 8.215-.287 12.323-.427l4.18-.146c7.501-.264 14.99-.494 22.497-.427Zm-27 31h1c.198 3.229.381 6.458.563 9.688l.17 2.763.146 2.686.143 2.46c-.024 2.582-.442 4.891-1.022 7.403h-1v-25Z"/>
  <path fill="#B8B6AF" d="m178 535 3 2-1 2h3l-.563 2.875c-.724 3.024-.724 3.024.563 5.125.297 2.707.544 5.4.754 8.113l.197 2.444c.138 1.71.273 3.418.406 5.127a10562.27 10562.27 0 0 1 1.022 12.804l.19 2.356c.818 10.575.818 10.575-1.569 14.156-.282 3.06-.282 3.06-.188 6.5l.02 3.469c.083 3.081.377 6.11.703 9.176.608 6.38.384 12.649.09 19.043l-.146 3.58c-.326 7.71-.767 15.404-1.393 23.095-.088 3.21.365 5.98.914 9.137a169.2 169.2 0 0 1 .125 7.563l-.008 2.264c-.061 7.831-.303 15.658-.554 23.486l-.12 3.847-.127 3.64-.11 3.256c-.191 2.732-.6 5.276-1.206 7.944h2l-1 5-4 1c-1.06-3.18-1.13-5.465-1.133-8.805l-.004-3.457.012-3.613-.012-3.59.004-3.465.004-3.163c.129-2.907.129-2.907.7-5.599.65-2.455.65-2.455-.571-5.308a67.732 67.732 0 0 1-.063-4.309l.024-2.513.078-5.219.024-2.518.035-2.29c-.1-2.185-.531-4.045-1.098-6.151-.42-5.593-.672-10.941 1.5-16.188 2.668-6.796 1.905-14.64 1.5-21.812l-1-2c-.238-2.63-.425-5.24-.563-7.875l-.124-2.31c-.887-17.476-.887-17.476.69-21.155 1.05-2.8 1.229-4.768 1.192-7.742l-.02-2.822-.05-2.909-.027-2.966A974.057 974.057 0 0 0 180 569h-1c-.37-3.79-.718-7.582-1.063-11.375l-.314-3.215c-.59-6.628-.574-12.82.377-19.41Z"/>
  <path fill="#9C9890" d="M189 550h1c.024 13.644.041 27.287.052 40.93.005 6.342.012 12.683.023 19.025.06 33.029-.213 66.026-1.075 99.045l-3 1c-.733 2.015-.733 2.015-1 4h2v3h-2l-1 3v-2h-2l.092-2.835c1.905-26.216 1.905-26.216.377-52.204-.529-3.338-.37-6.218-.094-9.586.578-7.91.94-15.825 1.25-23.75l.158-3.6c.227-6.025.175-11.809-.543-17.796-.356-3.302-.335-6.533-.303-9.854l.028-3.664L183 592h3c2.621-3.918 2.35-8.164 2.414-12.703l.059-2.539c.06-2.67.106-5.338.152-8.008.038-1.813.077-3.625.117-5.438.096-4.437.18-8.874.258-13.312Z"/>
  <path fill="#B7B6B0" d="M279 343c3.321 1.258 6.333 2.68 9.379 4.504C305.516 357.619 323.01 365.98 342 372l3.195 1.031c13.508 3.89 25.164 2.336 38.118-2.531 1.272-.461 2.545-.922 3.819-1.38C403.106 363.3 418.099 356.148 433 348l1 2-2.152 1.242-2.786 1.633-2.777 1.617c-2.392 1.305-2.392 1.305-3.285 3.508h-3l-2 3h-2v3c-3.303.89-6.623 1.463-10 2l-1 3-5 1v5h-2l-1-3c-1.46.45-2.918.91-4.375 1.375l-2.46.773c-2.33.75-2.33.75-4.165 2.852-1.623.473-3.248.94-4.883 1.371-2.402.714-4.673 1.617-6.992 2.567-4.645 1.897-9.326 3.596-14.125 5.062l-1.992.64c-3.546.635-6.587-.67-10.008-1.64v-4l9-2c-5.612-2.068-11.963-4-18-4v-2l-1.66-.445C326.51 369.49 315.944 365.276 306 360l-1 2 3 1c.688 2.063.688 2.063 1 4l-3-1v-2l-2.813-.438C300 363 300 363 297 362v-2l-5-1v-3h-5v-2h-2l-.75-3.25c-1.249-3.746-2.275-5.27-5.25-7.75Z"/>
  <path fill="#B8B7B2" d="M523 780c-10.344 6.058-26.673 4.391-38.313 4.563-2.016.035-4.033.07-6.05.107-5.874.101-11.747.187-17.621.271-4.237.061-8.473.129-12.71.196-32.696.514-65.39.904-98.091.89h-3.145c-10.147-.006-20.295-.02-30.442-.055-25.227-.081-50.412.248-75.628 1.028l-1.137 2.484-1.55 3.266c-.5 1.067-.998 2.135-1.512 3.234-2.815 4.714-6.528 7.49-11.801 9.016l-3-1-1-5 2.875-.75c3.212-.936 3.212-.936 4.5-3.375L229 793l-2-1v2h-2l1-6h3v-3c-.6.01-1.199.02-1.817.032-2.748.042-5.497.067-8.245.093-.943.017-1.886.034-2.858.05-5.445.039-9.935-.362-15.08-2.175l2-2 3 1c1.335.08 2.674.108 4.012.098l2.295-.01 2.38-.025 2.417-.014c1.965-.012 3.93-.03 5.896-.049v2c24.72-.109 49.44-.222 74.16-.34 11.488-.054 22.975-.107 34.462-.157 64.296-.273 64.296-.273 128.589-.887 2.17-.026 4.342-.048 6.513-.07 16.375-.167 32.594-.793 48.899-2.372 2.467-.18 4.904-.203 7.377-.174Z"/>
  <path fill="#BEBBB5" d="M176 733c3 2 3 2 3.572 4.056l.264 2.53.293 2.803.246 2.986.254 3.039c.71 10.342-1.04 17.554-5.816 26.711-3.114 6.342-3.122 11.391-2.844 18.26.265 8.21-1.371 16.297-6.969 22.615h-2l-1-5c-.89.48-1.779.962-2.695 1.457-5.505 2.35-11.281 2.116-17.18 2.23l-3.615.102c-9.17.238-18.338.327-27.51.211v-2c3.542-1.18 6.7-1.088 10.379-1.027l4.482.037c2.341.024 4.682.052 7.023.086 14.67.974 14.67.974 27.616-4.221L162 806h2c.25-2.416.25-2.416 0-5l-3-2 1-1 .375-3.188c.627-3.823 1.742-6.456 3.625-9.812l-4 4-2-1 2-3h2l1-7h2l-.063-2.875C167 772 167 772 168 770h2l.25-2.25c.896-3.285 2.263-4.496 4.75-6.75 1.478-2.957 1.06-5.742 1-9l-3 2 .438-1.617c1.3-5.218 1.728-9.943 1.535-15.317C175 735 175 735 176 733Z"/>
  <path fill="#EBEAE6" d="M527 772h1c.412 3.603.154 4.784-2 7.813L524 782l-1-1c-1.86.047-3.718.168-5.573.318l-3.605.274c-1.304.1-2.608.202-3.95.306-15.227 1.111-30.423 1.537-45.689 1.703a3388.4 3388.4 0 0 0-6.485.08c-46.228.604-92.467.41-138.698.319v-1c7.121-1.878 13.606-2.252 20.95-2.16l3.485.017c2.468.012 4.937.029 7.405.05 6.536.052 13.073.071 19.61.09l3.989.011c12.192.022 24.373-.197 36.561-.508l11.258-.281 2.627-.065a656.632 656.632 0 0 1 19.99-.154c11.67.072 23.334-.142 35.002-.372 2.19-.043 4.381-.085 6.572-.125 3.094-.058 6.188-.121 9.281-.187l2.822-.05c4.9-.112 9.598-.496 14.448-1.266 2.145-.063 4.292-.087 6.438-.063l3.183.028L525 778l2-6Z"/>
  <path fill="#9D9B94" d="M528 545c1.062 3.51 1.185 6.832 1.281 10.488l.114 3.83.105 3.995c.07 2.6.142 5.2.219 7.8l.092 3.494c.196 3.51.643 6.921 1.189 10.393h2c2.477 4.461 3.375 8.901 3 14a317.62 317.62 0 0 1-5 6c-.79 5.132-.037 9.961 1 15l-.46 1.707c-1.755 7.46-1.265 16.14 1.46 23.293h1l-.125 3.438c-.017 4.706.949 9.025 2.125 13.562h1v13l-2-4h-2v2h-2v8l-2 1c-.79-10.337-1.193-20.634-1.316-31l-.064-4.534c-.055-4-.105-7.999-.153-11.999l-.093-7.434c-.263-20.698-.474-41.396-.499-62.096l-.008-3c-.006-2.72-.004-5.44 0-8.16l-.006-2.387c.023-5.274.023-5.274 1.139-6.39Z"/>
  <path fill="#DEDDD9" d="m311 779 2 1c1.923-.136 1.923-.136 4-.5 3.778-.611 3.778-.611 6 .5 2.113-.235 4.226-.474 6.335-.736 4.82-.478 9.643-.386 14.481-.362l3.325.005c3.474.005 6.948.018 10.421.03 2.368.006 4.736.01 7.104.014 5.778.011 11.556.028 17.334.049l1 2c-15.354.658-30.657 1.163-46.027.875l-3.172-.035-2.745-.051c-2.589.179-4.679.58-7.173 1.21-4.749 1.075-9.221 1.272-14.075 1.228h-2.634c-2.84 0-5.681-.016-8.522-.032l-5.947-.008c-5.194-.008-10.387-.027-15.58-.05-5.31-.02-10.618-.03-15.928-.04-10.399-.02-20.798-.055-31.197-.097v-2c4.082-.365 8.166-.715 12.25-1.063l3.512-.314 3.379-.283 3.11-.27c2.749-.07 2.749-.07 4.865.471 1.875.613 1.875.613 3.705-.006 2.395-.588 4.467-.648 6.932-.633l2.84.01 3.044.025 3.137.012c3.304.012 6.609.03 9.913.051 4.359.026 8.717.047 13.075.063l3.061.025 2.812.01 2.487.016c1.892.093 1.892.093 2.878-1.114Z"/>
  <path fill="#CECBC6" d="M234 802h2c.721 11.163-1.445 21.196-4 32h-2l-1 3-5 1v-6h-2v-4h-2c-1.286-8.429-1.286-8.429 0-13h-2l2-7 2.75.688c3.234.648 3.234.648 5.5-1.125L230 806h2l2-4Z"/>
  <path fill="#AFADA4" d="m529 683 2 1c.774 4.027 1.124 7.904 1 12l4 2v3c.314 2.336.65 4.67 1 7l1 7h2c.572 3.506 1.01 6.755.875 10.313.112 3.303.563 5.41 1.563 8.5 2.41 7.541 2.86 14.406 1.746 22.218-.293 2.122-.293 2.122.379 4.782.547 2.736-.106 3.872-1.563 6.187l-2.148-5.078c-.808-1.928-.808-1.928-1.886-3.648-1.254-2.953-1.24-5.374-1.275-8.579l-.076-3.707c-.035-2.567-.066-5.135-.094-7.703l-.08-3.715-.04-3.382c-.452-3.591-1.622-6.06-3.401-9.188h-2c-.125-7.75-.125-7.75 1-10l-1-3-2-1-1-25Z"/>
  <path fill="#9C9A93" d="M279 343c3.321 1.258 6.333 2.68 9.379 4.504C305.516 357.619 323.01 365.98 342 372l3.195 1.031c11.36 3.272 22.339 3.256 33.317-1.254 2.68-.837 3.895-.742 6.488.223-5.207 3.336-9.55 5.54-15.773 5.871-2.209.076-2.209.076-4.266.54-6.6 1.272-12.324-.61-18.606-2.5-3.419-1.086-3.419-1.086-7.355-.911v-2l-1.66-.445C326.51 369.49 315.944 365.276 306 360l-1 2 3 1c.688 2.063.688 2.063 1 4l-3-1v-2l-2.813-.438C300 363 300 363 297 362v-2l-5-1v-3h-5v-2h-2l-.75-3.25c-1.249-3.746-2.275-5.27-5.25-7.75Z"/>
  <path fill="#D3D2CD" d="M347 214v1l-3.1.272c-18.93 1.682-37.774 3.6-56.525 6.728l-2.213.362c-13.818 2.278-27.219 5.744-40.224 11.013-1.002.4-2.004.8-3.036 1.21-3.026 1.475-5.36 3.223-7.902 5.415v-9l1 4c2.843-1.158 4.314-2.322 6.5-4.563 2.45-2.389 3.298-2.865 6.5-3.437l1-2a168.693 168.693 0 0 1 6-2l1-1c2.333-.04 4.667-.042 7 0v-2l5-1-1 2c13.094-.902 26.069-2.193 39.063-4.063 13.706-1.963 27.07-3.17 40.937-2.937Z"/>
  <path fill="#C7C6C1" d="M180 590h1l-.035 2.36c-.057 7.075.131 14.078.535 21.14.41 7.48.638 14.947.688 22.438l.039 2.816c.006 4.698-.433 7.884-2.227 12.246-.246 2.942-.19 5.863-.125 8.813l.027 2.388c.024 1.933.06 3.866.098 5.799h2c.146 10.014-.067 20.015-.373 30.024-.043 1.395-.084 2.79-.124 4.184a1790.58 1790.58 0 0 1-.187 5.987l-.11 3.532c-.198 3.153-.627 6.17-1.206 9.273h-2c-.03-4.23-.047-8.458-.063-12.688l-.025-3.63-.01-3.506-.016-3.222c.114-2.954.114-2.954.683-5.652.652-2.45.652-2.45-.569-5.302a67.732 67.732 0 0 1-.063-4.309l.024-2.513.078-5.219.024-2.518.035-2.29c-.1-2.185-.531-4.045-1.098-6.151-.42-5.593-.672-10.941 1.5-16.188 2.668-6.796 1.905-14.64 1.5-21.812l-1-2c-.238-2.63-.425-5.24-.563-7.875l-.124-2.31c-.918-18.09-.918-18.09 1.687-23.815Z"/>
  <path fill="#CDCCC8" d="M359 214h2c.023 20.236.041 40.472.052 60.709.005 9.396.012 18.792.023 28.188.01 8.19.017 16.38.02 24.57 0 4.336.003 8.672.01 13.008.008 4.083.01 8.165.008 12.248 0 1.497.002 2.994.006 4.491.005 2.048.004 4.095.001 6.142l.003 3.47c-.122 3.138-.536 6.091-1.123 9.174h-2l1-162Z"/>
  <path fill="#88857C" d="M188 642h1v67l-3 1c-.733 2.015-.733 2.015-1 4h2v3h-2c-.828-3.976-1.214-6.282-.04-10.223 1.653-6.191 1.337-12.625 1.3-18.985-.01-2.22 0-4.44.013-6.661.007-7.311-.384-14.026-2.273-21.131-.503-5.062-.365-9.401 2-14l1.125-2.313L188 642Z"/>
  <path fill="#CDCAC5" d="M229 785h13c-3.477 8.196-6.335 14.32-14 19.215-2.424.951-3.59.651-6-.215l-1-5 2.875-.75c3.212-.936 3.212-.936 4.5-3.375L229 793l-2-1v2h-2l1-6h3v-3Z"/>
  <path fill="#A7A49C" d="M176 733c3 2 3 2 3.572 4.056.29 2.773.573 5.54.803 8.319l.26 3.019c.579 8.171.476 15.713-4.06 22.848C175 773 175 773 172 774c-1.035 3.023-1.035 3.023-1.688 6.563-.25 1.197-.502 2.395-.761 3.628L169 787h-1c-.131-5.067.304-9.709 1.25-14.688l.703-3.886c1.112-3.64 2.205-5 5.047-7.426 1.478-2.957 1.06-5.742 1-9l-3 2 .438-1.617c1.3-5.218 1.728-9.943 1.535-15.317C175 735 175 735 176 733Z"/>
  <path fill="#BDBCB6" d="M171 402c5.533 5.785 5.277 14.871 5.754 22.398.158 2.714.158 2.714 1.246 5.602.267 2.702.443 5.404.621 8.113.287 2.934.287 2.934 1.375 5.782 1.15 3.554 1.418 6.755 1.629 10.48l.227 3.773L182 461l-3 1-2-12h-1l-.168-1.697a3601.04 3601.04 0 0 0-.77-7.615l-.263-2.67-.264-2.569-.238-2.364c-.26-2.274-.26-2.274-1.297-5.085a287.42 287.42 0 0 1-1.063-8.125l-.27-2.308c-.585-5.223-.858-10.308-.667-15.567Z"/>
  <path fill="#C9C8C4" d="m433 348 1 2-2.152 1.242-2.786 1.633-2.777 1.617c-2.392 1.305-2.392 1.305-3.285 3.508h-3l-2 3h-2v3c-3.303.89-6.623 1.463-10 2l-1 3-5 1v5h-2l-1-3c-1.46.45-2.918.91-4.375 1.375l-2.46.773c-2.33.75-2.33.75-4.165 2.852-2.625.625-2.625.625-5 1v-3c2.29-1.004 4.582-2.004 6.875-3l1.973-.867C394.773 369 394.773 369 397 369v-2l3.36-1.39 4.39-1.86c.73-.3 1.46-.6 2.21-.91 4.221-1.803 6.802-3.552 10.04-6.84 2.67-1.583 5.45-2.914 8.25-4.25l2.258-1.102c1.827-.89 3.659-1.77 5.492-2.648Z"/>
  <path fill="#8E8B84" d="M189 550h1v111h-1l-1-16c-1.952 1.952-2.848 3.532-4 6 .754-6.536.754-6.536 2.014-8.914 1.194-2.526 1.294-4.428 1.38-7.216l.109-3.133.087-3.413.111-3.594c.419-14.26.631-28.524.831-42.788.052-3.622.107-7.244.161-10.866.106-7.025.208-14.05.307-21.076Z"/>
  <path fill="#CFCECA" d="M169 802c1.371 3.69.6 5.709-.938 9.25l-1.152 2.703L166 816h-3l-1-5c-.89.48-1.779.962-2.695 1.457-5.505 2.35-11.281 2.116-17.18 2.23l-3.615.102c-9.17.238-18.338.327-27.51.211v-2c3.542-1.18 6.7-1.088 10.379-1.027l4.482.037c2.341.024 4.682.052 7.023.086 14.67.974 14.67.974 27.616-4.221L162 806h2v-2h4l1-2Z"/>
  <path fill="#BDBAB3" d="m178 535 3 2-1 2h3l-.492 1.992c-.629 3.723-.654 7.371-.633 11.133l-.012 2.168c.006 3.168.128 5.68 1.137 8.707.233 4.184.185 8.373.188 12.563l.037 3.521.005 3.357.013 3.085C183 588 183 588 181 590l-1-21h-1c-.37-3.79-.718-7.582-1.063-11.375l-.314-3.215c-.59-6.628-.574-12.82.377-19.41Z"/>
  <path fill="#908E87" d="M301 356c4.768 1.438 9.211 3.39 13.743 5.428 29.527 13.524 29.527 13.524 60.945 11.51l2.824-1.16c2.68-.838 3.895-.743 6.488.222-5.207 3.336-9.55 5.54-15.773 5.871-2.209.076-2.209.076-4.266.54-6.6 1.272-12.324-.61-18.606-2.5-3.419-1.086-3.419-1.086-7.355-.911v-2l-1.66-.445c-12.077-3.417-24.51-8.158-35.34-14.555l-1-2Z"/>
  <path fill="#ECEBE7" d="M359 210v32h-1c-1.093-9.822-.818-19.193 0-29l-1.668.219c-6.38.712-12.672.829-19.082.781-11.438-.084-22.83.41-34.25 1 3.691-2.301 7.47-2.525 11.703-2.852l2.29-.193a976.84 976.84 0 0 1 4.81-.388 979.43 979.43 0 0 0 7.19-.598c1.57-.129 3.14-.256 4.71-.383l2.098-.18c7.776-.59 15.322-.406 23.199-.406Z"/>
  <path fill="#DDDCD7" d="M245 794h1l1 7 2-1c.656-2.527.656-2.527 1-5h1c.747 5.312 1.12 10.404 1.098 15.781l-.005 2.118c-.005 2.2-.018 4.4-.03 6.601A4131.31 4131.31 0 0 1 252 835h-1l-1 6h-1l-1-19-1 13h-1c-.17-4.396-.336-8.792-.5-13.188l-.145-3.716A541.17 541.17 0 0 1 245 794Z"/>
  <path fill="#BFBCB7" d="M189 706h1c2.383 21.234 2.383 21.234 0 26a76.364 76.364 0 0 0-.316 4.352l-.127 2.578-.12 2.695-.13 2.719c-.107 2.218-.209 4.437-.307 6.656-2.625-5.075-3.16-9.216-3.125-14.875l.006-2.277c.05-6.65.474-13.228 1.119-19.848h-2c.375-1.938.375-1.938 1-4l2-1 1-3Z"/>
  <path fill="#959087" d="M185 667c2.432 2.432 2.245 3.733 2.278 7.053l-.012 2.08.005 2.153c.002 1.508-.002 3.016-.01 4.525-.01 2.284 0 4.568.012 6.853 0 1.469-.003 2.938-.007 4.406l.012 2.044c-.048 4.951-.998 9.143-2.278 13.886-.237 2.894-.237 2.894-.125 5.5l.055 2.594L185 720l-1-2h-2l1-34h2v-17Z"/>
  <path fill="#AEACA5" d="M174 407c5.69 5.69 4.685 15.534 5.123 23.059.38 5.477 1.061 9.933 3.202 14.979 1.304 3.791 1.256 7.736 1.363 11.712l.1 2.644c.234 6.534.332 13.068.212 19.606l-3-2c-.309-2.072-.309-2.072-.223-4.621l.061-2.821.1-2.995c.16-8.9-.101-17.053-2.938-25.563-.304-2.8-.507-5.599-.719-8.406-.2-2.705-.2-2.705-1.281-5.594a116.261 116.261 0 0 1-.535-4.668l-.264-2.705-.263-2.815-.276-2.85A2645.5 2645.5 0 0 1 174 407Z"/>
  <path fill="#CBC9C4" d="M237 798h1c.801 7.891 1.266 15.762 1.563 23.688l.13 3.318c.105 2.664.207 5.33.307 7.994l2-1v10c-3-1-3-1-4-2-2.34.287-4.674.62-7 1l.84-3.29 1.097-4.335.553-2.16c1.023-4.055 1.89-8.074 2.51-12.215h1v-21Z"/>
  <path fill="#BDB9B2" d="M539 733h1l1 12 1-8c3.274 3.274 2.866 7.52 3 12-.19 2.363-.482 4.685-.816 7.031-.293 2.122-.293 2.122.379 4.782.547 2.736-.106 3.872-1.563 6.187l-2.148-5.078c-.82-1.947-.82-1.947-1.942-3.774-3.047-7.193-.871-17.544.09-25.148Z"/>
  <path fill="#FAFAFA" d="m328.632 189.76 3.378.013h3.822l4.145.032 4.228.008c3.713.008 7.425.028 11.137.05 3.787.02 7.574.03 11.361.04 7.432.02 14.865.055 22.297.097l-1 2c-.838-.01-1.675-.02-2.539-.032-3.104-.034-6.21-.059-9.314-.078-2.006-.015-4.012-.04-6.018-.066l-3.809-.02-3.523-.031c-2.936-.066-2.936-.066-4.797 2.227v-2h-34c2-2 2-2 4.632-2.24Z"/>
  <path fill="#ABA7A0" d="M181 545c2.922 2.922 2.574 6.175 2.852 10.113l.193 2.444c.202 2.585.39 5.17.58 7.755l.406 5.194c1.381 17.876 1.381 17.876-1.031 21.494-.645 8.313.055 16.732 1 25h-2c-.9-3.074-1.117-5.799-1.098-8.996l.01-3.004.025-3.223.012-3.324c.012-3.505.03-7.01.051-10.515.027-4.616.047-9.232.063-13.848l.025-3.23.01-2.993.016-2.635c-.023-2.405-.023-2.405-1.114-5.232-.07-2.573-.094-5.116-.063-7.688l.014-2.126c.012-1.729.03-3.458.049-5.186Z"/>
  <path fill="#EBEBEB" d="M159 870h2c-1 3-1 3-3 4a102.2 102.2 0 0 1-5.368.114h-3.397l-3.68-.016-3.758-.005a4661.53 4661.53 0 0 1-9.894-.024c-3.365-.01-6.73-.015-10.094-.02-6.603-.011-13.206-.028-19.809-.049l-1-3 2.157.007c6.696.02 13.391.035 20.087.045 3.442.005 6.885.012 10.328.023 3.954.013 7.908.018 11.862.023l3.762.015h3.458l3.062.007c2.25.137 2.25.137 3.284-1.12Z"/>
  <path fill="#9E9B93" d="M528 647h1v7l1.95.531C533 656 533 656 533.644 659.406c.075 1.364.13 2.729.168 4.094l.115 2.09c.233 5.088.233 5.088-.928 7.41h-2v8l-2 1c-.991-11.684-1.107-23.279-1-35Z"/>
  <path fill="#F2F1ED" d="M527 772h1c.412 3.603.154 4.784-2 7.813L524 782l-1-1c-1.92.099-3.836.259-5.75.438-8.222.676-16.442.649-24.688.625l-2.021-.006c-3.847-.012-7.694-.032-11.541-.057 2.602-2.602 3.793-2.287 7.418-2.379l3.303-.103 3.466-.08c6.69-.18 13.19-.42 19.813-1.438 2.145-.063 4.292-.087 6.438-.063l3.183.028L525 778l2-6Z"/>
  <path fill="#FCFCFA" d="m619 869 1 3c-2 2-2 2-4.139 2.24l-2.678-.013h-3.033l-3.283-.032-3.354-.008c-3.546-.011-7.092-.037-10.638-.062-2.4-.01-4.8-.02-7.2-.027-5.891-.022-11.783-.056-17.675-.098v-2l1.802-.025c6.18-.085 12.36-.185 18.541-.292 2.308-.039 4.615-.074 6.923-.105 3.314-.045 6.627-.103 9.941-.164l3.135-.035 2.911-.06 2.564-.04c2.474-.152 2.474-.152 5.183-2.279Z"/>
  <path fill="#B2B0A9" d="M183 666h1c.134 11.114-.073 22.204-.438 33.313l-.118 3.846-.128 3.642-.11 3.255c-.191 2.732-.6 5.276-1.206 7.944h2l-1 5-4 1 .469-3.512c.865-7.778.892-15.618 1.083-23.436.052-2.066.11-4.131.167-6.197l.092-3.698c.155-2.589.495-4.685 1.189-7.157.221-2.414.406-4.831.563-7.25l.253-3.828L183 666Z"/>
  <path fill="#CECDC9" d="M259 781c1.334-.332 2.667-.666 4-1a76.583 76.583 0 0 1 4.493-.114h2.669l2.854.016 2.942.005c3.097.005 6.195.018 9.292.03A8341.978 8341.978 0 0 1 307 780v1c-7.946.667-15.795 1.106-23.77.938-2.49.048-4.752.236-7.207.558-6.51.776-13.038.61-19.586.567l-3.923-.014A3350.67 3350.67 0 0 1 243 783l1-2c5.108-1.088 9.923-1.195 15 0Z"/>
  <path fill="#ACAAA4" d="M186 401c.337 2.875.67 5.75 1 8.625.095.808.19 1.616.29 2.45.493 4.335.823 8.552.71 12.925-4.362-4.83-7.258-10.37-8.563-16.75.686-2.743 3.332-7.25 6.563-7.25Z"/>
  <path fill="#8F8F8F" d="M485 845c-5.586 5.586-23.086 3.052-30.563 3.066A2980.61 2980.61 0 0 1 437 848v-2c16.01-.762 31.971-1.148 48-1Z"/>
  <path fill="#D9D8D4" d="M310 785h16l-1 20h-1l-1-16-2 1-1 17h-1l-1-9-2 1v-13l-4 1-2-2Z"/>
  <path fill="#9D9C96" d="m529 683 2 1c.631 3.226.952 6.389 1.21 9.664.512 6.393 1.358 12.096 3.977 18.024.952 2.707.55 3.61-.187 6.312a89.56 89.56 0 0 0 1 6l-5-2c-.125-7.75-.125-7.75 1-10l-1-3-2-1-1-25Z"/>
  <path fill="#D0CFCA" d="M161 381c2.541 2.303 4.071 4.673 5.688 7.688l1.324 2.449L169 393l3-2c3.7 7.117 7.466 14.375 10 22l-1 2a1812.696 1812.696 0 0 1-4.375-6.688l-1.25-1.896c-1.788-2.754-3.303-5.228-4.477-8.31L170 396l-3-1c-1.605-2.652-1.605-2.652-3.188-5.938l-1.605-3.277C161 383 161 383 161 381Z"/>
  <path fill="#F8F8F7" d="m631 650 1 3h2v41h-2l-1 4v-48Z"/>
  <path fill="#BFBEB9" d="M528 545c1.071 3.532 1.185 6.88 1.281 10.559l.114 3.857.105 4.021c.068 2.624.142 5.248.219 7.872l.092 3.525A47.959 47.959 0 0 0 531 583l-2 1c-.467 2.126-.467 2.126-.625 4.563l-.227 2.503L528 593h-1c-.025-6.675-.043-13.35-.055-20.026-.005-2.272-.012-4.545-.02-6.818a4166.98 4166.98 0 0 1-.023-9.777l-.015-3.1v-2.851l-.007-2.523C527 546 527 546 528 545Z"/>
  <path fill="#CCCCC6" d="M171 402c6.2 6.481 5.261 16.748 5.125 25.063l-.027 3.2c-.024 2.58-.056 5.158-.098 7.737h-1c-2.703-11.702-4.437-23.977-4-36Z"/>
  <path fill="#D2D1CD" d="M185 374h1l.402 3.07a53325.295 53325.295 0 0 0 .8 6.07c.405 3.068.842 6.122 1.36 9.173.426 2.614.516 5.043.438 7.687l-3 1v-4h-2l.035-1.688c.047-3.957-.029-7.766-.597-11.687-.48-3.977.318-5.892 1.562-9.625Z"/>
  <path fill="#C7C6C1" d="M269 225c-3.147 1.836-6.288 2.64-9.805 3.438-4.89 1.253-9.583 3.043-14.257 4.937-1.002.4-2.004.8-3.036 1.21-3.026 1.475-5.36 3.223-7.902 5.415v-9l1 4 3.188-1.875A57.548 57.548 0 0 1 247 229l2.238-.95c3.076-1.17 6.123-1.977 9.325-2.738l3.378-.824c2.847-.454 4.394-.459 7.059.512Z"/>
  <path fill="#C1BFB9" d="m529 630 2 1-.125 3.063c.13 4.118.858 7.055 2.125 10.937h1l-.125 3.438c-.017 4.706.949 9.025 2.125 13.562h1v13c-3.154-4.205-3.611-6.02-4.387-11.074l-.323-2.07a647.85 647.85 0 0 1-.653-4.335 646.233 646.233 0 0 0-1.006-6.55c-1.08-7.023-1.927-13.846-1.631-20.971Z"/>
  <path fill="#DBDAD5" d="M243 782c1.929.098 3.861.13 5.793.133l3.581.006 3.814-.014 3.84-.006c8.696-.04 17.314-.294 25.972-1.119-6.413 3.848-14.31 3.137-21.527 3.098l-2.997-.005c-3.138-.005-6.276-.018-9.413-.03-2.137-.006-4.273-.01-6.409-.014A8168.38 8168.38 0 0 1 230 784v-2c1.79-.195 3.583-.38 5.375-.563l3.023-.316C241 781 241 781 243 782Z"/>
  <path fill="#ABA9A2" d="m530 615 2 1c-.14 2.146-.287 4.292-.438 6.438-.08 1.194-.162 2.39-.246 3.62C531 629 531 629 530 630c-.294 6.066.313 11.486 1.563 17.422.437 2.579.512 4.968.437 7.578l-3-1c-.957-5.621-1.156-11.054-1.125-16.75l.008-2.667c.128-17.594.128-17.594 2.117-19.583Z"/>
  <path fill="#CAC9C2" d="M176 726h1l.438 2.25c.48 2.629.48 2.629 1.187 4.625.556 3.15-.084 6-.625 9.125h-1l-1-7 .07 2.012c.18 8.77.18 8.77-2.07 12.988-2.192-8.258-2.637-15.095 1-23l1-1Z"/>
  <path fill="#A7A49E" d="M226 295c3.36 3.356 6.71 6.72 10.055 10.09l4.337 4.357c.986.991 1.971 1.983 2.955 2.976C248.72 317.84 254.104 323.147 260 328c-3.807 0-4.911-.754-8-3-1.765-1.916-3.436-3.897-5.113-5.89-1.849-2.067-3.77-3.824-5.887-5.61-4.11-3.489-7.563-7.358-11-11.5l-2.438-2.875C226 297 226 297 226 295Z"/>
  <path fill="#D3D2CD" d="M619 811c-3.645 2.43-6.751 2.577-10.992 2.922l-2.373.207c-1.655.143-3.311.28-4.968.413-2.527.207-5.052.435-7.577.665-1.61.135-3.221.27-4.832.402l-2.28.211c-4.2.318-7.21.126-10.978-1.82v-1l1.658-.076c10.282-.473 20.562-.956 30.834-1.62 3.843-.24 7.658-.346 11.508-.304Z"/>
  <path fill="#F4F3EF" d="M359 210v32h-1c-1.1-9.88-.773-19.122 0-29l-20-1v-1c5-1 5-1 21-1Z"/>
  <path fill="#D1D0CD" d="m530 708 3 1 1 6h-1v14h-1l-1 13h-1c-1.205-9.34-1.092-18.602-1-28h1v-6Z"/>
  <path fill="#BAB7B1" d="m181 481 3 1 .184 2.492c.401 5.349.821 10.68 1.441 16.008.358 3.382.366 6.195-.625 9.5h-2c-.845-3.378-1.108-5.675 0-9h-2l.563-3.375c.754-3.45.754-3.45-.563-5.625-.07-1.874-.084-3.75-.063-5.625l.028-3.04L181 481Z"/>
  <path fill="#CECDC8" d="M190 510h1c1.943 15.37 2.237 30.518 2 46l-2-1c-.876-15.013-1.128-29.963-1-45Z"/>
  <path fill="#A9A6A0" d="m293 355 2 1v2h3v2l2-1-1-2 5 1 .313 1.938L305 362l3 1c.688 2.063.688 2.063 1 4l-3-1v-2l-2.813-.438C300 363 300 363 297 362v-2l-5-1 1-4Z"/>
  <path fill="#BAB7AF" d="m174 762 2 1-1 6 2-2 1 2c-2.625 3.875-2.625 3.875-6 5-1.035 3.023-1.035 3.023-1.688 6.563-.25 1.197-.502 2.395-.761 3.628L169 787h-1c-.139-5.102.332-9.743 1.313-14.75l.738-3.922c.895-3.14 1.392-4.409 3.949-6.328Z"/>
  <path fill="#D5D4D0" d="m569 798 18 1-1 3h-19l2-1v-3Z"/>
  <path fill="#BEBCB8" d="M359 334h1c.168 5.017.329 10.034.482 15.051.053 1.705.109 3.41.166 5.116.083 2.457.158 4.914.23 7.372l.083 2.292c.117 4.192-.117 8.06-.961 12.169h-2c-.174-14.022.365-27.994 1-42Z"/>
  <path fill="#CDC8C2" d="M174 772c1.228 3.684.271 4.652-1.284 8.016-1.24 3.434-1.032 6.815-.904 10.422l.042 2.216c.034 1.783.088 3.564.146 5.346l-2-1a81.188 81.188 0 0 1-.75-7.563l-.124-2.203c-.223-5.119-.088-9.428 1.874-14.234l3-1Z"/>
  <path fill="#CDCCC7" d="M176 538h1c.338 2.854.67 5.708 1 8.563.095.8.19 1.6.29 2.423.537 4.709.812 9.275.71 14.014l-3 1c-.197-3.77-.38-7.541-.563-11.313l-.17-3.248-.146-3.115-.143-2.872C175 541 175 541 176 538Z"/>
  <path fill="#C1BFBA" d="m178 535 3 2-1 1c.008 2.125.085 4.25.191 6.371l.174 3.928c.097 2.072.198 4.143.304 6.215.1 1.994.186 3.988.272 5.982.06 1.198.118 2.396.178 3.63C181 567 181 567 179 569c-.37-3.79-.718-7.582-1.063-11.375l-.314-3.215c-.59-6.628-.574-12.82.377-19.41Z"/>
  <path fill="#F7F7F6" d="M584 373c5.195 3.463 6.289 10.194 8 16 .567 3.054.84 5.892 1 9l-2 1-4-16h-2l.063-2.75c-.052-2.677-.285-4.72-1.063-7.25Z"/>
  <path fill="#A1A09A" d="M385 372c-6.076 3.893-10.831 5.645-18 6a410.12 410.12 0 0 0-5.063.563L358 379c2.454-2.99 4.346-3.483 8.125-4 4.56-.707 8.614-1.82 12.902-3.512 2.33-.577 3.721-.239 5.973.512Z"/>
  <path fill="#D1D0CB" d="M177 652h1c2.188 7.915 2.234 15.385 2.125 23.563l-.027 3.923c-.024 3.172-.057 6.343-.098 9.514l-2 1 .016-1.956c.02-2.931.034-5.863.047-8.794l.025-3.078.01-2.969.016-2.73c-.107-2.318-.515-4.242-1.114-6.473a144.573 144.573 0 0 1-.063-6.25l.028-3.266L177 652Z"/>
  <path fill="#BBB8B3" d="M169 790h1l.438 3.313c.445 3.618.445 3.618 1.562 6.687-2.007 3.01-2.839 3.63-6 5l-2-6 4-2-.063-2.938C168 791 168 791 169 790Z"/>
  <path fill="#BDBBB4" d="m532 697 4 1v3c.314 2.336.65 4.67 1 7l1 7h2l1 5h-2c-7.442-15.708-7.442-15.708-7-23Z"/>
  <path fill="#F3F3F2" d="M119 442h2c-.516 7.884-2.091 15.344-4 23l-.594 2.383L116 469h-2c.926-9.075 2.683-18.177 5-27Z"/>
  <path fill="#C7C4BF" d="m202 781 1.743.494c2.214.496 4.104.62 6.366.604l2.286-.01 2.355-.025 2.402-.014c1.95-.012 3.899-.03 5.848-.049v2c-7.416 1.978-14.818 1.498-22-1l1-2Z"/>
  <path fill="#C2C1BC" d="M180 590h1v24h-2c-1.442-7.931-2.46-16.532 1-24Z"/>
  <path fill="#C9C8C2" d="M170 768c1.796 5.387-.94 10.89-3 16-1.546 2.197-2.837 3.378-5 5l-2-1 2-3h2l1-7h2l-.063-2.875C167 772 167 772 168 770h2v-2Z"/>
  <path fill="#F0F0F0" d="M601 441h2l.367 2.527c.782 5.247 1.567 10.44 2.82 15.598C607 463 607 463 606 466c-2.438-3.657-2.922-7.129-3.625-11.375l-.406-2.29c-.655-3.82-1.14-7.443-.969-11.335Z"/>
  <path fill="#9F9D99" d="m186 727 3 1c.89 7.841 1.002 15.167 0 23-1.927-3.726-3.13-6.79-3.098-11.012l.01-2.295.025-2.38.014-2.417c.012-1.965.03-3.93.049-5.896Z"/>
  <path fill="#ECEBEB" d="M625 780c2.976 1.026 3.978 1.966 5.75 4.625 1.545 4.17 1.545 6.951 1.25 11.375l-1 2h-2l.125-3.125c-.123-3.807-.749-6.357-2.125-9.875l-1.125-2.875L625 780Z"/>
  <path fill="#D4D3CE" d="m177 719 3 4 2-1c-.564 3.949-1.743 6.709-4 10h-1l-.438-2.313c-.525-2.769-.525-2.769-1.562-5.687.643-3.643.643-3.643 2-5Z"/>
  <path fill="#D7D5CF" d="M186 710h3l-1 32h-1v-28h-2l1-4Z"/>
  <path fill="#9E9B92" d="M183 684h1l1 36-1-2h-2l1-34Z"/>
  <path fill="#F9F9F8" d="M629 626h2c.92 4.655 1.122 9.147 1.063 13.875l-.014 2.086c-.012 1.68-.03 3.36-.049 5.039h-1c-1.51-7.09-2.283-13.75-2-21Z"/>
  <path fill="#D8D8D7" d="M389 190c6.417-.103 12.627.255 19 1-2 2-2 2-4.61 2.23-10.5-.143-10.5-.143-15.39-1.23l1-2Z"/>
  <path fill="#736E66" d="M187 694h1v16h-2l-1 4h2v3h-2c-1.105-5.568-.75-9.917.438-15.438l.447-2.216c.361-1.784.737-3.565 1.115-5.346Z"/>
  <path fill="#C4C2BC" d="M175 398c1.976 2.964 3.299 5.788 4.688 9.063l1.386 3.222L182 413l-1 2a340.862 340.862 0 0 1-4.125-5.688l-2.32-3.199C173 403 173 403 173.758 400.105L175 398Z"/>
  <path fill="#F7F7F7" d="M543 301c7.688 1.183 12.91 7.678 18 13l-2 2-2-2.625c-2.675-3.232-5.718-5.57-9.133-7.98-1.798-1.343-3.324-2.77-4.867-4.395Z"/>
  <path fill="#787671" d="M535 710c2.119 3.49 2.119 3.49 1.563 5.875L536 718a89.56 89.56 0 0 0 1 6l-5-2v-8h2l1-4Z"/>
  <path fill="#B8B6AF" d="M181 461c2.855 4.283 3.117 7.145 3.063 12.188l-.028 3.292L184 479l-3-2a70.101 70.101 0 0 1-.188-8.125l.042-2.285c.035-1.864.089-3.727.146-5.59Z"/>
  <path fill="#ADACAA" d="M245 846v1c-5.126.103-9.95.036-15-1v-2h-8v-1c7.54-1.95 15.864.225 23 3Z"/>
  <path fill="#B7B4AE" d="m179 538 4 1-.48 2.182c-.493 2.67-.72 5.19-.836 7.9l-.127 2.822-.12 2.909-.13 2.966c-.106 2.407-.208 4.814-.307 7.221h-1l-1-27Z"/>
  <path fill="#C4C3BE" d="M413 360v3c-2.06.986-4.123 1.963-6.188 2.938l-3.48 1.652c-2.847 1.205-5.292 1.958-8.332 2.41l2-1v-2l16-7Z"/>
  <path fill="#DFE0DB" d="M407 461h1l1 6h1c.188 2.375.188 2.375 0 5l-3 2c-1.192 2.05-1.192 2.05-2 4a590.393 590.393 0 0 1-.125-6.25l-.07-3.516c.185-3.062.587-4.676 2.195-7.234Z"/>
  <path fill="#CAC9C4" d="M176 440c4.315 6.473 4.244 14.438 4 22h-1l-2-12h-1v-10Z"/>
  <path fill="#DFE0DB" d="m407 444 5 1-2 12-3-1v-12Z"/>
  <path fill="#F0EFED" d="M91 747h2l-4 21h-1c-.232-6.893-.11-13.377 2-20l1-1Z"/>
  <path fill="#F0EFEE" d="M142 342h2c.365 6.573-.864 11.795-3 18h-1l2-18Z"/>
  <path fill="#D7D7D2" d="M360 200h1v9h14v1h-14v4h-2l1-14Z"/>
  <path fill="#F4F4F4" d="M629 713h2c1.225 5.666 1.092 11.237 1 17-2.957-5.721-3.108-10.654-3-17Z"/>
  <path fill="#B7B5AE" d="M533 660h2c2 2 2 2 2.195 5.04l-.07 3.585-.055 3.602L537 675c-2.85-3.21-3.435-5.5-3.688-9.75l-.199-2.984L533 660Z"/>
  <path fill="#F9F8F7" d="M620 558h2c1.327 3.981 1.07 7.85 1 12l-2 1c-1.005-3.015-1.103-5.042-1.063-8.188l.028-2.73L620 558Z"/>
  <path fill="#D4D3CF" d="M186 402c3.71 4.947 3.71 4.947 4 9-.938 3.313-.938 3.313-2 6h-1l-1-15Z"/>
  <path fill="#CECDC9" d="M559 831c2.785 3.92 1.811 7.786 1.125 12.25l-.316 2.258A559.327 559.327 0 0 1 559 851h-1a1303.71 1303.71 0 0 1-.063-6.625l-.035-3.727c.09-3.325.461-6.388 1.098-9.648Z"/>
  <path fill="#DCDBD7" d="m354 787 4 1-1 1a85.688 85.688 0 0 0-.563 4.563l-.253 2.503L356 798h-2c-2.215-6.4-2.215-6.4-1.125-9.438L354 787Z"/>
  <path fill="#D8D7D2" d="M299 785h9l-2 6-2-1-2 2-1-5-2 1v-3Z"/>
  <path fill="#D1D0CB" d="M179 585h2c.68 5.273-1.752 9.394-4 14-1.46-4.381-.774-8.225 1.063-12.438L179 585Z"/>
  <path fill="#D3D2CE" d="M188 424h3c.08 1.624.14 3.25.188 4.875l.105 2.742L191 434l-3 2v-12Z"/>
  <path fill="#9D9A94" d="M245 316c3.9 1.615 6.713 4.28 9.75 7.125l1.535 1.418A950.215 950.215 0 0 1 260 328c-3.807 0-4.911-.754-8-3-7-7.247-7-7.247-7-9Z"/>
  <path fill="#ADAAA3" d="M170 771h6l-1 2-3 1c-1.035 3.023-1.035 3.023-1.688 6.563-.25 1.197-.502 2.395-.761 3.628L169 787h-1c-.24-5.633.615-10.545 2-16Z"/>
  <path fill="#D4D2CD" d="m377 370 1 3c-6.243 2.48-11.283 3.32-18 3v-1l2.957-.586 3.856-.789 3.832-.773c3.457-.68 3.457-.68 6.355-2.852Z"/>
  <path fill="#D9D8D5" d="M169 802c1.399 3.179.893 4.301-.313 7.688C167 813 167 813 165 814c-.492-7.385-.492-7.385 2-10.5l2-1.5Z"/>
  <path fill="#C1BFB9" d="M173 737h2c1.429 8.429 1.429 8.429-1 13-.872-2.995-1.108-5.636-1.063-8.75l.028-2.422L173 737Z"/>
  <path fill="#9D9A94" d="M265 333c2.24 1.04 4.074 2.06 6 3.625 2.145 1.753 2.145 1.753 6 1.375l2 5c-5.024-1.57-9.047-4.601-13-8l-1-2Z"/>
  <path fill="#A8A7A0" d="m530 700 .813 1.688c1.17 2.386 1.17 2.386 2.812 4.75 1.505 2.804 1.643 4.432 1.375 7.562-2-2-2-2-3-5l-2-1v-8Z"/>
  <path fill="#F7F7F5" d="M615 525h2c1.206 4.672 1.094 9.215 1 14-2.19-3.285-2.353-4.831-2.625-8.688l-.227-3.011L615 525Z"/>
  <path fill="#F9F9F7" d="M592 400h2a894.533 894.533 0 0 1 1.5 4.813l.844 2.707C597 410 597 410 597 413h-2l-3-13Z"/>
  <path fill="#D6D5D1" d="M187 389c2.68 4.019 2.156 6.242 2 11l-3 1c-.143-8.571-.143-8.571 1-12Z"/>
  <path fill="#AFADA6" d="m293 355 2 1v2h3v2h3l-1 3-3-1v-2l-5-1 1-4Z"/>
  <path fill="#E8E8E7" d="M247.188 206.313 249 207h-2l-.875 1.875C245 211 245 211 243 213h-3c3.25-7.25 3.25-7.25 7.188-6.688Z"/>
  <path fill="#FCFCFC" d="m304.688 191.938 3.011.027L310 192c-3.047 1.694-5.828 2.495-9.25 3.125l-2.703.508L296 196v-3c3.15-1.05 5.388-1.101 8.688-1.063Z"/>
  <path fill="#F7F7EF" d="M92 614c1.268 3.654.757 6.49.063 10.25l-.59 3.266L91 630h-1a608.7 608.7 0 0 1-.125-6.313l-.07-3.55C90 617 90 617 92 614Z"/>
  <path fill="#C0BEB9" d="m181 481 3 1-1 12c-2-2-2-2-2.195-4.602l.07-3.023.055-3.04L181 481Z"/>
  <path fill="#E9E9E8" d="M119 442h2a890.89 890.89 0 0 1-.438 4.875c-.08.905-.162 1.81-.246 2.742C120 452 120 452 119 454h-2l2-12Z"/>
  <path fill="#E5E5E2" d="M131 392c1.27 3.81.52 5.816-.438 9.688l-.87 3.574L129 408h-1c-.38-6.199.165-10.448 3-16Z"/>
  <path fill="#CBCAC5" d="m119.125 812.438 3.32.308L125 813v1c-4.672 1.206-9.215 1.094-14 1v-2c2.836-1.418 4.99-.863 8.125-.563Z"/>
  <path fill="#8F897F" d="M186 695h1c.226 5.419-.533 9.775-2 15h-1c-.218-5.439-.104-9.87 2-15Z"/>
  <path fill="#FBFBF8" d="M624 593h3l1 9h-3l-1-9Z"/>
  <path fill="#D2D1CC" d="m419 358-1 3h-2v3l-3-1c2.258-5 2.258-5 6-5Zm-8 5 2 1-4 2v-2l2-1Z"/>
  <path fill="#F6F6EF" d="m159 315 2 1-8 10-1-2 7-9Z"/>
  <path fill="#DFDEDA" d="M358 213v2h-11v-2c7.429-1.286 7.429-1.286 11 0Z"/>
  <path fill="#D9D9D9" d="M474 207c3.443 1.53 6.19 3.493 9 6l1 3c-3.957-1.674-6.845-4.131-10-7v-2Z"/>
  <path fill="#FAFAFA" d="m285.48 193.707 2.707.106 2.731.082L293 194v2l-13 1c3-3 3-3 5.48-3.293Z"/>
  <path fill="#F6F6F5" d="m622 809 3 1-5 8c-1-3-1-3 .438-6.188L622 809Z"/>
  <path fill="#C0C0BA" d="M164 807h2v9h-3c-.625-2.813-.625-2.813-1-6l2-3Z"/>
  <path fill="#FCFCFC" d="m627 610 2 1c.484 1.996.484 1.996.75 4.438l.297 2.433C630 620 630 620 628 622l-1-12Z"/>
  <path fill="#F9F9F9" d="M613 509h2c1.429 8.571 1.429 8.571-1 12-.982-4.053-1.082-7.839-1-12Z"/>
  <path fill="#F6F6F5" d="M610 494h2c1.327 3.981 1.07 7.85 1 12-2.024-3.035-2.321-4.194-2.625-7.688l-.227-2.449L610 494Z"/>
  <path fill="#FAFAF9" d="M311 191h12c-3.006 3.006-5.824 2.596-10 3l-2-3Z"/>
  <path fill="#F7F6F5" d="M625 780c2.411.964 3.774 1.688 5.313 3.813.857 2.729.443 4.464-.313 7.187h-1l-.875-2.688A139.917 139.917 0 0 0 625 780Z"/>
  <path fill="#D0D0CE" d="M125 414c2 1 2 1 2.938 2.75.062 2.25.062 2.25-2.376 5L123 424l2-10Z"/>
  <path fill="#FBFCFA" d="M569 328c3 1 3 1 4.75 3.313 1.4 3.009 1.203 3.667.25 6.687-.839-1.288-1.67-2.58-2.5-3.875l-1.406-2.18C569 330 569 330 569 328Z"/>
  <path fill="#F0F0F0" d="M521 827h1l1 11-3 1 1-12Z"/>
  <path fill="#D5D4D1" d="M540 758h1l3 11-2 1c-1.998-4.12-2.178-7.452-2-12Z"/>
  <path fill="#A4A29C" d="M535 715c3.11 4.146 3.72 5.963 4 11l-2 2-2-13Z"/>
  <path fill="#F8F8F8" d="M631 701h1v10h-3l2-10Z"/>
  <path fill="#F8F7F4" d="m617 543 3 1v11h-1l-2-12Z"/>
  <path fill="#DEDEDD" d="M595 413h2c2.429 6.286 2.429 6.286 1 10-2.296-3.445-2.54-5.938-3-10Z"/>
  <path fill="#BCBBB6" d="M184 389h3l-1 8h-2v-8Z"/>
  <path fill="#B5B4AF" d="M277 349c3.875.875 3.875.875 5 2 .04 1.666.043 3.334 0 5-2.5-1.813-2.5-1.813-5-4v-3Z"/>
  <path fill="#FAFAF9" d="M576 344h2l2 8h-3l-1-8Zm-49 428h1c.412 3.603.154 4.784-2 7.813L524 782l-1-2c.777-1.945.777-1.945 1.938-4.125l1.152-2.195.91-1.68Z"/>
  <path fill="#F1F0F0" d="m598 429 3 2c.688 3.625.688 3.625 1 7l-2 1-2-10Z"/>
  <path fill="#F9F9F9" d="M579 355h2c1.257 2.906 2 4.796 2 8h-2c-1.257-2.906-2-4.796-2-8Z"/>
  <path fill="#D1D1D0" d="M499 269h2l3 9h-2c-3-5.625-3-5.625-3-9Z"/>
  <path fill="#F9F8F7" d="M490 250c3.483 3.019 4.792 5.57 6 10-3.342-1.894-3.98-2.94-5.25-6.688L490 250Z"/>
  <path fill="#E3E3E2" d="M454 199c6.75.75 6.75.75 9 3-3 1-3 1-6.188-.438L454 200v-1Z"/>
  <path fill="#C8C7C1" d="M218 843c-3.435 2.29-4.985 2.178-9 2v-2c3.378-.845 5.675-1.108 9 0Z"/>
  <path fill="#BAB8B2" d="m202 781 2 1c1.87.228 3.747.41 5.625.563l3.04.253L215 783v1h-13v-3Z"/>
  <path fill="#BCBAB6" d="m194 779 3 1v6l-2 1c-2-3-2-3-1.625-5.688L194 779Z"/>
</svg>