<svg xmlns="http://www.w3.org/2000/svg" viewBox="0 0 1024 1536">
  <path fill="#D9D6D2" d="M411.188 193.625c69.928 26.97 158.378 27.593 227.5-2.5l2.636-1.242c3.473-1.146 6.034-1.274 9.676-.883 3.148 1.688 3.148 1.688 6.375 4 5.144 3.547 10.293 6.398 16 8.938a126.082 126.082 0 0 1 16.75 9.062c11.368 7.277 22.59 13.065 35.277 17.724 10.986 4.074 21.598 8.977 32.276 13.789 5.11 2.288 10.246 4.514 15.385 6.737l5.664 2.465c3.28 1.425 6.565 2.834 9.859 4.226 35.877 15.321 88.418 38.589 104.458 76.804 1.01 2.382 2.08 4.73 3.163 7.08 14.495 31.882 25.675 65.278 35.977 98.706l1.132 3.674a5410.68 5410.68 0 0 1 5.62 18.357c3.312 10.85 6.703 21.592 10.803 32.171 1.744 4.52 3.264 9.099 4.761 13.704a1439.01 1439.01 0 0 0 7.773 23.028c6.201 17.891 12.163 35.784 17.369 53.993 2.526 8.827 5.24 17.561 8.38 26.193 3.035 8.613 3.035 8.613 1.978 13.349-5.753 5.695-14.359 8.726-21.625 12l-3.526 1.601A1467.32 1467.32 0 0 1 955 641l-2.18.97c-12.632 5.543-25.973 9.498-39.065 13.794a2490.942 2490.942 0 0 0-11.333 3.767c-16.888 5.63-33.719 11.102-51.11 14.969l-3.305.736c-14.495 3.09-35.981 7.254-49.3-.752-3.77-3.279-5.16-6.348-6.332-11.172-.624-3.45-.624-3.45-2.375-6.312-.95 13.107-1.163 26.158-1.168 39.297l-.01 6.377c-.006 4.438-.008 8.875-.007 13.313 0 4.487-.007 8.974-.02 13.462-.116 36.32-.116 36.32 2.205 72.551l.193 1.988a4212.19 4212.19 0 0 0 2 20.046c3.785 37.12 6.06 73.612 4.807 110.966l-.097 2.932c-.736 21.474-1.813 43.015-5.536 64.209-1.602 12.474 3.029 24.2 7.995 35.433 5.188 11.896 7.594 23.783 8.888 36.613l.259 2.449c1.577 15.207 1.72 30.284 1.561 45.557-.181 18.09 1.264 35.687 3.828 53.587 1.062 7.823 1.494 15.636 1.873 23.512.709 14.619 2.726 28.475 6.229 42.708 4.296 17.848 4.296 17.848 0 25.313-18.71 25.294-55.523 31.368-84.281 36.636l-2.124.39c-15.831 2.872-31.73 4.82-47.722 6.543-2.3.249-4.597.5-6.896.754-27.614 3.038-55.24 5.712-82.977 7.364l-2.946.177c-29.38 1.734-58.77 2.02-88.192 2.068-2.616.005-5.232.013-7.848.021-31.906.089-63.746-.984-95.514-4.079l-5.474-.511c-14.355-1.354-28.686-2.923-43.018-4.498-15.526-1.698-31.058-3.022-46.633-4.178-21.066-1.566-42.028-3.68-63.006-6.147-5.269-.618-10.54-1.195-15.818-1.732l-3.772-.39a961.085 961.085 0 0 0-6.593-.655c-10.38-1.088-19.144-2.909-26.186-11.076-6.522-8.473-10.303-18.269-10-29 .846-6.245 2.527-12.303 4.105-18.395 2.252-8.753 3.947-17.594 5.583-26.48l.457-2.468c2.138-11.618 3.707-23.157 4.793-34.924.731-7.577 1.947-14.92 3.562-22.358l.654-3.025a833.457 833.457 0 0 1 2.364-10.582c3.271-14.363 2.645-28.845 2.517-43.478-.245-31.475 5.042-62.118 12.492-92.65 5.321-21.815 7.495-42.17 6.96-64.593-.125-5.277-.18-10.553-.224-15.83a179719844.214 179719844.214 0 0 0-.068-8.393c-.023-2.847-.052-5.694-.08-8.542-.205-21.037.08-42.061.51-63.095l.058-2.907c.73-36.586 2.649-73.079 5.077-109.59.338-5.087.67-10.176.998-15.264l.189-2.93c1.152-18.177 1.39-36.289 1.053-54.496l-1.87 2.1-2.454 2.744-2.433 2.724c-5.871 6.365-11.774 7.98-20.243 8.432-15.037-.718-29.814-4.34-44.176-8.676l-2.6-.784c-10.267-3.124-20.44-6.518-30.599-9.977l-3.063-1.043c-25.67-8.763-50.985-18.344-75.624-29.707l-3.48-1.603C43.47 620.853 39.24 618.576 35 615c1.491-6.772 3.78-13.059 6.438-19.438 5.815-14.076 10.349-28.618 15.092-43.081 4.08-12.44 8.236-24.826 12.782-37.106a4958.586 4958.586 0 0 1 12.434-33.371c8.164-21.713 8.164-21.713 15.941-43.566 2.867-8.272 5.956-16.433 9.18-24.571 1.343-3.4 2.676-6.803 4.008-10.207 3.067-7.83 6.158-15.65 9.257-23.467.863-2.18 1.724-4.362 2.584-6.544 5.77-14.616 11.502-29.075 19.266-42.774 1.098-2.022 2.088-4.076 3.065-6.16l1.028-2.172c.625-1.334 1.24-2.673 1.836-4.02 4.128-8.691 11.772-14.447 19.589-19.71l2.443-1.657C180.2 290.348 191.07 284.642 202 279l2.285-1.183c3.88-1.997 7.785-3.939 11.713-5.842 2.086-1.016 4.163-2.05 6.24-3.084 11.935-5.87 24.132-11.05 36.387-16.204 15.093-6.346 29.896-13.047 44.57-20.316 3.391-1.658 6.815-3.234 10.245-4.807 14.204-6.543 27.904-14.237 41.06-22.689 19.547-12.28 34.705-20.095 56.688-11.25Z"/>
  <path fill="#B6B0A9" d="M150 317c2.454 2.454 2.627 3.98 3.367 7.348l.746 3.275c.502 2.265 1.002 4.53 1.5 6.797 1.509 6.608 3.418 12.494 6.387 18.58 2.205 5.266 4.28 10.553 6 16h3c1.688 2 1.688 2 3 4v-7l4-1 .684 6.152c.135 1.86.135 1.86 1.316 2.848.235 2.35.414 4.706.563 7.063l.253 3.91L181 388h2l.503 2.272 2.31 10.416.79 3.572a1659.14 1659.14 0 0 0 3.971 17.51 408.95 408.95 0 0 1 2.93 13.74c3.012 15.106 6.783 30.01 11.059 44.803l1.101 3.84C208.691 494.46 212.181 504.391 217 514c1 3 1 3 1 6l2 1c4.792 5.377 4.792 5.377 6 9l4-1c2.153 3.858 3.393 6.551 3 11l2 1 .184-1.934.254-2.504.246-2.496C236 532 236 532 237 531c.701-7.667-.369-15.403-1.288-23.01-.629-5.369-.798-10.583-.712-15.99 2.873 1.436 3.303 3.359 4.625 6.25l1.352 2.89c1.035 2.893 1.132 4.827 1.023 7.86l.489 1.865c.552 2.307.625 4.313.609 6.682l-.01 2.558-.025 2.645-.014 2.691c-.012 2.187-.028 4.373-.049 6.559l-2 1c-.433 3.175-.433 3.175-.563 6.875-.344 6.846-.344 6.846-1.437 10.125a89.694 89.694 0 0 0-.125 5.125l-.008 2.695c-.11 2.158-.11 2.158 1.133 3.18.42 5.28.547 10.225-2 15h2c-.118 4.378-.242 8.757-.372 13.135a1972.3 1972.3 0 0 0-.125 4.47c-.058 2.14-.122 4.279-.187 6.418l-.11 3.904C239 607 239 607 238 609c-.097 2.332-.13 4.666-.125 7l-.008 3.813c-.09 3.084-.09 3.084 1.133 5.187l-.563 2.688c-.526 3.987.359 6.498 1.563 10.312 1.183 6.452 1.183 6.452 0 10h-2c.547 5.518.547 5.518 2.063 10.813 1.384 4.705 1.093 9.316.937 14.187h-1l-1-6-.076 2.544c-.853 28.274-.853 28.274-1.424 39.394l-.107 2.175c-.18 3.27-.475 6.466-.932 9.711-.789 5.946-.433 11.946-.246 17.926l.043 2.742.067 2.48L236 746l-3 2c-.251-12.26.155-24.395 1-36.625 1.203-17.464 1.207-34.877 1-52.375l-1.87 2.1-2.454 2.744-2.433 2.724c-5.871 6.365-11.774 7.98-20.243 8.432-15.037-.718-29.814-4.34-44.176-8.676l-2.6-.784c-10.267-3.124-20.44-6.518-30.599-9.977l-3.063-1.043c-25.67-8.763-50.985-18.344-75.624-29.707l-3.48-1.603C43.47 620.853 39.24 618.576 35 615c1.491-6.772 3.78-13.059 6.438-19.438 5.815-14.076 10.349-28.618 15.092-43.081 4.08-12.44 8.236-24.826 12.782-37.106a4958.586 4958.586 0 0 1 12.434-33.371c8.164-21.713 8.164-21.713 15.941-43.566 2.867-8.272 5.956-16.433 9.18-24.571 1.343-3.4 2.676-6.803 4.008-10.207 3.067-7.83 6.158-15.65 9.257-23.467.863-2.18 1.724-4.362 2.584-6.544 11.303-28.638 11.303-28.638 18.413-41.262 2.24-4.055 4.105-8.213 5.898-12.48C148 318 148 318 150 317Z"/>
  <path fill="#D1CCC7" d="M411.188 193.625c70.272 27.102 158.113 27.255 227.625-2.5l2.707-1.242C644 189 644 189 649 189l-2 33h-2l-.313 3.5c-.665 7.453-3.908 13.491-8.562 19.188l-1.452 1.803c-21.847 26.621-49.896 42.388-83.659 49.1-1.428.29-2.85.607-4.269.942-6.878 1.555-13.52 1.813-20.558 1.78l-3.56-.011c-7.512-.092-14.876-.56-22.314-1.615l-2.513-.356c-5.26-.846-9.838-2.407-14.8-4.331-2.54-.543-2.54-.543-4.938-.813C465.865 289.122 452.96 284.447 443 277v-2l-1.75-.375c-2.273-.631-4.175-1.514-6.25-2.625v-2h-2v-2l-1.813-.875C429 266 429 266 426 264v-2l-1.648-.664c-3.127-1.776-5.476-4.17-7.977-6.711l-1.484-1.46c-2.523-2.537-4.546-4.827-5.891-8.165a515.467 515.467 0 0 1 9.734 3.328c20.784 6.883 42.592 10.256 64.329 12.172l2.752.248c19.03 1.67 37.76 1.383 56.81.252 2.49-.145 4.98-.288 7.47-.428 1.527-.086 3.053-.175 4.579-.267 5.116-.293 10.202-.34 15.326-.305v-2l6-1c-2.667.117-5.333.244-8 .375-.724.03-1.449.062-2.195.094-5.124.26-10.134.843-15.215 1.558-9.342 1.253-18.617 1.24-28.028 1.16l-5.338-.028c-5.075-.032-10.15-.092-15.224-.159l-3.843-.042c-16.285-.23-32.125-2.116-48.157-4.958l-2.549-.449c-9.612-1.757-18.942-4.451-28.264-7.363l-3.131-.931c-6.587-2.152-9.75-4.084-13.056-10.257v-2c5.765 1.03 11.048 2.698 16.5 4.813 13.51 5.168 26.698 8.661 41.04 10.756 12.704 1.903 12.704 1.903 17.46 4.431l1 3c8.24.046 16.482.082 24.723.104 3.827.01 7.654.024 11.48.047 3.696.022 7.392.034 11.088.039 1.407.003 2.815.01 4.222.021 1.977.015 3.954.016 5.93.016l3.406.014c3.334-.255 6.036-1.056 9.151-2.241l1-5-3.063.563c-3.914.434-7.072.055-10.937-.563l-1 1c-1.795.1-3.593.13-5.39.133l-3.34.004-3.52-.012-3.473.012-3.355-.004-3.075-.004C510 251 510 251 507.254 250.434c-2.842-.547-3.755.229-6.254 1.566-6.972.657-14.072-.158-21-1v-2c-1.481-.2-1.481-.2-2.992-.402l-3.883-.536-3.867-.527C466 247 466 247 464 246v-2l-2.625.125c-3.52-.13-6.062-.997-9.375-2.125-2.75-.169-2.75-.169-5 0v2l3.625-.125c5.409 0 9.61 1.701 14.375 4.125-13.992-.494-28.268-2.986-41-9v-1a668.813 668.813 0 0 1 15 2c-1.727-.65-3.457-1.295-5.188-1.938l-2.917-1.09c-3.29-1.105-6.412-1.972-9.895-1.972v-2l-2 .813c-4.06.253-5.903-1.378-9.133-3.684-1.931-1.388-1.931-1.388-4.867-1.129v-3l-2.438-.375L400 225l-1-2 1-2h6l-6.055-1.367C398 219 398 219 396 217l-1.457-1.234c-4.054-4.64-6.82-12.662-6.98-18.828.416-2.797 1.123-4.484 2.437-6.938-3.27 1.941-5.776 3.893-8 7-.703 4.74-.475 9.244 0 14l-2 1c-.194-2.291-.38-4.583-.563-6.875l-.316-3.867C379 198 379 198 380 196h-3c1-3 1-3 3.406-4.422l3.094-1.328 3.031-1.36c8.87-2.277 16.484 1.446 24.656 4.735Z"/>
  <path fill="#C9C4BF" d="m608 243 3 2h4l1 2 10-3-1 2 7 2c-6.205 15.76-29.316 29.166-44 36-11.947 5.096-24.244 9.057-36.986 11.59-1.428.29-2.85.608-4.269.943-6.878 1.555-13.52 1.813-20.558 1.78l-3.56-.011c-7.512-.092-14.876-.56-22.314-1.615l-2.513-.356c-5.26-.846-9.838-2.407-14.8-4.331-2.54-.543-2.54-.543-4.938-.813C465.865 289.122 452.96 284.447 443 277v-2l-1.75-.375c-2.273-.631-4.175-1.514-6.25-2.625v-2h-2v-2l-1.813-.875C429 266 429 266 426 264v-2l-1.648-.664c-3.127-1.776-5.476-4.17-7.977-6.711l-1.484-1.46c-2.523-2.537-4.546-4.827-5.891-8.165a515.467 515.467 0 0 1 9.734 3.328c20.784 6.883 42.592 10.256 64.329 12.172l2.752.248c19.03 1.67 37.76 1.383 56.81.252 2.49-.145 4.98-.288 7.47-.428 1.527-.086 3.053-.175 4.579-.267 5.116-.293 10.202-.34 15.326-.305v-2l6-1-7-1c2.942-1.526 5.924-2.77 9-4l1.688-.91c6.135-3.152 12.34-4.111 19.104-5.05 3.703-.53 6.049-.934 9.208-3.04Z"/>
  <path fill="#E8E6E2" d="M388 190h2l-.5 1.563c-1.325 6.458-.154 11.41 2.313 17.312l.79 2.047c.853 2.177.853 2.177 2.397 5.078l3 1v2l3.938.375c2.214.21 2.214.21 4.062.625l1 2-7-1v3l5 2v3l3-1c1.867.996 1.867.996 3.875 2.438 3.188 2.129 5.188 3.177 9.125 2.562v2l2.563-.688c4.318-.392 6.564.82 10.437 2.688 1.993.688 3.99 1.363 6 2l-1 2-13-2c7.469 2.752 14.765 4.703 22.563 6.25l2.668.53c3.33.64 6.37 1.22 9.769 1.22-4.71-1.766-9.03-2.486-14-3v-2c4.52-1.051 6.81-.886 11 1 1.992.376 3.992.72 6 1v2l1.977.148c4.956.424 9.353 1.009 14.023 2.852v2c3.396.058 6.791.094 10.188.125.96.017 1.919.034 2.908.05l2.822.02 2.587.032c2.8-.255 4.911-1.157 7.495-2.227 2.188.438 2.188.438 4 1l2-1v2l2.813-.5c6.725-.959 13.554-1.009 20.187.5l1-2 3.563.563c4.05.52 7.436.187 11.437-.563.362 4.466.362 4.466-1.188 6.75-3.494 2.41-7.614 2.375-11.747 2.38l-2.896.009-3.103-.006-3.24.003c-2.266 0-4.531-.001-6.796-.006-3.424-.005-6.847 0-10.27.007-27.411.013-27.411.013-32.76-1.137l-2-3c-2.333-.845-2.333-.845-5.094-1.316l-3.125-.627-3.281-.62-3.188-.63a1472.9 1472.9 0 0 0-11.974-2.31c-5.845-1.127-11.555-2.543-17.276-4.185l-2.703-.771c-9.294-2.716-18.332-6.054-27.359-9.541 2.16 4.38 4.054 8.06 8.758 9.918 1.446.455 2.903.876 4.367 1.27l2.396.714c2.485.73 4.98 1.415 7.479 2.098 1.533.445 3.065.892 4.598 1.34 42.73 12.156 90.596 12.88 134.488 7.316 5.33-.663 10.548-.818 15.914-.656v1l-11 1v2c-13.803 1.065-27.603 2.07-41.438 2.625l-2.948.12A633.57 633.57 0 0 1 517 263l-2.887.075c-10.268.142-20.455-.681-30.676-1.575l-2.89-.25c-23.354-2.083-48.992-5.572-70.547-15.25l1.758 1.941c4.483 4.964 8.916 9.957 13.242 15.059-3 0-3 0-4.754-1.75l-1.808-2.25a77.59 77.59 0 0 0-3.438-4h-2l-.75-1.75c-1.136-2.318-1.136-2.318-3.063-3.938-3.17-3.35-5.067-7.242-7.187-11.312l-1.813-3.375C399 232 399 232 399 229h-2c-11.96-28.356-11.96-28.356-11-37l2-2Z"/>
  <path fill="#746B60" d="M181 399c3 2.503 3.85 4.931 4.973 8.629l1.037 3.389 1.053 3.545 1.064 3.462c1.753 5.798 3.3 11.547 4.41 17.5 2.832 15.121 6.757 30.018 11.025 44.788l1.102 3.84C208.691 494.46 212.181 504.391 217 514c1 3 1 3 1 6l2 1c4.792 5.377 4.792 5.377 6 9l4-1c2.153 3.858 3.393 6.551 3 11l2 1c.09-.957.09-.957.184-1.934l.254-2.504c.08-.823.162-1.647.246-2.496C236 532 236 532 237 531c.701-7.667-.369-15.403-1.288-23.01-.629-5.369-.798-10.583-.712-15.99 2.873 1.436 3.303 3.359 4.625 6.25l1.352 2.89c1.035 2.893 1.132 4.827 1.023 7.86l.489 1.865c.552 2.307.625 4.313.609 6.682l-.01 2.558-.025 2.645-.014 2.691c-.012 2.187-.028 4.373-.049 6.559l-2 1c-.433 3.175-.433 3.175-.563 6.875-.344 6.846-.344 6.846-1.437 10.125a89.694 89.694 0 0 0-.125 5.125l-.008 2.695c-.11 2.158-.11 2.158 1.133 3.18.099 1.623.13 3.25.125 4.875l.008 2.68C240 571 240 571 239 574a303.318 303.318 0 0 0-.5 8.375c-.42 9.105-.42 9.105-1.5 13.625h-1l.016-2.855c.017-3.546.03-7.093.039-10.64.005-1.525.012-3.05.02-4.576.049-8.702-.035-17.273-1.075-25.929l-3-1-.25-2.375c-.475-2.734-.475-2.734-2.625-3.875-1.702-.6-3.412-1.18-5.125-1.75-2.762-3.634-2.145-7.65-2-12l-3 1v-5h-2l-1.375-3.375c-1.35-3.587-1.35-3.587-3.625-5.625-1.582-2.825-3.068-5.694-4.563-8.566-1.205-2.544-1.205-2.544-3.437-3.434a107.33 107.33 0 0 1-1.625-7.063c-.26-1.29-.52-2.58-.79-3.91-.192-.999-.386-1.998-.585-3.027h-2c-1.005-3.015-1.103-5.042-1.063-8.188l.028-2.73L198 479h-2l-.586-2.633-.789-3.492-.773-3.445c-.785-3.384-.785-3.384-1.887-6.41-2.334-7.305-6.542-23.866-2.965-31.02h-2c-2.164-5.635-3.306-10.776-3.75-16.793-.16-2.324-.16-2.324-1.313-4.77-1.439-3.742-1.092-7.472-.937-11.437Z"/>
  <path fill="#675C50" d="M801 565h1c1.162 8.804.915 15.623-2 24l-1.023 3.105a520.396 520.396 0 0 1-2.012 5.973L796 601l-1.048 2.929c-1.49 5.288-1.198 10.68-1.147 16.13l.008 3.467c.011 3.637.037 7.274.062 10.912.01 2.473.02 4.946.027 7.42.022 6.047.056 12.094.098 18.142-1.945-2.918-2.453-4.625-3-8h-3l.007 3.946c.02 12.271.035 24.543.045 36.814.005 6.309.012 12.618.023 18.927.011 6.088.017 12.176.02 18.265.002 2.322.005 4.645.01 6.968.008 3.253.009 6.507.009 9.76l.01 2.91c-.007 4.587-.18 8.897-1.124 13.41h-2c-.868-6.199-1.323-12.389-1.746-18.633-.288-3.816-.724-7.578-1.254-11.367h2v-6l-2 1 1-13h2l-.219-3.148c-.513-7.627-.946-15.203-.781-22.852-2.526 8.78-3.222 16.435-2.715 25.469-.333 4.121-1.431 5.627-4.285 8.531-.38-26.781-.38-26.781.875-39.625l.238-2.448c.706-6.502 1.917-12.897 3.448-19.256 2.005-8.758 1.794-17.583 1.83-26.528.15-8.261 1.468-14.552 4.609-22.143.854-2.767 1.553-5.565 2.25-8.375 2.248-8.8 4.638-17.56 7.063-26.313l1.096-3.964c.863-3.116 1.726-6.232 2.591-9.348Z"/>
  <path fill="#90887E" d="M160 354h2c1.005 2.123 2.004 4.248 3 6.375l1.688 3.586C168 367 168 367 168 369h3c1.688 2 1.688 2 3 4v-7l4-1 .684 6.152c.135 1.86.135 1.86 1.316 2.848.235 2.35.414 4.706.563 7.063l.253 3.91L181 388h2a8137.7 8137.7 0 0 1 2.938 13.063l.841 3.724.81 3.623.747 3.317c.692 3.412 1.204 6.822 1.664 10.273-1.714-2.571-2.446-4.073-3.254-6.941l-.65-2.268-.659-2.353c-1.395-5.34-1.395-5.34-3.437-10.438-.174 5.126.079 8.253 2 13 .31 2.517.508 5.035.715 7.563.349 2.984 1.255 5.623 2.285 8.437v3h2l.113 2.176c.445 7.006 1.252 13.888 2.325 20.824l.37 2.462c.66 4.131 1.584 7.66 3.192 11.538.414 2.676.414 2.676.625 5.313l.227 2.675L196 479h2v5l-2 1-.875-2.438c-.858-2.695-.858-2.695-3.125-3.562l1-9h-2l-2-8h-1c-.195-1.958-.38-3.916-.563-5.875l-.316-3.305C187 450 187 450 188 448h-2l-.438-2.813c-.483-3.194-.483-3.194-1.562-6.187h-2l-1-11h-1l-1-8h-1l.035-2.3.028-3.012.035-2.989c.025-2.799.025-2.799-1.098-5.699h2l-2-5h-1l-.078-2.309c-.348-6.327-1.172-11.295-4.082-16.949C171 380 171 380 171 378l-3-1c-1.168-2.504-1.168-2.504-2.188-5.563l-1.042-3.066L164 366l-2 2c-1.97-4.927-2.18-8.78-2-14Z"/>
  <path fill="#F0EEE9" d="M388 190h2l-.5 1.563c-1.325 6.458-.154 11.41 2.313 17.312l.79 2.047c.853 2.177.853 2.177 2.397 5.078l3 1v2l3.938.375c2.214.21 2.214.21 4.062.625l1 2-7-1v2h-2c.875 4.955.875 4.955 4.125 8.438.619.185 1.238.37 1.875.562h-2c1.532 4.454 3.493 8.59 7.745 10.982 4.46 1.884 9.108 3.148 13.786 4.371 2.368.62 4.714 1.291 7.063 1.979 42.7 12.202 90.623 12.885 134.492 7.324 5.33-.663 10.548-.818 15.914-.656v1l-11 1v2c-13.803 1.065-27.603 2.07-41.438 2.625l-2.948.12A633.57 633.57 0 0 1 517 263l-2.887.075c-10.268.142-20.455-.681-30.676-1.575l-2.89-.25c-23.354-2.083-48.992-5.572-70.547-15.25l1.758 1.941c4.483 4.964 8.916 9.957 13.242 15.059-3 0-3 0-4.754-1.75l-1.808-2.25a77.59 77.59 0 0 0-3.438-4h-2l-.75-1.75c-1.136-2.318-1.136-2.318-3.063-3.938-3.17-3.35-5.067-7.242-7.187-11.312l-1.813-3.375C399 232 399 232 399 229h-2c-11.96-28.356-11.96-28.356-11-37l2-2Z"/>
  <path fill="#675D52" d="M235 492c2.873 1.436 3.303 3.359 4.625 6.25l1.352 2.89c1.035 2.893 1.132 4.827 1.023 7.86l.489 1.865c.552 2.307.625 4.313.609 6.682l-.01 2.558-.025 2.645-.014 2.691c-.012 2.187-.028 4.373-.049 6.559l-2 1c-.433 3.175-.433 3.175-.563 6.875-.344 6.846-.344 6.846-1.437 10.125a89.694 89.694 0 0 0-.125 5.125l-.008 2.695c-.11 2.158-.11 2.158 1.133 3.18.099 1.623.13 3.25.125 4.875l.008 2.68C240 571 240 571 239 574a303.318 303.318 0 0 0-.5 8.375c-.42 9.105-.42 9.105-1.5 13.625h-1l.016-2.855c.017-3.546.03-7.093.039-10.64.005-1.525.012-3.05.02-4.576.049-8.702-.035-17.273-1.075-25.929l-3-1-.25-2.375c-.475-2.734-.475-2.734-2.625-3.875-1.702-.6-3.412-1.18-5.125-1.75-1.785-2.762-2.272-5.13-2.5-8.375-.344-3.784-1.128-7.059-2.5-10.625l3-1 4 7 4-1c2.153 3.858 3.393 6.551 3 11l2 1c.09-.957.09-.957.184-1.934l.254-2.504c.08-.823.162-1.647.246-2.496C236 532 236 532 237 531c.701-7.667-.369-15.403-1.288-23.01-.629-5.369-.798-10.583-.712-15.99Z"/>
  <path fill="#53463A" d="M236 606h1l.184 3.648.254 4.727.119 2.406c.132 4.245.132 4.245 1.443 8.219l-.563 2.688c-.526 3.987.359 6.498 1.563 10.312 1.183 6.452 1.183 6.452 0 10h-2c.547 5.518.547 5.518 2.063 10.813 1.384 4.705 1.093 9.316.937 14.187h-1l-1-6-.076 2.544c-.853 28.274-.853 28.274-1.424 39.394l-.107 2.175c-.18 3.27-.475 6.466-.932 9.711-.789 5.946-.433 11.946-.246 17.926l.043 2.742.067 2.48L236 746l-3 2c-.251-12.26.155-24.395 1-36.625 1.203-17.464 1.207-34.877 1-52.375l-1.85 2.097-2.44 2.743c-.795.898-1.591 1.797-2.412 2.722-3.687 3.911-7.726 7.267-13.341 7.536l-2.144-.035L209 674c1.375-2 1.375-2 3-4h2a141.4 141.4 0 0 0 5-5l2 1-1 4c2.25-1.41 2.25-1.41 4-4 .058-3.076-.408-5.987-1-9l4 1 1 4c3.574-3.574 6.693-8.205 7.254-13.313-.044-1.49-.114-2.98-.211-4.468-.07-3.614.952-6.765 1.957-10.219h-2c-.029-4.48-.047-8.958-.063-13.438l-.025-3.876-.01-3.682-.016-3.412C235 607 235 607 236 606Z"/>
  <path fill="#ADA398" d="m811 564 2 1-1.875 3.125c-1.371 2.378-2.279 4.355-3.125 7-1 2.875-1 2.875-3.188 5.375-2.183 2.4-2.183 2.4-1.375 5.5l.563 3-1.395 2.281c-1.861 3.153-2.265 5.602-2.73 9.219-1.446 10.856-1.446 10.856-3.875 14.5-.308 2.386-.308 2.386-.266 5.035l-.007 2.951.023 3.077-.023 3.087.007 2.948.007 2.703c.053 2.406.053 2.406 2.259 4.199.379 2.969.379 2.969.563 6.5.101 4.41.101 4.41 1.437 8.5-.55 3.527-1.228 7.018-1.918 10.52-.393 3.54-.393 3.54 1.637 6.351 6.606 6.165 19.677 4.754 28.281 5.129v2c-23.875 1.07-23.875 1.07-31-5-2.724-3.016-3.672-5.765-4.625-9.688-.624-3.45-.624-3.45-2.375-6.312l-1 17h-1v-22h3l2 5-.034-1.753c-.112-6.1-.186-12.201-.24-18.303a821.87 821.87 0 0 0-.103-6.802c-.259-13.767.273-25.267 5.377-38.142.54-1.744 1.066-3.493 1.563-5.25l.699-2.305c.56-1.854 1.1-3.715 1.633-5.578 2.967-9.812 2.967-9.812 8.105-12.867l1-2Z"/>
  <path fill="#A49B94" d="m228 935 2 1c.493 2.42.85 4.74 1.125 7.188l.257 2.154c.76 6.898.813 13.72.618 20.658h2l.148 2.117.227 2.758c.07.905.14 1.81.21 2.742.21 2.562.21 2.562 2.415 4.383.125 2.809.125 2.809 0 6.438-.132 6.353.26 12.557.938 18.875l.263 2.515c.402 4.218.402 4.218 1.799 8.172.272 2.56.446 5.12.621 7.688.18 2.501.18 2.501 2.379 4.312 1.589 5.687 2.564 11.215 1 17-2.48-2.48-2.253-4.091-2.59-7.457-.677-4.197-2.062-8.164-3.375-12.2-2.59-8.363-3.926-16.685-5.16-25.343-.182-1.252-.364-2.503-.55-3.793-.446-3.068-.887-6.137-1.325-9.207h-1l-1-6-3 12h-2c2-12 2-12 2.514-14.645.594-4.097.716-8.119.802-12.253l.063-2.53c.065-2.65.125-5.298.184-7.947l.13-5.41c.107-4.405.208-8.81.307-13.215Z"/>
  <path fill="#7C7267" d="M186 1269h2l3 9h2c1.625 1.5 1.625 1.5 3 3l2-1v4c1.977.73 3.98 1.394 6 2l2-1 2 5 2.938.375c4.41.624 8.727 1.612 13.062 2.625v2l2.633.148 3.492.227c1.137.07 2.274.14 3.445.21 3.43.415 3.43.415 6.118 1.352 4.963 1.592 10.025 2.065 15.187 2.688l3.242.406c2.627.329 5.255.651 7.883.969-2 2-2 2-4.95 2.025l-3.738-.314-2.023-.163A750.92 750.92 0 0 1 249 1302l-3.8-.323c-42.772-3.76-42.772-3.76-52.2-14.677-1.504-2.594-2.748-5.277-4-8l-1.75-3.25C186 1273 186 1273 186 1269Z"/>
  <path fill="#BFBAB4" d="m350 562 .148 2.598c.4 7.391.4 7.391 1.977 14.59C353 582 353 582 352 584a101.87 101.87 0 0 0-.625 5l-.29 2.688c-.271 2.34-.271 2.34.915 4.312-.523 1.848-.523 1.848-1.375 4.063-1.663 4.677-2.233 8.997-2.625 13.937l2 1c-.087 1.605-.196 3.21-.313 4.813l-.175 2.707c-.592 2.867-1.482 3.493-3.512 5.48-.36 2.054-.36 2.054-.188 4.188L346 636l-3 1-.375 2.375C342 642 342 642 340 644c-1.09-4.74-.76-8.012.5-12.688 1.386-4.675 1.386-4.675.5-9.312l2-3c.254-2.71.416-5.348.5-8.063.25-5.698.738-11.072 2.023-16.644.843-4.054 1.144-8.17 1.477-12.293h-2c.087-2.585.194-5.166.313-7.75l.068-2.21C345.883 562 345.883 562 350 562Z"/>
  <path fill="#80766D" d="M181 399c4.631 3.875 5.492 9.998 7.188 15.563l1.115 3.462c2.129 6.909 3.088 12.781 2.697 19.975-.008 10.302.95 19.182 4.602 28.914 2.123 5.844 3.318 11.96 4.61 18.03l.577 2.599.49 2.313c.833 2.477 2.161 4.065 3.721 6.144.688 3.75.688 3.75 1 7h2c.182.568.364 1.137.55 1.723 1.59 4.884 3.355 9.587 5.45 14.277l-2 1-.734-1.54c-2.141-4.395-4.506-8.412-7.266-12.46-1.723-3.035-2.494-5.824-3.125-9.25l-.508-2.703L201 492h-2c-1.005-3.015-1.103-5.042-1.063-8.188l.028-2.73L198 479h-2l-.586-2.633-.789-3.492-.773-3.445c-.785-3.384-.785-3.384-1.887-6.41-2.334-7.305-6.542-23.866-2.965-31.02h-2c-2.164-5.635-3.306-10.776-3.75-16.793-.16-2.324-.16-2.324-1.313-4.77-1.439-3.742-1.092-7.472-.937-11.437Z"/>
  <path fill="#B6ADA4" d="M214 415h1c.097 6.115-.23 11.933-1 18l3-1c1.066 3.19.971 4.72-.438 7.75-1.766 4.273-1.808 7.658-1.562 12.25l3 1-1 9h1a7099.886 7099.886 0 0 1 .574 10.598c.257 4.869.486 9.737.68 14.609l.125 3.111c.08 2.009.156 4.017.228 6.026l.112 2.804.092 2.475c.2 2.52.647 4.91 1.189 7.377h-2v-3h-2v-10l-2-1c-.344-1.996-.344-1.996-.5-4.438-.151-3.728-.151-3.728-2.5-6.562-.588-6.012-.054-12.07 1-18h-1c-.03-3.542-.047-7.083-.063-10.625l-.025-3.027c-.016-4.898.045-9.535 1.088-14.348h-1c-.058-3.458-.094-6.916-.125-10.375l-.05-2.984-.02-2.852-.032-2.634C212 417 212 417 214 415Zm0 20 1 2Z"/>
  <path fill="#897E71" d="M785 622h1c.05 5.422.086 10.844.11 16.266.01 1.837.023 3.675.04 5.513.095 10.176-.078 20.02-1.723 30.078-.428 3.148-.473 6.097-.365 9.268.099 4.332-.456 7.937-1.562 12.125-1.726 6.585-1.593 12.484-1.215 19.219-.333 4.121-1.431 5.627-4.285 8.531-.38-26.781-.38-26.781.875-39.625l.238-2.448c.706-6.496 1.917-12.883 3.441-19.236 1.753-7.679 1.857-15.344 2.009-23.191.057-2.698.123-5.396.19-8.094l.073-3.584C784 624 784 624 785 622Z"/>
  <path fill="#ABA49D" d="M153 398h1l.06 2.329c.555 37.87.555 37.87 10.018 74.303 1.115 2.863 1.12 5.12 1.047 8.18l-.055 2.958L165 488h2a1089.03 1089.03 0 0 1 2.063 9.188l.603 2.619c1.734 7.94 1.734 7.94.334 12.193h-1l-1.27-5.469c-.747-2.74-.747-2.74-2.144-6.12-1.921-5.038-3.018-10.212-4.149-15.474-1.317-6.042-2.733-11.99-4.437-17.937-.593-2.636-1.115-5.284-1.625-7.938l-.406-2.072c-.326-1.663-.648-3.326-.969-4.99l-2 4c-1-1-1-1-1.063-4.563L151 448h2l.063-3.813.035-2.144c-.015-2.246-.015-2.246-1.098-5.043-.096-2.263-.13-4.528-.133-6.793l-.003-2.015c0-1.408.001-2.816.006-4.223.005-2.131 0-4.262-.007-6.393-.003-6.598.071-13.053 1.137-19.576Z"/>
  <path fill="#9B948D" d="m626 245-1 1 7 2c-6.205 15.76-29.316 29.166-44 36-15.828 6.751-34.01 13.301-51.438 13.063l-2.62-.028L532 297v-1l1.898-.184 2.477-.253 2.46-.247c2.208-.207 2.208-.207 4.165-1.316 1.54-.07 3.083-.085 4.625-.063l2.477.028L552 294l1-2a105.31 105.31 0 0 1 7.125-1.438c5.397-.9 9.886-2.295 14.875-4.562a146.896 146.896 0 0 1 4.563-1.5c3.675-1.186 6.996-2.738 10.437-4.5h2l1-4 3.188-.25c5.001-.984 7.3-3.239 10.812-6.75l2-1v-2c3-2 3-2 7-2v-2c2.004-1.856 4.121-3.535 6.25-5.246 2.103-1.695 2.103-1.695 1.75-4.754h4l-1-2c-2.147.308-4.292.621-6.438.938l-3.62.527c-2.822.225-2.822.225-3.942 1.535-2 .04-4 .043-6 0l4-2h-9c2.408-2.408 4.422-3.008 7.625-4.125l3.04-1.07L615 245l1 2 1.68-.691 2.195-.871 2.18-.88C624 244 624 244 626 245Z"/>
  <path fill="#CAC6C1" d="M200 1248c1.994.493 3.983.995 5.965 1.535 2.986.799 5.552 1.477 8.66 1.402 4.402.116 7.803 2.681 11.375 5.063 2.049.444 4.115.813 6.188 1.125l3.292.508 2.52.367v1c-9.41.185-9.41.185-14-1v2l2.188.375c2.812.625 2.812.625 5 1.563 2.606.984 4.891 1.465 7.625 1.937 4.968.924 8.781 2.677 13.187 5.125v1c-6.287-.34-11.85-1.057-17.758-3.254-2.389-.795-4.696-1.215-7.18-1.621-4.766-.87-8.606-2.682-12.835-5.004-2.09-1.052-3.943-1.657-6.227-2.121v-2h-4v-3h-3l-1-5Z"/>
  <path fill="#D3CFCA" d="M403 234c5.765 1.03 11.048 2.698 16.5 4.813 14.509 5.55 28.696 8.946 44.066 11.292 4.568.71 8.972 1.69 13.434 2.895v1c-6.82.19-13.182.254-19.8-1.496-3.314-.76-6.65-.945-10.036-1.16C445 251 445 251 442 249c-4.462-1.002-4.462-1.002-8.89-.398-2.954.557-4.675-.385-7.423-1.54-4.503-1.76-7.837-2.157-12.687-2.062-5.16-1.821-7.369-4.243-10-9v-2Z"/>
  <path fill="#E8E5E0" d="M592 206v2c-32.03 11.61-70.124 9.054-103.306 6.184-2.575-.176-5.114-.217-7.694-.184l1-3 2.949.2c34.09 2.257 67.591 3.268 101.076-4.835C588 206 588 206 592 206Z"/>
  <path fill="#817B6D" d="M787 675h1c.023 10.588.04 21.176.052 31.764.005 4.916.012 9.833.023 14.75.011 4.745.017 9.492.02 14.238.002 1.81.005 3.618.01 5.428.008 2.537.009 5.074.009 7.612l.01 2.258c-.008 4.09-.329 7.938-1.124 11.95h-2c-.868-6.199-1.323-12.389-1.746-18.633-.288-3.816-.724-7.578-1.254-11.367h2v-6l-2 1 1-13h2v-9h1l1-31Z"/>
  <path fill="#B7AFA8" d="m608 243 3 2-5 5h7c-3.069 3.069-6.914 3.744-11 5l-3.313 1.063C592.616 257.606 586.284 259 580 259c3.228-2.75 4.521-3.104 9-4l-20 1c3.01-1.505 5.89-2.756 9-4l1.688-.91c6.135-3.152 12.34-4.111 19.104-5.05 3.703-.53 6.049-.934 9.208-3.04Z"/>
  <path fill="#DCDAD5" d="M551 253c-1.565 2.553-2.353 3.826-5.305 4.62-2.585.365-5.021.507-7.63.51l-2.896.009-3.103-.006-3.24.003c-2.266 0-4.531-.001-6.796-.006-3.424-.005-6.847 0-10.27.007-10.962.003-21.841-.055-32.76-1.137l-1-3 2.09.007c6.545.02 13.09.035 19.636.045 3.364.005 6.727.012 10.091.023 3.88.013 7.76.018 11.64.023l3.606.015c6.224 0 12.33-.22 18.519-.898 2.485-.221 4.924-.25 7.418-.215Z"/>
  <path fill="#83796D" d="M801 565h1c1.162 8.804.915 15.623-2 24l-1.023 3.105a520.396 520.396 0 0 1-2.012 5.973c-1.98 5.994-3.226 11.262-3.38 17.606-.018.7-.038 1.4-.058 2.122-.059 2.21-.106 4.42-.152 6.631l-.117 4.53c-.096 3.677-.18 7.355-.258 11.033h-1c-3.431-14.524-4.472-29.21.212-43.477 1.644-5.266 3.035-10.61 4.485-15.933.89-3.26 1.792-6.517 2.694-9.774l.938-3.392L801 565Z"/>
  <path fill="#B9B2AA" d="M783 630h1c.852 34.297.852 34.297-4 44-2.221 14.771-2.164 29.548-1.926 44.441l.026 2.27c.016 1.42.041 2.842.076 4.263.017 1.676-.07 3.353-.176 5.026l-2 2-1-15-2 12h-1c-.188-9.45.065-18.686 2.438-27.875 1.8-7.191 2.35-14.416 2.915-21.787l.217-2.787c.06-.829.12-1.657.18-2.51C778 672 778 672 779 670c.118-1.794.179-3.593.21-5.39l.081-3.323.084-3.537c.283-9.59.949-18.493 3.625-27.75Z"/>
  <path fill="#ECE9E6" d="M397 190c6.006.566 10.978 2.417 16.563 4.625 18.818 7.12 38.756 11.101 58.609 14.134l2.656.417 2.31.34C479 210 479 210 481 212c-11.193.393-22.096-1.31-32.878-4.251-3.02-.724-5.94-1.133-9.02-1.499-7.948-1.186-15.15-3.887-22.602-6.75a2533.97 2533.97 0 0 0-4.031-1.512c-5.178-1.943-10.34-3.92-15.469-5.988v-2Z"/>
  <path fill="#9D948B" d="M235 492c2.873 1.436 3.303 3.359 4.625 6.25l1.352 2.89c1.035 2.893 1.132 4.827 1.023 7.86l.489 1.865c.552 2.307.625 4.313.609 6.682l-.01 2.558-.025 2.645-.014 2.691c-.012 2.187-.028 4.373-.049 6.559l-2 1a99.12 99.12 0 0 0-.5 6.938c-.278 6.84-.278 6.84-2.5 9.062l-.06-2.36c-.48-19.825-.48-19.825-2.28-39.563-.634-5.062-.735-9.973-.66-15.077Z"/>
  <path fill="#CBC6C1" d="m161 400 3 1c1.698 16.651 3.382 33.266 4 50h2l1 13h2c.222 1.602.427 3.207.625 4.813l.352 2.707C174 474 174 474 172 477v-4h-2c-8.57-38.623-8.57-38.623-8.04-55.105.082-5.974-.505-11.942-.96-17.895Z"/>
  <path fill="#B7B0A9" d="M190 422c2.692 2.692 3.119 5.663 4 9.25.931 3.704 1.87 7.37 3.105 10.988.895 2.762.895 2.762 1.208 6.7.455 5.15 2.168 9.845 3.96 14.657 1.424 3.95 1.978 7.213 1.727 11.405h2c2.108 6.606 3.766 13.176 5 20l3 1-2 1 .84 1.977c1.934 4.666 3.626 8.953 4.16 14.023h-2c-6.053-15.158-10.973-30.483-15.188-46.25-.332-1.243-.665-2.485-1.009-3.765a437.085 437.085 0 0 1-5.162-21.932c-.943-4.491-2.017-8.946-3.09-13.408C190 425 190 425 190 422Z"/>
  <path fill="#BEB9B4" d="m178 365 .684 6.152c.135 1.86.135 1.86 1.316 2.848.235 2.35.414 4.706.563 7.063l.253 3.91L181 388h2a8137.7 8137.7 0 0 1 2.938 13.063l.841 3.724.81 3.623.747 3.317c.692 3.412 1.204 6.822 1.664 10.273-1.907-2.86-2.556-4.625-3.367-7.895l-.746-2.896c-.505-2.001-1.005-4.004-1.5-6.008-1.435-5.533-3.034-9.508-6.387-14.201-1.703-3.363-3.225-6.803-4.75-10.25l-1.246-2.758C169 371.266 169 371.266 169 369h2c1.625 2 1.625 2 3 4v-7c3-1 3-1 4-1Z"/>
  <path fill="#998F85" d="M217 590h1l-1 9h2c.226 5.419-.533 9.775-2 15l4 1c.081 2.229.14 4.458.188 6.688l.105 3.761c-.308 3.737-1.112 5.557-3.293 8.551-1.458-2.915-1.655-5.78-2-9l1-2-3-1v-4h-2c-.027-1.48-.046-2.958-.063-4.438l-.035-2.496C212 609 212 609 213 608a225.9 225.9 0 0 0 .563-8.063l.13-2.298c.107-1.88.207-3.76.307-5.639h2l1-2Z"/>
  <path fill="#F3F2EF" d="M434 310c4.14.647 7.564 2.027 11.375 3.75C475.599 326.981 511.181 333.065 544 328l-1 3c-23.938 1.42-46.694.93-70-5-1.666-.336-3.333-.67-5-1-11.823-2.988-23.596-7.628-34-14v-1Z"/>
  <path fill="#ADA499" d="m795 638 3 1 .184 2.773.254 3.602c.08 1.183.162 2.367.246 3.586.127 2.954.127 2.954 1.316 5.039-.55 3.527-1.228 7.018-1.918 10.52-.393 3.54-.393 3.54 1.637 6.351 6.606 6.165 19.677 4.754 28.281 5.129v2c-23.875 1.07-23.875 1.07-31-5-3.476-3.9-3.577-6.923-4-12h1l1-23Z"/>
  <path fill="#B9B3AD" d="m228 935 2 1c.493 2.42.85 4.74 1.125 7.188l.257 2.154c.76 6.898.813 13.72.618 20.658h2l.148 2.117.227 2.758c.07.905.14 1.81.21 2.742.21 2.562.21 2.562 2.415 4.383.266 2.75.266 2.75.25 6l.016 3.25C237 990 237 990 235 992l-.813-3.688c-1.152-5.207-2.375-10.398-3.601-15.59C230 970 230 970 230 968h-2v-33Z"/>
  <path fill="#C4BFBA" d="M52 585c3.234.728 6.461 1.486 9.688 2.25l2.763.621c5.084 1.22 8.715 2.352 12.549 6.129h-3l-1 4-6-5 1 1c.362 1.326.697 2.66 1 4l-3 1-1 2-1-3c-2.015-.733-2.015-.733-4-1l-1 4v-3l-4-1v-2l6 1v-2l-4-1-1-4-5-1 1-3Z"/>
  <path fill="#F2F0EB" d="m703 219 2.719 1.32c6.424 3.08 12.82 5.955 19.531 8.368C741.914 234.69 757.942 242.553 774 250v2c-5.946-1.05-10.89-2.772-16-6-2.083-1.252-2.083-1.252-4-2l-2 1v-3l-1.75-.375C748 241 748 241 746.125 240c-2.663-1.253-5.222-1.604-8.125-2v-2c-6.594-2.296-13.25-4.22-20-6v-2l-1.64-.34c-2.86-.8-5.417-1.972-8.11-3.222l-2.984-1.38L703 222v-3Z"/>
  <path fill="#AAA29E" d="m361 201 2 1-.691 2.168c-2.295 7.954-2.404 14.653-1.309 22.832-2.313-2.313-2.496-3.479-3.125-6.625l-.508-2.477L357 216v8c-2.351-3.527-2.214-5.029-2.125-9.188l.055-3.292.07-2.52h-3l-1.813 1.875c-2.592 2.518-4.794 2.994-8.187 4.125a89.782 89.782 0 0 0-4 4h-2l-1 2c-2.314.73-4.648 1.401-7 2 1.36-3.277 2.545-4.653 5.676-6.297l2.242-1.206 2.394-1.247c1.633-.874 3.265-1.75 4.895-2.629l2.452-1.32c4.438-2.466 8.68-5.234 12.935-8L361 201Z"/>
  <path fill="#908980" d="M218 1016h2l-.063 2.813c-.095 3.21-.095 3.21 1.063 6.187l-2 2c-1.305 4.454-2.168 9.022-3.125 13.563l-.84 3.79c-1.434 6.714-2.254 12.792-2.035 19.647l-1 1a93.84 93.84 0 0 0-.316 5.102l-.127 3.175-.12 3.348-.13 3.277c-.17 4.398-.334 8.787-.303 13.188-.004 2.787-.349 5.208-1.004 7.91h-2c.205-20.347 1.006-39.984 5-60l1.375-7.09A1537.742 1537.742 0 0 1 218 1016Z"/>
  <path fill="#F2EFEC" d="M359 227c2.483 2.483 3.16 4.723 4.438 8 6.047 14.652 14.974 27.31 25.562 39 1.336 1.519 2.67 3.04 4 4.563l1.563 1.753c1.566 1.836 3.008 3.74 4.437 5.684l-3 1-2-1-1 2-.75-3.875c-.688-3.285-.688-3.285-3.188-5.313L387 278c-3-4.286-3-4.286-3-7h-2l-1-4h-2v-2l-3-1c-7.86-10.56-14.941-23.96-17-37Z"/>
  <path fill="#C0BBB5" d="M237 990c1.658 2.93 2.253 5.152 2.438 8.5.408 5.046 1.568 9.698 2.863 14.582.951 3.97 1.36 7.854 1.699 11.918h2l.313 3.813c.51 4.743 1.69 9.146 3.066 13.707.621 2.48.621 2.48.621 6.48l-4-1-.148-1.758c-.452-4.714-1.29-8.753-2.852-13.242l-.5-3.75c-.184-3.328-.184-3.328-2.5-5.25-.344-2.066-.344-2.066-.5-4.563-.262-3.34-.684-6.394-1.563-9.625-1.575-6.463-1.094-13.208-.937-19.812Z"/>
  <path fill="#E6E3DE" d="M581 256v1l-11 1v2c-54.1 4.175-54.1 4.175-80 2v-1l1.93-.031c6.601-.108 13.203-.223 19.805-.341a5188 5188 0 0 1 7.4-.125c3.537-.058 7.074-.122 10.611-.187l3.365-.05 3.094-.06 2.739-.048c2.048.067 2.048.067 3.056-1.158 3.956-.588 7.937-.955 11.916-1.357 1.983-.202 3.964-.413 5.945-.625 7.074-.728 14.027-1.235 21.139-1.018Z"/>
  <path fill="#86796D" d="m626 245-1 1 7 2c-2.013 4.424-4.965 7.297-8.375 10.688l-1.75 1.798c-.565.566-1.13 1.13-1.71 1.713l-1.55 1.558c-1.844 1.42-3.342 1.833-5.615 2.243l1-2h2v-2c2.004-1.856 4.121-3.535 6.25-5.246 2.103-1.695 2.103-1.695 1.75-4.754h4l-1-2c-2.147.308-4.292.621-6.438.938l-3.62.527c-2.822.225-2.822.225-3.942 1.535-2 .04-4 .043-6 0l4-2h-9c2.408-2.408 4.422-3.008 7.625-4.125l3.04-1.07L615 245l1 2 1.68-.691 2.195-.871 2.18-.88C624 244 624 244 626 245Z"/>
  <path fill="#EFEEE9" d="M820 274c4.467.534 7.59 1.622 11.45 3.914l3.071 1.809 3.167 1.902c1.025.605 2.05 1.21 3.107 1.832C850.936 289.467 860.84 295.559 870 303l-1 2c-2.313.313-2.313.313-5 0l-1.25-2.125c-2.756-4.527-7.738-8.102-12.926-9.434-.602-.145-1.204-.29-1.824-.441l-1.75-1.813c-3.952-3.842-8.895-6.004-14.25-7.187v-3l-1.734-.371c-2.366-.657-4.338-1.566-6.516-2.692l-2.14-1.097L820 276v-2Z"/>
  <path fill="#8C8379" d="M232 749h2c.03 3.146.047 6.292.063 9.438l.025 2.662c.018 4.95-.221 9.74-.832 14.65-.461 4.051-.63 8.117-.819 12.188l-.135 2.731c-.206 4.537-.325 9.051-.259 13.593l.035 2.486c.03 1.552.075 3.103.135 4.654.112 5.23.112 5.23-1.73 7.316L229 820c-.695-23.719 1.345-47.356 3-71Z"/>
  <path fill="#EDECEA" d="m669 251 2 1c-4.345 8.914-8.966 15.921-16 23l-2.809 2.887c-3.782 3.86-7.555 7.703-11.754 11.113-2.61 1.944-2.61 1.944-4.437 5-1.875.625-1.875.625-4 1l-2.25.563L628 296c3.625-4.875 3.625-4.875 7-6l1-2a381.113 381.113 0 0 1 6-5l2-2c1.115-1.01 2.241-2.01 3.375-3l1.773-1.563C651 275 651 275 653.164 273.957c2.649-1.38 2.813-3.207 3.836-5.957a878.73 878.73 0 0 1 4-5c1.254-1.9 2.484-3.817 3.688-5.75 3.22-5.157 3.22-5.157 4.312-6.25Z"/>
  <path fill="#CBC6C0" d="M858 469h1c.54 5.944-.996 10.54-2.992 16.125A67.542 67.542 0 0 0 854 492c-1.124 3.373-2.446 4.6-5 7l-1.5 3.188C846 505 846 505 843.812 505.875L842 506v-6l1.938-.75c2.216-1.016 2.216-1.016 2.515-2.984L847 494c.905-1.85 1.847-3.681 2.813-5.5 2.7-5.277 4.686-10.54 6.425-16.2C857 470 857 470 858 469Z"/>
  <path fill="#DEDCD8" d="m398 223 7 3v3l3-1c1.867.996 1.867.996 3.875 2.438 3.188 2.129 5.188 3.177 9.125 2.562v2l2.563-.688c4.318-.392 6.564.82 10.437 2.688 1.993.688 3.99 1.363 6 2l-1 2-1.941-.438-2.622-.562-2.566-.563c-2.905-.545-2.905-.545-6.004-.246-5.534-.273-10.08-2.188-15.18-4.254l-3.033-1.123c-7.077-2.843-7.077-2.843-8.765-5.685-.557-1.938-.557-1.938-.889-5.129Z"/>
  <path fill="#C0BAB4" d="M214 415h1c.097 6.115-.23 11.933-1 18l3-1c1.304 3.934.257 5.887-1.284 9.668-1.34 4.363-1.025 8.81-.904 13.332l.042 2.926c.035 2.358.084 4.716.146 7.074l-3 1c-.03-3.542-.047-7.083-.063-10.625l-.025-3.027c-.016-4.898.045-9.535 1.088-14.348h-1c-.058-3.458-.094-6.916-.125-10.375l-.05-2.984-.02-2.852-.032-2.634C212 417 212 417 214 415Zm0 20 1 2Z"/>
  <path fill="#C3BEBA" d="M415 244c4.132.44 7.662 1.177 11.563 2.625 3.924 1.39 6.333 1.196 10.437.375 2.863.77 5.355 1.678 8 3 1.704.226 3.413.409 5.125.563l2.758.253L455 251l-1 3 3.938-.125c4.898-.016 9.344.876 14.062 2.125v1c-6.715.17-12.953-.396-19.563-1.563l-2.965-.519c-7.737-1.435-15.29-3.357-22.847-5.543l-3.17-.912c-5.487-1.65-5.487-1.65-7.455-2.463l-1-2Z"/>
  <path fill="#B8B2AC" d="M200 1248c1.994.493 3.983.995 5.965 1.535 2.992.8 5.61 1.465 8.722 1.465 2.813 0 4.776.84 7.313 2v1h-11v2l1.527.316c3.446.953 6.724 2.29 10.036 3.621l2.037.803c3.038 1.216 5.666 2.437 8.4 4.26-7.304 0-12.298-1.393-18.668-4.844-2.132-1.057-4.01-1.686-6.332-2.156v-2h-4v-3h-3l-1-5Z"/>
  <path fill="#8B8177" d="M221 523c2.526 2.363 3.888 3.665 5 7l4-1c2.153 3.858 3.393 6.551 3 11l2 1 .148-1.934.227-2.504c.07-.823.14-1.647.21-2.496L236 532l2-1 1 26h-1l-.734-3.074c-1.154-4.025-3.17-7.301-5.516-10.739a2681.42 2681.42 0 0 1-2.418-3.664l-1.197-1.801a273.782 273.782 0 0 1-4.697-7.41l-1.442-2.324C221 526 221 526 221 523Z"/>
  <path fill="#BCB7B1" d="M233 429h3c1.593 6.425 2.196 11.478 1 18l-.563 3.5L236 453l3-1-.563 2.75c-.42 3.118-.189 4.331.563 7.25.465 6.357-.194 11.905-2 18-1.882-3.141-2.152-4.97-1.563-8.563.503-3.139.6-4.325-.437-7.437-.477-3.633-.753-7.287-1.063-10.938l-.27-3.138c-.577-6.998-.939-13.902-.667-20.924Z"/>
  <path fill="#6A6056" d="M236 606h1l.184 3.648.254 4.727.119 2.406c.132 4.245.132 4.245 1.443 8.219l-.563 2.688c-.526 3.987.359 6.498 1.563 10.312 1.183 6.452 1.183 6.452 0 10h-2l.625 1.875L239 652l-2 2c-1.583-7.304-2.47-12.862 0-20h-2c-.029-4.48-.047-8.958-.063-13.438l-.025-3.876-.01-3.682-.016-3.412C235 607 235 607 236 606Z"/>
  <path fill="#CBC7C4" d="M361 226c2.228 2.228 2.692 3.658 3.625 6.625.26.817.52 1.635.79 2.477L366 237h2l.629 2.02c5.439 16.27 17.144 29.679 28.691 42.09C399 283 399 283 400 285c-15.934-7.296-27.891-30.538-35.5-45.563l-1.026-2.02c-1.682-3.427-3.076-6.598-3.474-10.417l1-1Z"/>
  <path fill="#D1CDC9" d="M132 616c3.47.458 6.674.891 10 2v2l3.688.75c7.943 1.762 15.795 4.132 23.312 7.25-3.26 1.086-5.105.913-8.328-.215l-2.422-.83-2.5-.893-2.547-.88A735.338 735.338 0 0 1 147 623l-2 4 4 1v2c-5.277-.539-9.256-1.773-14-4l1-5 4 1v2h2c-.666-3.116-.666-3.116-3.066-4.168l-2.496-1.02-2.504-1.042L132 617v-1Z"/>
  <path fill="#C7C2BD" d="M349 562h1l.148 2.598c.4 7.391.4 7.391 1.977 14.59C353 582 353 582 352 584a101.87 101.87 0 0 0-.625 5c-.095.887-.19 1.774-.29 2.688-.271 2.34-.271 2.34.915 4.312-.559 1.945-.559 1.945-1.438 4.125l-.87 2.195L349 604h-1c-.192-5.499-.371-10.998-.537-16.498-.059-1.871-.12-3.742-.187-5.613-.094-2.688-.174-5.376-.253-8.065l-.097-2.538c-.154-5.944-.154-5.944 2.074-9.286Z"/>
  <path fill="#B6ADA3" d="m811 564 2 1-1.875 3.125c-1.371 2.378-2.279 4.355-3.125 7-1 2.875-1 2.875-3.188 5.375-2.183 2.4-2.183 2.4-1.375 5.5l.563 3-1.398 2.266c-1.894 3.233-2.233 5.779-2.664 9.484A88.758 88.758 0 0 1 799 607l-2 1c-.562-9.538.836-17.04 4-26l.98-3.344c2.85-9.582 2.85-9.582 8.02-12.656l1-2Z"/>
  <path fill="#ACA49D" d="M234 986h1c1.81 5.597 2.546 10.965 3.063 16.813.154 1.694.31 3.388.472 5.082l.2 2.245c.178 1.949.178 1.949 1.265 3.86.272 2.56.446 5.12.621 7.688.18 2.501.18 2.501 2.379 4.312 1.589 5.687 2.564 11.215 1 17-2.476-2.476-2.252-4.074-2.586-7.434-.95-5.892-2.739-12.215-5.414-17.566-.209-2.94-.375-5.868-.5-8.813-.209-4.842-.491-9.436-1.5-14.187a88.097 88.097 0 0 1-.063-4.813l.028-2.394L234 986Z"/>
  <path fill="#A39A91" d="M780 672c.79 2.802 1.137 5.322 1.177 8.23l.039 2.499.022 2.673.025 2.772c.014 1.933.024 3.865.032 5.797.012 1.976.032 3.952.062 5.927a755.8 755.8 0 0 1 .069 8.567l.053 2.668c-.015 4.26-.113 6.308-2.506 9.963L777 723c-.62-43.758-.62-43.758 3-51Z"/>
  <path fill="#A49C95" d="M153 398h1l.076 2.567c.095 3.165.195 6.33.296 9.494.043 1.365.085 2.73.125 4.096.059 1.971.123 3.942.187 5.913l.11 3.587c.146 3.312.146 3.312.72 6.425.484 2.907.6 5.591.584 8.535l-.01 3.086-.025 3.172-.014 3.242c-.012 2.628-.028 5.255-.049 7.883l-2-4-2 4c-1-1-1-1-1.063-4.563L151 448h2l.063-3.813.035-2.144c-.015-2.246-.015-2.246-1.098-5.043-.096-2.263-.13-4.528-.133-6.793l-.003-2.015c0-1.408.001-2.816.006-4.223.005-2.131 0-4.262-.007-6.393-.003-6.598.071-13.053 1.137-19.576Z"/>
  <path fill="#D0CCC8" d="m156 421 2 1c.379 2.984.379 2.984.563 6.75.244 5.042.244 5.042 1.027 10.016C160 441 160 441 159 444c.097 3.97.522 7.805 2 11.5 1.697 4.243 2 8.944 2 13.5h2l2 13-2 1-.75-3.625c-.896-4.088-2.04-8.057-3.25-12.063-4.332-14.993-5.286-30.762-5-46.312Z"/>
  <path fill="#B2ABA4" d="M346 566h1c1.022 4.223 1.161 8.324 1.168 12.645l.01 2.207c.005 1.538.007 3.075.007 4.612.002 2.33.02 4.66.04 6.991.003 1.5.005 3.001.005 4.502l.022 2.081c-.023 4.993-.945 9.186-2.252 13.962a111.091 111.091 0 0 0-.625 6l-.227 2.875L345 624l-3 1-1-3 2-3c.254-2.71.416-5.348.5-8.063.25-5.698.738-11.072 2.023-16.644.843-4.054 1.144-8.17 1.477-12.293h-2l1-16Z"/>
  <path fill="#E9E8E4" d="M482 211a6984.953 6984.953 0 0 0 15.411.854c1.741.096 3.482.193 5.222.292 10.804.61 21.545 1.001 32.367.854-3.11 3.11-6.652 2.939-10.92 3.133-8.23-.021-16.377-.483-24.58-1.133-2.448-.19-4.896-.377-7.344-.563l-3.224-.253A104.612 104.612 0 0 0 481 214l1-3Z"/>
  <path fill="#9C938A" d="M787 728h1c.025 4.02.043 8.04.055 12.06.005 1.366.012 2.732.02 4.097.013 1.971.018 3.942.023 5.913l.016 3.587c-.11 3.205-.509 6.198-1.114 9.343h-2c-.868-6.199-1.323-12.389-1.746-18.633-.288-3.816-.724-7.578-1.254-11.367h2l1-3 1 6 1-8Z"/>
  <path fill="#655B4F" d="M186 1269h2l3 9h2c1.625 1.5 1.625 1.5 3 3l2-1 .063 2.25c1.083 3.178 1.682 3.478 4.5 5.063L206 1289c-2.266 2.098-3.352 3.016-6.5 2.938-6.027-2.26-7.94-7.48-10.5-12.938l-1.75-3.25C186 1273 186 1273 186 1269Z"/>
  <path fill="#A29990" d="M176 391c2 1 2 1 3.063 2.906 1.357 4.48 1.592 8.94 1.937 13.594.925 14.05.925 14.05 4.086 27.695.938 2.879.98 4.034-.086 6.805l-1-3h-2l-1-11h-1l-1-8h-1l.035-2.3.028-3.012.035-2.989c.025-2.799.025-2.799-1.098-5.699h2l-2-5h-1v-10Z"/>
  <path fill="#6B5D53" d="M235 695h1c2.012 23.964 2.012 23.964 0 30a83.02 83.02 0 0 0 .008 4.816l.05 2.815c.045 1.958.097 3.917.157 5.875l.043 2.81.067 2.577L236 746l-3 2c-.36-17.74.753-35.316 2-53Z"/>
  <path fill="#7A7062" d="m223 657 4 1 .375 1.938L228 662l2 1c-3.448 4.9-7.01 9.468-13 11-2.692.146-5.3.092-8 0 1.375-2 1.375-2 3-4h2a141.4 141.4 0 0 0 5-5l2 1-1 4c2.25-1.41 2.25-1.41 4-4 .058-3.076-.408-5.987-1-9Z"/>
  <path fill="#D1CDC8" d="M69 631c6.425.67 11.733 2.623 17.66 5.121l2.715 1.129 2.523 1.078c2.128.95 2.128.95 4.102-.328v3l7 1v2l2.688.375c3.016.57 5.515 1.391 8.312 2.625v2c-8.612-2.334-16.902-5.487-25.226-8.67-2.36-.901-4.724-1.79-7.088-2.68-1.501-.571-3.002-1.143-4.502-1.716l-2.143-.802c-4.927-1.903-4.927-1.903-6.041-4.132Z"/>
  <path fill="#72695F" d="M237 551h1l.184 1.934.254 2.504.246 2.496c.105 2.053.105 2.053 1.316 3.066.099 1.623.13 3.25.125 4.875l.008 2.68C240 571 240 571 239 574a303.318 303.318 0 0 0-.5 8.375c-.42 9.105-.42 9.105-1.5 13.625h-1a6535.01 6535.01 0 0 1-.055-15.85c-.005-1.796-.012-3.591-.02-5.387-.013-2.589-.018-5.178-.023-7.767l-.015-2.41c0-4.635.344-9.013 1.113-13.586Z"/>
  <path fill="#DFDBD6" d="m423.566 247.328 3.388.922 3.608 1c10.76 2.899 21.403 5.235 32.438 6.75l1 3c-5.26-.6-10.357-1.422-15.535-2.559l-2.068-.452c-1.43-.313-2.859-.628-4.288-.945-2.169-.48-4.339-.955-6.51-1.429-17.924-3.94-17.924-3.94-20.599-6.615 3.611-1.204 4.942-.684 8.566.328Z"/>
  <path fill="#9C938C" d="M209 1102h2c1.293 4.965 1.184 9.907 1.188 15l.037 2.695c.01 4.618-.197 8.077-2.225 12.305a113.902 113.902 0 0 0-1.125 5.313l-.508 2.675L208 1142h-2a353278279.148 353278279.148 0 0 0 .684-8.008c.316-2.992.316-2.992.816-5.617.75-5.064.87-10.138 1.063-15.25l.13-3.242c.106-2.628.208-5.255.307-7.883Z"/>
  <path fill="#A99F97" d="M229 828c1.656 2.908 2.247 4.972 2.227 8.31v2.547l-.032 2.721-.008 2.808c-.011 2.955-.037 5.91-.062 8.864-.01 2.005-.02 4.01-.027 6.016-.022 4.911-.057 9.823-.098 14.734h-3c-.025-5.587-.043-11.173-.055-16.76-.005-1.9-.012-3.798-.02-5.698-.013-2.735-.018-5.47-.023-8.206l-.015-2.558c0-4.376.232-8.468 1.113-12.778Z"/>
  <path fill="#BAB4AE" d="m177 382 3 1 1 5h2a8137.7 8137.7 0 0 1 2.938 13.063l.841 3.724.81 3.623.747 3.317c.692 3.412 1.204 6.822 1.664 10.273-1.907-2.86-2.556-4.625-3.367-7.895l-.746-2.896c-.505-2.001-1.005-4.004-1.5-6.008-1.436-5.538-2.942-9.636-6.387-14.201-2.21-5.368-2.21-5.368-1-9Z"/>
  <path fill="#968D83" d="M198 486c3 1 3 1 4.098 2.637C207 499.057 207 499.057 207 503h2c.182.568.364 1.137.55 1.723 1.59 4.884 3.355 9.587 5.45 14.277l-2 1-.734-1.54c-2.141-4.395-4.506-8.412-7.266-12.46-1.723-3.035-2.494-5.824-3.125-9.25l-.508-2.703L201 492h-2l-1-6Z"/>
  <path fill="#9A9188" d="M187 450c2.296 3.445 2.54 5.938 3 10h2c2.43 6.328 3.59 12.238 4 19h2v5l-2 1-.875-2.438c-.858-2.695-.858-2.695-3.125-3.562l1-9h-2l-2-8h-1l-1-12Z"/>
  <path fill="#B1A9A3" d="M228 888h3l-.438 2.84c-1.462 10.36-1.719 20.494-1.488 30.955l.051 3.139.07 2.814C229 930 229 930 227 932c-.025-5.945-.043-11.89-.055-17.834-.005-2.024-.012-4.047-.02-6.07-.013-2.905-.018-5.809-.023-8.713l-.015-2.753v-2.547l-.007-2.248C227 890 227 890 228 888Z"/>
  <path fill="#514537" d="M789 612h1l.148 3.332c.372 7.576.828 14.937 2.45 22.371.444 2.539.674 4.728.402 7.297l-3 2-1-7h-1c-.029-4.48-.047-8.958-.063-13.438l-.025-3.876-.01-3.682-.016-3.412C788 613 788 613 789 612Z"/>
  <path fill="#BEB9B5" d="m202 279 2 1c-2.7 3.028-4.979 5.17-8.75 6.625L192 288l-1 3-3-1-2 2a69.527 69.527 0 0 1-3.938 2.188l-2.09 1.105C178 296 178 296 175 295c4.035-4.536 9.795-6.907 15.063-9.75l3.376-1.863 3.221-1.746 2.957-1.609L202 279Z"/>
  <path fill="#C3BCB6" d="m180 528 1 2h2l.332 2.266.48 2.984.458 2.953c.549 2.825.549 2.825 2.27 4.848 1.801 2.404 1.88 3.915 2.023 6.886.26 3.764.916 6.587 2.437 10.063l-1 2h-2l-.621-1.934-.816-2.504-.81-2.496c-.575-2.028-.575-2.028-1.753-3.066-.449-3.06-.817-6.117-1.162-9.19-.506-4.168-1.47-7.853-2.838-11.81v-3Z"/>
  <path fill="#A0978E" d="m608 243 3 2-5 5h7c-2.161 2.161-3.521 2.716-6.375 3.688l-2.336.824c-2.49.53-3.905.3-6.289-.512l2-1h-8l4-2v-2l2.063-.75c3.506-1.492 6.653-3.318 9.937-5.25Z"/>
  <path fill="#DDDCD8" d="m510 250 2-1v2l2.813-.5c6.725-.959 13.554-1.009 20.187.5l1-2 3.563.563c4.05.52 7.436.187 11.437-.563l-1 2c-4.837 1.55-10.09 1.125-15.113 1.098l-2.938-.005c-3.087-.005-6.174-.018-9.261-.03-2.098-.006-4.195-.01-6.292-.014-5.132-.011-10.264-.028-15.396-.049 2.045-4.09 5.243-2.77 9-2Z"/>
  <path fill="#D1CDC7" d="M166 484c2 2 2 2 2 6l3 1c2.28 6.158 2.28 6.158 1 10l2 1c.633 2.723.633 2.723 1.125 6.063l.508 3.347L176 514l-3-1-.375-2.438L172 508l-2-1c-.594-1.794-.594-1.794-1.07-4.113l-.528-2.533-.527-2.666-.55-2.631c-.78-3.819-1.325-7.133-1.325-11.057Z"/>
  <path fill="#716657" d="M785 662h1c.146 3.998.288 7.995.427 11.993.07 2.009.144 4.017.218 6.025.31 9 .413 17.976.355 26.982l-2-1c-1.086-4.994-1.03-9.822-.96-14.914-.044-3.37-.347-6.668-.665-10.024-.535-6.63.19-12.589 1.625-19.062Z"/>
  <path fill="#CECAC6" d="M62 589c6.073-.506 9.772.958 15 4l-3 1c-.733 2.015-.733 2.015-1 4l-6-5 1 1c.362 1.326.697 2.66 1 4l-3 1-1 2-1-3-2-1h3l-1.5-2.313C62 592 62 592 62 589Z"/>
  <path fill="#DCDAD6" d="m458.313 242.438 3.238.87L464 244v2l1.977.148c4.956.424 9.353 1.009 14.023 2.852v1c-6.433.095-12.658.153-19-1v-2c-4.71-1.766-9.03-2.486-14-3v-2c4.233-1.186 7.104-.719 11.313.438Z"/>
  <path fill="#EAE9E7" d="M678 213c3 2 3 2 3.688 3.785 1.445 10.538-2.632 22.04-7.688 31.215-1.688 1.875-1.688 1.875-3 3l-1-3h2l.586-2.047.789-2.703.773-2.672C675 238 675 238 676.04 236.047c2.352-5.01 2.092-10.498 2.024-15.922l-.014-2.086c-.012-1.68-.03-3.36-.049-5.039Z"/>
  <path fill="#B5B1AB" d="m361 201 2 1-.691 2.168c-2.295 7.954-2.404 14.653-1.309 22.832-2.313-2.313-2.496-3.479-3.125-6.625l-.508-2.477L357 216v8c-2.988-4.482-2.6-8.744-2-14 1.208-3.595 2.45-7.225 6-9Z"/>
  <path fill="#978E85" d="m210 1059 1 3h2l-1 3a116.8 116.8 0 0 0-.316 5.297l-.127 3.156-.12 3.297-.13 3.25c-.17 4.362-.334 8.716-.303 13.082-.004 2.79-.348 5.213-1.004 7.918h-2c.119-4.857.243-9.713.372-14.57.043-1.649.085-3.299.125-4.948.059-2.381.122-4.762.187-7.142l.05-2.21c.127-4.452.557-8.733 1.266-13.13Z"/>
  <path fill="#A79D94" d="M793 628c2.71 5.42 3.135 9.383 2.879 15.395l-.147 3.642-.17 3.775-.158 3.834c-.13 3.119-.264 6.236-.404 9.354l-1-3h-2l-2-4-1 17h-1v-22h3l2 5v-29Z"/>
  <path fill="#7E756B" d="M210 508h4c4 7.826 4 7.826 4 12l2 1v3a256.638 256.638 0 0 0 2 7l-3 1v-5h-2l-1.023-2.738-1.352-3.574-1.336-3.551c-1.204-3.223-1.204-3.223-3.289-6.137v-3Z"/>
  <path fill="#BEB6B0" d="M787 757h1l1 22h-2l-1 4c-.507-2.374-1.006-4.749-1.5-7.125l-.434-2.016c-.827-4.02-1.22-7.758-1.066-11.859l4 1v-6Z"/>
  <path fill="#99948A" d="m104 422 3 1-1.285 3.016c-3.824 9.077-7.294 18.21-10.405 27.557l-.83 2.454-.721 2.18C93 460 93 460 91 462c.593-7.034 3.03-13.38 5.375-20l1.21-3.484c1.96-5.596 3.98-11.11 6.415-16.516Z"/>
  <path fill="#E5E4E0" d="M246 1263c1.224.09 1.224.09 2.473.184 11.832.836 23.675 1.336 35.527 1.816l-1 2-1.906-.105c-6.153-.195-10.47.605-16.094 3.105l-1-2c-2.126-.467-2.126-.467-4.563-.625l-2.503-.227L255 1267v-2h-8l-1-2Z"/>
  <path fill="#A0958A" d="M801 565h1c1.157 8.767.921 15.646-2 24l-1.188 3.688L798 595c-2.93-10.363-.008-20.05 3-30Z"/>
  <path fill="#948D86" d="M160 354h2a858.767 858.767 0 0 1 4.563 9.188l1.326 2.619 1.24 2.548 1.158 2.333c.862 2.795.49 4.528-.287 7.312-2.951-1.476-3.07-3.5-4.125-6.563l-1.07-3.066L164 366l-2 2c-1.97-4.927-2.18-8.78-2-14Z"/>
  <path fill="#C7C2BC" d="m177 479 1 2h2v7l3 1v11h-4l-1-7h-1v-14Z"/>
  <path fill="#C0BBB6" d="M156 394h1c1.162 8.208 1.162 8.208.5 11.438-.699 3.58-.124 6.856.344 10.453L158 418l-1 1c-.65 10.946.39 22.07 1 33-5.046-9.502-3.097-23.312-3.125-33.813l-.014-3.755c.012-6.874.273-13.61 1.139-20.432Z"/>
  <path fill="#B1A9A2" d="M205 482h2c.67 1.79 1.336 3.582 2 5.375l1.125 3.023C211 493 211 493 211 495l3 1-2 1 .84 1.977c1.934 4.666 3.626 8.953 4.16 14.023h-2c-2.879-7.154-5.51-14.33-7.813-21.688l-.662-2.105C205 484.259 205 484.259 205 482Z"/>
  <path fill="#847A6F" d="M191 455c3.182 1.591 3.333 4.263 4.438 7.563 2.651 8.01 4.218 16.12 5.562 24.437l-3-1v-7h-2l-.586-2.633-.789-3.492-.773-3.445c-.802-3.426-.802-3.426-1.946-6.68-.911-2.766-1.076-4.862-.906-7.75Z"/>
  <path fill="#ABA39A" d="M217 464h1c.485 7.689.944 15.376 1.254 23.074l.125 3.103c.08 2.022.156 4.044.228 6.065l.112 2.836.092 2.513c.199 2.531.644 4.93 1.189 7.409h-2v-3h-2v-42Z"/>
  <path fill="#8F867F" d="M118 386h2c-1.108 6.143-2.878 11.246-5.559 16.871-1.715 3.724-3.244 7.505-4.754 11.317l-.807 2.037A2362.3 2362.3 0 0 0 107 421c-1.487-3.476-.573-5.865.742-9.281l.82-2.031.821-2.106c.861-2.199 1.738-4.39 2.617-6.582.58-1.462 1.16-2.924 1.738-4.387A1651.4 1651.4 0 0 1 118 386Z"/>
  <path fill="#BDB6B0" d="M795 670c5.573 1.773 5.573 1.773 8 3.063 5.142 2.41 11.284 2.21 16.875 2.5l2.375.13c1.917.106 3.833.207 5.75.307v2c-23.804 1.068-23.804 1.068-31-5l-2-3Z"/>
  <path fill="#BDB6AF" d="m602 246-2 3h-4v2c-2.228.506-4.457 1.005-6.688 1.5l-3.761.844c-2.975.55-5.545.794-8.551.656 3.408-5.112 9.425-5.964 15.188-7.188 3.327-.66 6.419-.89 9.812-.812Z"/>
  <path fill="#908B83" d="M253.813 1299.438c1.772.22 1.772.22 3.58.447 2.87.36 5.74.732 8.607 1.115-2 2-2 2-4.703 2.047l-3.547-.297-1.936-.154c-2.272-.186-4.543-.39-6.814-.596l-2.86-.252A3295.793 3295.793 0 0 1 227 1300v-1c9.19-1.05 17.66-.788 26.813.438Z"/>
  <path fill="#A49E96" d="M47 582h2v6l2.438.813L54 590l1 3c-3.325 1.108-5.622.845-9 0l-3 6c-1.685-4.077-.17-6.83 1.438-10.75l1.433-3.547L47 582Z"/>
  <path fill="#E8E7E4" d="M790 258c4.863.553 8.45 2 12.75 4.313l3.422 1.8c2.771 1.85 3.764 2.797 4.828 5.887-6.401-1.506-6.401-1.506-9.5-4.063-3.134-2.429-5.603-2.631-9.5-2.937v-2h-2v-3Z"/>
  <path fill="#938A82" d="m132 351 2 1a4561.74 4561.74 0 0 1-5.017 13.135c-.57 1.489-1.139 2.979-1.705 4.47a1788.09 1788.09 0 0 1-2.458 6.418l-.764 2.024c-1.09 2.815-1.897 4.794-4.056 6.953.547-4.92 1.604-9.025 3.504-13.59l1.494-3.623 1.564-3.724 1.577-3.807c1.28-3.088 2.567-6.174 3.861-9.256Z"/>
  <path fill="#C2BCB8" d="M296 1305c10.853-.284 21.254.527 32 2-3.728 2.486-5.23 2.104-9.637 1.758l-3.935-.293-4.115-.34c-1.384-.106-2.767-.212-4.15-.316-3.39-.26-6.776-.53-10.163-.809v-2Z"/>
  <path fill="#92867B" d="M615 245v3h10c-5.46 3.64-11.404 5.507-18 5l4-2h-9c2.408-2.408 4.422-3.008 7.625-4.125l3.04-1.07L615 245Z"/>
  <path fill="#C7C1BB" d="M213 441h1c.905 5.365 1.123 10.503 1.063 15.938l-.014 2.36c-.012 1.901-.03 3.802-.049 5.702l-3 1c-.029-3.604-.047-7.208-.063-10.813l-.025-3.103-.01-2.979-.016-2.745C212 444 212 444 213 441Z"/>
  <path fill="#B2ABA4" d="M235 492c2.873 1.436 3.303 3.359 4.625 6.25l1.352 2.89c1.027 2.87 1.174 4.849 1.023 7.86l.563 1.938c.604 2.85.015 5.236-.563 8.062-2.996-2.996-2.725-6.585-3.125-10.625l-.262-2.43c-.212-1.98-.413-3.963-.613-5.945h-2l-1-8Z"/>
  <path fill="#BDB6B2" d="M267 1302c9.466-.368 18.639.77 28 2l-1 2c-9.133.29-17.963-.826-27-2v-2Z"/>
  <path fill="#8F8680" d="M205 1144h2l-.402 2.309c-.826 4.828-1.634 9.626-2.098 14.504-.393 3.89-1.369 7.44-2.5 11.187a176.112 176.112 0 0 0-1 6h-2c1.105-11.615 3.087-22.703 6-34Z"/>
  <path fill="#C5BFB7" d="M214 466h1c.825 5.72 1.128 11.227 1.063 17l-.014 2.348c-.012 1.884-.03 3.768-.049 5.652l-2 1 .125-2.875c.225-3.227.225-3.227-2.125-5.125-.707-6.272-.105-12.08 2-18Z"/>
  <path fill="#CECBC6" d="m790 1287 2 1c-2.677 3.34-5.906 4.257-9.875 5.625-1.214.425-2.429.85-3.68 1.29-7.646 2.409-7.646 2.409-10.758 1.148L766 1295l3.219-.988 4.281-1.324 2.22-.687c3.772-1.177 7.483-2.409 11.155-3.876L790 1287Z"/>
  <path fill="#968E86" d="M228 968h2c.832 5.72 1.12 11.222 1 17h-1l-1-6-3 12h-2c1.26-7.68 2.584-15.346 4-23Z"/>
  <path fill="#E1DCD9" d="M790 807h1c1.184 8.024 2.285 15.865 2 24h-3c-.082-4.161.018-7.947 1-12h-2a920.276 920.276 0 0 1-.063-5.438l-.035-3.058C789 808 789 808 790 807Z"/>
  <path fill="#A8A198" d="M236 1013a897.124 897.124 0 0 1 3.035 6.105l1.028 2.082 1.035 2.106c.785 1.688.785 1.688 1.902 2.707 1.434 5.764 2.58 11.155 1 17-2.48-2.48-2.254-4.088-2.586-7.453-.697-4.288-2.167-8.34-3.492-12.469-1.017-3.396-1.595-6.558-1.922-10.078Z"/>
  <path fill="#FAF9F8" d="M986 609h2c1.55 4.747 2.928 8.99 2 14-2.4 2.215-4.95 3.824-8 5l-2-1 1-3 6-1-1-14Z"/>
  <path fill="#978D83" d="M779 689h1c1.304 5.936 1.11 11.833 1.063 17.875l-.014 3.242c-.012 2.628-.028 5.255-.049 7.883l-3 1c-.1-10.056-.1-19.987 1-30Z"/>
  <path fill="#DBD8D2" d="M446 248c10.684.378 20.643 2.5 31 5v1c-7.52.305-13.12.313-20-3-3.644-.82-7.31-1.433-11-2v-1Z"/>
  <path fill="#F7F7F5" d="M670 201c9.564 3.486 17.635 8.32 26 14l-1 2c-6.369-3.414-12.647-6.927-18.809-10.703A82.535 82.535 0 0 0 670 203v-2Z"/>
  <path fill="#BCB2AA" d="m795 638 3 1 .184 2.773.254 3.602c.08 1.183.162 2.367.246 3.586.127 2.954.127 2.954 1.316 5.039-.247 2.05-.57 4.093-.938 6.125l-.59 3.32L798 666c-2-2-2-2-2.16-4.582l.097-3.23c.114-6.784-.318-13.436-.937-20.188Z"/>
  <path fill="#F5F1EE" d="M406 293c4.322 1.52 7.96 3.791 11.75 6.313 5.297 3.47 10.642 6.735 16.25 9.687l-2 2-2.52-1.496-3.293-1.942-3.269-1.933c-2.85-1.71-2.85-1.71-5.918-2.629v-2l-2.375-.938C412 299 412 299 410 298v-2l-4-2v-1Z"/>
  <path fill="#C4BFBB" d="m384 190 3 2-2.5 1.625c-2.358 2.265-2.51 3.487-2.832 6.824.018 3.529.118 7.03.332 10.551l-2 1c-.194-2.291-.38-4.583-.563-6.875l-.316-3.867C379 198 379 198 380 196h-3c1-3 1-3 4.063-4.688L384 190Z"/>
  <path fill="#544A3F" d="M236 606h1c.836 9.637 1.478 18.52-1 28h-1c-.029-4.48-.047-8.958-.063-13.438l-.025-3.876-.01-3.682-.016-3.412C235 607 235 607 236 606Z"/>
  <path fill="#8A8074" d="m218 614 3 1c.081 2.229.14 4.458.188 6.688l.105 3.761c-.308 3.737-1.112 5.557-3.293 8.551-1.178-2.357-1.044-3.526-.879-6.133l.147-2.441.17-2.551.158-2.574c.13-2.1.266-4.2.404-6.301Z"/>
  <path fill="#8F877F" d="M186 1269h2l3 9h2c1.625 1.5 1.625 1.5 3 3l2-1v4l-4-1-1 4c-.972-1.944-1.944-3.889-2.91-5.836-.917-1.82-1.874-3.62-2.84-5.414C186 1273 186 1273 186 1269Z"/>
  <path fill="#CCC8C4" d="m136 621 4 1v2h2v2l7 2v2c-5.277-.539-9.256-1.773-14-4l1-5Z"/>
  <path fill="#989187" d="M153 433c4.325 6.487 3.127 15.457 3 23l-2-4-2 4c-1-1-1-1-1.063-4.563L151 448h2l.063-3.813.035-2.144c-.015-2.246-.015-2.246-1.098-5.043.438-2.188.438-2.188 1-4Z"/>
  <path fill="#978E87" d="M143 329h2a417.219 417.219 0 0 1-1.313 4.75l-.738 2.672c-.976 2.652-2.179 4.397-3.949 6.578a88.982 88.982 0 0 0-2 4l-1 2h-2c.596-4.869 2.725-8.593 5.063-12.813l1.142-2.1c.926-1.698 1.86-3.393 2.795-5.087Z"/>
  <path fill="#DDD9D4" d="M592 206v2c-7.323 2.576-14.258 3.614-22 4v-2c2.916-.672 5.832-1.338 8.75-2l2.5-.578 2.422-.547 2.222-.508C588 206 588 206 592 206Z"/>
  <path fill="#A0958E" d="M229 796h2c1.345 4.035 1.223 7.774 1.25 12l.063 2.484.015 2.391.028 2.18C232 817 232 817 229 820v-24Z"/>
  <path fill="#BFBAB4" d="M347 565h1c.831 3.682 1.181 7.187 1.316 10.957l.127 3.37.12 3.486.13 3.544c.106 2.881.208 5.762.307 8.643l2 1-3 8h-1l-1-39Z"/>
  <path fill="#978F84" d="M646 195h2c.027 2.52.047 5.042.063 7.563l.025 2.134c.02 4.543-.34 8.82-1.088 13.303h-3l.465-2.445c.624-4.145.881-8.247 1.097-12.43l.131-2.375c.106-1.917.207-3.833.307-5.75Z"/>
  <path fill="#BEB9B4" d="M211 1256c4.024.834 7.764 2.41 11.563 3.938l2.037.802c3.038 1.216 5.666 2.437 8.4 4.26-7.191 0-12.94-1.083-19-5-2-2.25-2-2.25-3-4Z"/>
  <path fill="#D1CBC5" d="M779 661h1c.027 1.458.046 2.917.063 4.375l.035 2.46C780 670 780 670 779 672c-.22 1.664-.391 3.335-.535 5.008l-.264 2.988-.264 3.129-.275 3.152c-.224 2.574-.445 5.148-.662 7.723h-1c-.058-3.583-.094-7.166-.125-10.75l-.05-3.078-.02-2.969-.032-2.73c.243-2.648.98-4.155 2.227-6.473.387-2.325.73-4.659 1-7Z"/>
  <path fill="#C9C5BE" d="m122 647 6 2v3l7 2-1 2a948.71 948.71 0 0 1-4.75-1.375l-2.672-.773c-2.339-.773-4.412-1.688-6.578-2.852l2-4Z"/>
  <path fill="#F1EFEB" d="m526.063 212.938 2.623.013c2.104.012 4.21.03 6.314.049-3.172 3.172-6.834 2.951-11.184 3.133-5.706-.014-11.199-.088-16.816-1.133v-1c6.402-.82 12.613-1.128 19.063-1.063Z"/>
  <path fill="#D5CFCB" d="M743 1300v3c-3.08.563-6.164 1.096-9.25 1.625l-2.645.484-2.558.43-2.349.413C724 1306 724 1306 720 1304l23-4Z"/>
  <path fill="#978D84" d="m235 497 1 3h2c2.805 5.61.89 13.993 0 20h-1l-2-23Z"/>
  <path fill="#A7A199" d="M177 382c3 1 3 1 3.95 2.89 2.46 7.867 2.46 7.867 2.05 12.11-3.353-2.236-3.816-3.294-5.25-6.938l-1.078-2.652C176 385 176 385 177 382Z"/>
  <path fill="#B7B1AC" d="m176 371 1 2 3 1 1 12-4-4-1 3c-1.104-3.311-.927-5.247-.563-8.688l.31-3.011L176 371Z"/>
  <path fill="#ACA59B" d="M787 740h1c.027 2.708.047 5.417.063 8.125l.025 2.305c.018 4.309-.227 8.325-1.088 12.57h-2c-.961-5.574-.971-8.635 1-14 .453-2.99.746-5.987 1-9Z"/>
  <path fill="#93887D" d="M219 633c1.523 2.937 2.801 5.917 4 9l-2 2-.438 2.063L220 648l-3 1v-9h2v-7Z"/>
  <path fill="#9C938B" d="M156 456c2.773 2.773 2.909 5.838 3.563 9.563.462 4.591.462 4.591 2.437 8.437.141 2.67.042 5.324 0 8-4.94-7.41-5.503-17.298-6-26Z"/>
  <path fill="#D8D3CF" d="M581 256v1l-11 1v2l-10 1v-2l-2-2c7.685-.675 15.284-1.157 23-1Z"/>
  <path fill="#D2D0CA" d="M417 1316c7.402-.129 14.64.203 22 1-2 2-2 2-4.25 2.23-6.299-.098-12.495-.47-18.75-1.23l1-2Z"/>
  <path fill="#CDC4C0" d="M809 1276h2c-2.13 5.457-6.967 7.514-12 10-3.625.875-3.625.875-6 1 2.49-2.827 5.239-4.332 8.563-6.063 4.01-2.07 4.01-2.07 7.437-4.937Z"/>
  <path fill="#E5E0D9" d="M789 604h1c-.498 6.27-1.314 12.243-4 18l-2 1c-.212-5.192.409-9.127 2-14h2l1-5Z"/>
  <path fill="#BEB8B2" d="M223 390h3l.184 3.613.254 4.7.119 2.38.127 2.295.11 2.11c.162 2.124.162 2.124 1.206 4.902-1.953-.594-1.953-.594-4-2-.61-2.969-.61-2.969-.75-6.5l-.172-3.531c-.07-2.66-.078-5.308-.078-7.969Z"/>
  <path fill="#C2BBB2" d="m803 587 1 2-1.371 2.203c-1.903 3.268-2.256 5.808-2.692 9.547A88.758 88.758 0 0 1 799 607l-2 1c-.678-8.061.286-13.354 5-20l1-1Z"/>
  <path fill="#6A5E56" d="m198 1284 2.875 1.063c2.996 1.287 2.996 1.287 5.125-.063 2 3 2 3 1.625 5.188L207 1292h-3v2l3 1a108.817 108.817 0 0 1-7-1l-1-2 6-3-7-4v-1Z"/>
  <path fill="#C4C0BB" d="m821 499 2 1c.206 3.71-.237 5.768-2 9l-.875 2.75c-1.367 3.948-3.192 7.554-5.125 11.25-1.196-3.589-.746-4.162.75-7.5 2.287-5.383 3.828-10.835 5.25-16.5Z"/>
  <path fill="#9F968D" d="M162 482h2v8h2c2.296 9.41 2.296 9.41 2 14l-2-1a113.92 113.92 0 0 1-2.125-7.75l-.55-2.172c-.922-3.768-1.556-7.168-1.325-11.078Z"/>
  <path fill="#BAB2AD" d="m341 213 2 1a141.4 141.4 0 0 1-5 5h-2l-1 2c-2.314.73-4.648 1.401-7 2 1.49-4.07 3.748-5.323 7.5-7.313l2.969-1.613L341 213Z"/>
  <path fill="#ABA29A" d="m608 243 3 2c-2.679 3.826-5.348 4.468-9.75 5.25-1.748.265-3.497.52-5.25.75v-2l2.063-.75c3.506-1.492 6.653-3.318 9.937-5.25Z"/>
  <path fill="#998E88" d="M193 1217h2c-.595 13.633-.595 13.633-4 20-1.31-4.304-.458-7.937.438-12.25l.447-2.258c.364-1.832.738-3.662 1.115-5.492Z"/>
  <path fill="#978D81" d="m219 665 2 1-4 8h-8c1.375-2 1.375-2 3-4h2a141.4 141.4 0 0 0 5-5Z"/>
  <path fill="#C6C0BA" d="M782 634h1c.292 8.86-.552 17.26-2 26h-1c-.199-8.895-.334-17.33 2-26Z"/>
  <path fill="#C4BEB9" d="m168 495 2 1c.599 2.307.957 4.617 1.34 6.969L172 505l3 1 1 8-3-1-.375-2.438L172 508l-2-1c-.633-2.723-.633-2.723-1.125-6.063l-.508-3.347L168 495Z"/>
  <path fill="#8E847A" d="M198 486c3 1 3 1 4.133 2.813l.992 2.187c1.142 2.703 1.142 2.703 2.875 5 .04 1.666.043 3.334 0 5l-3-1c-.73-1.848-.73-1.848-1.188-4.063l-.48-2.222L201 492h-2l-1-6Z"/>
  <path fill="#B9B3AC" d="M342 626c1.8 3.32 2.033 4.385 1 8l.125 3.563C343 641 343 641 341.5 642.938L340 644c-1.049-4.626-.828-7.819.438-12.375l.87-3.21L342 626Z"/>
  <path fill="#D4D0CC" d="m52 622 3.125 1.375c3.242 1.392 6.52 2.531 9.875 3.625a305.65 305.65 0 0 1 5 2c-1.484 1.21-1.484 1.21-4 2-2.906-.78-5.544-2.075-8.25-3.375l-2.258-1.04A487.103 487.103 0 0 1 50 624l2-2Z"/>
  <path fill="#BBB3AA" d="m796 608 2 4-2 3c-.275 2.225-.275 2.225-.195 4.668l.02 2.705.05 2.814.027 2.85c.024 2.321.057 4.642.098 6.963-2.136-3.204-2.242-3.996-2.195-7.668l.02-2.705.05-2.814.027-2.85c.024-2.321.057-4.642.098-6.963h2v-4Z"/>
  <path fill="#E4E0DB" d="M799 566h1c-.41 6.762-1.57 12.672-4 19l-3-1c.506-2.169 1-4 2-6h2l.438-3.75c.349-2.815.766-5.52 1.562-8.25Z"/>
  <path fill="#52483E" d="M228 538c4.21 3.743 8.524 8.548 9.316 14.297-.004 2.203-.004 2.203-.316 5.703h-1l-1-6-3-1-.313-2.125c-.78-3.263-2.165-5.897-3.687-8.875v-2Z"/>
  <path fill="#EBE7E3" d="M821 495c1.092 3.275.93 4.044.004 7.23l-.693 2.432-.749 2.526-.736 2.56c-.6 2.086-1.212 4.17-1.826 6.252h-2c1.082-7.486 2.913-14.092 6-21Z"/>
  <path fill="#D9D6D2" d="m571 246 4 2c-2.873 5.626-2.873 5.626-5.977 6.656-5.318.696-5.318.696-8.023-.656l1-2c2.066-.414 2.066-.414 4.563-.625l2.503-.227L571 251v-5Z"/>
  <path fill="#D8D4D1" d="M409 232c6.42.57 12.016 2.673 18 5-3 2-3 2-5.305 1.645-8.948-2.897-8.948-2.897-12.695-5.645v-1Z"/>
  <path fill="#E6E5E1" d="m396 216 2 1v2l3.938.375c2.214.21 2.214.21 4.062.625l1 2-7-1v2h-2l1 3-2 3-1-6-.625-3.313L395 217l1-1Z"/>
  <path fill="#6D6358" d="M205 487c2 1 2 1 2.778 2.734l.73 2.23.8 2.425.817 2.548.84 2.538C213 505.705 213 505.705 213 508h-3l-.586-2.45-.789-3.238-.773-3.199c-.771-3.077-.771-3.077-1.954-5.758C205 491 205 491 205 487Z"/>
  <path fill="#C6C2BB" d="M359 202c1.1 3.34.876 5.65.125 9.063l-.555 2.597C358 216 358 216 357 219a99.485 99.485 0 0 0 0 5c-2.984-4.475-2.613-8.75-2-14 1.064-2.962 2.362-5.287 4-8Z"/>
  <path fill="#CBC7BE" d="M787 767h1l1 12h-2l-1 4c-2.296-9.41-2.296-9.41-2-14l2 3 1-5Z"/>
  <path fill="#F8F7EE" d="M972 566h2c.675 2.06 1.34 4.123 2 6.188l1.125 3.48c.781 2.975 1.059 5.285.875 8.332-2.6-2.6-3.068-4.927-4.125-8.438l-1.07-3.496C972 569 972 569 972 566Z"/>
  <path fill="#C1BAB2" d="m811 564 2 1-1.875 3.125c-1.41 2.434-2.286 4.398-3.125 7.125-1.13 3.106-2.21 4.075-5 5.75l.875-2.063c1.213-2.99 1.213-2.99 2-6.437 1.165-3.624 2.586-5.707 5.125-8.5Z"/>
  <path fill="#D6D3CE" d="m472 260 17 1c-4.276 3.207-4.965 3.592-10 3-2.437-.853-4.665-1.879-7-3v-1Z"/>
  <path fill="#D0CCC8" d="M247 1266c5.625-.25 5.625-.25 9 2 1.655.385 3.322.728 5 1v2l-7-1-1 2-1-3a70.134 70.134 0 0 0-4-1l-1-2Z"/>
  <path fill="#7B7468" d="M233 727h1l.684 5.957c.288 2.237.288 2.237 1.316 5.043.285 2.764.178 5.194 0 8l-3 2v-21Z"/>
  <path fill="#D3CEC9" d="M148 660c7.28-.766 13.677 2.765 20 6-3.329 1.11-3.874.941-7.012-.215l-2.295-.83-2.38-.893-2.417-.88A927.345 927.345 0 0 1 148 661v-1Z"/>
  <path fill="#D8D4CF" d="M69 631c6.018.627 12.579 1.579 17 6-4.025 1.342-5.721.224-9.625-1.313l-3.54-1.363C70 633 70 633 69 631Z"/>
  <path fill="#FAFAF6" d="M913 384c1.914 2.87 2.964 5.334 4.125 8.563l1.07 2.94C919 398 919 398 919 400h-3l-1-8h-2c-1.125-5.75-1.125-5.75 0-8Z"/>
  <path fill="#CBC7C2" d="m180 528 1 2h2l.332 2.266.48 2.984.458 2.953c.767 2.937 1.848 4.466 3.73 6.797v2h-2c-3.98-5.017-6-12.649-6-19Z"/>
  <path fill="#EDE9E5" d="m626 257 1 2a141.4 141.4 0 0 1-5 5h-2v3l-5 1c5.923-9.308 5.923-9.308 11-11Z"/>
  <path fill="#CFCBC5" d="m842 674 1 2-15 2v-3a75.56 75.56 0 0 1 14-1Z"/>
  <path fill="#7C736A" d="M624 252h4c-1.523 3.578-3.644 5.943-6.375 8.688l-2.336 2.386c-2.222 1.87-3.457 2.545-6.289 2.926l1-2h2v-2c2.004-1.856 4.121-3.535 6.25-5.246 2.103-1.695 2.103-1.695 1.75-4.754Z"/>
  <path fill="#C5BEB9" d="m235 977 2 1c.054 1.958.093 3.916.125 5.875l.07 3.305C237 990 237 990 235 992c-.953-4.767-1.164-9.16-1-14l1-1Z"/>
  <path fill="#C9C3BB" d="M795 670c5.573 1.773 5.573 1.773 8 3.063 2.608 1.222 5.16 1.55 8 1.937l-2 3c-6.033-1.617-9.95-3.167-14-8Z"/>
  <path fill="#A69A94" d="M60 542h2l-6 20h-2c.747-4.42 2.117-8.582 3.563-12.813l.708-2.1c.574-1.696 1.151-3.392 1.729-5.087Z"/>
  <path fill="#797063" d="M222 531c2.865 3.41 4.347 6.907 6 11l-2 2c-2.666-1.333-2.991-2.19-4-5-.165-2.692-.09-5.298 0-8Z"/>
  <path fill="#F9F8F1" d="M950 499c2.926 1.463 3.06 3.403 4.125 6.438l1.07 2.996C956 511 956 511 956 513l-3-1c-.66-1.813-.66-1.813-1.063-4-.364-2.14-.364-2.14-.937-4l-2-1 1-4Z"/>
  <path fill="#C4BFBA" d="M233 429h3c.39 1.6.762 3.206 1.125 4.813l.633 2.707C238 439 238 439 236 442a894.533 894.533 0 0 1-1.5-4.813l-.844-2.707C233 432 233 432 233 429Z"/>
  <path fill="#E7E4E1" d="M612 1314h11v2l2 1-12 1-1-4Z"/>
  <path fill="#82786D" d="M245 684c2.491 3.737 2.207 5.745 2.125 10.188l-.055 3.855L247 701c-3.007-4.51-3.187-7.66-3-13 .5-2.438.5-2.438 1-4Z"/>
  <path fill="#675B4E" d="M227 634c2.12 3.534 2.532 6.944 3 11l-4 2c-.027-1.98-.046-3.958-.063-5.938l-.035-3.34C226 635 226 635 227 634Z"/>
  <path fill="#AEA9A4" d="m166 300 2 1c-6.266 6.445-6.266 6.445-10 9l-3-1a313731972.174 313731972.174 0 0 1 5.957-5.273C163 302 163 302 166 300Z"/>
  <path fill="#F2F0EE" d="M799 263c4.457.262 6.515.577 9.938 3.563L811 269c-3.477 0-5.794-.664-9-2-1.875-2.125-1.875-2.125-3-4Z"/>
  <path fill="#968E86" d="M218 1016h2l-.063 2.813c-.095 3.21-.095 3.21 1.063 6.187l-1.938.813c-2.393 1.074-2.393 1.074-3.062 4.187.142-1.584.289-3.167.438-4.75.08-.882.162-1.763.246-2.672A44.11 44.11 0 0 1 218 1016Z"/>
  <path fill="#63584D" d="m238 656 2 1c1.023 3.621 1.108 7.067 1.063 10.813l-.028 2.957L241 673h-1l-1-6h-1v-11Z"/>
  <path fill="#CDC8C2" d="m181 491 2 1v8h-4v-8l2-1Z"/>
  <path fill="#A39A91" d="M218 484h1l.076 1.757c.116 2.643.239 5.287.362 7.93l.119 2.764.127 2.686.11 2.46c.216 2.524.665 4.929 1.206 7.403h-2v-3h-2l1-22Z"/>
  <path fill="#C6C1BB" d="M590 249c-1.827 2.463-3.23 3.834-6.27 4.488-2.245.237-4.475.416-6.73.512 2.083-3.124 2.613-3.537 5.938-4.75l2.09-.797C587 248 587 248 590 249Z"/>
  <path fill="#C4C0BD" d="M361 226c3.957 3.957 5.126 10.584 6 16-2.712-2.37-3.922-4.671-5.25-8l-1.078-2.625C360 229 360 229 361 226Z"/>
  <path fill="#CBC7C2" d="M381 1313c5.786-.105 11.293.007 17 1-3.522 2.217-6.1 2.128-10.188 1.75l-3.23-.266L382 1315l-1-2Z"/>
  <path fill="#958D84" d="m201 1162 3 1-3 15h-2l2-16Z"/>
  <path fill="#D1CFCA" d="M787 779h2v11h-3c-.143-7.429-.143-7.429 1-11Z"/>
  <path fill="#71675D" d="M237 531h1v15l-3-2c.14-1.98.287-3.959.438-5.938.08-1.102.162-2.204.246-3.34C236 532 236 532 237 531Z"/>
  <path fill="#BCB4AD" d="m215 452 3 1-.48 1.743c-.5 2.166-.719 4.15-.836 6.366l-.127 2.286-.12 2.355-.13 2.402A2020.08 2020.08 0 0 0 216 474h-1c-1.144-7.497-.757-14.468 0-22Z"/>
  <path fill="#98918A" d="M151 317v5h-2l-1 6h-3c.503-3.687.998-6.821 3-10 2-1 2-1 3-1Z"/>
  <path fill="#CAC6C3" d="M765 1296v2c-5.487 1.868-10.222 2.236-16 2 2.825-1.532 5.422-2.456 8.563-3.125l2.316-.508C762 1296 762 1296 765 1296Z"/>
  <path fill="#ACA6A0" d="M209 1089h2c.082 4.161-.018 7.947-1 12h-2c-.027-1.625-.046-3.25-.063-4.875l-.035-2.742C208 1091 208 1091 209 1089Z"/>
  <path fill="#9F9A8E" d="M52 566h2c1 3 1 3 .258 4.938L53.125 573c-1.283 2.37-2.267 4.425-3.125 7h-1c.514-4.97 1.234-9.29 3-14Z"/>
  <path fill="#EFEDEA" d="M776 252c4.565.543 7.973 1.795 12 4v2c-1.626-.477-3.25-.957-4.875-1.438l-2.742-.808C778 255 778 255 776 254v-2Z"/>
  <path fill="#C2BDB7" d="m319 225 2 1-7 7-3-1c4.233-5.744 4.233-5.744 8-7Z"/>
  <path fill="#E8E5E0" d="M812 1273v2c-1.813 1.688-1.813 1.688-4 3l-3-1v-2l-2-1c3.35-2.11 5.221-2.05 9-1Z"/>
  <path fill="#8A8075" d="M786 723c2.621 3.932 1.882 5.603 1.125 10.188l-.617 3.855L786 740h-1a1180.21 1180.21 0 0 1-.063-6.25l-.035-3.516c.08-2.644.312-4.732 1.098-7.234Z"/>
  <path fill="#5D5042" d="M791 633h1l1 12-3 2-.438-3.375c-.346-3.446-.346-3.446-1.562-5.625h3v-5Z"/>
  <path fill="#A9A39A" d="M239 506c2.063 1.438 2.063 1.438 4 4 .058 3.076-.408 5.987-1 9-2.59-2.59-2.374-4.027-2.625-7.625l-.227-3.04L239 506Z"/>
  <path fill="#F0EFED" d="m566 322 4 2c-3.203 2.834-5.78 3.52-10 4l-1-2c2.36-2.36 3.779-2.491 7-3v-1Z"/>
  <path fill="#D6D3CE" d="m546 255 2 2c-3.837.904-7.375 1.106-11.313 1.063l-3.238-.028L531 258v-1c9.997-2.488 9.997-2.488 15-2Z"/>
  <path fill="#D6D4D0" d="M478 254a195.61 195.61 0 0 1 4.375-.188l2.46-.105L487 254l2 3h-10l-1-3Z"/>
  <path fill="#A79E95" d="M214 606h1c.081 1.437.14 2.874.188 4.313l.105 2.425c-.355 2.74-1.187 3.554-3.293 5.262a280.282 280.282 0 0 1-.125-4.313l-.07-2.425C212 609 212 609 214 606Z"/>
  <path fill="#C4BFB9" d="M804 546h2c.352 5.373.352 5.373 0 8-2 2-2 2-4 3 .875-7.625.875-7.625 2-11Z"/>
  <path fill="#C9C4C0" d="M176 514c2.097 3.146 2.52 5.015 3.125 8.688l.508 3.011L180 528c-2-1.375-2-1.375-4-4-.358-3.358-.231-6.635 0-10Z"/>
  <path fill="#9F968D" d="M193 474c2 3 2 3 2 5h3v5l-2 1-.875-2.438c-.858-2.695-.858-2.695-3.125-3.562l1-5Z"/>
  <path fill="#B5B0A8" d="m266 1301-2 2a88.12 88.12 0 0 1-7.625-.375l-2.14-.172c-1.746-.141-3.49-.296-5.235-.453v-1c5.869-1.148 11.089-.773 17 0Z"/>
  <path fill="#CBC3BF" d="M792 1288c-2.528 3.09-5.144 4.116-9 5l-3-2a518.545 518.545 0 0 1 4.875-2.063l2.742-1.16C790 1287 790 1287 792 1288Z"/>
  <path fill="#DBD8D3" d="m67 591 10 2-3 1c-.733 2.015-.733 2.015-1 4a158.814 158.814 0 0 1-6-5v-2Z"/>
  <path fill="#98918A" d="M85 474h2c-.497 4.973-1.553 8.638-4 13h-1c.48-4.714.968-8.666 3-13Z"/>
  <path fill="#968F87" d="m110 407 2 2-5 12c-1.1-4.403-.792-5.268.938-9.25l1.152-2.703L110 407Z"/>
  <path fill="#CBC6C0" d="m202 279 2 1c-2.25 2.5-2.25 2.5-5 5h-4c1-3 1-3 3.938-4.75L202 279Z"/>
  <path fill="#877F75" d="m612 264 2 1c-1.38 3.335-2.85 5.186-6 7l-3-1c2-2 2-2 4-3v-2l3-2Z"/>
  <path fill="#5B5146" d="M235 648h2c.78 5.021 1.13 8.977 0 14h-1c-2.48-9.41-2.48-9.41-1-14Z"/>
  <path fill="#E4E2DF" d="M810 493c2.421 3.632 2.21 5.383 2.125 9.688l-.055 3.574L812 509c-2.146-4.15-3.173-7.01-2.563-11.688l.31-2.449L810 493Z"/>
  <path fill="#D6D1CC" d="M163 469h2l2 13-2 1c-2.296-9.41-2.296-9.41-2-14Z"/>
  <path fill="#C5BFB9" d="M169 369c2 0 2 0 4.125 1.625 2.352 2.98 2.212 4.672 1.875 8.375l-3-1c-.95-2.066-.95-2.066-1.688-4.563-.25-.826-.502-1.652-.761-2.503L169 369Z"/>
  <path fill="#928B84" d="M154 338h2c.532 1.6 1.05 3.206 1.563 4.813l.878 2.707C159 348 159 348 158 351c-4.592-8.262-4.592-8.262-4-13Z"/>
  <path fill="#FBF9F7" d="M881 315c3.739 2.657 5.65 4.581 7 9h-3c-4-5.143-4-5.143-4-9Z"/>
  <path fill="#EFEEEC" d="m586 315 5 1v3l-2.375-.125c-2.786-.162-2.786-.162-4.625 2.125l-3-1 3-1c1.209-2 1.209-2 2-4Z"/>
  <path fill="#CCC6C2" d="m273 248 1 3c-2.572 1.62-3.677 2.044-6.75 1.625L265 252v-2c2.906-1.257 4.796-2 8-2Z"/>
  <path fill="#A49B92" d="M646 190v3c-3.375.625-3.375.625-7 1l-2-2c3.135-1.858 5.375-2.201 9-2Z"/>
  <path fill="#B6AEA8" d="M234 986h1c1.591 4.873 2.212 8.808 2 14h-2c-1.206-4.672-1.094-9.215-1-14Z"/>
  <path fill="#A69E97" d="M174 522h2c1.607 3.215 1.057 6.436 1 10l-1-2h-2v-8Z"/>
  <path fill="#A69D94" d="M211 502c1.922.71 1.922.71 4 2 .828 2.164.828 2.164 1.25 4.625l.453 2.477L217 513h-2a875.282 875.282 0 0 1-2-4.375l-1.125-2.46C211 504 211 504 211 502Z"/>
  <path fill="#D1CDC8" d="M173 364h1c.224 1.414.428 2.832.625 4.25l.352 2.39c.026 2.682-.611 4.087-1.977 6.36-.392-1.412-.763-2.83-1.125-4.25l-.633-2.39c-.285-2.78.308-4.019 1.758-6.36Z"/>
  <path fill="#CECAC5" d="m214 275 3 1h-2l-1 3-8 1v-3l3.438-.438c3.37-.174 3.37-.174 4.562-1.562Z"/>
  <path fill="#EBE7E4" d="M637 244c1.044 3.133.934 3.99 0 7l-5-1c1.37-3.161 1.99-3.993 5-6Z"/>
  <path fill="#8F857B" d="M646 204h1v14h-3l.438-2.5c.615-3.827 1.098-7.652 1.562-11.5Z"/>
  <path fill="#958B80" d="M221 523c2.956 2.752 5.116 5.42 7 9v2c-3.336-1.112-3.584-1.463-5.188-4.375l-1.042-1.836C221 526 221 526 221 523Z"/>
  <path fill="#A69E99" d="M156 448c2.074 4.01 3.128 7.154 3.063 11.688l-.028 2.449L159 464h-1c-1.592-5.57-2.207-10.211-2-16Z"/>
  <path fill="#DCD9D5" d="m394.688 188.438 2.449.308L399 189c-3.42 2.28-4.682 2.22-8.688 2.125l-3.011-.055L385 191c3.142-3.142 5.506-3.108 9.688-2.563Z"/>
  <path fill="#C2BDB7" d="m253 1056 1 2h2l1 5h-2l-1 2v-3l-2-1 1-5Z"/>
  <path fill="#EDE7E1" d="M789 604h1c-.114 1.46-.242 2.917-.375 4.375-.07.812-.14 1.624-.21 2.46C789 613 789 613 787 615c-1-1-1-1-1.063-3.563L786 609h2l1-5Z"/>
  <path fill="#CECAC4" d="M847 494c.688 1.813.688 1.813 1 4-1.313 1.5-1.313 1.5-3 3-1.176 2.1-1.176 2.1-2 4-1-3-1-3-.063-5.188L844 498h2l1-4Z"/>
  <path fill="#A49B94" d="m198 489 1 3h2c1.43 2.354 2.087 3.48 1.625 6.25L202 500c-4-6.5-4-6.5-4-11Z"/>
  <path fill="#BBB4AC" d="M216 432c1.188 1.5 1.188 1.5 2 4-.729 2.788-1.816 5.377-3 8h-1c-.178-4.548.002-7.88 2-12Z"/>
  <path fill="#BDB6B0" d="M573 258h7c-3.323 3.938-3.323 3.938-6.75 4.25L571 262l2-4Z"/>
  <path fill="#B8B0A5" d="m374 197-6 5-3-3c5.625-3.125 5.625-3.125 9-2Z"/>
  <path fill="#6E6354" d="m226 658 2 1v3l2 1-4 3a176.79 176.79 0 0 1-1-7l1-1Z"/>
  <path fill="#BFB9B3" d="M194 435c1.676 3.267 2.998 6.456 4 10l-1 2-2-1c-.414-2.504-.414-2.504-.625-5.563l-.227-3.066L194 435Z"/>
  <path fill="#C7C2BD" d="M233 413h1c.222 1.936.427 3.874.625 5.813l.352 3.269C235 425 235 425 233 428c-.849-5.376-1.002-9.654 0-15Z"/>
  <path fill="#C7C3BE" d="M219 375c2.28 3.42 2.22 4.682 2.125 8.688l-.055 3.011L221 389h-1l-1-7h-1l1-7Z"/>
  <path fill="#E7E5E1" d="M583 1314c3.37 1.124 5.492 2.492 8 5h-8v-5Z"/>
  <path fill="#CBC8C4" d="M743 1300v3c-6.625 1.25-6.625 1.25-10-1l10-2Z"/>
  <path fill="#9A928A" d="M191 1241c1 3 1 3-.313 5.688L189 1249h-2l1-6h3v-2Z"/>
  <path fill="#DAD6D1" d="M142 621h5l-2 6-3-1v-5Z"/>
  <path fill="#CBC7C2" d="M349 562h1l1 11c-3-3-3-3-3.25-6.063C348 564 348 564 349 562Z"/>
  <path fill="#968E85" d="M240 524c3 3 3 3 3.188 5.688L243 532l-3 1v-9Z"/>
  <path fill="#FBFAF3" d="M947 490h2l2 8-2 1-.375-2.438L948 494l-2-1 1-3Z"/>
  <path fill="#F9F8F4" d="M938 465c4.238 2.826 3.977 5.122 5 10l-3-1c-.73-2.066-.73-2.066-1.188-4.563l-.48-2.503L938 465Z"/>
  <path fill="#A39D91" d="M89 463h2c-.313 3.375-.313 3.375-1 7l-3 2c.875-6.75.875-6.75 2-9Z"/>
  <path fill="#90887D" d="M151 448h4c-.628 2.929-1.586 5.361-3 8-1-1-1-1-1.063-4.563L151 448Z"/>
  <path fill="#FAFAF7" d="M932 441c2.125 3.188 2.502 5.265 3 9l-2 1a543.754 543.754 0 0 1-1.063-4.438l-.597-2.496L931 442l1-1Z"/>
  <path fill="#888075" d="M185 424h1l1 8h2l-1 5c-3.224-4.836-3.092-7.27-3-13Z"/>
  <path fill="#DEDCD9" d="m182 385 3 1 1 6-2 1c-1.257-2.906-2-4.796-2-8Z"/>
  <path fill="#958E85" d="m576 285 2 1v2c-1.433.532-2.872 1.05-4.313 1.563l-2.425.878C569 291 569 291 566 290l1.934-.84 2.504-1.098 2.496-1.09c2.01-.803 2.01-.803 3.066-1.972Z"/>
  <path fill="#EEECE6" d="m649 189 5 2-4 1v4h-2c-.043-2-.04-4 0-6l1-1Z"/>
  <path fill="#E9E3DF" d="M640 1312h7l1 3h-8v-3Z"/>
  <path fill="#6E6357" d="m212 1291-1.938.875c-2.214.953-2.214.953-3.062 3.125l-3-1v-2c3.067-1.862 4.597-2.215 8-1Z"/>
  <path fill="#D4CCC8" d="m800 1282 3 2c-5.415 3.077-5.415 3.077-8.375 2.688L793 1286l7-4Z"/>
  <path fill="#F1F0E6" d="M986.188 623.938 988 625l-7 3v-4c3-1 3-1 5.188-.063Z"/>
  <path fill="#D3CFCA" d="M170 468h2c1.125 2.813 1.125 2.813 2 6l-2 3v-4h-2v-5Z"/>
  <path fill="#C5C0BA" d="M212 429h2c.688 2.813.688 2.813 1 6l-3 3v-9Z"/>
  <path fill="#9F988F" d="M160 357c1.892 2.386 3.024 4.072 4 7-.938 2.188-.938 2.188-2 4-1.423-3.823-2.24-6.913-2-11Z"/>
  <path fill="#EFEEEC" d="M813 269c2.915 1.074 4.778 1.778 7 4l-3 1c-2.688-1.438-2.688-1.438-5-3l1-2Z"/>
  <path fill="#ADA69F" d="m594 251-2 1v2h-8c3.116-3.116 5.788-3.114 10-3Z"/>
  <path fill="#CECAC7" d="m369 1311 10 1c-4.532 2.266-6.178 1.927-11 1l1-2Z"/>
  <path fill="#72685C" d="m237 624 2 1-.563 2.813c-.678 3.2-.678 3.2.563 6.187h-3c-.125-7.75-.125-7.75 1-10Z"/>
  <path fill="#F4F4F0" d="M913 384c2.125 3.188 2.502 5.265 3 9l-3-1c-1.125-5.75-1.125-5.75 0-8Z"/>
  <path fill="#B3AFA9" d="M358 203c0 3 0 3-2 6h-2l-1-3 5-3Z"/>
  <path fill="#9F968E" d="m198 1284 2.875 1.063c2.996 1.287 2.996 1.287 5.125-.063l2 4c-3.949-.564-6.709-1.743-10-4v-1Z"/>
  <path fill="#A9A29C" d="M186 1269h2l2 7-2 2c-1.498-3.371-2-5.204-2-9Z"/>
  <path fill="#B0A9A2" d="M200 1248c2.962.613 4.38 1.254 7 3h-3v2h-3l-1-5Z"/>
  <path fill="#C1BCB6" d="M387 1130h2v2l3 1-3 1v2h-2c-1-3-1-3 0-6Z"/>
  <path fill="#C7C4BE" d="M136 655c2.875.313 2.875.313 6 1l2 3c-5.75-.875-5.75-.875-8-2v-2Z"/>
  <path fill="#82786E" d="M230 530c1.206 2.332 2.165 4.496 3 7l-2 2c-2.125-5.625-2.125-5.625-1-9Z"/>
  <path fill="#A5A09A" d="m75 500 2 1-2 7h-2c.523-2.763 1.109-5.326 2-8Z"/>
  <path fill="#C8C5BF" d="M223 390h3v11h-1l-.438-3.25c-.4-2.667-.838-5.164-1.562-7.75Z"/>
  <path fill="#C2BCB7" d="m165 361 5 3-1 5c-2.154-2.622-3.4-4.644-4-8Z"/>
  <path fill="#ECEBE9" d="m600 312-6 5-2-1c1-3 1-3 2.875-4.25C597 311 597 311 600 312Z"/>
  <path fill="#D0CCC9" d="M407 291c3.534 1.963 6.245 4.04 9 7-3.44-1.242-6.252-2.557-9-5v-2Z"/>
  <path fill="#D7D2CE" d="M435 245c7.75.75 7.75.75 10 3-3.133 1.044-3.99.934-7 0v-2l-3-1Z"/>
</svg>