<svg xmlns="http://www.w3.org/2000/svg" viewBox="0 0 1024 1536">
  <path fill="#DAD6D2" d="M411.813 188.25c12.913 2.247 25.825 3.78 38.875 5l2.622.25c17.73 1.677 35.44 2.693 53.252 2.625l2.046-.006c37.116-.12 73.565-3.834 110.333-8.492 25.213-3.18 25.213-3.18 36.059 5.06 4.507 3.421 9.053 5.995 14.125 8.438 5.067 2.445 9.809 4.955 14.43 8.188 10.68 7.37 21.896 13.793 33.445 19.687l3.477 1.781c4.156 2.11 8.338 4.167 12.523 6.219l3.2 1.573c15.43 7.569 30.93 14.813 46.8 21.427 16.079 6.719 31.254 14.872 46.443 23.39a326.792 326.792 0 0 0 14.495 7.61c6.048 2.99 12.072 6.02 18.062 9.125l2.355 1.2c9.63 5.02 15.277 9.48 19.957 19.425 3.46 6.998 7.095 13.683 11.313 20.25 7.072 11.231 11.8 23.362 16.594 35.695a521.142 521.142 0 0 0 15.531 35.743c7.796 16.297 14.788 32.85 21.478 49.628.732 1.834 1.467 3.666 2.203 5.498 6.015 15.007 11.75 30.118 17.444 45.248l.967 2.565c3.536 9.383 6.957 18.776 10.034 28.32 1.206 3.545 2.57 6.968 3.999 10.428 2.8 6.833 5.143 13.779 7.436 20.797 2.323 7.078 4.84 14.068 7.468 21.038l.838 2.231.738 1.944c.67 1.937 1.168 3.873 1.645 5.865l.695 2.34c.57 3.44.482 5.34-.695 8.66-4.73 5.334-11.069 9.144-17 13l-1.791 1.191c-3.655 2.42-7.405 4.635-11.209 6.809l-1.856 1.078C942.05 655.346 913.399 668.604 882 677l-2.788.755c-20.016 5.349-47.34 11.824-66.747 1.956-4.573-2.855-8.016-6.103-11.274-10.39L800 668h-2l.007 2.275c.117 41.935-.005 83.866-.413 125.8l-.091 9.756c-.2 21.449-.462 42.894-.972 64.337l-.056 2.472c-.267 11.597-.902 23.092-2.073 34.637-1.02 12.047-.444 24.152.395 36.19.887 12.861 1.395 25.705 1.65 38.593.596 29.868 2.964 59.328 6.237 89.014l.317 2.886c.453 4.102.905 8.205 1.365 12.307 1.889 16.897 3.444 33.797 4.769 50.747 1.739 49.17 1.739 49.17 10.865 96.986.27 1.785.505 3.575.719 5.367l.386 3.184.395 3.324c.259 2.164.519 4.328.781 6.492l.346 2.91c.357 2.604.839 5.15 1.373 7.723.997 6.598.5 11.073-3.375 16.625-12.451 15.31-29.741 26.418-47.625 34.375l-3.048 1.382c-8.764 3.88-17.589 6.948-26.764 9.68l-2.186.655c-13.218 3.938-26.388 7.03-40.002 9.283l-4.974.848c-24.775 4.2-49.219 7.277-74.333 8.066-6.303.201-12.605.43-18.907.652-5.988.21-11.977.415-17.966.61-11.525.386-23.032.845-34.539 1.617-53.486 3.564-107.21 3.637-160.718.395l-2.096-.126c-26.682-1.614-53.172-4.19-79.467-9.062l-3.624-.668c-31.73-5.924-65.067-12.947-90.376-34.332l-2.078-1.64c-8.417-6.876-15.787-16.68-17.23-27.72-.24-8.619.947-17.745 3.765-25.882 2.48-8.047 2.736-16.535 3.418-24.883 1.079-13.049 2.497-26.022 4.176-39.006 1.97-15.25 3.672-30.499 5.047-45.814l.249-2.763c.75-8.361 1.482-16.723 2.208-25.086.483-5.552.978-11.102 1.48-16.651l.242-2.696c.867-9.54 1.899-18.879 3.93-28.254 2.863-13.548 2.385-27.465 2.407-41.249.012-7.632.092-15.263.163-22.895.024-2.585.045-5.17.067-7.753.13-14.93.464-29.848.969-44.77l.12-3.617c.846-24.665 2.098-49.312 3.334-73.96 1.346-26.888 2.409-53.77 3.137-80.683l.104-3.765c.062-2.267.121-4.534.176-6.801.17-6.384.556-12.724 1.074-19.088 2.479-30.945.267-60.444-4.758-91.024l-1.355 1.863c-7.119 9.517-7.119 9.517-12.494 10.462-27.46 2.72-60.248-4.628-86.151-13.325l-2.529-.83C40.515 637.618 40.515 637.618 27 612c0-8.909 3.613-17.115 6.625-25.375a4610.8 4610.8 0 0 0 1.653-4.607 2185.675 2185.675 0 0 1 9.42-25.723c1.88-5.063 3.617-10.164 5.302-15.295 4.941-15.022 10.66-29.758 16.29-44.533 2.762-7.251 5.482-14.51 8.022-21.842 6.58-18.93 14.736-37.313 23.126-55.5 7.291-15.829 14.32-31.676 20.437-48 6.944-18.44 15.753-35.99 25.157-53.288 1.056-2.005 2.033-4.04 3.015-6.083 4.466-8.95 13.026-12.509 21.668-16.652 4.82-2.325 9.455-4.936 14.09-7.605 11.072-6.348 22.296-12.15 33.971-17.31 14.217-6.296 28.21-13.015 42.161-19.875 22.176-10.884 44.309-21.5 67.37-30.394l3.654-1.422 3.244-1.244c2.61-1.17 4.543-2.52 6.795-4.252h2v-2c5.304-5.584 11.856-8.377 18.825-11.222 6.1-2.567 11.19-5.943 16.503-9.86 10.146-7.283 23.945-3.828 35.485-1.668Z"/>
  <path fill="#B4ADA6" d="m149 309 1 3 2 1c.397 3.104.509 6.188.656 9.313L153 325l2 1 1 1h3l.113 1.984c.636 8.82 2.308 17.217 5.575 25.454 1.179 3.2 1.626 5.212 1.312 8.562h1l.136 1.674c.993 11.936 2.377 23.606 4.864 35.326h2l.184 2.957.254 3.856c.08 1.264.162 2.529.246 3.832.188 3.347.188 3.347 1.316 6.355.178 2.04.32 4.082.438 6.125.484 6.71 1.117 12.891 4.07 18.988 2.36 5.38 2.301 11.157 2.664 16.944l.203 2.619.148 2.372c.34 2.35.34 2.35 3.477 3.952.223 1.848.223 1.848.063 4.063-.158 4.957.767 9.145 1.937 13.937 1.764 7.744 3.25 14.978 2.973 22.95.06 6.713 1.154 13.401 2.027 20.05h2l2 3h1l-.035-3.613-.028-4.7-.025-2.38-.01-2.295-.016-2.11C199 515 199 515 200 512l-.75-2.5c-.337-4.72 1.417-7.574 3.488-11.746 1.128-2.462 1.763-4.55 2.262-7.192 1.181-4.207 2.59-5.027 6-7.562.88-2.635.88-2.635 1-5h2l2-4c-.931 5.122-2.355 10.064-4 15l-3 2v2.875c0 3.66-.779 4.37-3 7.125-1.102 3.586-1.102 3.586 0 7l-1 3.313c-.993 3.662-.888 5.135 0 8.687l-1 3c.153 2.35.153 2.35.594 4.93l.433 2.91c.314 2.016.63 4.031.946 6.047l.433 2.918.416 2.655c.246 3.515-.246 6.389-1.822 9.54h-2v-2h-2l-1-5-2 1c.514 4.424 1.614 7.265 4 11v2l3 1-1 5 2 1-1 2 2 1c1.54 3.323 2.522 6.711 3.438 10.25.935 3.554 1.982 6.989 3.25 10.438 1.473 4.25 1.556 7.835 1.312 12.312l4 1-1 6h2l.438 3.25c.603 5.458.603 5.458 3.562 9.75.125 2.582.125 2.582 0 5.813-.115 6.924.827 13.383 2 20.187.365 2.664.686 5.33 1 8l4 1-.105 3.82c-.309 16.47-.575 37.146 7.105 52.18a149.1 149.1 0 0 1 1.688 6.625l.824 3.477C241 726 241 726 240 728h2l1 8-3-1c-.95-2.18-.95-2.18-1.688-4.875l-.761-2.68C237 725 237 725 237 722h-2l.016 2.336c.02 3.534.034 7.068.047 10.601l.025 3.674c.016 5.777-.09 11.403-.832 17.132-.542 4.775-.646 9.583-.819 14.382l-.13 3.498c-.358 10.646-.37 21.282-.27 31.932.04 5.899-.041 11.624-.814 17.474-.357 3.159-.278 6.296-.223 9.471.037 2.166.048 4.334 0 6.5l-1 1a134.626 134.626 0 0 0-.281 6.125l-.114 3.832L230.5 854c-.394 14.752-.394 14.752-1.295 21.868-.402 4.18-.267 8.375-.205 12.57.025 1.769.046 3.539.063 5.308l.035 2.334C229 898 229 898 228 900a74.381 74.381 0 0 0-.316 4.332l-.128 2.653-.119 2.827-.126 2.867c-1.056 12.33-1.056 12.33.689 24.321l-.925 2.115c-1.508 4.048-1.323 7.77-1.27 12.053l.008 2.655c.011 2.788.037 5.576.062 8.365A3967.213 3967.213 0 0 0 226 982c0 1.999 0 1.999-.492 5.858-.657 5.798-.655 11.562-.633 17.391l-.012 3.219.004 3.11.004 2.793c.061 2.66.061 2.66.7 5.342C226 1022 226 1022 225 1024a84.379 84.379 0 0 0 .121 5.086l.147 3.07.17 3.219.308 6.273.146 2.818c.135 3.176.172 6.16-.365 9.3-.809 4.961-.917 9.951-1.148 14.968C224 1072 224 1072 222 1074h-1l-3 13 2 1h-2l-.148 3.672c-.425 9.74-1.116 19.384-2.191 29.074-.698 6.662-.76 13.18-.536 19.871-.13 3.497-.855 6.139-2.125 9.383l2 1-2 3c-.197 1.965-.197 1.965-.05 4.092.108 4.917-.435 9.575-1.157 14.431l-.382 2.63a1233.47 1233.47 0 0 1-.81 5.451c-.415 2.783-.81 5.567-1.205 8.353a4866.86 4866.86 0 0 1-.79 5.316l-.351 2.52c-.638 4.1-1.115 6.472-4.255 9.207.571-9.456 1.55-18.76 2.813-28.148 1.696-12.98 3.018-25.979 4.187-39.016l.25-2.765c.762-8.474 1.51-16.95 2.25-25.426.49-5.604.99-11.207 1.5-16.81l.247-2.73c.88-9.631 1.912-19.067 3.964-28.53 2.863-13.537 2.381-27.447 2.403-41.219.012-7.632.092-15.263.163-22.895.024-2.585.045-5.17.067-7.753.13-14.93.464-29.848.969-44.77l.12-3.617c.846-24.665 2.098-49.312 3.334-73.96 1.346-26.888 2.409-53.77 3.137-80.683l.104-3.765c.062-2.267.121-4.534.176-6.801.17-6.384.556-12.724 1.074-19.088 2.479-30.945.267-60.444-4.758-91.024l-1.355 1.863c-7.119 9.517-7.119 9.517-12.494 10.462-27.46 2.72-60.248-4.628-86.151-13.325l-2.529-.83C40.515 637.618 40.515 637.618 27 612c0-8.909 3.613-17.115 6.625-25.375a4610.8 4610.8 0 0 0 1.653-4.607 2185.675 2185.675 0 0 1 9.42-25.723c1.88-5.063 3.617-10.164 5.302-15.295 4.941-15.022 10.66-29.758 16.29-44.533 2.762-7.251 5.482-14.51 8.022-21.842 6.58-18.93 14.736-37.313 23.126-55.5 7.291-15.829 14.32-31.676 20.437-48 6.73-17.873 15.203-34.915 24.285-51.7a161.673 161.673 0 0 0 3.461-6.82C147 310 147 310 149 309Z"/>
  <path fill="#73695E" d="m213 600 6 3-1 6h2l.438 3.25c.603 5.458.603 5.458 3.562 9.75.125 2.582.125 2.582 0 5.813-.115 6.924.827 13.383 2 20.187.365 2.664.686 5.33 1 8l4 1-.105 3.82c-.309 16.47-.575 37.146 7.105 52.18a149.1 149.1 0 0 1 1.688 6.625l.824 3.477C241 726 241 726 240 728h2l1 8-3-1c-.95-2.18-.95-2.18-1.688-4.875l-.761-2.68C237 725 237 725 237 722h-2l.016 2.336c.02 3.534.034 7.068.047 10.601l.025 3.674c.016 5.777-.09 11.403-.832 17.132-.542 4.775-.646 9.583-.819 14.382l-.13 3.498c-.358 10.646-.37 21.282-.27 31.932.04 5.899-.041 11.624-.814 17.474-.357 3.159-.278 6.296-.223 9.471.037 2.166.048 4.334 0 6.5l-1 1a134.626 134.626 0 0 0-.281 6.125l-.114 3.832L230.5 854c-.394 14.752-.394 14.752-1.295 21.868-.402 4.18-.267 8.375-.205 12.57.025 1.769.046 3.539.063 5.308l.035 2.334C229 898 229 898 228 900a74.381 74.381 0 0 0-.316 4.332l-.128 2.653-.119 2.827-.126 2.867c-1.056 12.33-1.056 12.33.689 24.321l-.925 2.115c-1.508 4.048-1.323 7.77-1.27 12.053l.008 2.655c.011 2.788.037 5.576.062 8.365A3967.213 3967.213 0 0 0 226 982c0 1.999 0 1.999-.492 5.858-.657 5.798-.655 11.562-.633 17.391l-.012 3.219.004 3.11.004 2.793c.061 2.66.061 2.66.7 5.342C226 1022 226 1022 225 1024a84.379 84.379 0 0 0 .121 5.086l.147 3.07.17 3.219.308 6.273.146 2.818c.135 3.176.172 6.16-.365 9.3-.809 4.961-.917 9.951-1.148 14.968C224 1072 224 1072 222 1074h-1l-3 13 2 1h-2l-.148 3.672c-.425 9.74-1.116 19.384-2.191 29.074-.698 6.662-.76 13.18-.536 19.871-.13 3.497-.855 6.139-2.125 9.383l2 1-2 3c-.197 1.965-.197 1.965-.05 4.092.108 4.917-.435 9.575-1.157 14.431l-.382 2.63a1233.47 1233.47 0 0 1-.81 5.451c-.415 2.783-.81 5.567-1.205 8.353a4866.86 4866.86 0 0 1-.79 5.316l-.351 2.52c-.638 4.1-1.115 6.472-4.255 9.207.571-9.456 1.55-18.76 2.813-28.148 1.696-12.98 3.018-25.979 4.187-39.016a9256.636 9256.636 0 0 0 2.5-28.19c.49-5.605.99-11.208 1.5-16.81l.247-2.732c.88-9.63 1.912-19.066 3.964-28.53 2.863-13.536 2.381-27.446 2.403-41.218.012-7.632.092-15.263.163-22.895.024-2.585.045-5.17.067-7.753.13-14.93.464-29.848.969-44.77l.12-3.617c.846-24.665 2.098-49.312 3.334-73.96 1.346-26.888 2.409-53.77 3.137-80.683l.104-3.765c.062-2.267.121-4.534.176-6.801.17-6.384.556-12.724 1.074-19.088 2.479-30.945.267-60.444-4.758-91.024l-1.426 1.898-1.887 2.477-1.863 2.46C219 676 219 676 216 678c-2.688.125-2.688.125-5 0l2-1c.652-2.025.652-2.025 1-4h3l.25-2.813c.87-3.7 1.708-4.161 4.75-6.187l-.938-6.125-.527-3.445a230.967 230.967 0 0 0-1.164-6.797L219 645l1-1c.324-3.886-.505-6.448-2-10v-3a518.003 518.003 0 0 0-.438-6.563c-.08-1.156-.162-2.312-.246-3.503-.136-2.865-.136-2.865-1.316-4.934h-2l.125-3.25c.141-3.586.141-3.586-1.188-5.875-1.286-2.572-.687-4.174.063-6.875Z"/>
  <path fill="#B5AEA5" d="M835 536c1.527 1.258 1.527 1.258 3 3-.905 8.017-4.532 14.802-8 22a1764.494 1764.494 0 0 0-3 7c-.77 1.667-1.54 3.334-2.313 5-2.608 5.719-4.983 11.519-7.261 17.375a171.268 171.268 0 0 1-2.696 6.5c-2.795 6.637-3.05 12.548-2.773 19.645.043 3.48.043 3.48-.508 6.742-.68 2.82-.68 2.82.551 5.738l-1 1a71.386 71.386 0 0 0-.625 4.438l-.29 2.433c-.259 2.184-.259 2.184.915 4.129a176.07 176.07 0 0 1-.438 7.688c-1.263 9.297-1.263 9.297 1 17.875 1.883 3.192 1.334 4.934.438 8.437 5.34 2.86 10.08 4.731 16 6l-1 2c-8.007-.034-13.688-2.041-20-7a77.743 77.743 0 0 1-5.625-6.46L800 668h-2c.01 1.217.02 2.435.032 3.689.25 32.158-.521 64.189-2.032 96.311h-1l-.113-2.902c-.574-12.342-2.352-24.258-5.45-36.223-1.473-6.16-2.113-12.33-2.687-18.625l-.28-2.942c-.492-5.954-.322-11.393.53-17.308l-2-1 .805-2.64c2.065-6.966 3.745-13.71 4.703-20.934C791 663 791 663 793 660c.6-1.97.6-1.97 1-4.133l.5-2.445.5-2.547c.498-2.468.998-4.936 1.504-7.403.338-1.684.657-3.37.96-5.06l.473-2.467.403-2.226L799 632l3-1c.844-3.98 1.447-7.97 2-12h3l.184-2.047.254-2.703c.08-.882.162-1.763.246-2.672.316-2.578.316-2.578.816-4.484.7-2.932.852-5.84 1.063-8.844l.253-3.547L810 592h2l.813-3.25c1.082-3.418 2.079-5 4.187-7.75.714-2.65.714-2.65 1-5h3l1-10h2l.313-2.5c1.384-7.047 4.494-13.409 7.503-19.887A156.66 156.66 0 0 0 835 536Z"/>
  <path fill="#CBC5BF" d="m816 453 1.313 1.5c1.684 1.832 1.684 1.832 4.687 1.5l.875 3.75c.585 2.372 1.154 4.307 2.25 6.5C826 468 826 468 826 472h2c4.37 14.108 4.37 14.108 6 20l.542 1.771c.61 2.969.588 5.793.59 8.823l.005 3.87-.007 2.008c-.005 2.021 0 4.042.007 6.063l-.004 3.871-.004 3.541c-.109 2.575-.453 4.596-1.129 7.053-.306 4.657-.306 4.657 1 9a95.991 95.991 0 0 1-2.313 6.5l-1.363 3.531C830 551 830 551 828 553c-.77 2.187-1.47 4.4-2.125 6.625l-1.07 3.602L824 566h-2l-1 10h-3l-.313 3.25c-.688 3.755-1.336 4.928-3.687 7.75a88.182 88.182 0 0 0-2 5h-2v-9l3-1 .113-2.3.2-3.013.175-2.988c.563-2.969 1.053-3.987 3.512-5.699h3l.688-2.813c.903-3.294 2.282-6.047 3.875-9.062 3.508-7.378 3.334-15.103 3.437-23.125h-2l-.044-2.3c-.376-25.948-.376-25.948-6.905-50.864-1.32-3.561-2.324-7.168-3.301-10.836l-1.016-3.813C814 462 814 462 814 459l2 1v-7Z"/>
  <path fill="#9C9389" d="M226 872h1c.363 4.29.714 8.583 1.063 12.875l.314 3.707.283 3.535.27 3.27C229 898 229 898 228 900a74.381 74.381 0 0 0-.316 4.332l-.128 2.653-.119 2.827-.126 2.867c-1.056 12.33-1.056 12.33.689 24.321l-.925 2.115c-1.508 4.048-1.323 7.77-1.27 12.053l.008 2.655c.011 2.788.037 5.576.062 8.365A3967.213 3967.213 0 0 0 226 982c0 1.999 0 1.999-.492 5.858-.657 5.798-.655 11.562-.633 17.391l-.012 3.219.004 3.11.004 2.793c.061 2.66.061 2.66.7 5.342C226 1022 226 1022 225 1024a84.379 84.379 0 0 0 .121 5.086l.147 3.07.17 3.219.308 6.273.146 2.818c.135 3.176.172 6.16-.365 9.3-.809 4.961-.917 9.951-1.148 14.968C224 1072 224 1072 222 1074h-1l-3 13 2 1h-2l-.148 3.672c-.425 9.74-1.116 19.384-2.191 29.074-.698 6.662-.76 13.18-.536 19.871-.13 3.497-.855 6.139-2.125 9.383l2 1-2 3c-.197 1.965-.197 1.965-.05 4.092.108 4.917-.435 9.575-1.157 14.431l-.382 2.63a1233.47 1233.47 0 0 1-.81 5.451c-.415 2.783-.81 5.567-1.205 8.353a4866.86 4866.86 0 0 1-.79 5.316l-.351 2.52c-.638 4.1-1.115 6.472-4.255 9.207.571-9.456 1.55-18.76 2.813-28.148 1.696-12.98 3.018-25.979 4.187-39.016a9256.636 9256.636 0 0 0 2.5-28.19c.49-5.605.99-11.208 1.5-16.81l.247-2.732c.88-9.63 1.912-19.066 3.964-28.53 3.027-14.312 2.385-29.108 2.407-43.668.019-6.768.09-13.535.152-20.303.023-2.572.044-5.143.065-7.714.137-15.826.553-31.634 1.102-47.452l.13-3.747c.786-22.572 1.783-45.134 2.933-67.69Z"/>
  <path fill="#DEDBD6" d="M162 424h2l-.032 2.987c-.172 17.796-.277 35.335 2.032 53.013.22 2.249.43 4.499.625 6.75l.227 2.547L167 491h2l.516 1.984A281.876 281.876 0 0 0 176 514l1.309 3.754c3.766 10.548 8.62 20.353 13.747 30.293a463.148 463.148 0 0 1 3.006 6.015l1.786 3.536c1.33 3.927 1.045 6.396.152 10.402l-4-2v-2l-3-1c-1.188-3.563-1.188-3.563-2-7l-2 1c-1.417-4.167-2.817-8.304-3.938-12.563-1.079-3.491-2.508-6.448-4.257-9.64C176 533 176 533 176 530h-2l-1.023-3.797-1.352-4.953-.672-2.5-.664-2.422-.603-2.222c-.706-2.168-1.659-4.073-2.686-6.106a152.25 152.25 0 0 1-1.563-6.438l-.753-3.37A485.75 485.75 0 0 1 163 490h-2a2198.393 2198.393 0 0 1-4-14l-.676-2.395c-2.443-9.159-2.457-18.26-2.387-27.668l.014-3.49c.012-2.816.028-5.631.049-8.447 1.732 3.243 2.201 5.242 2.063 8.938a151.07 151.07 0 0 0 .312 12.875c.07 1.037.14 2.075.21 3.144.688 5.454.688 5.454 3.415 10.043h2l-.438-3.043c-1.835-13.292-3.873-29.023.438-41.957Z"/>
  <path fill="#A19990" d="m785 685 1 4 .522 1.855c.51 2.288.637 4.373.689 6.715l.08 2.691.084 2.864c.415 11.161 1.384 22.38 4.598 33.129 1.413 5.154 2.148 10.474 3.027 15.746l2-35h1c.109 25.476-.188 50.947-.464 76.42l-.18 17.16c-.117 11.14-.236 22.28-.356 33.42h-2l-.076-1.842c-.529-12.727-1.122-25.445-1.924-38.158h-1v-20h1v-9l-3 3-.184-3.14-.254-4.11-.119-2.066c-.288-4.566-1.006-8.373-2.443-12.684l-2-1 2-2h3l-1-17-3 4v-4h-2c-.832-5.72-1.12-11.222-1-17l-3 1 1-19h2l-1-3-2 1c.654-5.07 2.855-9.42 5-14Zm5 75 1 2Z"/>
  <path fill="#CFCBC6" d="m43 579 1 2 2.313.875c3.007 1.259 4.404 2.842 6.687 5.125l2.688 1.063L58 589l1 3 2.125.313c3.266.78 5.922 2.108 8.875 3.687v2l2.563.688c3.94 1.504 7.325 3.439 10.437 6.312v2l1.668.348c2.717.76 5.098 1.876 7.644 3.09C96.5 612.372 100.528 613.84 105 615c7.612 2.391 15.259 4.962 22.59 8.113 3.194 1.175 6.037 1.02 9.41.887l1 2c1.883.903 1.883.903 4.063 1.625.733.26 1.466.52 2.222.79.566.192 1.132.386 1.715.585v1c-2.772.158-4.719.114-7.313-.938-3.566-1.41-6.875-1.674-10.687-2.062 3.625 3.172 7.512 4.429 12 6l-3 1-1 5-3.875-.313-2.18-.175C128 638 128 638 126 635l6 1-1-3c-1.724-.888-1.724-.888-3.875-1.438a190.786 190.786 0 0 1-10.813-3.625c-2.969-1.095-5.912-2.123-8.937-3.062C105 624 105 624 104 622c-1.33-.345-2.665-.675-4-1a199.598 199.598 0 0 1-6-3l-2.059-.98-2.129-1.02-1.98-.938C86 614 86 614 84.523 612.45c-1.853-1.763-3.228-2.108-5.71-2.636L75 609v-2l-2.75-.375c-2.84-.546-4.776-1.198-7.25-2.625v-2l-5-1v-2l-1.875-.438C56 598 56 598 54 597l-.438-2-.562-2-3-1v-2h-4v-2h-3c-3-5.75-3-5.75-3-8l3-1Z"/>
  <path fill="#72695B" d="M794 657h1c2.49 7.806 2.448 15.696 2.625 23.813A997.794 997.794 0 0 1 798 698l.031 2.178c.176 14.52-.422 29.003-1.031 43.509l-.29 7.11c-.232 5.735-.47 11.468-.71 17.202h-1l-.113-2.902c-.574-12.342-2.352-24.258-5.45-36.223-1.473-6.16-2.113-12.33-2.687-18.625l-.28-2.942c-.492-5.954-.322-11.393.53-17.308l-2-1 .805-2.64c1.763-5.947 3.353-11.71 4.258-17.86.656-4.424 1.609-7.69 3.937-11.5Z"/>
  <path fill="#BDB7B0" d="M180 442c1.683 2.97 2.298 5.299 2.527 8.695l.213 2.668c.132 1.849.26 3.698.383 5.547l.217 2.66.168 2.43c.35 2.393.35 2.393 3.492 4 .223 1.848.223 1.848.063 4.063-.158 4.957.767 9.145 1.937 13.937 1.764 7.744 3.25 14.978 2.973 22.95.06 6.713 1.154 13.401 2.027 20.05h2l2 3h1l-.035-3.613-.028-4.7-.025-2.38-.01-2.295-.016-2.11C199 515 199 515 200 512l-.75-2.5c-.337-4.72 1.417-7.574 3.488-11.746 1.128-2.462 1.763-4.55 2.262-7.192 1.181-4.207 2.59-5.027 6-7.562.88-2.635.88-2.635 1-5h2l2-4c-.931 5.122-2.355 10.064-4 15l-3 2v2.875c0 3.66-.779 4.37-3 7.125-1.102 3.586-1.102 3.586 0 7l-1 3.313c-.993 3.662-.888 5.135 0 8.687l-1 3c.153 2.35.153 2.35.594 4.93l.433 2.91c.314 2.016.63 4.031.946 6.047l.433 2.918.416 2.655c.246 3.515-.246 6.389-1.822 9.54h-2v-2h-2l-1-5-4 3c-3.013-12.597-5.979-25.195-8.313-37.938l-.48-2.59c-1.355-7.618-2.329-15.287-2.144-23.034.334-3.504.334-3.504-2.063-5.438-.395-1.848-.395-1.848-.598-4.063l-.24-2.414-.225-2.523c-.154-1.646-.311-3.292-.472-4.938l-.2-2.214c-.179-1.939-.179-1.939-1.265-3.848a242.295 242.295 0 0 1-.063-8.625l.014-2.43c.012-1.981.03-3.963.049-5.945Z"/>
  <path fill="#B3AEA6" d="M197 1280h3l3 7h4l-1 4 2 1v2h2c2.503 2.368 4.854 4.841 7.188 7.375 4.976 4.645 10.633 8.728 16.812 11.625l1-2v3l2.688.313c3.312.687 3.312.687 5.5 2.03 3.57 2.103 7.23 3.458 11.125 4.844l2.185.827c3.759 1.345 6.848 2.126 10.857 1.974 3.645.012 3.645.012 5.301 1.438L274 1327c2.622.794 2.622.794 5.5 1.188l2.906.48c2.654.395 2.654.395 5.594.332v2h6v-2l4 1-1 3 1.793-.07 2.394-.055 2.356-.07c2.457.195 2.457.195 4.652 1.105 4.063 1.579 8.191 2.048 12.493 2.652l2.568.381a315.3 315.3 0 0 0 15.327 1.822c3.749.364 7.489.797 11.23 1.235l2.193.25c5.539.647 5.539.647 8.214 1.25 3.69.664 7.377.826 11.116 1l2.417.123c2.54.13 5.081.254 7.622.377 2.534.124 5.067.248 7.6.377 1.573.08 3.146.157 4.719.23 4.491.228 8.863.69 13.306 1.393v2c-12.254.214-24.402-.421-36.625-1.25l-3.014-.204c-49.625-3.412-113.74-9.068-153.361-42.546l-2.078-1.64c-6.808-5.561-12.855-12.633-14.922-21.36Z"/>
  <path fill="#84796D" d="M169 488h2v7l2.375.563C176 497 176 497 177.188 500.5L178 504l2 2v5l2 2c.54 1.805.54 1.805 1 4 .443 1.712.902 3.42 1.375 5.125.235.869.47 1.738.71 2.633.806 2.575.806 2.575 3.915 4.242l-.332-1.773c-1.14-6.173-2.23-12.354-3.293-18.54l-.41-2.315c-.71-4.178-1.114-8.116-.965-12.372l2-1 .272 1.775c2.572 16.57 5.867 32.909 9.728 49.225l.77 3.263.77 3.178.681 2.827c1.126 3.948 2.748 7.63 4.384 11.388 2.525 6.053 4.613 12.265 6.745 18.465.554 1.6 1.124 3.195 1.697 4.79 1.342 3.791 2.345 7.042 1.953 11.089-2.418-2.418-2.86-4.247-3.875-7.5-2.87-8.841-6.351-17.06-10.563-25.342-3.567-7.065-6.914-14.231-10.25-21.408l-1.656-3.55c-5.503-11.877-10.368-23.84-14.656-36.2l-.945-2.64c-1.563-4.461-2.662-8.638-3.055-13.36l1-1Z"/>
  <path fill="#BFB9B2" d="m230 1273 7 2v2l2.688.375c3.05.576 5.48 1.39 8.312 2.625 3.93 1.655 7.888 2.871 12 4v2l2.5-.188c3.77.202 6.347 1.139 9.766 2.63 1.817.808 1.817.808 3.734-.442v2h2v2l3.84.371c5.31.59 10.495 1.606 15.723 2.691l2.767.565c2.224.454 4.447.912 6.67 1.373v1c-5.458.111-10.615-.083-16-1v2h3v3l1.984.148c7.083.58 14.023 1.595 21.016 2.852v1c-6.667.116-13.158-.109-19.785-.879-2.256-.307-2.256-.307-4.215.879l-1-4-2.75.125c-3.197-.123-4.563-.55-7.25-2.125l-3-1v-2h-4l-1 2v-2h-3l-2-3-3.313.625C262 1295 262 1295 259 1293c-1.99-.39-3.99-.732-6-1v-2l-2.082-.297-2.73-.453-2.708-.422c-2.986-.997-3.864-2.186-5.48-4.828h4v-3l-2.168-.34c-3.023-.705-5.395-1.793-8.144-3.223l-2.676-1.378L229 1275l1-2Z"/>
  <path fill="#867D72" d="M835 536c1.527 1.258 1.527 1.258 3 3-.905 8.017-4.532 14.802-8 22a1764.494 1764.494 0 0 0-3 7c-.77 1.667-1.54 3.334-2.313 5-3.147 6.903-5.926 13.937-8.687 21-.36.868-.722 1.735-1.094 2.629-2.877 7.227-4.454 14.728-6.068 22.317-.908 4.219-1.849 8.168-3.479 12.167-2.426 6.969-1.67 14.666-1.547 21.95.016 1.548.03 3.097.042 4.646.032 3.764.084 7.527.146 11.291-4.989-4.834-7.234-10.489-7.5-17.438-.06-4.803 1.612-8.52 3.43-12.875 1.714-4.306 2.95-8.727 4.195-13.187l.762-2.645c2.333-8.246 4.19-16.407 4.738-24.98l.227-3.383L810 592h2l.813-3.25c1.082-3.418 2.079-5 4.187-7.75.714-2.65.714-2.65 1-5h3l1-10h2l.313-2.5c1.384-7.047 4.494-13.409 7.503-19.887A156.66 156.66 0 0 0 835 536Z"/>
  <path fill="#8F877C" d="M222 1055h1v19h-2l-3 13 2 1h-2l-.148 3.672c-.425 9.74-1.116 19.384-2.191 29.074-.698 6.662-.76 13.18-.536 19.871-.13 3.497-.855 6.139-2.125 9.383l2 1-2 3c-.197 1.965-.197 1.965-.05 4.092.108 4.917-.435 9.575-1.157 14.431l-.382 2.63a1233.47 1233.47 0 0 1-.81 5.451c-.415 2.783-.81 5.567-1.205 8.353a4866.86 4866.86 0 0 1-.79 5.316l-.351 2.52c-.638 4.1-1.115 6.472-4.255 9.207.57-9.434 1.546-18.741 2.805-28.105 1.713-13.124 3.062-26.267 4.265-39.446l.257-2.806c.607-6.651 1.203-13.303 1.798-19.956.603-6.734 1.21-13.468 1.824-20.202.24-2.649.474-5.298.707-7.947 2.027-22.562 2.027-22.562 5.344-27.538a75.316 75.316 0 0 0 1-5Z"/>
  <path fill="#706559" d="m213 600 6 3-1 6h2l.438 3.25c.603 5.458.603 5.458 3.562 9.75.125 2.582.125 2.582 0 5.813-.13 8.366.917 16.425 3.125 24.5 2.222 9.363 2.222 9.363-.773 14.53-5.962 8.422-5.962 8.422-10.352 11.157-2.75.188-2.75.188-5 0l2-1c.652-2.025.652-2.025 1-4h3l.25-2.813c.87-3.7 1.708-4.161 4.75-6.187l-.938-6.125-.527-3.445a230.967 230.967 0 0 0-1.164-6.797L219 645l1-1c.324-3.886-.505-6.448-2-10v-3a518.003 518.003 0 0 0-.438-6.563c-.08-1.156-.162-2.312-.246-3.503-.136-2.865-.136-2.865-1.316-4.934h-2l.125-3.25c.141-3.586.141-3.586-1.188-5.875-1.286-2.572-.687-4.174.063-6.875Z"/>
  <path fill="#A49C91" d="m205 624 2 1-.07 3.105c-.02 1.361-.037 2.722-.055 4.082l-.05 2.042c-.041 4.137.617 6.993 2.175 10.771-.059 2.64-.059 2.64-.438 5.25A97.392 97.392 0 0 0 208 655l1 1 2-3-1 11 5-1c.346 5.654-.566 9.03-3 14l2 2h-14l3-3c.498-1.92.498-1.92.512-4.012l.107-2.295.069-2.38.103-2.417c.082-1.965.147-3.93.209-5.896h-2l.016-1.864c.02-2.795.034-5.59.047-8.386l.025-2.934.01-2.832.016-2.602c-.109-2.275-.533-4.19-1.114-6.382.121-2.36.121-2.36.438-4.75l.308-2.422L202 625l3-1Z"/>
  <path fill="#877D71" d="M792 661c.932 3.155 1.116 5.965 1.098 9.249l-.01 3.18-.025 3.43-.012 3.568c-.016 5.029-.044 10.058-.072 15.087-1.747 21.7-1.747 21.7 2.021 42.486.954 6.72 1.124 13.284 1.063 20.063l-.014 2.912c-.012 2.341-.028 4.683-.049 7.025h-1l-.113-2.902c-.574-12.342-2.352-24.258-5.45-36.223-1.473-6.16-2.113-12.33-2.687-18.625l-.28-2.942c-.492-5.954-.322-11.393.53-17.308l-2-1 .805-2.64c2.078-7.01 3.764-13.788 4.8-21.032C791 663 791 663 792 661Z"/>
  <path fill="#A9A198" d="M860 476h2c.365 10.538-2.827 20.47-7.84 29.652-1.61 3.257-2.505 6.607-3.387 10.121C850 518 850 518 848.637 519.781c-2.35 3.186-3.685 6.703-5.2 10.344-3.171 7.61-3.171 7.61-5.437 9.875h-2c-1.446-5.783-.677-10.645 2-16h2l2-7h3l.516-2.344c1.299-5.583 2.683-10.598 5.433-15.633 2.006-3.863 3.488-7.965 5.051-12.023h2l-.125-2.688c.124-3.285.739-5.366 2.125-8.312Z"/>
  <path fill="#BCB7B1" d="m358 203-5 4 4 2v3l3.43.402 4.445.536 2.262.263c5.636.686 5.636.686 7.863 1.799v2l9 1v2h-8l18 4v1c-6.482-.554-12.813-1.388-19.188-2.688l-2.53-.508c-10.53-2.182-20.908-4.986-31.282-7.804v-3c1.793-1.754 1.793-1.754 4.188-3.563l2.355-1.816c6.15-4.057 6.15-4.057 10.457-2.621Z"/>
  <path fill="#A89E95" d="M197 1280h3l3 7h4l-1 4 2 1v2h2c2.503 2.368 4.854 4.841 7.188 7.375 4.976 4.645 10.633 8.728 16.812 11.625l1-2v3l2.688.313c3.312.687 3.312.687 5.5 2.03 3.57 2.103 7.23 3.458 11.125 4.844l2.185.827c3.759 1.345 6.848 2.126 10.857 1.974 3.645.012 3.645.012 5.364 1.414L274 1327c2.16.924 2.16.924 4.5 1.563 3.026.892 4.813 1.645 7.5 3.437-6.389.294-11.64-.679-17.75-2.5l-2.754-.81c-18.672-5.644-36.47-12.993-51.496-25.69l-2.078-1.64c-6.808-5.561-12.855-12.633-14.922-21.36Z"/>
  <path fill="#C0BBB4" d="M797 717h1c.109 25.476-.188 50.947-.464 76.42l-.18 17.16c-.117 11.14-.236 22.28-.356 33.42h-2l-.076-1.842c-.529-12.727-1.122-25.445-1.924-38.158h-1v-20h1l1-10h1l.076-3.187C796 732.355 796 732.355 797 717Z"/>
  <path fill="#AEA79D" d="M816 453h1l2 11h2c2.277 4.76 3.477 9.098 4.398 14.281.648 2.929 1.615 5.598 2.664 8.406 3.191 9.216 3.544 18.74 1.938 28.313h-2l-.332-2.563c-.802-5.734-1.644-11.01-3.883-16.355-1.355-3.593-2.136-7.338-3.035-11.066-1.322-5.315-2.973-10.528-4.605-15.754l-.832-2.7-.762-2.433C814 462 814 462 814 459l2 1v-7Z"/>
  <path fill="#CDC9C4" d="M291 1297c25.348 1.019 25.348 1.019 37 2l3.031.25c6.833.614 6.833.614 7.969 1.75l2.625-.063c3.861.072 6.712.891 10.375 2.063v1c-8.345.229-16.412-.468-24.688-1.5l-3.607-.434c-2.902-.35-5.804-.705-8.705-1.066v3l3.25.375c4.634.575 9.225 1.366 13.828 2.148 3.633.593 7.266 1.055 10.922 1.477-1.086 1.543-1.086 1.543-3 3-3.04-.074-3.04-.074-6.625-.688l-3.766-.628c-4.232-.802-8.422-1.673-12.609-2.684v-2c-1.736-.2-1.736-.2-3.508-.402l-4.617-.535-2.305-.264c-4.213-.49-8.391-1.058-12.57-1.799v-3h-3v-2Z"/>
  <path fill="#8A8176" d="M804 619h2c-.832 6.77-2.577 12.718-5.125 19-3.346 8.479-4.622 15.465-.938 24.125 1.264 2.63 1.264 2.63 3.063 4.875l-.048-2.703c-.051-3.35-.089-6.698-.117-10.047a557.099 557.099 0 0 0-.061-4.326c-.167-9.43-.18-17.815 5.226-25.924l-.494 2.917c-.636 4.477-.632 8.897-.604 13.411l.005 2.639c.005 2.761.018 5.522.03 8.283.006 1.87.01 3.74.014 5.61.008 3.412.019 6.826.033 10.239.01 2.3.016 4.6.016 6.901-1.273-.934-2.543-1.873-3.813-2.813l-2.144-1.582c-3.831-3.01-5.723-5.16-6.828-10.085-.6-7.046 1.132-14.05 3.785-20.52.381-2.326.725-4.66 1-7l3-1c.844-3.98 1.447-7.97 2-12Z"/>
  <path fill="#C9C4C0" d="M409 1346h119v2a606.55 606.55 0 0 1-38.125 1.133 6525.836 6525.836 0 0 1-16.299-.002c-4.642-.006-9.284-.003-13.926.003-3.636.004-7.272.002-10.908 0-1.71 0-3.419 0-5.128.002-11.903.013-23.734-.406-35.614-1.136l1-2Z"/>
  <path fill="#4B4337" d="m810 592 3 1c1.189 4.266.727 7.245-.328 11.516l-.926 3.793-.496 1.964a665.613 665.613 0 0 0-1.45 5.872c-2.577 10.428-2.577 10.428-4.523 15.21-2.387 6.848-1.586 14.547-1.465 21.707.016 1.55.03 3.098.042 4.647.032 3.764.084 7.527.146 11.291-4.989-4.834-7.234-10.489-7.5-17.438-.06-4.803 1.612-8.52 3.43-12.875 1.714-4.306 2.95-8.727 4.195-13.187l.762-2.645c2.333-8.246 4.19-16.407 4.738-24.98l.227-3.383L810 592Z"/>
  <path fill="#F3F2ED" d="M788 264c4.977.51 8.68 1.548 13.098 3.879l3.407 1.78 3.558 1.904 3.673 1.934a551.87 551.87 0 0 1 21.077 11.706c3.732 2.104 7.534 4.024 11.375 5.922 9.757 4.83 9.757 4.83 14.25 7.188l2.62 1.363C863 301 863 301 864 304l-8-2v-2l-2.5-.75c-6.323-2.258-12.083-5.547-17.93-8.816-3.12-1.741-6.247-3.47-9.383-5.184l-3.269-1.797c-2.378-1.184-4.327-1.976-6.918-2.453v-2l-2.155-.837c-2.843-1.162-5.597-2.435-8.365-3.765l-3.095-1.484-3.197-1.539-3.256-1.563c-2.645-1.269-5.289-2.54-7.932-3.812v-2Z"/>
  <path fill="#C1BBB5" d="M286 526h1c.781 3.827 1.155 6.462.063 10.25-1.201 4.238-1.16 7.802-1.06 12.172-.003 2.578-.003 2.578-.628 5.89-.477 3.422.48 5.442 1.625 8.688 1.141 5.76.894 9.43-1 15-.453 6.657-.453 6.657.656 13.168L287 593c-2.161 2.512-4.02 4.51-7 6l.43-1.682c1.75-7.593 1.835-14.928 1.757-22.693l-.001-3.809c-.015-6.98-.015-6.98-1.186-13.816-.015-1.516.03-3.034.121-4.547l.147-2.558.17-2.645.158-2.691c.129-2.187.264-4.373.404-6.559l4-2v-10Z"/>
  <path fill="#877D73" d="M198 552c2 2 2 2 2.938 4.563L202 559l3 1-1 5 2 1-1 2 2 1c1.54 3.323 2.522 6.711 3.438 10.25.94 3.57 1.99 7.03 3.25 10.5 1.313 3.864 1.715 7.142 1.312 11.25l-2 4c.318 1.67.65 3.337 1 5l-2 2-3-13-2 4-.367-2.414c-.975-6.454-.975-6.454-2.758-12.711-1.298-4.266-1.032-8.449-.875-12.875 2.342 2.837 3.552 5.205 4.5 8.75 1.27 4.531 2.795 8.865 4.5 13.25a142.905 142.905 0 0 0-4.813-17.75c-.26-.775-.52-1.55-.79-2.348a325.16 325.16 0 0 0-6.417-17.203c-.931-2.565-1.525-5.012-1.98-7.699Z"/>
  <path fill="#7C7267" d="M230 794h1c.371 3.29.719 6.582 1.063 9.875l.314 2.781c.561 5.497.552 10.55-.121 16.032-.367 3.316-.315 6.539-.256 9.875.037 2.145.048 4.292 0 6.437l-1 1a134.626 134.626 0 0 0-.281 6.125l-.114 3.832L230.5 854c-.27 10.137-.705 20.001-2.5 30h-1c-.307-19.525.185-38.99.938-58.5l.132-3.512c.126-3.34.26-6.68.395-10.02l.117-3.039c.214-5.044.592-9.948 1.418-14.929Z"/>
  <path fill="#958B83" d="M226 872h1c.363 4.29.714 8.583 1.063 12.875l.314 3.707.283 3.535.27 3.27C229 898 229 898 228 900a74.381 74.381 0 0 0-.316 4.332l-.128 2.653-.119 2.827-.126 2.867c-1.056 12.33-1.056 12.33.689 24.321a863.475 863.475 0 0 1-2 5c-.362 2.993-.362 2.993-.414 6.176l-.117 3.506-.094 3.63-.117 3.69c-.094 3-.18 5.998-.258 8.998h-2c-.235-20.734.382-41.345 1.39-62.05.187-3.85.365-7.7.544-11.55.348-7.467.704-14.934 1.066-22.4Z"/>
  <path fill="#978F84" d="M165 414c4 4 4.583 10.504 5 16-.14 3.847-.68 7.633-1.2 11.443-.818 6.397-.832 12.559-.488 18.995l.144 2.709c.256 4.528.256 4.528 1.092 8.97.61 2.542.068 4.36-.548 6.883l-.563 2.813L168 484c-6.865-11.328-3.11-33.257-3.063-46 .006-2.336.01-4.672.014-7.008.011-5.664.028-11.328.049-16.992Z"/>
  <path fill="#BFB8B1" d="M830 498c2 1 2 1 2.668 2.68 1.504 6.354 1.193 11.885.332 18.32l-.262 2.406c-.584 5.286-.584 5.286-1.738 7.594-.07 1.874-.084 3.75-.063 5.625l.028 3.04L831 540l-2 1-1-8h-2l-1-32c2 1 2 1 2.621 2.766.403 2.376.477 4.576.442 6.984l-.028 2.422L828 515h2v-17Z"/>
  <path fill="#483F32" d="M182 528c3.157 3.909 6 7.861 6 13h2c3 6.625 3 6.625 3 10h2l1 2h2c4.293 10.38 8.404 20.793 12 31.438l.916 2.668.834 2.515.734 2.201c.581 2.453.604 4.666.516 7.178-2.418-2.418-2.86-4.247-3.875-7.5-2.868-8.834-6.347-17.046-10.552-25.322-3.347-6.633-6.53-13.342-9.675-20.072a1276.3 1276.3 0 0 0-1.798-3.826 1221.38 1221.38 0 0 1-2.537-5.425l-1.497-3.198C182 531 182 531 182 528Z"/>
  <path fill="#524638" d="M222 637c2.872 2.872 3.243 6.282 4.125 10.125l.55 2.227c1.435 6.123 2.75 11.92-.284 17.73l-2.141 2.73-2.11 2.77c-4.71 5.32-4.71 5.32-8.89 5.606L211 678l2-1c.652-2.025.652-2.025 1-4h3l.25-2.813c.75-3.187.75-3.187 2.772-4.499 2.271-1.57 2.271-1.57 2.432-4.507l-.063-3.38-.04-3.662-.101-3.827-.055-3.86A850.407 850.407 0 0 0 222 637Z"/>
  <path fill="#CAC4BD" d="M858 474c3.125-.188 3.125-.188 6 0v11h-2l.188 3.813c.02 3.91.02 3.91-1.688 6.187l-1.5 1c.774-6.708 1.858-13.346 3-20h-2l-2 11h-2l-.32 2.113c-.78 3.31-2.06 6.021-3.555 9.075-2.32 4.895-4.17 9.66-5.582 14.886C846 515 846 515 845 517h-3l-.438 2.375C841 522 841 522 840 524h-2c.66-2.846 1.517-5.523 2.563-8.25l.816-2.14L842 512h2l.375-2.125c.664-3.054 1.618-5.918 2.625-8.875l.438-2.313L848 497l3-1 1-5h2c.894-3.96 1.297-7.875 1.621-11.914C856 477 856 477 858 474Z"/>
  <path fill="#B0AAA1" d="M783 690h1c.316 3.187.628 6.375.938 9.563l.28 2.893a433.53 433.53 0 0 1 1.282 16.731c.292 5.117.994 9.831 2.39 14.762.153 2.854-1.038 3.979-2.89 6.051v-4h-2c-.832-5.72-1.12-11.222-1-17l-3 1 1-19h2l-1-3-2 1c.557-3.344 1.352-6.033 3-9Z"/>
  <path fill="#D0CBC5" d="M182 542c6.126.93 6.126.93 8.344 3.646 1.19 2.138 2.19 4.294 3.156 6.542l1.086 2.251c2.268 5.016 2.72 8.203 1.414 13.561l-4-2v-2l-3-1c-1.188-3.563-1.188-3.563-2-7l-2 1c-1.905-5.103-3.426-9.463-3-15Z"/>
  <path fill="#C2BDB7" d="M358 504h2l.184 3.945.253 5.18.12 2.594c.225 4.508.664 8.83 1.443 13.281a93.37 93.37 0 0 1 .125 5.063l.008 2.472C362 539 362 539 361.527 541.227c-.762 4.007-.894 8.016-1.09 12.086l-.13 2.533A2094.43 2094.43 0 0 0 360 562h-1l-.402-2.668-.536-3.52-.527-3.48a101.059 101.059 0 0 0-1.125-5.977c-.428-2.456-.356-4.39-.035-6.855l.297-2.371c.328-2.129.328-2.129.953-4.692.556-3.61-.075-6.832-.625-10.437l-3 1v-2h2l2-17Z"/>
  <path fill="#9D958B" d="m160 521 4 1 .75 3.875c1.162 5.295 3.113 10.157 5.25 15.125 2.316-3.473 2.037-4.991 1.426-9.004-.526-2.467-1.434-4.682-2.426-6.996v-3h2l1.059 3.43 1.379 4.445.697 2.262c1.219 4.014 1.219 4.014 2.865 7.863.04 2 .043 4 0 6h2l1 9c-3 0-3 0-4.563-1.313C173.15 551.003 172 549.601 172 546h-2v-2h-2l-.75-2.938c-.846-2.991-1.952-5.738-3.25-8.562-1.74-3.786-2.97-7.466-4-11.5Z"/>
  <path fill="#B8B0A7" d="M829 549c0 3.245-.685 4.974-1.938 7.938-1.264 3.005-2.36 5.875-3.062 9.062h-2l-1 10h-3l-.313 3.25c-.688 3.755-1.336 4.928-3.687 7.75a88.182 88.182 0 0 0-2 5h-2v-9l3-1 .113-2.3.2-3.013.175-2.988c.563-2.969 1.053-3.987 3.512-5.699h3l.688-2.813c1.504-5.27 3.71-10.367 6.312-15.187l2-1Z"/>
  <path fill="#C2BEB8" d="M276 1293c3.47.458 6.674.891 10 2 2.628.204 5.243.372 7.875.5 4.448.219 8.775.476 13.125 1.5v1c-5.458.111-10.615-.083-16-1v2h3v3l1.984.148c7.083.58 14.023 1.595 21.016 2.852v1c-6.667.116-13.158-.109-19.785-.879-2.256-.307-2.256-.307-4.215.879l-1-4-2.75.125c-3.197-.123-4.563-.55-7.25-2.125l-3-1c-1.688-1.375-1.688-1.375-3-3v-3Z"/>
  <path fill="#BFB9B3" d="M355.508 1340.871c8.752 1.446 17.515 1.79 26.367 2.191 2.48.117 4.96.235 7.44.357 1.528.075 3.056.147 4.584.214 4.431.213 8.726.676 13.101 1.367v2c-12.867.276-25.608-.59-38.438-1.5l-6.298-.434c-5.089-.35-10.176-.706-15.264-1.066v-3c3.459-1.153 4.96-.794 8.508-.129Z"/>
  <path fill="#CECAC5" d="M384 217a360.79 360.79 0 0 1 15 4l-1 4 2.992.412c4.058.58 8.094 1.28 12.13 1.998l2.256.4c2.353.416 4.706.834 7.06 1.252l4.818.854c3.915.693 7.83 1.388 11.744 2.084v1c-8.112.396-15.62-.808-23.563-2.375l-3.537-.672c-3.304-.633-6.602-1.288-9.9-1.953l-2.773-.54c-5.991-1.224-5.991-1.224-8.227-3.46-2.506-.575-4.97-1.07-7.5-1.5-7.23-1.23-7.23-1.23-9.5-3.5l10 1v-3Z"/>
  <path fill="#847B6F" d="M185 493h1l.272 1.775c2.124 13.685 4.692 27.185 7.885 40.664l.769 3.303.7 2.933C196 544 196 544 195 546h-2l-1.242-2.992-1.633-3.883-.816-1.973c-1.193-2.822-2.122-4.965-4.309-7.152l1-3 3 2-.332-1.773c-1.14-6.173-2.23-12.354-3.293-18.54l-.41-2.315c-.707-4.165-1.215-8.129-.965-12.372l1-1Z"/>
  <path fill="#9F948B" d="m228 656 3 1-.105 3.82c-.293 15.634.89 31.04 4.81 46.224.452 2.998-.46 5.258-1.705 7.956-1.998-2.997-2.355-4.197-2.794-7.64l-.373-2.84-.376-3.06-.402-3.14c-.279-2.19-.553-4.38-.824-6.572-.418-3.368-.85-6.734-1.284-10.1-.268-2.124-.536-4.25-.802-6.375l-.395-3.07-.344-2.823-.312-2.496L226 665l1-1c.23-1.347.412-2.704.563-4.063L228 656Z"/>
  <path fill="#A59D92" d="M848 514c1.164 3.492.84 4.049-.547 7.309l-1.062 2.513-1.141 2.615c-.36.86-.722 1.719-1.094 2.604-1.712 4-3.276 7.642-6.156 10.959h-2c-1.446-5.783-.677-10.645 2-16h2l.688-3.375c1.312-3.625 1.312-3.625 3.875-5L847 515l1-1Z"/>
  <path fill="#9E968D" d="M197 1280h3l3 7h4l-1 4 2 1v2h2c2.503 2.368 4.854 4.841 7.188 7.375 4.976 4.645 10.633 8.728 16.812 11.625l1-2 1 3c1.5 1.667 1.5 1.667 3 3-5.614-.473-9.315-2.648-13.938-5.625l-2.151-1.366c-4.916-3.191-9.068-6.567-12.911-11.009l-2.563-2.438c-4.732-4.975-8.741-9.78-10.437-16.562Z"/>
  <path fill="#C8C3BC" d="M167 374c3 2 3 2 3.73 4.031 1.122 6.056 1.506 11.815 1.27 17.969h2l.363 2.02c.873 4.833 1.763 9.66 2.707 14.48l1.055 5.5.55 2.75c1.225 6.48 1.54 12.661 1.325 19.25l-2-1c-1.804-6.367-2.372-12.585-2.754-19.18-.143-2.897-.143-2.897-1.246-5.82-.269-3.386-.445-6.772-.621-10.164L173 401l-2-1c-.594-2.285-.594-2.285-1.07-5.277l-.528-3.244-.527-3.416-.55-3.405C167 376.38 167 376.38 167 374Z"/>
  <path fill="#948B82" d="M210 1148h1v12h2c-.182 1.26-.364 2.521-.55 3.82l-.364 2.532a3590.36 3590.36 0 0 1-.809 5.597 680.911 680.911 0 0 0-2.039 15.238l-.375 3.012a528.839 528.839 0 0 0-.685 5.778l-.334 2.656-.276 2.34c-.676 2.41-1.681 3.427-3.568 5.027.601-10.106 1.68-20.093 3-30.125 1.214-9.278 2.33-18.538 3-27.875Z"/>
  <path fill="#B7B1A7" d="M797 717h1c.149 17.402-.048 34.792-.373 52.19a5854.56 5854.56 0 0 0-.124 6.833c-.058 3.256-.121 6.51-.187 9.766l-.05 2.93c-.14 6.462-.603 12.852-1.266 19.281h-1c-1.053-11.352-1.103-22.61-1-34h1l.076-3.187C796 732.355 796 732.355 797 717Z"/>
  <path fill="#CBC6C1" d="M215 474c.625 1.875.625 1.875 1 4l-2 2a128.624 128.624 0 0 0-1 6c-1 3-1 3-3.375 5.125-7.971 8.73-8.022 23.676-7.625 34.875h-3c-.027-1.77-.046-3.542-.063-5.313l-.035-2.988C199 515 199 515 200 512l-.75-2.5c-.337-4.72 1.417-7.574 3.488-11.746 1.128-2.462 1.763-4.55 2.262-7.192 1.181-4.207 2.59-5.027 6-7.562.88-2.635.88-2.635 1-5h2l1-4Z"/>
  <path fill="#93897F" d="m787 685 2 1c.196 2.708.382 5.416.563 8.125l.17 2.305c.282 4.37.198 8.25-.733 12.57h2l-.035 2.047-.028 2.703-.035 2.672c.003 2.495.003 2.495.598 4.515.679 2.8.594 5.437.563 8.313l-.028 3.266L792 735c-2.822-2.822-2.948-5.949-3.563-9.75l-.39-2.37c-1.003-6.587-1.489-13.164-1.797-19.817l-.135-2.888c-.25-6.773-.25-6.773.885-10.175l-2-1 2-4Z"/>
  <path fill="#C9C3BD" d="m157 326 2 1c.309 2.082.309 2.082.438 4.813.58 7.842 2.35 15.313 5.25 22.625 1.179 3.2 1.626 5.212 1.312 8.562h1v11h-1l-.55-2.965c-2.3-12.324-2.3-12.324-6.95-23.91-2.864-5.966-5.516-12.574-3.5-19.125l2-2Z"/>
  <path fill="#CEC9C5" d="M162 424h2v46h-1v-5h-2c-2.943-29.17-2.943-29.17 1-41Z"/>
  <path fill="#C6C2BD" d="M194 420c2.248 2.052 3.002 3.007 4 6l-1 2 2 1-2.438 2.938c-4.386 6.175-3.855 12.795-2.816 20.019.769 6.187-.729 11.26-2.746 17.043h-1c-.126-7.136.032-14.248.375-21.375l.094-2.304c.236-4.468 1.06-8.068 2.531-12.321.276-2.285.484-4.578.625-6.875l.227-3.492L194 420Z"/>
  <path fill="#968D83" d="M143 474h1v5h2l.883 2.973C149.774 491.55 153.17 500.757 157 510a2004.94 2004.94 0 0 1 2.375 5.938l.96 2.402L161 520l-2 1c-4.362-7.124-7.075-13.908-9.043-22.031-.948-2.941-1.632-4.05-3.957-5.969-3.608-5.612-3.113-12.576-3-19Z"/>
  <path fill="#A79F96" d="m149 436 2 1c.893 3.243 1.228 6.609 1.688 9.938l.431 2.767c.868 6.103 1.35 12.24-.119 18.295l-2 1 .125-2.813c.146-3.345.146-3.345-2.125-6.187-.16-2.121-.16-2.121-.063-4.438.121-3.097-.1-5.579-.937-8.562l-.5-3.063c-.431-2.985-.431-2.985-1.5-5.937l3-2Z"/>
  <path fill="#AAA298" d="M790 744c2.706 5.413 2.867 10.464 3.375 16.438l.363 3.431c.72 8.364.72 8.364-1.699 12.416L790 778l-.184-3.14-.254-4.11-.119-2.066c-.288-4.566-1.006-8.373-2.443-12.684l-2-1 2-2h3v-9Zm0 16 1 2Z"/>
  <path fill="#40382A" d="M794 657h1c1.525 5.401 2.277 10.239 2.156 15.867l-.024 2.301c-.032 2.611-.081 5.221-.132 7.832l-.102 6.142a5016.67 5016.67 0 0 1-.398 19.983l-.145 6.98c-.116 5.632-.235 11.264-.355 16.895h-1c-.132-7.251-.263-14.503-.391-21.754-.06-3.37-.12-6.739-.182-10.108-.268-14.714-.517-29.421-.427-44.138Z"/>
  <path fill="#F7F6F3" d="M632 187c-2.388 2.388-3.229 2.313-6.5 2.563-3.376.247-3.376.247-6.5 1.437h-5l-3 1a206.02 206.02 0 0 1-6.129.719l-3.635.386-7.609.79-3.63.386-3.339.346c-2.627.225-2.627.225-4.658 1.373-2.125-.938-2.125-.938-4-2 4.121-1.893 7.932-2.516 12.426-3.035l2.14-.253c2.248-.265 4.497-.52 6.746-.774l4.499-.526c2.776-.325 5.553-.646 8.33-.963 2.733-.318 5.461-.65 8.19-1 3.968-.486 7.68-.52 11.669-.449Z"/>
  <path fill="#8B8175" d="M210 653h1l-1 11 5-1c.506 6.073-.958 9.772-4 15h-2c-3.346-5.372-2.476-11.918-2-18 .734-2.685 1.612-4.571 3-7Z"/>
  <path fill="#A89F97" d="M165 418h1l.076 3.469c.094 4.27.195 8.54.296 12.81.043 1.843.085 3.687.125 5.53.058 2.659.122 5.318.187 7.976l.05 2.476c.155 6.049.75 11.866 2.266 17.739.866 4.07 1.033 6.972 0 11l-.563 2.813L168 484c-6.607-10.847-3.113-31.727-3.063-44a8191.927 8191.927 0 0 1 .063-22Z"/>
  <path fill="#655B4D" d="M178 518h2c1.648 2.967 2.443 5.656 3 9h2l2.25 4.5 1.383 2.754c.84 1.689 1.671 3.383 2.484 5.086l1.008 2.097.883 1.872c.946 1.78.946 1.78 2.566 3.246 1.94 1.965 2.064 3.765 2.426 6.445l-3 1v-3h-2c-3-6.625-3-6.625-3-10h-2l-5-11h-2a664.623 664.623 0 0 1-1.5-4.313l-.844-2.425C178 521 178 521 178 518Z"/>
  <path fill="#F6F6F2" d="M643.2 186.273c5.28 1.37 9.374 4.647 13.8 7.727 6.84 4.35 13.66 8.546 21 12-4.835 1.612-8.568-.842-13-3a117.693 117.693 0 0 1-6.992-4.633c-1.972-1.412-1.972-1.412-4.145-2.414-1.863-.953-1.863-.953-3.8-3.078-1.94-2.143-1.94-2.143-4.813-2.125L643 191l-1-2c-2.126-.467-2.126-.467-4.563-.625l-2.503-.227L633 188c3.832-2.555 5.75-2.28 10.2-1.727Z"/>
  <path fill="#8D8279" d="M228 832h1c.732 5.247 1.128 10.296 1.133 15.605l.003 2.083c0 1.437-.001 2.875-.006 4.313-.005 2.192 0 4.383.007 6.575a16087093046.66 16087093046.66 0 0 1-.007 8.046c-.113 2.946-.471 5.517-1.13 8.378-.344 2.332-.68 4.665-1 7h-1c-.11-17.368-.083-34.657 1-52Z"/>
  <path fill="#CCC8C2" d="m43 579 1 2 2.313.875c3.007 1.259 4.404 2.842 6.687 5.125 1.656.693 3.321 1.365 5 2l1 2-5-1-1 3-3-1v-2h-4v-2h-3c-3-5.75-3-5.75-3-8l3-1Z"/>
  <path fill="#A69C93" d="M198 552c2 2 2 2 2.938 4.563L202 559l3 1-1 5 2 1-1 2 2 1c1.54 3.323 2.522 6.711 3.438 10.25 1.148 4.34 2.474 8.56 4.011 12.777C215 594 215 594 215 598h-2l-.531-1.718c-3.472-11.177-7.06-22.269-11.247-33.201-1.398-3.68-2.618-7.17-3.222-11.081Z"/>
  <path fill="#8A8176" d="M222 1055h1v19h-2l-3 13 2 1h-2l-1 4c-.5-25.25-.5-25.25 4-32a75.316 75.316 0 0 0 1-5Z"/>
  <path fill="#A59D94" d="M143 404c2.398 2.398 2.343 3.333 2.625 6.625l.227 2.477L146 415l3 1c.249 2.604.475 5.206.688 7.813l.22 2.236c.42 5.463.42 5.463-1.263 7.963C147 435 147 435 145 435l-.184-2.703-.254-3.547c-.08-1.16-.162-2.32-.246-3.516-.208-3.05-.208-3.05-.847-5.203-.714-3.093-.56-6.114-.531-9.281l.027-3.828L143 404Z"/>
  <path fill="#A09990" d="M223 968h2c.652 4.725 1.114 9.22 1 14v2c-.241 2.272-.512 4.54-.781 6.809-.269 2.321-.269 2.321-.219 5.191h-2v14h-1c-.025-4.696-.043-9.391-.055-14.087-.005-1.594-.012-3.189-.02-4.783-.013-2.304-.018-4.608-.023-6.911l-.015-2.129c0-4.777.443-9.359 1.113-14.09Z"/>
  <path fill="#80776D" d="M823 568h2c-.502 4.768-1.993 8.739-3.813 13.121-1.367 3.315-2.655 6.656-3.937 10.004l-1.297 3.383L815 597l-1-3-2-1c.482-5.064 2.171-7.845 5-12 .782-2.728.782-2.728 1-5h3l.438-2.313C822 571 822 571 823 568Z"/>
  <path fill="#362D20" d="M199 563c2.491.97 3.746 1.535 5.05 3.92l.766 2.334c.29.855.58 1.71.877 2.592l.87 2.716c.29.87.58 1.74.88 2.635.58 1.74 1.153 3.484 1.718 5.23a531.324 531.324 0 0 0 3.285 9.672c.685 2.35.79 4.47.554 6.901-2.418-2.418-2.86-4.247-3.875-7.5-2.546-7.882-5.375-15.452-9.39-22.71C199 567 199 567 199 563Z"/>
  <path fill="#3D3227" d="M801 640h1v26c-4.192-4.192-5.226-8.806-5.438-14.563.126-5.05 1.09-7.684 4.438-11.437Z"/>
  <path fill="#A79E94" d="M825 485h1v5h2c2.772 8.692 3.209 15.97 2 25h-2c-.2-1.39-.2-1.39-.402-2.809l-.535-3.629-.528-3.62c-.225-2.822-.225-2.822-1.535-3.942a138.86 138.86 0 0 1-.625-6.375c-.095-1.163-.19-2.325-.29-3.523C824 488 824 488 825 485Z"/>
  <path fill="#C6C1BA" d="M180 442c1.683 2.97 2.298 5.299 2.527 8.695l.213 2.668c.132 1.849.26 3.698.383 5.547l.217 2.66.168 2.43c.35 2.393.35 2.393 3.492 4 .221 2.789.281 5.347.188 8.125l-.042 2.285A475.62 475.62 0 0 1 187 484l-2-3-2-2c-.395-1.848-.395-1.848-.598-4.063l-.24-2.414-.225-2.523c-.154-1.646-.311-3.292-.472-4.938l-.2-2.214c-.179-1.939-.179-1.939-1.265-3.848a242.295 242.295 0 0 1-.063-8.625l.014-2.43c.012-1.981.03-3.963.049-5.945Z"/>
  <path fill="#D5D0CC" d="M154 434c1.732 3.243 2.201 5.242 2.063 8.938a151.07 151.07 0 0 0 .312 12.875c.07 1.037.14 2.075.21 3.144.438 3.213 1.354 5.986 2.415 9.043.253 1.996.506 3.992.715 5.992.276 2.298.276 2.298 1.347 5.57.99 3.626 1.09 6.698.938 10.438-2.157-4.095-3.332-8.244-4.563-12.688-.22-.765-.442-1.53-.67-2.318-2.704-9.7-2.905-19.023-2.83-29.057l.014-3.49c.012-2.816.028-5.631.049-8.447Z"/>
  <path fill="#F1EFED" d="m457.535 193.559 2.316.206c2.404.216 4.808.444 7.212.673l4.935.447C476 195.247 480 195.62 484 196l-1 2c-3.937.029-7.875.047-11.813.063l-3.392.025-3.252.01-3 .016C459 198 459 198 456 197a361.6 361.6 0 0 0-8.188-1.063l-2.271-.275A2271.41 2271.41 0 0 0 440 195v-1c5.982-.855 11.528-1.033 17.535-.441Z"/>
  <path fill="#9E9289" d="m200 1247 2 1-.402 1.723c-1.695 7.407-2.66 14.36-2.567 21.965-.034 2.536-.377 4.86-1.031 7.312h-2c-3.02-9.06-1.009-22.121 2-31l2-1Z"/>
  <path fill="#F3F1EE" d="m698 219 2.719 1.469a869.46 869.46 0 0 0 26.363 13.58c3.31 1.641 6.614 3.297 9.918 4.951v2c-6.92-1.994-12.818-4.929-19.082-8.477-2.394-1.25-4.286-2.051-6.918-2.523v-2l-2.5-.75c-4.024-1.437-7.72-3.274-11.5-5.25l1-3Z"/>
  <path fill="#A49E94" d="M36 582h2c.625 2.813.625 2.813 1 6a374.537 374.537 0 0 1-3.688 5.438c-1.53 2.988-1.129 3.5-.312 6.562a100.753 100.753 0 0 1-3 3c-1.2 3.1-1.2 3.1-2 6h-2c.27-7.404 2.524-21.524 8-27Z"/>
  <path fill="#C4BFB8" d="M151 415c2.395 3.592 2.748 6.527 3.438 10.723.399 2.458.399 2.458 2.562 4.277l-2 2c-.372 2.716-.372 2.716-.414 5.883l-.117 3.535-.094 3.707-.117 3.73c-.095 3.048-.18 6.097-.258 9.145h-1c-1.205-8.823-1.337-17.673-1.563-26.563l-.13-4.79A6310.31 6310.31 0 0 1 151 415Z"/>
  <path fill="#BAB2AC" d="m810 665 3 3c-.313 3.688-.313 3.688-1 7 5.34 2.86 10.08 4.731 16 6l-1 2c-7.944-.034-13.72-2.08-20-7-1.785-2.2-1.785-2.2-3-4l4 2 2-9Z"/>
  <path fill="#9E958C" d="M155 468c2.543 2.543 2.442 3.91 2.852 7.445l.39 3.262.383 3.418.406 3.441c.33 2.81.653 5.622.969 8.434h-2l-.805-3.395-1.07-4.418-.527-2.236c-.843-3.448-1.61-5.97-3.598-8.951-.125-3.188-.125-3.188 0-6l3-1Z"/>
  <path fill="#BCB4AB" d="M816 453h1l2 11h2c3.077 6.4 3.077 6.4 2.688 9.438L823 475l-.875-1.938c-.953-2.214-.953-2.214-3.125-3.062l1.063 3.75c.893 3.153.946 5.118-.063 8.25a5827.49 5827.49 0 0 1-2.133-7.121 660.08 660.08 0 0 0-1.734-5.664l-.82-2.652-.762-2.434C814 462 814 462 814 459l2 1v-7Z"/>
  <path fill="#B7B1A9" d="M240 1284c4.567.69 8.973 1.696 13.438 2.875l3.808.992c3.765 1.136 7.176 2.517 10.754 4.133-1.688 1.625-1.688 1.625-4 3-2.375-.75-2.375-.75-5-2a127.16 127.16 0 0 0-6-1v-2l-2.082-.297-2.73-.453-2.708-.422c-2.986-.997-3.864-2.186-5.48-4.828Z"/>
  <path fill="#B5AEA6" d="M301 1077c2 2 2 2 2 6h2c.168 2.125.334 4.25.5 6.375l.281 3.586c.121 1.677.219 3.358.219 5.039h2v-5h1v5l3 1c.688 2.063.688 2.063 1 4h-2v5c-2-3.75-2-3.75-2-6h-3c-1.765-3.088-2-4.233-2-8h-2l.063-2.875c.163-3.032.163-3.032-1.063-5.125a77.923 77.923 0 0 1-.063-4.625l.028-2.477L301 1077Z"/>
  <path fill="#6A5F53" d="M235 711c3.951 3.951 4.526 4.553 5.313 9.625.16.962.322 1.923.488 2.914C241 726 241 726 240 728h2l1 8-3-1c-.95-2.18-.95-2.18-1.688-4.875l-.761-2.68C237 725 237 725 237 722h-2v5h-1l1-16Z"/>
  <path fill="#B6AFA7" d="M282 544h1a898.63 898.63 0 0 1 1.313 38.188l.09 3.668.023 3.437.044 3.048c-.591 3.346-1.903 4.522-4.47 6.659l.43-1.682c1.75-7.593 1.835-14.928 1.757-22.693l-.001-3.809c.01-6.983.01-6.983-1.186-13.816.084-2.253.235-4.504.438-6.75l.308-3.547L282 544Z"/>
  <path fill="#958A81" d="M206 640c1.5 1.125 1.5 1.125 3 3 .25 3.125.25 3.125 0 6l-1 1a92.7 92.7 0 0 0-.133 5.207l-.004 3.217.012 3.389-.012 3.353.004 3.229.004 2.964c.116 2.372.453 4.373 1.129 6.641h5v1h-9c-.025-4.75-.043-9.501-.055-14.252-.005-1.615-.012-3.23-.02-4.844-.013-2.326-.018-4.652-.023-6.978l-.015-2.176c0-3.713.224-7.14 1.113-10.75Z"/>
  <path fill="#5E5244" d="m221 620 3 2c.22 2.95.28 5.684.188 8.625l-.042 2.43A538.47 538.47 0 0 1 224 639h-1l-1 16c-1.807-3.614-2.562-6.054-3-10l1-1c.324-3.886-.505-6.448-2-10 0-3 0-3 2-6l1 6v-14Z"/>
  <path fill="#93887F" d="M203 1208h2c1.771 5.314.65 10.974.25 16.5l-.227 3.785-.257 3.621-.226 3.323c-.579 2.971-1.18 3.953-3.54 5.771.552-11.01 1.157-22.008 2-33Z"/>
  <path fill="#C3BFB7" d="m379 188 2 1a5651.293 5651.293 0 0 1-4.313 4.813l-2.425 2.707L372 199l-1.563 1.813c-2.494 2.06-5.356 1.361-8.437 1.187 1.498-4.01 3.768-5.401 7.375-7.563 3.336-2.018 6.548-4.038 9.625-6.437Z"/>
  <path fill="#999086" d="M792 740h1c2.849 14.604 3.177 29.18 3 44h-1c-1.832-14.696-3.565-29.175-3-44Z"/>
  <path fill="#958E86" d="M113 384h2c-1.218 8.523-5.004 15.455-8.952 22.985-1.725 3.317-3.383 6.667-5.048 10.015-1.331-3.978-.322-6.053 1.504-9.79l1.121-2.21a2138.74 2138.74 0 0 0 2.227-4.559l1.11-2.269c2.216-4.637 4.127-9.403 6.038-14.172Z"/>
  <path fill="#E9E6E3" d="M836 500h2v2h2c.411 7.877-.564 14.503-3 22h-1v-24Z"/>
  <path fill="#C9C3BE" d="M796 810h1v34h-2c-.192-4.52-.37-9.04-.537-13.562a955.26 955.26 0 0 0-.187-4.615 925.324 925.324 0 0 1-.253-6.628l-.097-2.09c-.054-1.7.001-3.405.074-5.105l2-2Z"/>
  <path fill="#A59D94" d="m806 642 3 1v32c-3.325-4.433-3.363-5.436-3.293-10.734l.03-3.926c.024-1.363.05-2.727.076-4.09A1311.61 1311.61 0 0 1 806 642Z"/>
  <path fill="#BAB5AE" d="M409 1346c14.373-.127 28.653.12 43 1v1c-14.756.797-29.259 1.142-44 0l1-2Z"/>
  <path fill="#564D42" d="M806 623c1.148 3.45.997 4.009-.426 7.684-2.583 7.172-1.89 14.864-1.761 22.379.015 1.548.028 3.097.04 4.646.033 3.764.085 7.527.147 11.291l-2-1-.076-2.447a5466.38 5466.38 0 0 0-.361-10.928l-.12-3.852-.127-3.671-.11-3.396c-.032-2.673-.032-2.673-1.206-4.706a123.528 123.528 0 0 1 2.375-7.563c.235-.698.47-1.396.71-2.115 1.768-5.175 1.768-5.175 2.915-6.322Z"/>
  <path fill="#C2BCB6" d="M162 490c3.43 6.333 5.316 13.041 7 20l1.188 3.25c.832 2.816.85 4.053-.188 6.75-2-2-2-2-2.125-5.625L168 511h-2c-3.578-6.674-4.272-13.53-4-21Z"/>
  <path fill="#CFCDC8" d="M351 206a398.51 398.51 0 0 1 5.188-.125l2.917-.07c3.023.204 5.163.926 7.895 2.195l-2 1 1 5-9-2v-3l-6-2v-1Z"/>
  <path fill="#837971" d="m228 656 3 1c.096 8.079.125 15.983-1 24h-2c-.36-2.645-.714-5.29-1.063-7.938l-.314-2.287c-.25-1.92-.44-3.847-.623-5.775l1-1c.23-1.347.412-2.704.563-4.063L228 656Z"/>
  <path fill="#251B10" d="M222 637c2.872 2.872 3.243 6.282 4.125 10.125l.55 2.227c1.17 4.997 1.5 9.518 1.325 14.648l-4 2 .07-1.95c.131-6.541-.493-12.664-1.632-19.105-.402-2.704-.519-5.217-.438-7.945Z"/>
  <path fill="#C9C4BE" d="M187 555h2v2h6c1.984 2.917 1.988 4.124 1.625 7.75L196 568l-4-2v-2l-3-1c-.73-1.848-.73-1.848-1.188-4.063l-.48-2.222L187 555Z"/>
  <path fill="#EBE6E4" d="m410 188 3.805.621c8.385 1.355 16.724 2.685 25.195 3.379l-1 2c-9.575.463-18.621-1.284-28-3v-3Z"/>
  <path fill="#B9B4AD" d="M781 701h1c.573 4.341 1.143 8.683 1.709 13.025l.582 4.429c.28 2.124.558 4.25.834 6.374l.508 3.872C786 732 786 732 786 736h-2c-.832-5.72-1.12-11.222-1-17l-3 1 1-19Z"/>
  <path fill="#FBFAF7" d="M997 594c3.887 3.887 4.861 9.75 5.191 15.105A157.45 157.45 0 0 1 1002 617l-4 2 2-11-2-1c-.668-2.434-.668-2.434-1.188-5.438l-.542-2.996C996 596 996 596 997 594Z"/>
  <path fill="#A9A19A" d="m149 309 1 3 2 1-1 9-4-4-1.438 2.5L144 323h-1c.496-4.956 1.442-8.703 4-13l2-1Z"/>
  <path fill="#988F84" d="m205 624 2 1c.185 10.558.185 10.558-1 15-1.938-.75-1.938-.75-4-2-1.125-3.054-.985-5.557-.563-8.75l.31-2.422L202 625l3-1Z"/>
  <path fill="#C2BDB6" d="M857 680c-8.084 5.39-18.586 4.148-28 4 8.778-4.389 18.256-4.195 28-4Z"/>
  <path fill="#B3ACA2" d="M804 619h2c-1.216 10.82-5.268 20.85-9 31h-1c.448-4.706.98-9.356 1.875-14l.43-2.25L799 632l3-1c.844-3.98 1.447-7.97 2-12Z"/>
  <path fill="#D8D5D1" d="M121 623c2.647.113 5.292.24 7.938.375l2.287.094c1.93.104 3.854.31 5.775.531l1 2c1.883.903 1.883.903 4.063 1.625.733.26 1.466.52 2.222.79L146 629v1c-2.772.158-4.719.114-7.313-.938-4.824-1.907-9.648-2.555-14.687-1.062l-3-1v-4Z"/>
  <path fill="#9E948B" d="M843 528c-.543 4.565-1.795 7.973-4 12h-3c-1.017-4.371-1.169-7.005 1-11 2-1 2-1 6-1Z"/>
  <path fill="#786D62" d="M175 510h3v3h2c3.062 4.84 4.534 8.293 5 14h-2c-1.24-2.974-2.3-5.853-3-9l-3 1c-1.498-3.371-2-5.204-2-9Z"/>
  <path fill="#63594D" d="M793 660h1c.872 10.692 1.118 21.276 1 32h-1c-1.727-6.276-2.193-12.339-2.188-18.813l-.001-2.208c.038-3.776.287-7.308 1.189-10.979Z"/>
  <path fill="#C3BEB8" d="M818 568c-.427 5.769-1.755 10.338-4.012 15.656-1.153 2.735-2.095 5.515-2.988 8.344h-1v-9l3-1 .113-2.3.2-3.013.175-2.988c.469-2.47 1.427-5.699 4.512-5.699Z"/>
  <path fill="#AAA299" d="M156 516c3.527 2.351 3.928 3.686 5.438 7.563 1.524 3.852 3.098 7.632 4.875 11.375 1.424 3.147 2.14 5.55 1.687 9.062h2l-1 2c-2.72-2.353-3.698-4.418-4.813-7.813-2.035-5.924-4.482-11.592-7.015-17.316C156 518 156 518 156 516Z"/>
  <path fill="#CEC9C3" d="m666 1338-4 1v2c-6.968 1.327-13.93 1.088-21 1l-1-2c3.208-.338 6.416-.67 9.625-1 .904-.095 1.807-.19 2.738-.29 4.568-.466 9.038-.832 13.637-.71Z"/>
  <path fill="#A9A097" d="m810 611 2 1c.077 4.516.102 8.59-1 13h-2l.125 3.188c-.116 3.552-.597 5.66-2.125 8.812h-1c.796-8.759 2.422-17.356 4-26Z"/>
  <path fill="#7D7266" d="M185 527c1.875.625 1.875.625 4 2a252.854 252.854 0 0 1 2 6l3 1 2 10h-3l-1.242-2.992-1.633-3.883-.816-1.973c-1.193-2.822-2.122-4.965-4.309-7.152v-3Z"/>
  <path fill="#9F968C" d="M181 476h2c3.508 4.317 3.338 7.68 3 13-.5 2.5-.5 2.5-1 4h-2c-1.298-5.76-2.257-11.087-2-17Z"/>
  <path fill="#A1968F" d="M139 326h2a532.43 532.43 0 0 1-1 5l-.313 2.063C139 335 139 335 137.125 336.813c-2.687 2.766-3.702 5.63-5.125 9.187l-2 3h-2c1.557-5.354 3.982-10.002 6.625-14.875l1.273-2.375c1.03-1.919 2.065-3.835 3.102-5.75Z"/>
  <path fill="#B7B0A8" d="m192 528 4 1a541.23 541.23 0 0 1 1.688 7.813l.51 2.236c.439 2.158.439 2.158.802 5.951-1.477 1.737-1.477 1.737-3 3-.67-2.77-1.337-5.54-2-8.313l-.578-2.38-.547-2.295-.508-2.11C192 531 192 531 192 528Z"/>
  <path fill="#9B8F86" d="M217 1303c3.751 1.764 7.235 3.939 10.75 6.125l1.824 1.129c1.476.914 2.951 1.83 4.426 2.746l1-2 1 3c1.5 1.667 1.5 1.667 3 3-5.403-.489-8.84-2.393-13.25-5.313-.624-.39-1.248-.782-1.89-1.185-3.253-2.113-5.59-3.75-6.86-7.502Z"/>
  <path fill="#9D958C" d="M143 474h1v5h2c2.45 5.717 3.333 9.79 3 16h-2l-2-6h-1c-.847-5.08-1.09-9.848-1-15Z"/>
  <path fill="#C5BFB7" d="m818 586 2 4-2 3c-.34 1.999-.673 3.999-1 6a89.261 89.261 0 0 1-2 4l-.438 2.063c-.683 2.353-1.803 3.28-3.562 4.937.308-8.79 3.568-16.033 7-24Z"/>
  <path fill="#A9A299" d="m230 1273 7 2v2l2.688.375c3.05.576 5.48 1.39 8.312 2.625l2.75 1c2.25 1 2.25 1 3.25 3-9.188-1.06-16.835-4.928-25-9l1-2Z"/>
  <path fill="#C9C2BD" d="M115 659c14.321 2.992 14.321 2.992 20 7v2c-13.195-3.42-13.195-3.42-19-6l-1-3Z"/>
  <path fill="#A69D94" d="M174 536c2.354 2.55 2.983 3.71 3.188 7.25L177 546h2l1 9c-3 0-3 0-4.563-1.188-1.696-2.139-2.536-4.247-3.437-6.812l4 3c-.719-7.042-.719-7.042-2-14Z"/>
  <path fill="#C4BFBA" d="M187 484c4.615 4.615 5.007 14.664 5.191 21.105A243.68 243.68 0 0 1 192 515l-2 1a250856823.752 250856823.752 0 0 0-1.201-13.3c-.565-6.238-1.164-12.47-1.799-18.7Z"/>
  <path fill="#CDC9C5" d="M328 1299c1.646.14 3.292.287 4.938.438l2.777.246C338 1300 338 1300 339 1301l2.625-.063c3.861.072 6.712.891 10.375 2.063v1c-19.012.325-19.012.325-24-3v-2Z"/>
  <path fill="#F4F3F1" d="M767 255c6.467 1.162 12.096 3.125 18 6v2h2v2c-7.244-2.138-13.467-5.227-20-9v-1Z"/>
  <path fill="#928980" d="M224 942c1.937 3.24 2.194 5.46 1.977 9.203l-.157 2.969-.195 3.078-.172 3.125c-.141 2.542-.293 5.084-.453 7.625h-2c-.029-3.77-.047-7.542-.063-11.313l-.025-3.248-.01-3.115-.016-2.872C223 945 223 945 224 942Z"/>
  <path fill="#7C7164" d="M211 663c2.063.438 2.063.438 4 1 .566 5.656-1.286 9.226-4 14l-2-1c.14-2.146.287-4.292.438-6.438.08-1.194.162-2.39.246-3.62C210 664 210 664 211 663Z"/>
  <path fill="#ADA49B" d="m198 607 4 2c-.518 2.59-1.04 5.174-1.625 7.75L200 619l1 1a176.79 176.79 0 0 1-1 7l-2-1c-1.142-6.54-.89-12.445 0-19Z"/>
  <path fill="#6B6054" d="M178 518h2c1.648 2.967 2.443 5.656 3 9h2c4 6.75 4 6.75 4 9h-3l-3-6h-2a664.623 664.623 0 0 1-1.5-4.313l-.844-2.425C178 521 178 521 178 518Z"/>
  <path fill="#9F978D" d="M159 392c3.552 6.813 6 14.25 6 22h-2c-4.592-14.597-4.592-14.597-4-22Z"/>
  <path fill="#D3D0C9" d="M790 920c2.405 1.843 2.967 2.827 3.547 5.855.38 6.224.538 11.995-.547 18.145h-1c-1.184-8.024-2.285-15.865-2-24Z"/>
  <path fill="#7C7165" d="M208 589c2 2 2 2 3.5 5.563 1.09 3.499 1.09 3.499 3.5 4.437l-1.66 5.957c-.536 2.235-.536 2.235.66 5.043l-2 2c-1.609-5.143-2.528-10.089-3.125-15.438l-.262-2.216c-.21-1.782-.412-3.564-.613-5.346Z"/>
  <path fill="#898177" d="M166 379c2.249 2.249 2.443 3.174 3.07 6.21l.528 2.524.527 2.641c.182.864.364 1.727.55 2.617.782 3.805 1.325 7.096 1.325 11.008h-2l-.375-3.125c-.473-3.734-.473-3.734-1.625-6.563-1.513-5.01-1.68-10.106-2-15.312Z"/>
  <path fill="#9E978E" d="M123 361c1.706 5.117-.698 9.566-3 14.188a851.168 851.168 0 0 1-2 3.812 940.25 940.25 0 0 0-2 4c-1.478-4.555.117-7.846 1.813-12.125l.83-2.207c2.076-5.387 2.076-5.387 4.357-7.668Z"/>
  <path fill="#B3AEA6" d="m330 1004 1 3h2l-.063 2.188c.062 2.754.46 5.13 1.063 7.812l1 5-3 2c-2.296-11.522-2.296-11.522-2-17l-2-1 2-2Z"/>
  <path fill="#A9A099" d="M66 499h2a457.716 457.716 0 0 1-.813 5.688l-.457 3.199c-.76 3.244-1.759 5.437-3.73 8.113h-2c-.278-4.68.452-7.676 2.5-11.875l1.406-2.93L66 499Z"/>
  <path fill="#B5AFA7" d="M860 476h2c.24 5.633-.615 10.545-2 16l-2-2-3 2 1-5h2l-.125-2.688c.124-3.285.739-5.366 2.125-8.312Z"/>
  <path fill="#867D73" d="M173 419h2l3 25h-2c-1.88-8.396-3.55-16.335-3-25Z"/>
  <path fill="#C1B7B2" d="m358 203-5 4 4 3-4 1v-2l-9 1c8.207-8.931 8.207-8.931 14-7Z"/>
  <path fill="#D1CDC9" d="M362.504 1309.672c1.86.705 3.684 1.507 5.496 2.328-3.686 1.08-6.219.63-10 0l-1.938.5c-3.126.758-5.93.042-9.062-.5v-2c4.472-2.236 10.782-1.595 15.504-.328Z"/>
  <path fill="#B9ADA6" d="m341.688 1338.938 3.011.59L347 1340v3c-5.152.09-9.92-.153-15-1l1-3c3.475-1.158 5.137-.773 8.688-.063Z"/>
  <path fill="#B7B1A9" d="M283 1329h5v2h6v-2l4 1-1 3c-10.558 1.333-10.558 1.333-15 0l1-4Z"/>
  <path fill="#BDB8B2" d="M292 1302c5.879-.16 11.234.39 17 1.5l2.348.434c1.885.349 3.769.706 5.652 1.066v1c-6.667.116-13.158-.109-19.785-.879-2.256-.307-2.256-.307-4.215.879l-1-4Z"/>
  <path fill="#8C8479" d="M230 794h1c1.784 8.698.917 17.24 0 26h-1c-1.316-8.716-1.547-17.3 0-26Z"/>
  <path fill="#30251A" d="M801 640c1.163 3.55.924 6.558.563 10.25l-.31 3.266L801 656c-3.938-3.64-3.938-3.64-4.5-6.875.615-3.842 2.163-6.058 4.5-9.125Z"/>
  <path fill="#D3CEC6" d="m831 536 2 2c-.228 7.064-.228 7.064-3.063 10.5L828 550c-1.286-8.429-1.286-8.429 0-13l2 3 1-4Z"/>
  <path fill="#C8C2BC" d="M154 517c3 1 3 1 4.422 3.293 4.386 9.56 4.386 9.56 2.578 14.707h-1l-.375-2.438L159 530l-2-1c-.852-1.96-.852-1.96-1.625-4.375-.26-.791-.52-1.583-.79-2.398C154 520 154 520 154 517Z"/>
  <path fill="#B4ACA3" d="M186 484h1c1.802 7.853 2.992 15.03 1 23h-1c-.364-2.895-.716-5.79-1.063-8.688l-.314-2.474c-.49-4.18-.82-7.726.377-11.838Z"/>
  <path fill="#E1DFDC" d="M506.813 234.5c3.63.57 6.573.045 10.187-.5l3 1v2h-21c1-2 1-2 2.688-2.688C504 234 504 234 506.813 234.5Z"/>
  <path fill="#B0AAA2" d="M203 523h1c.535 3.56 1.05 7.124 1.563 10.688l.458 3.052c.14.977.278 1.953.42 2.96l.397 2.713c.17 2.725-.186 4.945-.838 7.587l-2-1v-10h-1v-16Z"/>
  <path fill="#F9F9F5" d="M788 264c6.316.403 10.65 2.712 16 6l-1 2c-5.233-1.64-10.152-3.39-15-6v-2Z"/>
  <path fill="#F3F2F0" d="M738 241c4.333.645 7.867 2.19 11.813 4.063l3.519 1.66L756 248v2c-3.865-.849-7.538-2.216-11.25-3.563l-1.969-.708c-1.594-.575-3.188-1.152-4.781-1.729v-3Z"/>
  <path fill="#C3BEB7" d="m157 326 2 1-1 17h-1a383.993 383.993 0 0 1-1.563-5.188l-.878-2.917c-.592-3.068-.495-4.932.441-7.895l2-2Z"/>
  <path fill="#CFCAC7" d="M165 299c-2.752 2.956-5.375 5.188-9 7h-4l-1 2v-3c3.27-3.176 9.52-8.24 14-6Z"/>
  <path fill="#E0DDDA" d="m475 234 21 1v2h-20l-1-3Z"/>
  <path fill="#CBC5BF" d="M508 1346h20v2l-20 1v-3Z"/>
  <path fill="#938C84" d="M796 650h1c.917 5.385 1.111 10.542 1 16l2 1h-3c-1.584-2.856-2.373-5.258-2.75-8.5l-.297-2.281c.054-2.565.754-4.031 2.047-6.219Z"/>
  <path fill="#392E21" d="M218 615c4.227 6.34 4.235 13.584 4 21-3.691-3.691-3.887-9.597-4.125-14.66 0-2.114.057-4.227.125-6.34Z"/>
  <path fill="#C6C1BC" d="M99 614c3.146-.262 4.618-.248 7.313 1.5L108 617h-5l1 5c-3.674-.707-6.74-2.188-10-4l-1-2 9 2v-2l-3-1v-1Z"/>
  <path fill="#A69D93" d="M817 573h4v3h-3l-.313 3.25c-.688 3.755-1.336 4.928-3.687 7.75a88.182 88.182 0 0 0-2 5c-.81-2.326-1.169-3.548-.293-5.895l1.106-1.918c1.998-3.685 3.172-7.126 4.187-11.187Z"/>
  <path fill="#A39992" d="M43 561h2c-.478 4.094-.966 8.01-2 12v3l-4 1c.524-5.868 1.761-10.549 4-16Z"/>
  <path fill="#9F948B" d="M268 1327c6.56.39 11.945 1.421 18 4v1c-5.789.207-10.43-.408-16-2v-2l-2-1Z"/>
  <path fill="#372C22" d="M207 578c2.09 3.136 3.016 5.785 4.125 9.375l1.07 3.398c.727 2.914.972 5.248.805 8.227-2.478-2.478-2.993-4.548-4.063-7.875l-1.035-3.18L207 585l-.684-2.195C206 581 206 581 207 578Z"/>
  <path fill="#F7F6F3" d="M915 386a53.086 53.086 0 0 1 4.188 7.5l1.105 2.344C921 398 921 398 920 401c-3-1-3-1-3.984-2.637-1.69-4.525-2.341-7.544-1.016-12.363Z"/>
  <path fill="#786E64" d="M222 1055h1v19h-3c-.198-6.705-.308-12.652 2-19Z"/>
  <path fill="#453A2C" d="M222 642h1c1.357 7.73 2.32 15.145 2 23-1.993-1.862-2.928-3.39-3.248-6.111-.047-2.552-.013-5.088.06-7.639l.042-2.691c.035-2.187.084-4.373.146-6.559Z"/>
  <path fill="#B6AEA6" d="M349 512h1c.25 2.227.474 4.457.688 6.688l.386 3.761c-.081 3.897-.849 5.436-3.074 8.551-.696 2.191-.696 2.191-1 4h-1c-.251-6.404-.251-6.404 1-9.375 1.265-3.321 1.109-6.118.973-9.637C348 514 348 514 349 512Z"/>
  <path fill="#C4BFB9" d="m131 632 6 2-1 5-3.875-.313-2.18-.175C128 638 128 638 126 635l6 1-1-4Z"/>
  <path fill="#CBC6C1" d="M286 526h1c.781 3.827 1.155 6.462.063 10.25-1.408 4.968-1.23 9.622-1.063 14.75h-2v-15h2v-10Z"/>
  <path fill="#E5E3E1" d="M160 469c2.048 1.963 2.95 3.428 3.2 6.27-.011 2.25-.07 4.484-.2 6.73l-2 1a347.885 347.885 0 0 1-1.625-5.313l-.914-2.988C158 472 158 472 160 469Z"/>
  <path fill="#C9C5BE" d="M200 458h2c.054 1.729.093 3.458.125 5.188l.07 2.917c-.204 3.023-.926 5.163-2.195 7.895h-1c-.027-2.48-.047-4.958-.063-7.438l-.025-2.142c-.009-1.807.036-3.614.088-5.42l1-1Z"/>
  <path fill="#B0A8A0" d="M255 1284h5v2l2.5-.188c3.77.202 6.347 1.139 9.766 2.63 1.817.808 1.817.808 3.734-.442v2l2 1c-5.843.369-10.05-.811-15.438-3l-2.216-.867c-1.786-.7-3.567-1.415-5.346-2.133v-1Z"/>
  <path fill="#D6D1CC" d="m142 667 7 1v2l2.875-.125C155 670 155 670 157 672c-3.81 1.27-5.816.52-9.688-.438l-3.574-.87L141 670l1-3Z"/>
  <path fill="#C7C4BD" d="m354 622 2 1c.316 5.26-.334 8.446-3 13h-1a336.784 336.784 0 0 1-.125-4.75l-.07-2.672c.204-2.692.83-4.277 2.195-6.578Z"/>
  <path fill="#988F86" d="M149 454c2.563 1.375 2.563 1.375 5 4 .251 3.437-.086 6.676-1 10l-2 1 .125-2.813c.146-3.345.146-3.345-2.125-6.187-.125-3.188-.125-3.188 0-6Z"/>
  <path fill="#F7F5F2" d="M866 303c5.09 1.59 8.875 4.745 13 8l-2 2a504.803 504.803 0 0 1-5.5-3.313l-3.094-1.863L866 306v-3Z"/>
  <path fill="#C7C3BD" d="m225 266 2 1c-2.995 4.228-2.995 4.228-5 6-3.313.375-3.313.375-6 0l-1-2a525.68 525.68 0 0 1 4.875-2.563l2.742-1.44L225 266Z"/>
  <path fill="#CFC8C4" d="M819 1236h1c.388 2.957.761 5.915 1.125 8.875l.34 2.55.293 2.442.285 2.254C822 1254 822 1254 820 1256c-1.51-6.455-2.316-12.364-2-19l1-1Z"/>
  <path fill="#C4C0BA" d="M104 622c4.778-.333 7.019.448 11 3 2.693.707 2.693.707 5 1v2h3l-1 2-2.195-.805-2.93-1.07-3.031-1.11a163.69 163.69 0 0 0-6.469-2.14C105 624 105 624 104 622Z"/>
  <path fill="#C0BCB4" d="m43 579 1 2a78.037 78.037 0 0 0 5 2l-2 1-2-1 1 5h-3c-3-5.75-3-5.75-3-8l3-1Z"/>
  <path fill="#CBC6C1" d="M361 525c1.771 6.087 1.573 12.882 0 19l-.563 2.813L360 549h-1c-.866-3.549-1.086-5.702-.063-9.25 1.163-4.103 1.182-7.486 1.036-11.71C360 526 360 526 361 525Z"/>
  <path fill="#B6AEA6" d="m332 1117 8 1 1 8-1-2h-3l-1-3-5-1 1-3Z"/>
  <path fill="#D2D0CC" d="M802 1083h2c.745 6.874 1.182 13.17 0 20h-1c-.363-3.145-.714-6.291-1.063-9.438l-.314-2.72-.283-2.588-.27-2.396L801 1084l1-1Z"/>
  <path fill="#80756B" d="m825 560 3 1-2 9-1-2h-2l-1 5c-1.044-3.133-.934-3.99 0-7h2l1-6Z"/>
  <path fill="#CECAC3" d="M845 525c1.769 3.538 1.25 6.998.313 10.75-1.674 2.869-3.185 3.345-6.313 4.25 1.599-5.196 3.741-10.066 6-15Z"/>
  <path fill="#B7AEA5" d="M854 492c1.647 4.042.242 6.778-1.313 10.688l-1.363 3.511C850 509 850 509 848 510c.448-5.283.99-8.544 4-13a122.751 122.751 0 0 0 2-5Z"/>
  <path fill="#9B9388" d="m99 418 1 2a131.579 131.579 0 0 1-3.313 8.063l-.974 2.26C93.259 435.87 93.259 435.87 91 437c.558-4.652 1.85-8.161 4-12.313l1.625-3.175C98 419 98 419 99 418Z"/>
  <path fill="#B7AFA7" d="M791 761h1c.249 2.269.473 4.54.688 6.813l.386 3.832C793 775 793 775 791.52 776.949L790 778a1890.33 1890.33 0 0 1-.063-7.938l-.025-2.287c-.009-1.925.036-3.85.088-5.775l1-1Z"/>
  <path fill="#93897F" d="m160 521 4 1 .332 1.723c.804 3.915 1.66 7.52 3.356 11.152C169 538 169 538 168 541c-8-15.429-8-15.429-8-20Z"/>
  <path fill="#A0998E" d="M60 517c1.56 4.4.038 6.84-1.875 10.871-1.18 2.234-2.465 4.22-4.125 6.129.48-5.646 1.827-12.827 6-17Z"/>
  <path fill="#BCB6AE" d="m160 412 1.938 2.438c1.468 1.837 1.468 1.837 3.062 3.562.087 1.635.107 3.273.098 4.91l-.01 2.998-.025 3.154-.014 3.167c-.012 2.59-.028 5.18-.049 7.771h-1v-20h-2c-1.257-2.906-2-4.796-2-8Z"/>
  <path fill="#CDCAC5" d="M195 384h1c.059 3.187.094 6.375.125 9.563l.05 2.712c.04 5.326-.42 9.689-2.175 14.725h-1a757.916 757.916 0 0 1-.063-4.938l-.035-2.777C193 401 193 401 194 400a225.9 225.9 0 0 0 .563-8.063l.13-2.298c.107-1.88.207-3.76.307-5.639Z"/>
  <path fill="#D8D4CF" d="M162 465h1c2.134 6.26 2.59 12.422 3 19-2.276-2.276-2.453-3.29-3.063-6.375-.686-3.404-.686-3.404-1.523-6.773-.501-2.242-.11-3.69.586-5.852Z"/>
  <path fill="#CDC8C3" d="M191 453c1.654 2.976 2.668 5.597 3 9-.936 3.097-1.704 4.704-4 7a995.39 995.39 0 0 1-.063-5.75l-.035-3.234c.083-2.55.352-4.595 1.098-7.016Z"/>
  <path fill="#C3BEB8" d="M215 474c.625 1.875.625 1.875 1 4l-2 2a128.624 128.624 0 0 0-1 6l-1 3-3 1c-.125-2.375-.125-2.375 0-5l2-2c.648-2.57.648-2.57 1-5h2l1-4Z"/>
  <path fill="#978C81" d="M167 465h2c1.313 9.273 1.313 9.273 0 14l-.563 2.813L168 484h-1v-19Z"/>
  <path fill="#EAE9E7" d="M803 271c4.828.439 8.797 2.758 13 5l-1 2c-9.595-2.89-9.595-2.89-13-6l1-1Z"/>
  <path fill="#BCB5AD" d="M244 1282c4.056.468 7.466.88 11 3h-3v2c-5.75-.875-5.75-.875-8-2v-3Z"/>
  <path fill="#B6B0A7" d="m825 501 2 1c.633 2.8.633 2.8 1.125 6.313l.508 3.488C829 515 829 515 829 519l-2 2-2-20Z"/>
  <path fill="#E4E1DD" d="m688 1332 2 1-1 2h4l1-3 3 1-2 2v1l-13 2v-3l6-1v-2Z"/>
  <path fill="#D3CFCB" d="m681 1336 1 2-14 2v-3c4.394-.857 8.526-1.09 13-1Z"/>
  <path fill="#9A938C" d="M202 1222h1c.249 2.604.475 5.206.688 7.813l.22 2.236c.166 2.158.166 2.158.092 5.951l-3 3 1-19Z"/>
  <path fill="#A69C93" d="M235 711c3.826 2.679 4.468 5.348 5.25 9.75.265 1.748.52 3.497.75 5.25l-2 1c-.672-2.103-1.337-4.207-2-6.313l-1.125-3.55C235 714 235 714 235 711Z"/>
  <path fill="#C0B9B3" d="M781 701h1c.224 2.04.428 4.082.625 6.125l.352 3.445c.024 3.595-.655 6.11-1.977 9.43h-1l1-19Z"/>
  <path fill="#CCC7C1" d="M359 597h1c.108 2.103.186 4.208.25 6.313l.14 3.55C360 610 360 610 357.985 611.918L356 613c1.29-10.868 1.29-10.868 3-16Z"/>
  <path fill="#5E554A" d="M823 568h2c-.592 4.854-1.864 8.642-4 13l-2 1c.99-4.836 1.957-9.476 4-14Z"/>
  <path fill="#A09A92" d="M292 1333c5.22-.18 9.073.03 14 2v1c-9.41.185-9.41.185-14-1v-2Z"/>
  <path fill="#C9C6BF" d="M276 1293c3.47.458 6.674.891 10 2l-1 3-9-2v-3Z"/>
  <path fill="#AAA299" d="M240 1284c5.281.515 8.572 2.255 13 5-4.024 1.341-6.076.471-10-1-1.938-2.125-1.938-2.125-3-4Z"/>
  <path fill="#BFB7B1" d="M308 1093h1v5l3 1c.688 2.063.688 2.063 1 4h-2v5c-1.93-3.86-3.125-6.261-3.063-10.625l.028-2.477L308 1093Z"/>
  <path fill="#D6CFC8" d="m806 609 2 2c-.033 2.729-.564 5.297-1 8h-3c.14-1.48.288-2.959.438-4.438.08-.823.162-1.647.246-2.496C805 610 805 610 806 609Z"/>
  <path fill="#CAC6C0" d="M162 532c1.524 2.973 2.9 5.98 4.188 9.063l1.105 2.597C168 546 168 546 167 549h-1v-5h-2c-1.591-4.177-2.213-7.532-2-12Z"/>
  <path fill="#BAB5AF" d="M177 534c3.153 3.153 5 6.512 5 11h-2l-1 2c-1.811-1.811-1.382-4.613-1.563-7.063l-.253-3.347L177 534Z"/>
  <path fill="#C3BDB5" d="M862 476h1c.319 15.312.319 15.312-2.563 19L859 496c.774-6.708 1.858-13.346 3-20Z"/>
  <path fill="#887E75" d="M176 448h2c1.591 4.177 2.213 7.532 2 12l-2 1-.184-1.828-.254-2.422c-.08-.789-.162-1.578-.246-2.39-.292-2.184-.737-4.237-1.316-6.36Z"/>
  <path fill="#F9F8F1" d="M925 409c3.43 3.756 4.564 8.235 6 13h-2a407.78 407.78 0 0 1-2.563-4.813l-1.44-2.707C924 412 924 412 925 409Z"/>
  <path fill="#72685C" d="M218 609h2l.438 3.375c.346 3.446.346 3.446 1.562 5.625l-2 2-2-2a88.982 88.982 0 0 0-4-2l1-3h2l1-4Z"/>
  <path fill="#958B80" d="M205 591h3c1.312 2.623.896 4.23.563 7.125l-.31 2.758L208 603c-2.234-4.033-2.545-7.45-3-12Z"/>
  <path fill="#BDB8AF" d="M829 549c0 3.221-.651 5.141-1.813 8.125l-1.019 2.695C825 562 825 562 822 563a931.95 931.95 0 0 1 1.375-4.25l.773-2.39c2.173-6.02 2.173-6.02 4.852-7.36Z"/>
  <path fill="#BFBAB3" d="M167 545c3.336 1.112 3.584 1.463 5.188 4.375l1.042 1.836C174 553 174 553 174 556l-4-1v-5h-2l-1-5Z"/>
  <path fill="#E1DDD7" d="m822 497 2 1c1.206 3.619 1.108 6.925 1.063 10.688l-.014 2.126c-.012 1.729-.03 3.458-.049 5.186h-1c-.338-2.229-.67-4.458-1-6.688l-.563-3.761c-.358-2.91-.526-5.628-.437-8.551Z"/>
  <path fill="#CDCAC6" d="M162 490c1.405 2.594 2.577 5.27 3.688 8l.824 2c.572 2.345.242 3.734-.512 6l-1-6h-2c-1.607-3.215-1.057-6.436-1-10Z"/>
  <path fill="#9D968D" d="M89 438h2c-.607 4.86-2.728 8.74-5 13-.93-2.551-1.086-3.74-.223-6.36l1.16-2.39 1.153-2.422L89 438Z"/>
  <path fill="#C8C1BC" d="m273 243 2 1c-1.125 2.5-1.125 2.5-3 5-3.188.313-3.188.313-6 0l-1-2c1.287-.697 2.58-1.382 3.875-2.063l2.18-1.16L273 243Z"/>
  <path fill="#FAF7F5" d="M563 194h13l-2 2h-4v2h-2v-2h-5v-2Z"/>
  <path fill="#ADA69F" d="M223 968h2c1.556 5.657.243 8.797-2 14h-1l1-14Z"/>
  <path fill="#ABA6A1" d="M56 633c4.827 1.413 8.716 3.43 13 6v2c-4.827-1.413-8.716-3.43-13-6v-2Z"/>
  <path fill="#C0BAB4" d="M186 580c2.539 2.208 3.418 3.7 4 7l.563 2.75L191 592l-2 1v-5h-2c-1.354-2.709-1.065-5.01-1-8Z"/>
  <path fill="#B5AEA4" d="M842 517c.883 2.467 1.131 3.639.223 6.14l-1.16 2.11-1.153 2.14L839 529h-2l-1 3c.875-5.75.875-5.75 2-8h2l2-7Z"/>
  <path fill="#B0AAA3" d="M353 209c1.813 2 1.813 2 3 4-4.82.235-8.463-.548-13-2v-1c3.39-.775 6.532-1.456 10-1Z"/>
  <path fill="#A9A39B" d="M320 1338c1.792-.027 3.583-.046 5.375-.063l3.023-.035C331 1338 331 1338 333 1339v2c-4.824.193-8.496-.243-13-2v-1Z"/>
  <path fill="#E3E0DE" d="M763 1317c-1 2-1 2-3.145 2.887l-2.668.8-2.644.825c-2.612.501-4.06.35-6.543-.512 5.181-2.687 9.06-4.276 15-4Z"/>
  <path fill="#E6E3E0" d="M806 1116h1l1 11-4 1a364.73 364.73 0 0 1-.125-4.875l-.07-2.742C804 1118 804 1118 806 1116Z"/>
  <path fill="#E4E3E1" d="m765 1060 2 2c-.242 2.383-.242 2.383-.875 5.125l-.617 2.758L765 1072l-3-2c.308-1.48.622-2.96.938-4.438l.527-2.496C764 1061 764 1061 765 1060Z"/>
  <path fill="#CCC9C5" d="M792 900h1c.932 6.26 1.21 11.022-1 17h-1c-.105-5.786.007-11.293 1-17Z"/>
  <path fill="#93897F" d="M245 745c1.5 1.063 1.5 1.063 3 3 .188 3.688.188 3.688 0 7l-3 1 .063-2.875c.163-3.032.163-3.032-1.063-5.125l1-3Z"/>
  <path fill="#C2BFAF" d="m818 679 10 2-1 2-10-1 1-3Z"/>
  <path fill="#605446" d="M221 640h1v15c-2.299-4.597-3.694-7.87-2.063-12.875L221 640Z"/>
  <path fill="#BEB8B1" d="m207 493 2 4-1.438 1.75c-1.51 2.176-2.102 3.676-2.562 6.25h-2c1.128-4.109 2.335-8.076 4-12Z"/>
  <path fill="#ACA49B" d="M234 1111c2.246 1.774 2.95 2.584 3.293 5.48l-.106 2.707-.082 2.731L237 1124c-3.383-4.047-3.66-6.82-4-12l1-1Z"/>
  <path fill="#FAF3E9" d="m985 561 2 1c.633 2.066.633 2.066 1.125 4.563l.508 2.503L989 571l-2 1a420.544 420.544 0 0 1-1.563-4.375l-.878-2.46C984 563 984 563 985 561Z"/>
  <path fill="#B5ADA6" d="M163 534c4.923 4.308 4.923 4.308 5.313 7.813L168 544h2l-1 2c-2.679-2.319-3.662-4.318-4.688-7.688-.25-.808-.502-1.616-.761-2.449L163 534Z"/>
  <path fill="#C3BEB9" d="M328 1299c1.647.114 3.292.241 4.938.375.916.07 1.833.14 2.777.21L338 1300l1 2c-1.458.027-2.917.046-4.375.063l-2.46.035C330 1302 330 1302 328 1301v-2Z"/>
  <path fill="#A0948A" d="M205 1192h1c.25 1.768.474 3.54.688 5.313l.386 2.988C207 1203 207 1203 204 1206l1-14Z"/>
  <path fill="#AA9E95" d="m226 934 2 3c-.875 2.688-.875 2.688-2 5h-2l-1 3c-.326-4.675.294-7.167 3-11Z"/>
  <path fill="#BBB5AC" d="M787 753h3v9l-2 1-.375-3.438L787 756l-2-1 2-2Z"/>
  <path fill="#CBC9BB" d="M841 682v2h-12c5.117-2.559 6.423-3.091 12-2Z"/>
  <path fill="#C0BBB5" d="M84 640v2l-2 1c-.652 2.025-.652 2.025-1 4l-3-1 1-1-2-1 1-3c3-1 3-1 6-1Z"/>
  <path fill="#B4ACA2" d="M813 598h1c1.057 5.285 1.057 5.285 1 8-1.938 2.5-1.938 2.5-4 4 .142-1.438.289-2.875.438-4.313.08-.8.162-1.6.246-2.425C812 601 812 601 813 598Z"/>
  <path fill="#5B5348" d="m810 592 3 1c.625 2.313.625 2.313 1 5l-2 3-2-1v-8Z"/>
  <path fill="#A8A09A" d="M76 470h2c.364 4.242-.46 6.582-3 10h-2l3-10Z"/>
  <path fill="#F4F4EB" d="m900 353 3 1c1.188 3.563 1.188 3.563 2 7l-2 1c-1.5-1.125-1.5-1.125-3-3-.188-3.188-.188-3.188 0-6Z"/>
  <path fill="#ADA59C" d="M253 1290c4.318.508 8.033 1.197 12 3l-1 2-2.125-.938c-2.964-1.095-5.752-1.626-8.875-2.062v-2Z"/>
  <path fill="#B5ADA5" d="M238 1119h2v3h2v3h-2l-1 3h-1v-9Z"/>
  <path fill="#989086" d="M224 976h2c.37 5.415.37 5.415-1.5 8.375L223 986c-1.467-3.815-.433-6.29 1-10Z"/>
  <path fill="#867A6E" d="m221 620 3 2c.363 2.313.363 2.313.313 5l-.012 2.688C224 632 224 632 222 634l-1-14Z"/>
  <path fill="#ADA79E" d="M28 603c.84 3.098 1.09 5.783 1 9h2l1 4c-3-1-3-1-5-4 .023-2.262.023-2.262.375-4.688l.336-2.449L28 603Z"/>
  <path fill="#251C11" d="M203 570h2c1.423 3.823 2.24 6.913 2 11-3.15-3.423-3.562-6.443-4-11Z"/>
  <path fill="#90877D" d="M826 557h5c-.7 3.147-1.76 6.026-3 9-1.001-3.004-1.514-5.877-2-9Z"/>
  <path fill="#A0978E" d="M49 547c.93 2.551 1.086 3.74.223 6.36l-1.16 2.39-1.153 2.422L46 560c-.93-2.551-1.086-3.74-.223-6.36l1.16-2.39 1.153-2.422L49 547Z"/>
  <path fill="#E2DFDA" d="M808 454c3.428 2.285 3.884 3.138 5 7a97.315 97.315 0 0 1 0 7c-2.12-3.534-2.532-6.944-3-11h-2v-3Z"/>
  <path fill="#F6F6EE" d="M945 454c2.19 3.285 2.998 6.207 4 10l-2 1c-3.077-5.292-3.077-5.292-2.688-8.875L945 454Z"/>
  <path fill="#9D978A" d="M104 405c.883 2.467 1.131 3.639.223 6.14l-1.16 2.11-1.153 2.14L101 417c-.883-2.467-1.131-3.639-.223-6.14l1.16-2.11 1.153-2.14.91-1.61Z"/>
  <path fill="#C4C0BA" d="M339 213c2.383.242 2.383.242 5.125.875l2.758.617L349 215v1l-3.313-.125c-3.776-.196-3.776-.196-6.687 2.125l-2-3 2-2Z"/>
  <path fill="#CEC9C4" d="M343 1308c-1.25 1.563-1.25 1.563-3 3-3.042-.285-4.39-1.26-7-3 3.283-1.642 6.425-.519 10 0Z"/>
  <path fill="#E6E5E1" d="M816 1234h4l-1 3a165.577 165.577 0 0 0-.563 5.688l-.253 3.011L818 1248c-2.28-3.42-2.22-4.682-2.125-8.688l.055-3.011.07-2.301Z"/>
  <path fill="#91887D" d="m251 778 3 1-2 5h2l-1 3c-1.563-1.125-1.563-1.125-3-3 .313-3.188.313-3.188 1-6Z"/>
  <path fill="#CAC6BF" d="M175 561c3 2 3 2 3.563 4.5L179 568l2 2-5-1c-1-5.75-1-5.75-1-8Z"/>
  <path fill="#FAF7F4" d="M976 536c2.566 3.85 2.551 6.435 3 11-2.756-2.037-3.033-3.158-3.75-6.625L975 537l1-1Z"/>
  <path fill="#7E7265" d="M181 516c2 1 2 1 3.125 3.25.88 2.766 1.04 4.87.875 7.75h-2c-1.802-3.83-2.196-6.781-2-11Z"/>
  <path fill="#9E9990" d="M66 499h2c-.45 1.46-.91 2.918-1.375 4.375l-.773 2.46C65 508 65 508 63 510c.468-4.056.88-7.466 3-11Z"/>
  <path fill="#F6F5F3" d="M938 441h2c1.563 2.813 1.563 2.813 3 6l-1 3c-2-1.125-2-1.125-4-3-.25-3.188-.25-3.188 0-6Z"/>
  <path fill="#D3D0CA" d="M404 223c4.073.384 7.466.88 11 3-1.361-.03-1.361-.03-2.75-.063-2.677.052-4.72.285-7.25 1.063l-2-3 1-1Z"/>
  <path fill="#B5AEA6" d="M279 1297c1.627.45 3.252.91 4.875 1.375l2.742.773C289 1300 289 1300 291 1302c-4.318-.508-8.033-1.197-12-3v-2Z"/>
  <path fill="#E1E0DB" d="M792 882c2.016 1.176 2.016 1.176 4 3 .172 2.48.172 2.48-.25 5.188l-.39 2.73c-.12.687-.238 1.374-.36 2.082h-1c-.339-1.415-.67-2.832-1-4.25l-.563-2.39C792 886 792 886 792 882Z"/>
  <path fill="#D4CECA" d="m871 678-1 2c-2.875.75-2.875.75-6 1l-3-2c6.286-2.429 6.286-2.429 10-1Z"/>
  <path fill="#716557" d="m213 663 2 1c.311 4.568-.101 6.5-3 10a757.916 757.916 0 0 1-.063-4.938l-.035-2.777C212 664 212 664 213 663Z"/>
  <path fill="#5C5246" d="M223 660h1v6l2 1c-5.75 2-5.75 2-8 2v-2l1.938-1.375c2.33-1.836 2.666-2.754 3.062-5.625Z"/>
  <path fill="#74695E" d="M190 538c2.438 1.188 2.438 1.188 5 3 .813 2.688.813 2.688 1 5h-3c-3-5.75-3-5.75-3-8Z"/>
  <path fill="#FAF8F7" d="M767 255c1.482.254 2.96.53 4.438.813l2.496.457L776 257l1 3c-3.949-.564-6.709-1.743-10-4v-1Z"/>
  <path fill="#F6F5F1" d="M757 250c3.558.61 6.683 1.578 10 3l-1 2-9-3v-2Z"/>
  <path fill="#ECEBE6" d="M727 235c3.487 1.11 6.775 2.263 10 4v2a259.725 259.725 0 0 1-4.438-1.313l-2.496-.738L728 238l-1-3Z"/>
  <path fill="#D0CEC9" d="m361 206 6 2-2 1v2h-6l2-5Z"/>
  <path fill="#E7E3E0" d="M813 1194h1c.38 2.326.713 4.66 1 7l-1 1a85.688 85.688 0 0 0-.563 4.563l-.253 2.503L813 1211h-1c-.185-11.522-.185-11.522 1-17Z"/>
  <path fill="#979178" d="M208 1170h3l-1 7h-3l1-7Z"/>
  <path fill="#D4CFCA" d="m186 675 8 1c-2 2-2 2-5.625 2.125L185 678l1-3Z"/>
  <path fill="#F1E9E4" d="M908 664c2.69.176 5.329.618 8 1-2.918 1.945-4.625 2.453-8 3l-1-3 1-1Z"/>
  <path fill="#C0BAB3" d="m154 517 3 1c.95 2.066.95 2.066 1.688 4.563.25.826.502 1.652.761 2.503L160 527c-2-1-2-1-3-4l-1.563-1.5C154 520 154 520 154 517Z"/>
  <path fill="#928A80" d="m118 373 3 1-1.375 2.25A89.434 89.434 0 0 0 116 383c-.688-1.625-.688-1.625-1-4 1.438-3.25 1.438-3.25 3-6Z"/>
  <path fill="#C6C2BC" d="m357 210 9 1v3l-9-2v-2Z"/>
  <path fill="#F9F9F8" d="M628.188 186.938 632 187c-3.006 3.006-5.824 2.596-10 3l-1-2c2.75-.917 4.36-1.109 7.188-1.063Z"/>
  <path fill="#B5ADA5" d="M292 1302h8v2l-7 2-1-4Z"/>
  <path fill="#A49B94" d="M213 1299c1.938.688 1.938.688 4 2 .75 2.625.75 2.625 1 5l-6-5 1-2Z"/>
  <path fill="#E6E3E0" d="m807 1151 3 1v8l-3-1v-8Z"/>
  <path fill="#E4E3E1" d="m778 990 3 1-1 7-3 1 1-9Z"/>
  <path fill="#7F776C" d="M240 728h2l1 8-3-1c-1.125-4.75-1.125-4.75 0-7Z"/>
  <path fill="#D8D6D1" d="M142 633c3.013.389 4.397 1.265 7 3v2l-9-3 2-2Z"/>
  <path fill="#9E978B" d="M34 590c1 2 1 2 .441 3.945l-.879 2.18-.87 2.195L32 600h-1c.75-7.75.75-7.75 3-10Z"/>
  <path fill="#938A80" d="M156 510c2.098 2.098 2.65 3.38 3.625 6.125.39 1.087.39 1.087.79 2.195L161 520l-2 1c-2.706-3.833-3.326-6.325-3-11Z"/>
  <path fill="#9B9489" d="M152 504c2 1.125 2 1.125 4 3 .25 3.188.25 3.188 0 6-2.523-1.974-2.993-2.967-3.688-6.188L152 504Z"/>
  <path fill="#F5F4F1" d="m948 465 3 1 1 7c-3-2-3-2-3.688-5.125L948 465Z"/>
  <path fill="#A59C94" d="M126 351h3c-1.25 3.46-2.675 6.147-5 9 .875-6.75.875-6.75 2-9Z"/>
  <path fill="#CFCBC8" d="m723 1329-1 2c-3.231.862-5.225 1.306-8.375.063L712 1330c3.734-.879 7.168-1.09 11-1Z"/>
  <path fill="#E4E0DB" d="M823 1264h1v9h-3c-.25-5.625-.25-5.625 2-9Z"/>
  <path fill="#A59C93" d="m200 1247 2 1-2 6h-3c.375-2.938.375-2.938 1-6l2-1Z"/>
  <path fill="#E1DFDB" d="m794 963 2 1-1 7-2-1c-.043-2-.04-4 0-6l1-1Z"/>
  <path fill="#877F72" d="m233 704 3 3c-.202 2.849-1.144 5.251-2 8h-1v-11Z"/>
  <path fill="#C4BEB9" d="m97 648 2 4-7-1v-2l5-1Z"/>
  <path fill="#6A6255" d="M815 588c1.534 3.069.55 5.7 0 9l-1-3-2-1c.375-1.938.375-1.938 1-4l2-1Z"/>
  <path fill="#BDB8B1" d="M192 566c1.563 1.25 1.563 1.25 3 3-.188 2.125-.188 2.125-1 4l-2 1a176.79 176.79 0 0 1-1-7l1-1Z"/>
  <path fill="#928980" d="m840 533 1 3c-1.313 2.188-1.313 2.188-3 4h-2v-5h3l1-2Z"/>
  <path fill="#F9F7F5" d="M488 196c1.525.09 3.047.245 4.563.438l2.503.308L497 197l-1 2c-3.375.125-3.375.125-7 0l-2-2 1-1Z"/>
  <path fill="#CBC6C2" d="m344 1320-1 4-3-1v-2l-2-1c3.75-1.125 3.75-1.125 6 0Z"/>
  <path fill="#7D756C" d="m798 659 2 1c.73 2.314 1.401 4.648 2 7l-4-1v-7Z"/>
  <path fill="#C2B8B1" d="M115 659c3.688.498 5.605 1.1 8 4-2 1-2 1-4.563.25C116 662 116 662 115 659Z"/>
  <path fill="#8D8379" d="M226 645c1.643 2.957 2.644 5.62 3 9l-2 2c-.361-1.644-.714-3.29-1.063-4.938l-.597-2.777L225 646l1-1Z"/>
  <path fill="#3B3124" d="m215 605 3 2c.188 3.625.188 3.625 0 7l-2-1c-.594-2.649-.742-5.292-1-8Z"/>
  <path fill="#CBC5BF" d="m832 554 3 6-6 3 3-9Z"/>
  <path fill="#B1A9A0" d="m197 540 2 4-3 4-1-7 2-1Z"/>
  <path fill="#6E6355" d="M175 510h3v7c-1.5-1.25-1.5-1.25-3-3v-4Z"/>
  <path fill="#A3938A" d="M146 314c1 3 1 3-.438 6.188L144 323h-1l1-7h2v-2Z"/>
  <path fill="#F4F4F2" d="M858 299c2.438.813 2.438.813 5 2l1 3-6-2v-3Z"/>
  <path fill="#CDC8C4" d="M394 221h5l-1 4-5 1 2-3-1-2Z"/>
</svg>